ISO-10303-21;
HEADER;
/* Generated by software containing ST-Developer
 * from STEP Tools, Inc. (www.steptools.com) 
 */

FILE_DESCRIPTION(
/* description */ (''),
/* implementation_level */ '2;1');

FILE_NAME(
/* name */ 'ribs3_t6.step',
/* time_stamp */ '2026-09-28T16:24:29+01:00',
/* author */ (''),
/* organization */ (''),
/* preprocessor_version */ 'ST-DEVELOPER v20.2',
/* originating_system */ 'Autodesk Translation Framework v15.15.0.0',
/* authorisation */ '');

FILE_SCHEMA (('AUTOMOTIVE_DESIGN { 1 0 10303 214 3 1 1 }'));
ENDSEC;

DATA;
#10=MECHANICAL_DESIGN_GEOMETRIC_PRESENTATION_REPRESENTATION('',(#13),#1193);
#11=SHAPE_REPRESENTATION_RELATIONSHIP('SRR','None',#1200,#12);
#12=ADVANCED_BREP_SHAPE_REPRESENTATION('',(#14),#1192);
#13=STYLED_ITEM('',(#1209),#14);
#14=MANIFOLD_SOLID_BREP('Body2',#689);
#15=LINE('',#1001,#71);
#16=LINE('',#1004,#72);
#17=LINE('',#1014,#73);
#18=LINE('',#1017,#74);
#19=LINE('',#1027,#75);
#20=LINE('',#1030,#76);
#21=LINE('',#1036,#77);
#22=LINE('',#1043,#78);
#23=LINE('',#1046,#79);
#24=LINE('',#1049,#80);
#25=LINE('',#1051,#81);
#26=LINE('',#1052,#82);
#27=LINE('',#1055,#83);
#28=LINE('',#1057,#84);
#29=LINE('',#1058,#85);
#30=LINE('',#1066,#86);
#31=LINE('',#1069,#87);
#32=LINE('',#1072,#88);
#33=LINE('',#1074,#89);
#34=LINE('',#1075,#90);
#35=LINE('',#1078,#91);
#36=LINE('',#1080,#92);
#37=LINE('',#1081,#93);
#38=LINE('',#1088,#94);
#39=LINE('',#1092,#95);
#40=LINE('',#1097,#96);
#41=LINE('',#1101,#97);
#42=LINE('',#1106,#98);
#43=LINE('',#1110,#99);
#44=LINE('',#1114,#100);
#45=LINE('',#1118,#101);
#46=LINE('',#1122,#102);
#47=LINE('',#1129,#103);
#48=LINE('',#1132,#104);
#49=LINE('',#1134,#105);
#50=LINE('',#1135,#106);
#51=LINE('',#1137,#107);
#52=LINE('',#1138,#108);
#53=LINE('',#1143,#109);
#54=LINE('',#1144,#110);
#55=LINE('',#1145,#111);
#56=LINE('',#1149,#112);
#57=LINE('',#1150,#113);
#58=LINE('',#1151,#114);
#59=LINE('',#1155,#115);
#60=LINE('',#1156,#116);
#61=LINE('',#1157,#117);
#62=LINE('',#1161,#118);
#63=LINE('',#1162,#119);
#64=LINE('',#1163,#120);
#65=LINE('',#1171,#121);
#66=LINE('',#1175,#122);
#67=LINE('',#1177,#123);
#68=LINE('',#1181,#124);
#69=LINE('',#1182,#125);
#70=LINE('',#1183,#126);
#71=VECTOR('',#792,5.);
#72=VECTOR('',#795,3.75);
#73=VECTOR('',#808,5.);
#74=VECTOR('',#811,3.75);
#75=VECTOR('',#824,5.);
#76=VECTOR('',#827,3.75);
#77=VECTOR('',#834,9.);
#78=VECTOR('',#841,10.);
#79=VECTOR('',#844,10.);
#80=VECTOR('',#847,10.);
#81=VECTOR('',#848,10.);
#82=VECTOR('',#849,10.);
#83=VECTOR('',#852,10.);
#84=VECTOR('',#853,10.);
#85=VECTOR('',#854,10.);
#86=VECTOR('',#863,10.);
#87=VECTOR('',#866,10.);
#88=VECTOR('',#869,10.);
#89=VECTOR('',#870,10.);
#90=VECTOR('',#871,10.);
#91=VECTOR('',#874,10.);
#92=VECTOR('',#875,10.);
#93=VECTOR('',#876,10.);
#94=VECTOR('',#885,10.);
#95=VECTOR('',#888,10.);
#96=VECTOR('',#893,10.);
#97=VECTOR('',#896,31.);
#98=VECTOR('',#901,10.);
#99=VECTOR('',#904,10.);
#100=VECTOR('',#907,10.);
#101=VECTOR('',#910,10.);
#102=VECTOR('',#913,10.);
#103=VECTOR('',#920,10.);
#104=VECTOR('',#923,10.);
#105=VECTOR('',#926,10.);
#106=VECTOR('',#927,10.);
#107=VECTOR('',#930,10.);
#108=VECTOR('',#931,10.);
#109=VECTOR('',#936,10.);
#110=VECTOR('',#937,10.);
#111=VECTOR('',#938,10.);
#112=VECTOR('',#941,10.);
#113=VECTOR('',#942,10.);
#114=VECTOR('',#943,10.);
#115=VECTOR('',#946,10.);
#116=VECTOR('',#947,10.);
#117=VECTOR('',#948,10.);
#118=VECTOR('',#951,10.);
#119=VECTOR('',#952,10.);
#120=VECTOR('',#953,10.);
#121=VECTOR('',#964,10.);
#122=VECTOR('',#971,10.);
#123=VECTOR('',#974,10.);
#124=VECTOR('',#977,10.);
#125=VECTOR('',#978,10.);
#126=VECTOR('',#979,10.);
#127=CYLINDRICAL_SURFACE('',#706,5.);
#128=CYLINDRICAL_SURFACE('',#708,3.75);
#129=CYLINDRICAL_SURFACE('',#713,5.);
#130=CYLINDRICAL_SURFACE('',#715,3.75);
#131=CYLINDRICAL_SURFACE('',#720,5.);
#132=CYLINDRICAL_SURFACE('',#722,3.75);
#133=CYLINDRICAL_SURFACE('',#724,9.);
#134=CYLINDRICAL_SURFACE('',#727,13.);
#135=CYLINDRICAL_SURFACE('',#734,13.);
#136=CYLINDRICAL_SURFACE('',#741,31.);
#137=CYLINDRICAL_SURFACE('',#754,13.);
#138=CYLINDRICAL_SURFACE('',#764,13.);
#139=CYLINDRICAL_SURFACE('',#767,13.);
#140=CYLINDRICAL_SURFACE('',#774,13.);
#141=FACE_BOUND('',#190,.T.);
#142=FACE_BOUND('',#194,.T.);
#143=FACE_BOUND('',#198,.T.);
#144=FACE_BOUND('',#222,.T.);
#145=FACE_BOUND('',#224,.T.);
#146=FACE_BOUND('',#229,.T.);
#147=FACE_BOUND('',#231,.T.);
#148=FACE_BOUND('',#233,.T.);
#149=FACE_BOUND('',#234,.T.);
#150=FACE_BOUND('',#235,.T.);
#151=FACE_BOUND('',#236,.T.);
#152=FACE_OUTER_BOUND('',#189,.T.);
#153=FACE_OUTER_BOUND('',#191,.T.);
#154=FACE_OUTER_BOUND('',#192,.T.);
#155=FACE_OUTER_BOUND('',#193,.T.);
#156=FACE_OUTER_BOUND('',#195,.T.);
#157=FACE_OUTER_BOUND('',#196,.T.);
#158=FACE_OUTER_BOUND('',#197,.T.);
#159=FACE_OUTER_BOUND('',#199,.T.);
#160=FACE_OUTER_BOUND('',#200,.T.);
#161=FACE_OUTER_BOUND('',#201,.T.);
#162=FACE_OUTER_BOUND('',#202,.T.);
#163=FACE_OUTER_BOUND('',#203,.T.);
#164=FACE_OUTER_BOUND('',#204,.T.);
#165=FACE_OUTER_BOUND('',#205,.T.);
#166=FACE_OUTER_BOUND('',#206,.T.);
#167=FACE_OUTER_BOUND('',#207,.T.);
#168=FACE_OUTER_BOUND('',#208,.T.);
#169=FACE_OUTER_BOUND('',#209,.T.);
#170=FACE_OUTER_BOUND('',#210,.T.);
#171=FACE_OUTER_BOUND('',#211,.T.);
#172=FACE_OUTER_BOUND('',#212,.T.);
#173=FACE_OUTER_BOUND('',#213,.T.);
#174=FACE_OUTER_BOUND('',#214,.T.);
#175=FACE_OUTER_BOUND('',#215,.T.);
#176=FACE_OUTER_BOUND('',#216,.T.);
#177=FACE_OUTER_BOUND('',#217,.T.);
#178=FACE_OUTER_BOUND('',#218,.T.);
#179=FACE_OUTER_BOUND('',#219,.T.);
#180=FACE_OUTER_BOUND('',#220,.T.);
#181=FACE_OUTER_BOUND('',#221,.T.);
#182=FACE_OUTER_BOUND('',#223,.T.);
#183=FACE_OUTER_BOUND('',#225,.T.);
#184=FACE_OUTER_BOUND('',#226,.T.);
#185=FACE_OUTER_BOUND('',#227,.T.);
#186=FACE_OUTER_BOUND('',#228,.T.);
#187=FACE_OUTER_BOUND('',#230,.T.);
#188=FACE_OUTER_BOUND('',#232,.T.);
#189=EDGE_LOOP('',(#437));
#190=EDGE_LOOP('',(#438));
#191=EDGE_LOOP('',(#439,#440,#441,#442));
#192=EDGE_LOOP('',(#443,#444,#445,#446));
#193=EDGE_LOOP('',(#447));
#194=EDGE_LOOP('',(#448));
#195=EDGE_LOOP('',(#449,#450,#451,#452));
#196=EDGE_LOOP('',(#453,#454,#455,#456));
#197=EDGE_LOOP('',(#457));
#198=EDGE_LOOP('',(#458));
#199=EDGE_LOOP('',(#459,#460,#461,#462));
#200=EDGE_LOOP('',(#463,#464,#465,#466));
#201=EDGE_LOOP('',(#467,#468,#469,#470));
#202=EDGE_LOOP('',(#471,#472,#473,#474));
#203=EDGE_LOOP('',(#475,#476,#477,#478));
#204=EDGE_LOOP('',(#479,#480,#481,#482));
#205=EDGE_LOOP('',(#483,#484,#485,#486));
#206=EDGE_LOOP('',(#487,#488,#489,#490));
#207=EDGE_LOOP('',(#491,#492,#493,#494));
#208=EDGE_LOOP('',(#495,#496,#497,#498));
#209=EDGE_LOOP('',(#499,#500,#501,#502));
#210=EDGE_LOOP('',(#503,#504,#505,#506,#507,#508,#509,#510,#511,#512,#513,
#514,#515,#516,#517,#518,#519,#520,#521,#522,#523,#524,#525,#526,#527,#528,
#529,#530));
#211=EDGE_LOOP('',(#531,#532,#533,#534));
#212=EDGE_LOOP('',(#535,#536,#537,#538));
#213=EDGE_LOOP('',(#539,#540,#541,#542));
#214=EDGE_LOOP('',(#543,#544,#545,#546));
#215=EDGE_LOOP('',(#547,#548,#549,#550));
#216=EDGE_LOOP('',(#551,#552,#553,#554));
#217=EDGE_LOOP('',(#555,#556,#557,#558));
#218=EDGE_LOOP('',(#559,#560,#561,#562));
#219=EDGE_LOOP('',(#563,#564,#565,#566));
#220=EDGE_LOOP('',(#567,#568,#569,#570));
#221=EDGE_LOOP('',(#571,#572,#573,#574));
#222=EDGE_LOOP('',(#575));
#223=EDGE_LOOP('',(#576,#577,#578,#579,#580));
#224=EDGE_LOOP('',(#581));
#225=EDGE_LOOP('',(#582,#583,#584,#585));
#226=EDGE_LOOP('',(#586,#587,#588,#589));
#227=EDGE_LOOP('',(#590,#591,#592,#593));
#228=EDGE_LOOP('',(#594,#595,#596,#597,#598,#599,#600,#601,#602,#603,#604,
#605,#606,#607,#608,#609,#610,#611,#612,#613,#614,#615,#616,#617));
#229=EDGE_LOOP('',(#618));
#230=EDGE_LOOP('',(#619,#620,#621,#622));
#231=EDGE_LOOP('',(#623));
#232=EDGE_LOOP('',(#624));
#233=EDGE_LOOP('',(#625));
#234=EDGE_LOOP('',(#626));
#235=EDGE_LOOP('',(#627));
#236=EDGE_LOOP('',(#628));
#237=CIRCLE('',#704,5.);
#238=CIRCLE('',#705,3.75);
#239=CIRCLE('',#707,5.);
#240=CIRCLE('',#709,3.75);
#241=CIRCLE('',#711,5.);
#242=CIRCLE('',#712,3.75);
#243=CIRCLE('',#714,5.);
#244=CIRCLE('',#716,3.75);
#245=CIRCLE('',#718,5.);
#246=CIRCLE('',#719,3.75);
#247=CIRCLE('',#721,5.);
#248=CIRCLE('',#723,3.75);
#249=CIRCLE('',#725,9.);
#250=CIRCLE('',#726,9.);
#251=CIRCLE('',#728,13.);
#252=CIRCLE('',#729,13.);
#253=CIRCLE('',#733,31.);
#254=CIRCLE('',#735,13.);
#255=CIRCLE('',#736,13.);
#256=CIRCLE('',#740,31.);
#257=CIRCLE('',#742,31.);
#258=CIRCLE('',#743,31.);
#259=CIRCLE('',#744,31.);
#260=CIRCLE('',#745,31.);
#261=CIRCLE('',#746,31.);
#262=CIRCLE('',#747,31.);
#263=CIRCLE('',#748,31.);
#264=CIRCLE('',#749,31.);
#265=CIRCLE('',#750,31.);
#266=CIRCLE('',#751,31.);
#267=CIRCLE('',#752,31.);
#268=CIRCLE('',#753,31.);
#269=CIRCLE('',#755,13.);
#270=CIRCLE('',#756,13.);
#271=CIRCLE('',#765,13.);
#272=CIRCLE('',#766,13.);
#273=CIRCLE('',#768,13.);
#274=CIRCLE('',#769,13.);
#275=CIRCLE('',#775,13.);
#276=CIRCLE('',#776,13.);
#277=VERTEX_POINT('',#994);
#278=VERTEX_POINT('',#996);
#279=VERTEX_POINT('',#999);
#280=VERTEX_POINT('',#1003);
#281=VERTEX_POINT('',#1007);
#282=VERTEX_POINT('',#1009);
#283=VERTEX_POINT('',#1012);
#284=VERTEX_POINT('',#1016);
#285=VERTEX_POINT('',#1020);
#286=VERTEX_POINT('',#1022);
#287=VERTEX_POINT('',#1025);
#288=VERTEX_POINT('',#1029);
#289=VERTEX_POINT('',#1033);
#290=VERTEX_POINT('',#1035);
#291=VERTEX_POINT('',#1039);
#292=VERTEX_POINT('',#1040);
#293=VERTEX_POINT('',#1042);
#294=VERTEX_POINT('',#1044);
#295=VERTEX_POINT('',#1048);
#296=VERTEX_POINT('',#1050);
#297=VERTEX_POINT('',#1054);
#298=VERTEX_POINT('',#1056);
#299=VERTEX_POINT('',#1062);
#300=VERTEX_POINT('',#1063);
#301=VERTEX_POINT('',#1065);
#302=VERTEX_POINT('',#1067);
#303=VERTEX_POINT('',#1071);
#304=VERTEX_POINT('',#1073);
#305=VERTEX_POINT('',#1077);
#306=VERTEX_POINT('',#1079);
#307=VERTEX_POINT('',#1085);
#308=VERTEX_POINT('',#1087);
#309=VERTEX_POINT('',#1089);
#310=VERTEX_POINT('',#1091);
#311=VERTEX_POINT('',#1094);
#312=VERTEX_POINT('',#1096);
#313=VERTEX_POINT('',#1098);
#314=VERTEX_POINT('',#1100);
#315=VERTEX_POINT('',#1103);
#316=VERTEX_POINT('',#1105);
#317=VERTEX_POINT('',#1107);
#318=VERTEX_POINT('',#1109);
#319=VERTEX_POINT('',#1111);
#320=VERTEX_POINT('',#1113);
#321=VERTEX_POINT('',#1115);
#322=VERTEX_POINT('',#1117);
#323=VERTEX_POINT('',#1119);
#324=VERTEX_POINT('',#1121);
#325=VERTEX_POINT('',#1125);
#326=VERTEX_POINT('',#1126);
#327=VERTEX_POINT('',#1128);
#328=VERTEX_POINT('',#1130);
#329=VERTEX_POINT('',#1141);
#330=VERTEX_POINT('',#1142);
#331=VERTEX_POINT('',#1147);
#332=VERTEX_POINT('',#1148);
#333=VERTEX_POINT('',#1153);
#334=VERTEX_POINT('',#1154);
#335=VERTEX_POINT('',#1159);
#336=VERTEX_POINT('',#1160);
#337=VERTEX_POINT('',#1168);
#338=VERTEX_POINT('',#1170);
#339=VERTEX_POINT('',#1179);
#340=VERTEX_POINT('',#1180);
#341=EDGE_CURVE('',#277,#277,#237,.T.);
#342=EDGE_CURVE('',#278,#278,#238,.T.);
#343=EDGE_CURVE('',#279,#279,#239,.T.);
#344=EDGE_CURVE('',#279,#277,#15,.T.);
#345=EDGE_CURVE('',#278,#280,#16,.T.);
#346=EDGE_CURVE('',#280,#280,#240,.T.);
#347=EDGE_CURVE('',#281,#281,#241,.T.);
#348=EDGE_CURVE('',#282,#282,#242,.T.);
#349=EDGE_CURVE('',#283,#283,#243,.T.);
#350=EDGE_CURVE('',#283,#281,#17,.T.);
#351=EDGE_CURVE('',#282,#284,#18,.T.);
#352=EDGE_CURVE('',#284,#284,#244,.T.);
#353=EDGE_CURVE('',#285,#285,#245,.T.);
#354=EDGE_CURVE('',#286,#286,#246,.T.);
#355=EDGE_CURVE('',#287,#287,#247,.T.);
#356=EDGE_CURVE('',#287,#285,#19,.T.);
#357=EDGE_CURVE('',#286,#288,#20,.T.);
#358=EDGE_CURVE('',#288,#288,#248,.T.);
#359=EDGE_CURVE('',#289,#289,#249,.T.);
#360=EDGE_CURVE('',#289,#290,#21,.T.);
#361=EDGE_CURVE('',#290,#290,#250,.T.);
#362=EDGE_CURVE('',#291,#292,#251,.T.);
#363=EDGE_CURVE('',#291,#293,#22,.T.);
#364=EDGE_CURVE('',#293,#294,#252,.T.);
#365=EDGE_CURVE('',#292,#294,#23,.T.);
#366=EDGE_CURVE('',#295,#291,#24,.T.);
#367=EDGE_CURVE('',#296,#295,#25,.T.);
#368=EDGE_CURVE('',#296,#293,#26,.T.);
#369=EDGE_CURVE('',#292,#297,#27,.T.);
#370=EDGE_CURVE('',#294,#298,#28,.T.);
#371=EDGE_CURVE('',#297,#298,#29,.T.);
#372=EDGE_CURVE('',#298,#296,#253,.T.);
#373=EDGE_CURVE('',#299,#300,#254,.T.);
#374=EDGE_CURVE('',#299,#301,#30,.T.);
#375=EDGE_CURVE('',#301,#302,#255,.T.);
#376=EDGE_CURVE('',#300,#302,#31,.T.);
#377=EDGE_CURVE('',#303,#299,#32,.T.);
#378=EDGE_CURVE('',#304,#303,#33,.T.);
#379=EDGE_CURVE('',#304,#301,#34,.T.);
#380=EDGE_CURVE('',#300,#305,#35,.T.);
#381=EDGE_CURVE('',#302,#306,#36,.T.);
#382=EDGE_CURVE('',#305,#306,#37,.T.);
#383=EDGE_CURVE('',#306,#304,#256,.T.);
#384=EDGE_CURVE('',#307,#295,#257,.T.);
#385=EDGE_CURVE('',#308,#307,#38,.T.);
#386=EDGE_CURVE('',#309,#308,#258,.T.);
#387=EDGE_CURVE('',#309,#310,#39,.T.);
#388=EDGE_CURVE('',#305,#310,#259,.T.);
#389=EDGE_CURVE('',#311,#303,#260,.T.);
#390=EDGE_CURVE('',#312,#311,#40,.T.);
#391=EDGE_CURVE('',#313,#312,#261,.T.);
#392=EDGE_CURVE('',#313,#314,#41,.T.);
#393=EDGE_CURVE('',#314,#314,#262,.T.);
#394=EDGE_CURVE('',#315,#313,#263,.T.);
#395=EDGE_CURVE('',#315,#316,#42,.T.);
#396=EDGE_CURVE('',#317,#316,#264,.T.);
#397=EDGE_CURVE('',#317,#318,#43,.T.);
#398=EDGE_CURVE('',#318,#319,#265,.T.);
#399=EDGE_CURVE('',#319,#320,#44,.T.);
#400=EDGE_CURVE('',#321,#320,#266,.T.);
#401=EDGE_CURVE('',#322,#321,#45,.T.);
#402=EDGE_CURVE('',#323,#322,#267,.T.);
#403=EDGE_CURVE('',#323,#324,#46,.T.);
#404=EDGE_CURVE('',#297,#324,#268,.T.);
#405=EDGE_CURVE('',#325,#326,#269,.T.);
#406=EDGE_CURVE('',#325,#327,#47,.T.);
#407=EDGE_CURVE('',#327,#328,#270,.T.);
#408=EDGE_CURVE('',#326,#328,#48,.T.);
#409=EDGE_CURVE('',#320,#325,#49,.T.);
#410=EDGE_CURVE('',#319,#327,#50,.T.);
#411=EDGE_CURVE('',#326,#317,#51,.T.);
#412=EDGE_CURVE('',#328,#318,#52,.T.);
#413=EDGE_CURVE('',#329,#330,#53,.T.);
#414=EDGE_CURVE('',#324,#329,#54,.T.);
#415=EDGE_CURVE('',#330,#323,#55,.T.);
#416=EDGE_CURVE('',#331,#332,#56,.T.);
#417=EDGE_CURVE('',#312,#331,#57,.T.);
#418=EDGE_CURVE('',#332,#311,#58,.T.);
#419=EDGE_CURVE('',#333,#334,#59,.T.);
#420=EDGE_CURVE('',#308,#333,#60,.T.);
#421=EDGE_CURVE('',#334,#307,#61,.T.);
#422=EDGE_CURVE('',#335,#336,#62,.T.);
#423=EDGE_CURVE('',#310,#335,#63,.T.);
#424=EDGE_CURVE('',#336,#309,#64,.T.);
#425=EDGE_CURVE('',#335,#334,#271,.T.);
#426=EDGE_CURVE('',#333,#336,#272,.T.);
#427=EDGE_CURVE('',#337,#332,#273,.T.);
#428=EDGE_CURVE('',#337,#338,#65,.T.);
#429=EDGE_CURVE('',#331,#338,#274,.T.);
#430=EDGE_CURVE('',#338,#315,#66,.T.);
#431=EDGE_CURVE('',#316,#337,#67,.T.);
#432=EDGE_CURVE('',#339,#340,#68,.T.);
#433=EDGE_CURVE('',#322,#339,#69,.T.);
#434=EDGE_CURVE('',#340,#321,#70,.T.);
#435=EDGE_CURVE('',#339,#330,#275,.T.);
#436=EDGE_CURVE('',#329,#340,#276,.T.);
#437=ORIENTED_EDGE('',*,*,#341,.F.);
#438=ORIENTED_EDGE('',*,*,#342,.T.);
#439=ORIENTED_EDGE('',*,*,#343,.F.);
#440=ORIENTED_EDGE('',*,*,#344,.T.);
#441=ORIENTED_EDGE('',*,*,#341,.T.);
#442=ORIENTED_EDGE('',*,*,#344,.F.);
#443=ORIENTED_EDGE('',*,*,#342,.F.);
#444=ORIENTED_EDGE('',*,*,#345,.T.);
#445=ORIENTED_EDGE('',*,*,#346,.F.);
#446=ORIENTED_EDGE('',*,*,#345,.F.);
#447=ORIENTED_EDGE('',*,*,#347,.F.);
#448=ORIENTED_EDGE('',*,*,#348,.T.);
#449=ORIENTED_EDGE('',*,*,#349,.F.);
#450=ORIENTED_EDGE('',*,*,#350,.T.);
#451=ORIENTED_EDGE('',*,*,#347,.T.);
#452=ORIENTED_EDGE('',*,*,#350,.F.);
#453=ORIENTED_EDGE('',*,*,#348,.F.);
#454=ORIENTED_EDGE('',*,*,#351,.T.);
#455=ORIENTED_EDGE('',*,*,#352,.F.);
#456=ORIENTED_EDGE('',*,*,#351,.F.);
#457=ORIENTED_EDGE('',*,*,#353,.F.);
#458=ORIENTED_EDGE('',*,*,#354,.T.);
#459=ORIENTED_EDGE('',*,*,#355,.F.);
#460=ORIENTED_EDGE('',*,*,#356,.T.);
#461=ORIENTED_EDGE('',*,*,#353,.T.);
#462=ORIENTED_EDGE('',*,*,#356,.F.);
#463=ORIENTED_EDGE('',*,*,#354,.F.);
#464=ORIENTED_EDGE('',*,*,#357,.T.);
#465=ORIENTED_EDGE('',*,*,#358,.F.);
#466=ORIENTED_EDGE('',*,*,#357,.F.);
#467=ORIENTED_EDGE('',*,*,#359,.F.);
#468=ORIENTED_EDGE('',*,*,#360,.T.);
#469=ORIENTED_EDGE('',*,*,#361,.F.);
#470=ORIENTED_EDGE('',*,*,#360,.F.);
#471=ORIENTED_EDGE('',*,*,#362,.F.);
#472=ORIENTED_EDGE('',*,*,#363,.T.);
#473=ORIENTED_EDGE('',*,*,#364,.T.);
#474=ORIENTED_EDGE('',*,*,#365,.F.);
#475=ORIENTED_EDGE('',*,*,#366,.F.);
#476=ORIENTED_EDGE('',*,*,#367,.F.);
#477=ORIENTED_EDGE('',*,*,#368,.T.);
#478=ORIENTED_EDGE('',*,*,#363,.F.);
#479=ORIENTED_EDGE('',*,*,#369,.F.);
#480=ORIENTED_EDGE('',*,*,#365,.T.);
#481=ORIENTED_EDGE('',*,*,#370,.T.);
#482=ORIENTED_EDGE('',*,*,#371,.F.);
#483=ORIENTED_EDGE('',*,*,#370,.F.);
#484=ORIENTED_EDGE('',*,*,#364,.F.);
#485=ORIENTED_EDGE('',*,*,#368,.F.);
#486=ORIENTED_EDGE('',*,*,#372,.F.);
#487=ORIENTED_EDGE('',*,*,#373,.F.);
#488=ORIENTED_EDGE('',*,*,#374,.T.);
#489=ORIENTED_EDGE('',*,*,#375,.T.);
#490=ORIENTED_EDGE('',*,*,#376,.F.);
#491=ORIENTED_EDGE('',*,*,#377,.F.);
#492=ORIENTED_EDGE('',*,*,#378,.F.);
#493=ORIENTED_EDGE('',*,*,#379,.T.);
#494=ORIENTED_EDGE('',*,*,#374,.F.);
#495=ORIENTED_EDGE('',*,*,#380,.F.);
#496=ORIENTED_EDGE('',*,*,#376,.T.);
#497=ORIENTED_EDGE('',*,*,#381,.T.);
#498=ORIENTED_EDGE('',*,*,#382,.F.);
#499=ORIENTED_EDGE('',*,*,#381,.F.);
#500=ORIENTED_EDGE('',*,*,#375,.F.);
#501=ORIENTED_EDGE('',*,*,#379,.F.);
#502=ORIENTED_EDGE('',*,*,#383,.F.);
#503=ORIENTED_EDGE('',*,*,#371,.T.);
#504=ORIENTED_EDGE('',*,*,#372,.T.);
#505=ORIENTED_EDGE('',*,*,#367,.T.);
#506=ORIENTED_EDGE('',*,*,#384,.F.);
#507=ORIENTED_EDGE('',*,*,#385,.F.);
#508=ORIENTED_EDGE('',*,*,#386,.F.);
#509=ORIENTED_EDGE('',*,*,#387,.T.);
#510=ORIENTED_EDGE('',*,*,#388,.F.);
#511=ORIENTED_EDGE('',*,*,#382,.T.);
#512=ORIENTED_EDGE('',*,*,#383,.T.);
#513=ORIENTED_EDGE('',*,*,#378,.T.);
#514=ORIENTED_EDGE('',*,*,#389,.F.);
#515=ORIENTED_EDGE('',*,*,#390,.F.);
#516=ORIENTED_EDGE('',*,*,#391,.F.);
#517=ORIENTED_EDGE('',*,*,#392,.T.);
#518=ORIENTED_EDGE('',*,*,#393,.T.);
#519=ORIENTED_EDGE('',*,*,#392,.F.);
#520=ORIENTED_EDGE('',*,*,#394,.F.);
#521=ORIENTED_EDGE('',*,*,#395,.T.);
#522=ORIENTED_EDGE('',*,*,#396,.F.);
#523=ORIENTED_EDGE('',*,*,#397,.T.);
#524=ORIENTED_EDGE('',*,*,#398,.T.);
#525=ORIENTED_EDGE('',*,*,#399,.T.);
#526=ORIENTED_EDGE('',*,*,#400,.F.);
#527=ORIENTED_EDGE('',*,*,#401,.F.);
#528=ORIENTED_EDGE('',*,*,#402,.F.);
#529=ORIENTED_EDGE('',*,*,#403,.T.);
#530=ORIENTED_EDGE('',*,*,#404,.F.);
#531=ORIENTED_EDGE('',*,*,#405,.F.);
#532=ORIENTED_EDGE('',*,*,#406,.T.);
#533=ORIENTED_EDGE('',*,*,#407,.T.);
#534=ORIENTED_EDGE('',*,*,#408,.F.);
#535=ORIENTED_EDGE('',*,*,#409,.F.);
#536=ORIENTED_EDGE('',*,*,#399,.F.);
#537=ORIENTED_EDGE('',*,*,#410,.T.);
#538=ORIENTED_EDGE('',*,*,#406,.F.);
#539=ORIENTED_EDGE('',*,*,#411,.F.);
#540=ORIENTED_EDGE('',*,*,#408,.T.);
#541=ORIENTED_EDGE('',*,*,#412,.T.);
#542=ORIENTED_EDGE('',*,*,#397,.F.);
#543=ORIENTED_EDGE('',*,*,#412,.F.);
#544=ORIENTED_EDGE('',*,*,#407,.F.);
#545=ORIENTED_EDGE('',*,*,#410,.F.);
#546=ORIENTED_EDGE('',*,*,#398,.F.);
#547=ORIENTED_EDGE('',*,*,#413,.F.);
#548=ORIENTED_EDGE('',*,*,#414,.F.);
#549=ORIENTED_EDGE('',*,*,#403,.F.);
#550=ORIENTED_EDGE('',*,*,#415,.F.);
#551=ORIENTED_EDGE('',*,*,#416,.F.);
#552=ORIENTED_EDGE('',*,*,#417,.F.);
#553=ORIENTED_EDGE('',*,*,#390,.T.);
#554=ORIENTED_EDGE('',*,*,#418,.F.);
#555=ORIENTED_EDGE('',*,*,#419,.F.);
#556=ORIENTED_EDGE('',*,*,#420,.F.);
#557=ORIENTED_EDGE('',*,*,#385,.T.);
#558=ORIENTED_EDGE('',*,*,#421,.F.);
#559=ORIENTED_EDGE('',*,*,#422,.F.);
#560=ORIENTED_EDGE('',*,*,#423,.F.);
#561=ORIENTED_EDGE('',*,*,#387,.F.);
#562=ORIENTED_EDGE('',*,*,#424,.F.);
#563=ORIENTED_EDGE('',*,*,#419,.T.);
#564=ORIENTED_EDGE('',*,*,#425,.F.);
#565=ORIENTED_EDGE('',*,*,#422,.T.);
#566=ORIENTED_EDGE('',*,*,#426,.F.);
#567=ORIENTED_EDGE('',*,*,#416,.T.);
#568=ORIENTED_EDGE('',*,*,#427,.F.);
#569=ORIENTED_EDGE('',*,*,#428,.T.);
#570=ORIENTED_EDGE('',*,*,#429,.F.);
#571=ORIENTED_EDGE('',*,*,#420,.T.);
#572=ORIENTED_EDGE('',*,*,#426,.T.);
#573=ORIENTED_EDGE('',*,*,#424,.T.);
#574=ORIENTED_EDGE('',*,*,#386,.T.);
#575=ORIENTED_EDGE('',*,*,#349,.T.);
#576=ORIENTED_EDGE('',*,*,#417,.T.);
#577=ORIENTED_EDGE('',*,*,#429,.T.);
#578=ORIENTED_EDGE('',*,*,#430,.T.);
#579=ORIENTED_EDGE('',*,*,#394,.T.);
#580=ORIENTED_EDGE('',*,*,#391,.T.);
#581=ORIENTED_EDGE('',*,*,#343,.T.);
#582=ORIENTED_EDGE('',*,*,#428,.F.);
#583=ORIENTED_EDGE('',*,*,#431,.F.);
#584=ORIENTED_EDGE('',*,*,#395,.F.);
#585=ORIENTED_EDGE('',*,*,#430,.F.);
#586=ORIENTED_EDGE('',*,*,#432,.F.);
#587=ORIENTED_EDGE('',*,*,#433,.F.);
#588=ORIENTED_EDGE('',*,*,#401,.T.);
#589=ORIENTED_EDGE('',*,*,#434,.F.);
#590=ORIENTED_EDGE('',*,*,#413,.T.);
#591=ORIENTED_EDGE('',*,*,#435,.F.);
#592=ORIENTED_EDGE('',*,*,#432,.T.);
#593=ORIENTED_EDGE('',*,*,#436,.F.);
#594=ORIENTED_EDGE('',*,*,#369,.T.);
#595=ORIENTED_EDGE('',*,*,#404,.T.);
#596=ORIENTED_EDGE('',*,*,#414,.T.);
#597=ORIENTED_EDGE('',*,*,#436,.T.);
#598=ORIENTED_EDGE('',*,*,#434,.T.);
#599=ORIENTED_EDGE('',*,*,#400,.T.);
#600=ORIENTED_EDGE('',*,*,#409,.T.);
#601=ORIENTED_EDGE('',*,*,#405,.T.);
#602=ORIENTED_EDGE('',*,*,#411,.T.);
#603=ORIENTED_EDGE('',*,*,#396,.T.);
#604=ORIENTED_EDGE('',*,*,#431,.T.);
#605=ORIENTED_EDGE('',*,*,#427,.T.);
#606=ORIENTED_EDGE('',*,*,#418,.T.);
#607=ORIENTED_EDGE('',*,*,#389,.T.);
#608=ORIENTED_EDGE('',*,*,#377,.T.);
#609=ORIENTED_EDGE('',*,*,#373,.T.);
#610=ORIENTED_EDGE('',*,*,#380,.T.);
#611=ORIENTED_EDGE('',*,*,#388,.T.);
#612=ORIENTED_EDGE('',*,*,#423,.T.);
#613=ORIENTED_EDGE('',*,*,#425,.T.);
#614=ORIENTED_EDGE('',*,*,#421,.T.);
#615=ORIENTED_EDGE('',*,*,#384,.T.);
#616=ORIENTED_EDGE('',*,*,#366,.T.);
#617=ORIENTED_EDGE('',*,*,#362,.T.);
#618=ORIENTED_EDGE('',*,*,#359,.T.);
#619=ORIENTED_EDGE('',*,*,#415,.T.);
#620=ORIENTED_EDGE('',*,*,#402,.T.);
#621=ORIENTED_EDGE('',*,*,#433,.T.);
#622=ORIENTED_EDGE('',*,*,#435,.T.);
#623=ORIENTED_EDGE('',*,*,#355,.T.);
#624=ORIENTED_EDGE('',*,*,#393,.F.);
#625=ORIENTED_EDGE('',*,*,#346,.T.);
#626=ORIENTED_EDGE('',*,*,#352,.T.);
#627=ORIENTED_EDGE('',*,*,#358,.T.);
#628=ORIENTED_EDGE('',*,*,#361,.T.);
#629=PLANE('',#703);
#630=PLANE('',#710);
#631=PLANE('',#717);
#632=PLANE('',#730);
#633=PLANE('',#731);
#634=PLANE('',#732);
#635=PLANE('',#737);
#636=PLANE('',#738);
#637=PLANE('',#739);
#638=PLANE('',#757);
#639=PLANE('',#758);
#640=PLANE('',#759);
#641=PLANE('',#760);
#642=PLANE('',#761);
#643=PLANE('',#762);
#644=PLANE('',#763);
#645=PLANE('',#770);
#646=PLANE('',#771);
#647=PLANE('',#772);
#648=PLANE('',#773);
#649=PLANE('',#777);
#650=PLANE('',#778);
#651=PLANE('',#779);
#652=ADVANCED_FACE('',(#152,#141),#629,.F.);
#653=ADVANCED_FACE('',(#153),#127,.F.);
#654=ADVANCED_FACE('',(#154),#128,.F.);
#655=ADVANCED_FACE('',(#155,#142),#630,.F.);
#656=ADVANCED_FACE('',(#156),#129,.F.);
#657=ADVANCED_FACE('',(#157),#130,.F.);
#658=ADVANCED_FACE('',(#158,#143),#631,.F.);
#659=ADVANCED_FACE('',(#159),#131,.F.);
#660=ADVANCED_FACE('',(#160),#132,.F.);
#661=ADVANCED_FACE('',(#161),#133,.F.);
#662=ADVANCED_FACE('',(#162),#134,.T.);
#663=ADVANCED_FACE('',(#163),#632,.F.);
#664=ADVANCED_FACE('',(#164),#633,.F.);
#665=ADVANCED_FACE('',(#165),#634,.T.);
#666=ADVANCED_FACE('',(#166),#135,.T.);
#667=ADVANCED_FACE('',(#167),#635,.F.);
#668=ADVANCED_FACE('',(#168),#636,.F.);
#669=ADVANCED_FACE('',(#169),#637,.T.);
#670=ADVANCED_FACE('',(#170),#136,.T.);
#671=ADVANCED_FACE('',(#171),#137,.T.);
#672=ADVANCED_FACE('',(#172),#638,.F.);
#673=ADVANCED_FACE('',(#173),#639,.F.);
#674=ADVANCED_FACE('',(#174),#640,.T.);
#675=ADVANCED_FACE('',(#175),#641,.T.);
#676=ADVANCED_FACE('',(#176),#642,.T.);
#677=ADVANCED_FACE('',(#177),#643,.T.);
#678=ADVANCED_FACE('',(#178),#644,.T.);
#679=ADVANCED_FACE('',(#179),#138,.T.);
#680=ADVANCED_FACE('',(#180),#139,.T.);
#681=ADVANCED_FACE('',(#181,#144),#645,.T.);
#682=ADVANCED_FACE('',(#182,#145),#646,.T.);
#683=ADVANCED_FACE('',(#183),#647,.T.);
#684=ADVANCED_FACE('',(#184),#648,.T.);
#685=ADVANCED_FACE('',(#185),#140,.T.);
#686=ADVANCED_FACE('',(#186,#146),#649,.T.);
#687=ADVANCED_FACE('',(#187,#147),#650,.T.);
#688=ADVANCED_FACE('',(#188,#148,#149,#150,#151),#651,.F.);
#689=CLOSED_SHELL('',(#652,#653,#654,#655,#656,#657,#658,#659,#660,#661,
#662,#663,#664,#665,#666,#667,#668,#669,#670,#671,#672,#673,#674,#675,#676,
#677,#678,#679,#680,#681,#682,#683,#684,#685,#686,#687,#688));
#690=DERIVED_UNIT_ELEMENT(#692,1.);
#691=DERIVED_UNIT_ELEMENT(#1195,-3.);
#692=(
MASS_UNIT()
NAMED_UNIT(*)
SI_UNIT(.KILO.,.GRAM.)
);
#693=DERIVED_UNIT((#690,#691));
#694=MEASURE_REPRESENTATION_ITEM('density measure',
POSITIVE_RATIO_MEASURE(7850.),#693);
#695=PROPERTY_DEFINITION_REPRESENTATION(#700,#697);
#696=PROPERTY_DEFINITION_REPRESENTATION(#701,#698);
#697=REPRESENTATION('material name',(#699),#1192);
#698=REPRESENTATION('density',(#694),#1192);
#699=DESCRIPTIVE_REPRESENTATION_ITEM('Steel','Steel');
#700=PROPERTY_DEFINITION('material property','material name',#1202);
#701=PROPERTY_DEFINITION('material property','density of part',#1202);
#702=AXIS2_PLACEMENT_3D('',#992,#780,#781);
#703=AXIS2_PLACEMENT_3D('',#993,#782,#783);
#704=AXIS2_PLACEMENT_3D('',#995,#784,#785);
#705=AXIS2_PLACEMENT_3D('',#997,#786,#787);
#706=AXIS2_PLACEMENT_3D('',#998,#788,#789);
#707=AXIS2_PLACEMENT_3D('',#1000,#790,#791);
#708=AXIS2_PLACEMENT_3D('',#1002,#793,#794);
#709=AXIS2_PLACEMENT_3D('',#1005,#796,#797);
#710=AXIS2_PLACEMENT_3D('',#1006,#798,#799);
#711=AXIS2_PLACEMENT_3D('',#1008,#800,#801);
#712=AXIS2_PLACEMENT_3D('',#1010,#802,#803);
#713=AXIS2_PLACEMENT_3D('',#1011,#804,#805);
#714=AXIS2_PLACEMENT_3D('',#1013,#806,#807);
#715=AXIS2_PLACEMENT_3D('',#1015,#809,#810);
#716=AXIS2_PLACEMENT_3D('',#1018,#812,#813);
#717=AXIS2_PLACEMENT_3D('',#1019,#814,#815);
#718=AXIS2_PLACEMENT_3D('',#1021,#816,#817);
#719=AXIS2_PLACEMENT_3D('',#1023,#818,#819);
#720=AXIS2_PLACEMENT_3D('',#1024,#820,#821);
#721=AXIS2_PLACEMENT_3D('',#1026,#822,#823);
#722=AXIS2_PLACEMENT_3D('',#1028,#825,#826);
#723=AXIS2_PLACEMENT_3D('',#1031,#828,#829);
#724=AXIS2_PLACEMENT_3D('',#1032,#830,#831);
#725=AXIS2_PLACEMENT_3D('',#1034,#832,#833);
#726=AXIS2_PLACEMENT_3D('',#1037,#835,#836);
#727=AXIS2_PLACEMENT_3D('',#1038,#837,#838);
#728=AXIS2_PLACEMENT_3D('',#1041,#839,#840);
#729=AXIS2_PLACEMENT_3D('',#1045,#842,#843);
#730=AXIS2_PLACEMENT_3D('',#1047,#845,#846);
#731=AXIS2_PLACEMENT_3D('',#1053,#850,#851);
#732=AXIS2_PLACEMENT_3D('',#1059,#855,#856);
#733=AXIS2_PLACEMENT_3D('',#1060,#857,#858);
#734=AXIS2_PLACEMENT_3D('',#1061,#859,#860);
#735=AXIS2_PLACEMENT_3D('',#1064,#861,#862);
#736=AXIS2_PLACEMENT_3D('',#1068,#864,#865);
#737=AXIS2_PLACEMENT_3D('',#1070,#867,#868);
#738=AXIS2_PLACEMENT_3D('',#1076,#872,#873);
#739=AXIS2_PLACEMENT_3D('',#1082,#877,#878);
#740=AXIS2_PLACEMENT_3D('',#1083,#879,#880);
#741=AXIS2_PLACEMENT_3D('',#1084,#881,#882);
#742=AXIS2_PLACEMENT_3D('',#1086,#883,#884);
#743=AXIS2_PLACEMENT_3D('',#1090,#886,#887);
#744=AXIS2_PLACEMENT_3D('',#1093,#889,#890);
#745=AXIS2_PLACEMENT_3D('',#1095,#891,#892);
#746=AXIS2_PLACEMENT_3D('',#1099,#894,#895);
#747=AXIS2_PLACEMENT_3D('',#1102,#897,#898);
#748=AXIS2_PLACEMENT_3D('',#1104,#899,#900);
#749=AXIS2_PLACEMENT_3D('',#1108,#902,#903);
#750=AXIS2_PLACEMENT_3D('',#1112,#905,#906);
#751=AXIS2_PLACEMENT_3D('',#1116,#908,#909);
#752=AXIS2_PLACEMENT_3D('',#1120,#911,#912);
#753=AXIS2_PLACEMENT_3D('',#1123,#914,#915);
#754=AXIS2_PLACEMENT_3D('',#1124,#916,#917);
#755=AXIS2_PLACEMENT_3D('',#1127,#918,#919);
#756=AXIS2_PLACEMENT_3D('',#1131,#921,#922);
#757=AXIS2_PLACEMENT_3D('',#1133,#924,#925);
#758=AXIS2_PLACEMENT_3D('',#1136,#928,#929);
#759=AXIS2_PLACEMENT_3D('',#1139,#932,#933);
#760=AXIS2_PLACEMENT_3D('',#1140,#934,#935);
#761=AXIS2_PLACEMENT_3D('',#1146,#939,#940);
#762=AXIS2_PLACEMENT_3D('',#1152,#944,#945);
#763=AXIS2_PLACEMENT_3D('',#1158,#949,#950);
#764=AXIS2_PLACEMENT_3D('',#1164,#954,#955);
#765=AXIS2_PLACEMENT_3D('',#1165,#956,#957);
#766=AXIS2_PLACEMENT_3D('',#1166,#958,#959);
#767=AXIS2_PLACEMENT_3D('',#1167,#960,#961);
#768=AXIS2_PLACEMENT_3D('',#1169,#962,#963);
#769=AXIS2_PLACEMENT_3D('',#1172,#965,#966);
#770=AXIS2_PLACEMENT_3D('',#1173,#967,#968);
#771=AXIS2_PLACEMENT_3D('',#1174,#969,#970);
#772=AXIS2_PLACEMENT_3D('',#1176,#972,#973);
#773=AXIS2_PLACEMENT_3D('',#1178,#975,#976);
#774=AXIS2_PLACEMENT_3D('',#1184,#980,#981);
#775=AXIS2_PLACEMENT_3D('',#1185,#982,#983);
#776=AXIS2_PLACEMENT_3D('',#1186,#984,#985);
#777=AXIS2_PLACEMENT_3D('',#1187,#986,#987);
#778=AXIS2_PLACEMENT_3D('',#1188,#988,#989);
#779=AXIS2_PLACEMENT_3D('',#1189,#990,#991);
#780=DIRECTION('axis',(0.,0.,1.));
#781=DIRECTION('refdir',(1.,0.,0.));
#782=DIRECTION('center_axis',(-1.,0.,0.));
#783=DIRECTION('ref_axis',(0.,-0.5,0.866025403784438));
#784=DIRECTION('center_axis',(-1.,0.,0.));
#785=DIRECTION('ref_axis',(0.,-0.5,0.866025403784438));
#786=DIRECTION('center_axis',(-1.,0.,0.));
#787=DIRECTION('ref_axis',(0.,-0.5,0.866025403784438));
#788=DIRECTION('center_axis',(-1.,0.,0.));
#789=DIRECTION('ref_axis',(0.,-0.5,0.866025403784438));
#790=DIRECTION('center_axis',(-1.,0.,0.));
#791=DIRECTION('ref_axis',(0.,-0.5,0.866025403784438));
#792=DIRECTION('',(-1.,0.,0.));
#793=DIRECTION('center_axis',(-1.,0.,0.));
#794=DIRECTION('ref_axis',(0.,-0.5,0.866025403784438));
#795=DIRECTION('',(-1.,0.,0.));
#796=DIRECTION('center_axis',(1.,0.,0.));
#797=DIRECTION('ref_axis',(0.,-0.5,0.866025403784438));
#798=DIRECTION('center_axis',(-1.,0.,0.));
#799=DIRECTION('ref_axis',(0.,-0.5,-0.866025403784439));
#800=DIRECTION('center_axis',(-1.,0.,0.));
#801=DIRECTION('ref_axis',(0.,-0.5,-0.866025403784439));
#802=DIRECTION('center_axis',(-1.,0.,0.));
#803=DIRECTION('ref_axis',(0.,-0.5,-0.866025403784439));
#804=DIRECTION('center_axis',(-1.,0.,0.));
#805=DIRECTION('ref_axis',(0.,-0.5,-0.866025403784439));
#806=DIRECTION('center_axis',(-1.,0.,0.));
#807=DIRECTION('ref_axis',(0.,-0.5,-0.866025403784439));
#808=DIRECTION('',(-1.,0.,0.));
#809=DIRECTION('center_axis',(-1.,0.,0.));
#810=DIRECTION('ref_axis',(0.,-0.5,-0.866025403784439));
#811=DIRECTION('',(-1.,0.,0.));
#812=DIRECTION('center_axis',(1.,0.,0.));
#813=DIRECTION('ref_axis',(0.,-0.5,-0.866025403784439));
#814=DIRECTION('center_axis',(-1.,0.,0.));
#815=DIRECTION('ref_axis',(0.,1.,0.));
#816=DIRECTION('center_axis',(-1.,0.,0.));
#817=DIRECTION('ref_axis',(0.,1.,0.));
#818=DIRECTION('center_axis',(-1.,0.,0.));
#819=DIRECTION('ref_axis',(0.,1.,0.));
#820=DIRECTION('center_axis',(-1.,0.,0.));
#821=DIRECTION('ref_axis',(0.,1.,0.));
#822=DIRECTION('center_axis',(-1.,0.,0.));
#823=DIRECTION('ref_axis',(0.,1.,0.));
#824=DIRECTION('',(-1.,0.,0.));
#825=DIRECTION('center_axis',(-1.,0.,0.));
#826=DIRECTION('ref_axis',(0.,1.,0.));
#827=DIRECTION('',(-1.,0.,0.));
#828=DIRECTION('center_axis',(1.,0.,0.));
#829=DIRECTION('ref_axis',(0.,1.,0.));
#830=DIRECTION('center_axis',(-1.,0.,0.));
#831=DIRECTION('ref_axis',(0.,1.,0.));
#832=DIRECTION('center_axis',(-1.,0.,0.));
#833=DIRECTION('ref_axis',(0.,1.,0.));
#834=DIRECTION('',(-1.,0.,0.));
#835=DIRECTION('center_axis',(1.,0.,0.));
#836=DIRECTION('ref_axis',(0.,1.,0.));
#837=DIRECTION('center_axis',(-1.,0.,0.));
#838=DIRECTION('ref_axis',(0.,-0.500000000000001,-0.866025403784438));
#839=DIRECTION('center_axis',(1.,0.,0.));
#840=DIRECTION('ref_axis',(0.,-0.500000000000001,-0.866025403784438));
#841=DIRECTION('',(-1.,0.,0.));
#842=DIRECTION('center_axis',(1.,0.,0.));
#843=DIRECTION('ref_axis',(0.,-0.500000000000001,-0.866025403784438));
#844=DIRECTION('',(-1.,0.,0.));
#845=DIRECTION('center_axis',(0.,-0.5,-0.866025403784439));
#846=DIRECTION('ref_axis',(0.,-0.866025403784438,0.5));
#847=DIRECTION('',(0.,-0.866025403784438,0.5));
#848=DIRECTION('',(1.,0.,0.));
#849=DIRECTION('',(0.,-0.866025403784438,0.5));
#850=DIRECTION('center_axis',(0.,0.5,0.866025403784439));
#851=DIRECTION('ref_axis',(0.,0.866025403784438,-0.5));
#852=DIRECTION('',(0.,0.866025403784438,-0.5));
#853=DIRECTION('',(0.,0.866025403784438,-0.5));
#854=DIRECTION('',(-1.,0.,0.));
#855=DIRECTION('center_axis',(1.,0.,0.));
#856=DIRECTION('ref_axis',(0.,-0.5,-0.866025403784438));
#857=DIRECTION('center_axis',(-1.,0.,0.));
#858=DIRECTION('ref_axis',(0.,1.,0.));
#859=DIRECTION('center_axis',(-1.,0.,0.));
#860=DIRECTION('ref_axis',(0.,-0.5,0.866025403784439));
#861=DIRECTION('center_axis',(1.,0.,0.));
#862=DIRECTION('ref_axis',(0.,-0.5,0.866025403784439));
#863=DIRECTION('',(-1.,0.,0.));
#864=DIRECTION('center_axis',(1.,0.,0.));
#865=DIRECTION('ref_axis',(0.,-0.5,0.866025403784439));
#866=DIRECTION('',(-1.,0.,0.));
#867=DIRECTION('center_axis',(0.,-0.5,0.866025403784439));
#868=DIRECTION('ref_axis',(0.,0.866025403784439,0.5));
#869=DIRECTION('',(0.,0.866025403784439,0.5));
#870=DIRECTION('',(1.,0.,0.));
#871=DIRECTION('',(0.,0.866025403784439,0.5));
#872=DIRECTION('center_axis',(0.,0.5,-0.866025403784439));
#873=DIRECTION('ref_axis',(0.,-0.866025403784439,-0.5));
#874=DIRECTION('',(0.,-0.866025403784439,-0.5));
#875=DIRECTION('',(0.,-0.866025403784439,-0.5));
#876=DIRECTION('',(-1.,0.,0.));
#877=DIRECTION('center_axis',(1.,0.,0.));
#878=DIRECTION('ref_axis',(0.,-0.5,0.866025403784439));
#879=DIRECTION('center_axis',(-1.,0.,0.));
#880=DIRECTION('ref_axis',(0.,1.,0.));
#881=DIRECTION('center_axis',(1.,0.,0.));
#882=DIRECTION('ref_axis',(0.,1.,0.));
#883=DIRECTION('center_axis',(1.,0.,0.));
#884=DIRECTION('ref_axis',(0.,-0.5,-0.866025403784438));
#885=DIRECTION('',(1.,0.,0.));
#886=DIRECTION('center_axis',(1.,0.,0.));
#887=DIRECTION('ref_axis',(0.,1.,0.));
#888=DIRECTION('',(1.,0.,0.));
#889=DIRECTION('center_axis',(1.,0.,0.));
#890=DIRECTION('ref_axis',(0.,-0.5,0.866025403784439));
#891=DIRECTION('center_axis',(1.,0.,0.));
#892=DIRECTION('ref_axis',(0.,-0.5,0.866025403784439));
#893=DIRECTION('',(1.,0.,0.));
#894=DIRECTION('center_axis',(1.,0.,0.));
#895=DIRECTION('ref_axis',(0.,1.,0.));
#896=DIRECTION('',(-1.,0.,0.));
#897=DIRECTION('center_axis',(1.,0.,0.));
#898=DIRECTION('ref_axis',(0.,1.,0.));
#899=DIRECTION('center_axis',(1.,0.,0.));
#900=DIRECTION('ref_axis',(0.,1.,0.));
#901=DIRECTION('',(1.,0.,0.));
#902=DIRECTION('center_axis',(1.,0.,0.));
#903=DIRECTION('ref_axis',(0.,1.,0.));
#904=DIRECTION('',(-1.,0.,0.));
#905=DIRECTION('center_axis',(-1.,0.,0.));
#906=DIRECTION('ref_axis',(0.,1.,0.));
#907=DIRECTION('',(1.,0.,0.));
#908=DIRECTION('center_axis',(1.,0.,0.));
#909=DIRECTION('ref_axis',(0.,1.,0.));
#910=DIRECTION('',(1.,0.,0.));
#911=DIRECTION('center_axis',(1.,0.,0.));
#912=DIRECTION('ref_axis',(0.,1.,0.));
#913=DIRECTION('',(1.,0.,0.));
#914=DIRECTION('center_axis',(1.,0.,0.));
#915=DIRECTION('ref_axis',(0.,-0.5,-0.866025403784438));
#916=DIRECTION('center_axis',(-1.,0.,0.));
#917=DIRECTION('ref_axis',(0.,1.,0.));
#918=DIRECTION('center_axis',(1.,0.,0.));
#919=DIRECTION('ref_axis',(0.,1.,0.));
#920=DIRECTION('',(-1.,0.,0.));
#921=DIRECTION('center_axis',(1.,0.,0.));
#922=DIRECTION('ref_axis',(0.,1.,0.));
#923=DIRECTION('',(-1.,0.,0.));
#924=DIRECTION('center_axis',(0.,1.,2.86509167645202E-16));
#925=DIRECTION('ref_axis',(0.,2.86509167645202E-16,-1.));
#926=DIRECTION('',(0.,2.86509167645202E-16,-1.));
#927=DIRECTION('',(0.,2.86509167645202E-16,-1.));
#928=DIRECTION('center_axis',(0.,-1.,-2.05928464244989E-16));
#929=DIRECTION('ref_axis',(0.,-2.05928464244989E-16,1.));
#930=DIRECTION('',(0.,-2.05928464244989E-16,1.));
#931=DIRECTION('',(0.,-2.05928464244989E-16,1.));
#932=DIRECTION('center_axis',(1.,0.,0.));
#933=DIRECTION('ref_axis',(0.,1.,0.));
#934=DIRECTION('center_axis',(0.,0.500000000000001,0.866025403784438));
#935=DIRECTION('ref_axis',(0.,-0.866025403784438,0.500000000000001));
#936=DIRECTION('',(-1.,0.,0.));
#937=DIRECTION('',(0.,-0.866025403784438,0.500000000000001));
#938=DIRECTION('',(0.,0.866025403784438,-0.500000000000001));
#939=DIRECTION('center_axis',(0.,-0.499999999999997,0.86602540378444));
#940=DIRECTION('ref_axis',(0.,-0.86602540378444,-0.499999999999997));
#941=DIRECTION('',(1.,0.,0.));
#942=DIRECTION('',(0.,0.86602540378444,0.499999999999997));
#943=DIRECTION('',(0.,-0.86602540378444,-0.499999999999997));
#944=DIRECTION('center_axis',(0.,-0.500000000000003,-0.866025403784437));
#945=DIRECTION('ref_axis',(0.,0.866025403784437,-0.500000000000003));
#946=DIRECTION('',(1.,0.,0.));
#947=DIRECTION('',(0.,-0.866025403784437,0.500000000000003));
#948=DIRECTION('',(0.,0.866025403784437,-0.500000000000003));
#949=DIRECTION('center_axis',(0.,0.5,-0.866025403784439));
#950=DIRECTION('ref_axis',(0.,0.866025403784439,0.5));
#951=DIRECTION('',(-1.,0.,0.));
#952=DIRECTION('',(0.,0.866025403784439,0.5));
#953=DIRECTION('',(0.,-0.866025403784439,-0.5));
#954=DIRECTION('center_axis',(1.,0.,0.));
#955=DIRECTION('ref_axis',(0.,1.,0.));
#956=DIRECTION('center_axis',(1.,0.,0.));
#957=DIRECTION('ref_axis',(0.,1.,0.));
#958=DIRECTION('center_axis',(-1.,0.,0.));
#959=DIRECTION('ref_axis',(0.,1.,0.));
#960=DIRECTION('center_axis',(1.,0.,0.));
#961=DIRECTION('ref_axis',(0.,1.,0.));
#962=DIRECTION('center_axis',(1.,0.,0.));
#963=DIRECTION('ref_axis',(0.,1.,0.));
#964=DIRECTION('',(-1.,0.,0.));
#965=DIRECTION('center_axis',(-1.,0.,0.));
#966=DIRECTION('ref_axis',(0.,1.,0.));
#967=DIRECTION('center_axis',(1.,0.,0.));
#968=DIRECTION('ref_axis',(0.,1.,0.));
#969=DIRECTION('center_axis',(1.,0.,0.));
#970=DIRECTION('ref_axis',(0.,1.,0.));
#971=DIRECTION('',(0.,1.43254583822601E-16,1.));
#972=DIRECTION('center_axis',(0.,-1.,1.43254583822601E-16));
#973=DIRECTION('ref_axis',(0.,-1.43254583822601E-16,-1.));
#974=DIRECTION('',(0.,-1.43254583822601E-16,-1.));
#975=DIRECTION('center_axis',(0.,1.,-2.86509167645202E-15));
#976=DIRECTION('ref_axis',(0.,2.86509167645202E-15,1.));
#977=DIRECTION('',(1.,0.,0.));
#978=DIRECTION('',(0.,-2.86509167645202E-15,-1.));
#979=DIRECTION('',(0.,2.86509167645202E-15,1.));
#980=DIRECTION('center_axis',(1.,0.,0.));
#981=DIRECTION('ref_axis',(0.,1.,0.));
#982=DIRECTION('center_axis',(-1.,0.,0.));
#983=DIRECTION('ref_axis',(0.,1.,0.));
#984=DIRECTION('center_axis',(1.,0.,0.));
#985=DIRECTION('ref_axis',(0.,1.,0.));
#986=DIRECTION('center_axis',(1.,0.,0.));
#987=DIRECTION('ref_axis',(0.,1.,0.));
#988=DIRECTION('center_axis',(1.,0.,0.));
#989=DIRECTION('ref_axis',(0.,1.,0.));
#990=DIRECTION('center_axis',(1.,0.,0.));
#991=DIRECTION('ref_axis',(0.,1.,0.));
#992=CARTESIAN_POINT('',(0.,0.,0.));
#993=CARTESIAN_POINT('Origin',(5.5,-18.6628474515547,10.775));
#994=CARTESIAN_POINT('',(5.5,-16.1628474515547,6.44487298107781));
#995=CARTESIAN_POINT('Origin',(5.5,-18.6628474515547,10.775));
#996=CARTESIAN_POINT('',(5.5,-16.7878474515547,7.52740473580836));
#997=CARTESIAN_POINT('Origin',(5.5,-18.6628474515547,10.775));
#998=CARTESIAN_POINT('Origin',(6.5,-18.6628474515547,10.775));
#999=CARTESIAN_POINT('',(7.5,-16.1628474515547,6.44487298107781));
#1000=CARTESIAN_POINT('Origin',(7.5,-18.6628474515547,10.775));
#1001=CARTESIAN_POINT('',(6.5,-16.1628474515547,6.44487298107781));
#1002=CARTESIAN_POINT('Origin',(3.375,-18.6628474515547,10.775));
#1003=CARTESIAN_POINT('',(0.,-16.7878474515547,7.52740473580836));
#1004=CARTESIAN_POINT('',(3.375,-16.7878474515547,7.52740473580836));
#1005=CARTESIAN_POINT('Origin',(0.,-18.6628474515547,10.775));
#1006=CARTESIAN_POINT('Origin',(5.5,-5.55111512312578E-15,-21.55));
#1007=CARTESIAN_POINT('',(5.5,2.49999999999999,-17.2198729810778));
#1008=CARTESIAN_POINT('Origin',(5.5,-5.55111512312578E-15,-21.55));
#1009=CARTESIAN_POINT('',(5.5,1.87499999999999,-18.3024047358084));
#1010=CARTESIAN_POINT('Origin',(5.5,-5.55111512312578E-15,-21.55));
#1011=CARTESIAN_POINT('Origin',(6.5,-5.55111512312578E-15,-21.55));
#1012=CARTESIAN_POINT('',(7.5,2.49999999999999,-17.2198729810778));
#1013=CARTESIAN_POINT('Origin',(7.5,-5.55111512312578E-15,-21.55));
#1014=CARTESIAN_POINT('',(6.5,2.49999999999999,-17.2198729810778));
#1015=CARTESIAN_POINT('Origin',(3.375,-5.55111512312578E-15,-21.55));
#1016=CARTESIAN_POINT('',(0.,1.87499999999999,-18.3024047358084));
#1017=CARTESIAN_POINT('',(3.375,1.87499999999999,-18.3024047358084));
#1018=CARTESIAN_POINT('Origin',(0.,-5.55111512312578E-15,-21.55));
#1019=CARTESIAN_POINT('Origin',(5.5,18.6628474515547,10.775));
#1020=CARTESIAN_POINT('',(5.5,13.6628474515547,10.775));
#1021=CARTESIAN_POINT('Origin',(5.5,18.6628474515547,10.775));
#1022=CARTESIAN_POINT('',(5.5,14.9128474515547,10.775));
#1023=CARTESIAN_POINT('Origin',(5.5,18.6628474515547,10.775));
#1024=CARTESIAN_POINT('Origin',(6.5,18.6628474515547,10.775));
#1025=CARTESIAN_POINT('',(7.5,13.6628474515547,10.775));
#1026=CARTESIAN_POINT('Origin',(7.5,18.6628474515547,10.775));
#1027=CARTESIAN_POINT('',(6.5,13.6628474515547,10.775));
#1028=CARTESIAN_POINT('Origin',(3.375,18.6628474515547,10.775));
#1029=CARTESIAN_POINT('',(0.,14.9128474515547,10.775));
#1030=CARTESIAN_POINT('',(3.375,14.9128474515547,10.775));
#1031=CARTESIAN_POINT('Origin',(0.,18.6628474515547,10.775));
#1032=CARTESIAN_POINT('Origin',(27.5,0.,0.));
#1033=CARTESIAN_POINT('',(27.5,-9.,-1.10218211923262E-15));
#1034=CARTESIAN_POINT('Origin',(27.5,0.,0.));
#1035=CARTESIAN_POINT('',(0.,-9.,-1.10218211923262E-15));
#1036=CARTESIAN_POINT('',(27.5,-9.,1.10218211923262E-15));
#1037=CARTESIAN_POINT('Origin',(0.,0.,0.));
#1038=CARTESIAN_POINT('Origin',(27.5,0.,0.));
#1039=CARTESIAN_POINT('',(27.5,7.89230484541324,-10.3301270189222));
#1040=CARTESIAN_POINT('',(27.5,12.8923048454133,-1.66987298107784));
#1041=CARTESIAN_POINT('Origin',(27.5,0.,0.));
#1042=CARTESIAN_POINT('',(7.5,7.89230484541324,-10.3301270189222));
#1043=CARTESIAN_POINT('',(27.5,7.89230484541324,-10.3301270189222));
#1044=CARTESIAN_POINT('',(7.5,12.8923048454133,-1.66987298107784));
#1045=CARTESIAN_POINT('Origin',(7.5,0.,0.));
#1046=CARTESIAN_POINT('',(27.5,12.8923048454133,-1.66987298107784));
#1047=CARTESIAN_POINT('Origin',(27.5,23.9952825989835,-19.6271855597006));
#1048=CARTESIAN_POINT('',(27.5,23.9952825989835,-19.6271855597006));
#1049=CARTESIAN_POINT('',(27.5,10.7476412994918,-11.9786562893114));
#1050=CARTESIAN_POINT('',(7.5,23.9952825989835,-19.6271855597006));
#1051=CARTESIAN_POINT('',(0.,23.9952825989835,-19.6271855597006));
#1052=CARTESIAN_POINT('',(7.5,51.1935750346351,-35.3301270189222));
#1053=CARTESIAN_POINT('Origin',(27.5,12.8923048454133,-1.66987298107783));
#1054=CARTESIAN_POINT('',(27.5,28.9952825989835,-10.9669315218562));
#1055=CARTESIAN_POINT('',(27.5,7.69615242270663,1.33012701892217));
#1056=CARTESIAN_POINT('',(7.5,28.9952825989835,-10.9669315218562));
#1057=CARTESIAN_POINT('',(7.5,2.49999999999989,4.33012701892223));
#1058=CARTESIAN_POINT('',(0.,28.9952825989835,-10.9669315218562));
#1059=CARTESIAN_POINT('Origin',(7.5,3.02344355965321,-1.74558595304542));
#1060=CARTESIAN_POINT('Origin',(7.5,0.,0.));
#1061=CARTESIAN_POINT('Origin',(27.5,0.,0.));
#1062=CARTESIAN_POINT('',(27.5,-12.8923048454133,-1.66987298107777));
#1063=CARTESIAN_POINT('',(27.5,-7.89230484541328,-10.3301270189222));
#1064=CARTESIAN_POINT('Origin',(27.5,0.,0.));
#1065=CARTESIAN_POINT('',(7.5,-12.8923048454133,-1.66987298107777));
#1066=CARTESIAN_POINT('',(27.5,-12.8923048454133,-1.66987298107777));
#1067=CARTESIAN_POINT('',(7.5,-7.89230484541328,-10.3301270189222));
#1068=CARTESIAN_POINT('Origin',(7.5,0.,0.));
#1069=CARTESIAN_POINT('',(27.5,-7.89230484541328,-10.3301270189222));
#1070=CARTESIAN_POINT('Origin',(27.5,-28.9952825989836,-10.9669315218561));
#1071=CARTESIAN_POINT('',(27.5,-28.9952825989836,-10.9669315218561));
#1072=CARTESIAN_POINT('',(27.5,-15.7476412994918,-3.31840225146696));
#1073=CARTESIAN_POINT('',(7.5,-28.9952825989836,-10.9669315218561));
#1074=CARTESIAN_POINT('',(0.,-28.9952825989836,-10.9669315218561));
#1075=CARTESIAN_POINT('',(7.5,-56.1935750346351,-26.6698729810777));
#1076=CARTESIAN_POINT('Origin',(27.5,-7.89230484541328,-10.3301270189222));
#1077=CARTESIAN_POINT('',(27.5,-23.9952825989836,-19.6271855597005));
#1078=CARTESIAN_POINT('',(27.5,-2.69615242270665,-7.33012701892218));
#1079=CARTESIAN_POINT('',(7.5,-23.9952825989836,-19.6271855597005));
#1080=CARTESIAN_POINT('',(7.5,2.50000000000009,-4.33012701892212));
#1081=CARTESIAN_POINT('',(0.,-23.9952825989836,-19.6271855597005));
#1082=CARTESIAN_POINT('Origin',(7.5,-3.02344355965321,-1.74558595304542));
#1083=CARTESIAN_POINT('Origin',(7.5,0.,0.));
#1084=CARTESIAN_POINT('Origin',(0.,0.,0.));
#1085=CARTESIAN_POINT('',(27.5,19.5998007960222,-24.0176561878183));
#1086=CARTESIAN_POINT('Origin',(27.5,0.,0.));
#1087=CARTESIAN_POINT('',(7.5,19.5998007960222,-24.0176561878183));
#1088=CARTESIAN_POINT('',(7.5,19.5998007960222,-24.0176561878183));
#1089=CARTESIAN_POINT('',(7.5,-19.5998007960222,-24.0176561878183));
#1090=CARTESIAN_POINT('Origin',(7.5,0.,0.));
#1091=CARTESIAN_POINT('',(27.5,-19.5998007960222,-24.0176561878183));
#1092=CARTESIAN_POINT('',(7.5,-19.5998007960222,-24.0176561878183));
#1093=CARTESIAN_POINT('Origin',(27.5,0.,0.));
#1094=CARTESIAN_POINT('',(27.5,-30.5998007960223,-4.96509730456056));
#1095=CARTESIAN_POINT('Origin',(27.5,0.,0.));
#1096=CARTESIAN_POINT('',(7.5,-30.5998007960223,-4.96509730456056));
#1097=CARTESIAN_POINT('',(7.5,-30.5998007960223,-4.96509730456056));
#1098=CARTESIAN_POINT('',(7.5,-31.,-3.79640507735679E-15));
#1099=CARTESIAN_POINT('Origin',(7.5,0.,0.));
#1100=CARTESIAN_POINT('',(0.,-31.,-3.79640507735679E-15));
#1101=CARTESIAN_POINT('',(0.,-31.,-3.79640507735679E-15));
#1102=CARTESIAN_POINT('Origin',(0.,0.,0.));
#1103=CARTESIAN_POINT('',(7.5,-11.,28.9827534923789));
#1104=CARTESIAN_POINT('Origin',(7.5,0.,0.));
#1105=CARTESIAN_POINT('',(27.5,-11.,28.9827534923789));
#1106=CARTESIAN_POINT('',(7.5,-11.,28.9827534923789));
#1107=CARTESIAN_POINT('',(27.5,-4.99999999999998,30.5941170815567));
#1108=CARTESIAN_POINT('Origin',(27.5,0.,0.));
#1109=CARTESIAN_POINT('',(7.5,-4.99999999999998,30.5941170815567));
#1110=CARTESIAN_POINT('',(0.,-4.99999999999999,30.5941170815567));
#1111=CARTESIAN_POINT('',(7.5,5.00000000000002,30.5941170815567));
#1112=CARTESIAN_POINT('Origin',(7.5,0.,0.));
#1113=CARTESIAN_POINT('',(27.5,5.00000000000002,30.5941170815567));
#1114=CARTESIAN_POINT('',(0.,5.00000000000002,30.5941170815567));
#1115=CARTESIAN_POINT('',(27.5,11.,28.9827534923789));
#1116=CARTESIAN_POINT('Origin',(27.5,0.,0.));
#1117=CARTESIAN_POINT('',(7.5,11.,28.9827534923789));
#1118=CARTESIAN_POINT('',(7.5,11.,28.9827534923789));
#1119=CARTESIAN_POINT('',(7.5,30.5998007960223,-4.96509730456059));
#1120=CARTESIAN_POINT('Origin',(7.5,0.,0.));
#1121=CARTESIAN_POINT('',(27.5,30.5998007960223,-4.96509730456059));
#1122=CARTESIAN_POINT('',(7.5,30.5998007960223,-4.96509730456059));
#1123=CARTESIAN_POINT('Origin',(27.5,0.,0.));
#1124=CARTESIAN_POINT('Origin',(27.5,0.,0.));
#1125=CARTESIAN_POINT('',(27.5,5.00000000000003,12.));
#1126=CARTESIAN_POINT('',(27.5,-4.99999999999998,12.));
#1127=CARTESIAN_POINT('Origin',(27.5,0.,0.));
#1128=CARTESIAN_POINT('',(7.5,5.00000000000003,12.));
#1129=CARTESIAN_POINT('',(27.5,5.00000000000003,12.));
#1130=CARTESIAN_POINT('',(7.5,-4.99999999999998,12.));
#1131=CARTESIAN_POINT('Origin',(7.5,0.,0.));
#1132=CARTESIAN_POINT('',(27.5,-4.99999999999998,12.));
#1133=CARTESIAN_POINT('Origin',(27.5,5.00000000000002,30.5941170815567));
#1134=CARTESIAN_POINT('',(27.5,5.00000000000003,15.2970585407784));
#1135=CARTESIAN_POINT('',(7.5,5.00000000000001,61.9999999999999));
#1136=CARTESIAN_POINT('Origin',(27.5,-4.99999999999998,12.));
#1137=CARTESIAN_POINT('',(27.5,-4.99999999999998,6.));
#1138=CARTESIAN_POINT('',(7.5,-4.99999999999998,-1.19904086659517E-13));
#1139=CARTESIAN_POINT('Origin',(7.5,0.,3.49117190609085));
#1140=CARTESIAN_POINT('Origin',(7.5,30.5998007960223,-4.96509730456058));
#1141=CARTESIAN_POINT('',(27.5,11.5,6.06217782649114));
#1142=CARTESIAN_POINT('',(7.5,11.5,6.06217782649114));
#1143=CARTESIAN_POINT('',(7.5,11.5,6.06217782649115));
#1144=CARTESIAN_POINT('',(27.5,59.1935750346353,-21.4737205583712));
#1145=CARTESIAN_POINT('',(7.5,18.0499003980112,2.28059106853414));
#1146=CARTESIAN_POINT('Origin',(7.5,-5.50000000000009,9.52627944162873));
#1147=CARTESIAN_POINT('',(7.5,-11.5,6.06217782649104));
#1148=CARTESIAN_POINT('',(27.5,-11.5,6.06217782649104));
#1149=CARTESIAN_POINT('',(7.5,-11.5,6.06217782649104));
#1150=CARTESIAN_POINT('',(7.5,-5.50000000000002,9.52627944162877));
#1151=CARTESIAN_POINT('',(27.5,-5.50000000000009,9.52627944162873));
#1152=CARTESIAN_POINT('Origin',(7.5,-5.49999999999987,-9.52627944162885));
#1153=CARTESIAN_POINT('',(7.5,0.500000000000024,-12.9903810567666));
#1154=CARTESIAN_POINT('',(27.5,0.500000000000024,-12.9903810567666));
#1155=CARTESIAN_POINT('',(7.5,0.50000000000003,-12.9903810567666));
#1156=CARTESIAN_POINT('',(7.5,-5.49999999999994,-9.52627944162882));
#1157=CARTESIAN_POINT('',(27.5,-5.49999999999987,-9.52627944162885));
#1158=CARTESIAN_POINT('Origin',(7.5,-19.5998007960222,-24.0176561878183));
#1159=CARTESIAN_POINT('',(27.5,-0.499999999999912,-12.9903810567666));
#1160=CARTESIAN_POINT('',(7.5,-0.499999999999912,-12.9903810567666));
#1161=CARTESIAN_POINT('',(7.5,-0.499999999999911,-12.9903810567666));
#1162=CARTESIAN_POINT('',(27.5,-48.1935750346353,-40.5262794416289));
#1163=CARTESIAN_POINT('',(7.5,-7.04990039801111,-16.7719678147236));
#1164=CARTESIAN_POINT('Origin',(7.5,0.,0.));
#1165=CARTESIAN_POINT('Origin',(27.5,0.,0.));
#1166=CARTESIAN_POINT('Origin',(7.5,0.,0.));
#1167=CARTESIAN_POINT('Origin',(7.5,0.,0.));
#1168=CARTESIAN_POINT('',(27.5,-11.,6.92820323027543));
#1169=CARTESIAN_POINT('Origin',(27.5,0.,0.));
#1170=CARTESIAN_POINT('',(7.5,-11.,6.92820323027543));
#1171=CARTESIAN_POINT('',(7.5,-11.,6.92820323027544));
#1172=CARTESIAN_POINT('Origin',(7.5,0.,0.));
#1173=CARTESIAN_POINT('Origin',(7.5,0.,0.));
#1174=CARTESIAN_POINT('Origin',(7.5,0.,0.));
#1175=CARTESIAN_POINT('',(7.5,-11.,14.4913767461894));
#1176=CARTESIAN_POINT('Origin',(7.5,-11.,28.9827534923789));
#1177=CARTESIAN_POINT('',(27.5,-11.,62.0000000000001));
#1178=CARTESIAN_POINT('Origin',(7.5,11.,1.30183953566498E-13));
#1179=CARTESIAN_POINT('',(7.5,11.,6.92820323027554));
#1180=CARTESIAN_POINT('',(27.5,11.,6.92820323027554));
#1181=CARTESIAN_POINT('',(7.5,11.,6.92820323027554));
#1182=CARTESIAN_POINT('',(7.5,11.,4.93339725627628E-14));
#1183=CARTESIAN_POINT('',(27.5,11.,1.30183953566498E-13));
#1184=CARTESIAN_POINT('Origin',(7.5,0.,0.));
#1185=CARTESIAN_POINT('Origin',(7.5,0.,0.));
#1186=CARTESIAN_POINT('Origin',(27.5,0.,0.));
#1187=CARTESIAN_POINT('Origin',(27.5,0.,0.));
#1188=CARTESIAN_POINT('Origin',(7.5,0.,0.));
#1189=CARTESIAN_POINT('Origin',(0.,0.,0.));
#1190=UNCERTAINTY_MEASURE_WITH_UNIT(LENGTH_MEASURE(0.01),#1194,
'DISTANCE_ACCURACY_VALUE',
'Maximum model space distance between geometric entities at asserted c
onnectivities');
#1191=UNCERTAINTY_MEASURE_WITH_UNIT(LENGTH_MEASURE(0.01),#1194,
'DISTANCE_ACCURACY_VALUE',
'Maximum model space distance between geometric entities at asserted c
onnectivities');
#1192=(
GEOMETRIC_REPRESENTATION_CONTEXT(3)
GLOBAL_UNCERTAINTY_ASSIGNED_CONTEXT((#1190))
GLOBAL_UNIT_ASSIGNED_CONTEXT((#1194,#1196,#1197))
REPRESENTATION_CONTEXT('','3D')
);
#1193=(
GEOMETRIC_REPRESENTATION_CONTEXT(3)
GLOBAL_UNCERTAINTY_ASSIGNED_CONTEXT((#1191))
GLOBAL_UNIT_ASSIGNED_CONTEXT((#1194,#1196,#1197))
REPRESENTATION_CONTEXT('','3D')
);
#1194=(
LENGTH_UNIT()
NAMED_UNIT(*)
SI_UNIT(.MILLI.,.METRE.)
);
#1195=(
LENGTH_UNIT()
NAMED_UNIT(*)
SI_UNIT($,.METRE.)
);
#1196=(
NAMED_UNIT(*)
PLANE_ANGLE_UNIT()
SI_UNIT($,.RADIAN.)
);
#1197=(
NAMED_UNIT(*)
SI_UNIT($,.STERADIAN.)
SOLID_ANGLE_UNIT()
);
#1198=SHAPE_DEFINITION_REPRESENTATION(#1199,#1200);
#1199=PRODUCT_DEFINITION_SHAPE('',$,#1202);
#1200=SHAPE_REPRESENTATION('',(#702),#1192);
#1201=PRODUCT_DEFINITION_CONTEXT('part definition',#1206,'design');
#1202=PRODUCT_DEFINITION('2026-09-24-18-07-46-529','parametric_v2',#1203,
#1201);
#1203=PRODUCT_DEFINITION_FORMATION('',$,#1208);
#1204=PRODUCT_RELATED_PRODUCT_CATEGORY('parametric_v2','parametric_v2',
(#1208));
#1205=APPLICATION_PROTOCOL_DEFINITION('international standard',
'automotive_design',2009,#1206);
#1206=APPLICATION_CONTEXT(
'Core Data for Automotive Mechanical Design Process');
#1207=PRODUCT_CONTEXT('part definition',#1206,'mechanical');
#1208=PRODUCT('2026-09-24-18-07-46-529','parametric_v2',$,(#1207));
#1209=PRESENTATION_STYLE_ASSIGNMENT((#1210));
#1210=SURFACE_STYLE_USAGE(.BOTH.,#1211);
#1211=SURFACE_SIDE_STYLE('',(#1212));
#1212=SURFACE_STYLE_FILL_AREA(#1213);
#1213=FILL_AREA_STYLE('Steel - Satin',(#1214));
#1214=FILL_AREA_STYLE_COLOUR('Steel - Satin',#1215);
#1215=COLOUR_RGB('Steel - Satin',0.627450980392157,0.627450980392157,0.627450980392157);
ENDSEC;
END-ISO-10303-21;
