ISO-10303-21;
HEADER;
/* Generated by software containing ST-Developer
 * from STEP Tools, Inc. (www.steptools.com) 
 */

FILE_DESCRIPTION(
/* description */ (''),
/* implementation_level */ '2;1');

FILE_NAME(
/* name */ 'ribs5_t5.step',
/* time_stamp */ '2026-09-29T13:50:20+01:00',
/* author */ (''),
/* organization */ (''),
/* preprocessor_version */ 'ST-DEVELOPER v20.2',
/* originating_system */ 'Autodesk Translation Framework v15.15.0.0',
/* authorisation */ '');

FILE_SCHEMA (('AUTOMOTIVE_DESIGN { 1 0 10303 214 3 1 1 }'));
ENDSEC;

DATA;
#10=MECHANICAL_DESIGN_GEOMETRIC_PRESENTATION_REPRESENTATION('',(#13),#1730);
#11=SHAPE_REPRESENTATION_RELATIONSHIP('SRR','None',#1737,#12);
#12=ADVANCED_BREP_SHAPE_REPRESENTATION('',(#14),#1729);
#13=STYLED_ITEM('',(#1746),#14);
#14=MANIFOLD_SOLID_BREP('Body2',#1010);
#15=LINE('',#1446,#102);
#16=LINE('',#1449,#103);
#17=LINE('',#1459,#104);
#18=LINE('',#1462,#105);
#19=LINE('',#1472,#106);
#20=LINE('',#1475,#107);
#21=LINE('',#1485,#108);
#22=LINE('',#1488,#109);
#23=LINE('',#1498,#110);
#24=LINE('',#1501,#111);
#25=LINE('',#1507,#112);
#26=LINE('',#1512,#113);
#27=LINE('',#1514,#114);
#28=LINE('',#1516,#115);
#29=LINE('',#1517,#116);
#30=LINE('',#1521,#117);
#31=LINE('',#1523,#118);
#32=LINE('',#1525,#119);
#33=LINE('',#1526,#120);
#34=LINE('',#1535,#121);
#35=LINE('',#1537,#122);
#36=LINE('',#1539,#123);
#37=LINE('',#1540,#124);
#38=LINE('',#1544,#125);
#39=LINE('',#1546,#126);
#40=LINE('',#1548,#127);
#41=LINE('',#1549,#128);
#42=LINE('',#1558,#129);
#43=LINE('',#1560,#130);
#44=LINE('',#1562,#131);
#45=LINE('',#1563,#132);
#46=LINE('',#1567,#133);
#47=LINE('',#1569,#134);
#48=LINE('',#1571,#135);
#49=LINE('',#1572,#136);
#50=LINE('',#1581,#137);
#51=LINE('',#1583,#138);
#52=LINE('',#1585,#139);
#53=LINE('',#1586,#140);
#54=LINE('',#1590,#141);
#55=LINE('',#1592,#142);
#56=LINE('',#1594,#143);
#57=LINE('',#1595,#144);
#58=LINE('',#1605,#145);
#59=LINE('',#1609,#146);
#60=LINE('',#1614,#147);
#61=LINE('',#1618,#148);
#62=LINE('',#1623,#149);
#63=LINE('',#1627,#150);
#64=LINE('',#1632,#151);
#65=LINE('',#1637,#152);
#66=LINE('',#1641,#153);
#67=LINE('',#1645,#154);
#68=LINE('',#1649,#155);
#69=LINE('',#1653,#156);
#70=LINE('',#1657,#157);
#71=LINE('',#1661,#158);
#72=LINE('',#1663,#159);
#73=LINE('',#1664,#160);
#74=LINE('',#1667,#161);
#75=LINE('',#1669,#162);
#76=LINE('',#1670,#163);
#77=LINE('',#1678,#164);
#78=LINE('',#1679,#165);
#79=LINE('',#1680,#166);
#80=LINE('',#1684,#167);
#81=LINE('',#1685,#168);
#82=LINE('',#1686,#169);
#83=LINE('',#1690,#170);
#84=LINE('',#1691,#171);
#85=LINE('',#1692,#172);
#86=LINE('',#1696,#173);
#87=LINE('',#1697,#174);
#88=LINE('',#1698,#175);
#89=LINE('',#1700,#176);
#90=LINE('',#1701,#177);
#91=LINE('',#1705,#178);
#92=LINE('',#1706,#179);
#93=LINE('',#1707,#180);
#94=LINE('',#1709,#181);
#95=LINE('',#1710,#182);
#96=LINE('',#1712,#183);
#97=LINE('',#1713,#184);
#98=LINE('',#1715,#185);
#99=LINE('',#1716,#186);
#100=LINE('',#1721,#187);
#101=LINE('',#1724,#188);
#102=VECTOR('',#1144,5.);
#103=VECTOR('',#1147,3.75);
#104=VECTOR('',#1160,5.);
#105=VECTOR('',#1163,3.75);
#106=VECTOR('',#1176,5.);
#107=VECTOR('',#1179,3.75);
#108=VECTOR('',#1192,5.);
#109=VECTOR('',#1195,3.75);
#110=VECTOR('',#1208,5.);
#111=VECTOR('',#1211,3.75);
#112=VECTOR('',#1218,9.);
#113=VECTOR('',#1223,10.);
#114=VECTOR('',#1224,10.);
#115=VECTOR('',#1225,10.);
#116=VECTOR('',#1226,10.);
#117=VECTOR('',#1229,10.);
#118=VECTOR('',#1230,10.);
#119=VECTOR('',#1231,10.);
#120=VECTOR('',#1232,10.);
#121=VECTOR('',#1245,10.);
#122=VECTOR('',#1246,10.);
#123=VECTOR('',#1247,10.);
#124=VECTOR('',#1248,10.);
#125=VECTOR('',#1251,10.);
#126=VECTOR('',#1252,10.);
#127=VECTOR('',#1253,10.);
#128=VECTOR('',#1254,10.);
#129=VECTOR('',#1267,10.);
#130=VECTOR('',#1268,10.);
#131=VECTOR('',#1269,10.);
#132=VECTOR('',#1270,10.);
#133=VECTOR('',#1273,10.);
#134=VECTOR('',#1274,10.);
#135=VECTOR('',#1275,10.);
#136=VECTOR('',#1276,10.);
#137=VECTOR('',#1289,10.);
#138=VECTOR('',#1290,10.);
#139=VECTOR('',#1291,10.);
#140=VECTOR('',#1292,10.);
#141=VECTOR('',#1295,10.);
#142=VECTOR('',#1296,10.);
#143=VECTOR('',#1297,10.);
#144=VECTOR('',#1298,10.);
#145=VECTOR('',#1313,10.);
#146=VECTOR('',#1316,10.);
#147=VECTOR('',#1321,10.);
#148=VECTOR('',#1324,10.);
#149=VECTOR('',#1329,10.);
#150=VECTOR('',#1332,41.);
#151=VECTOR('',#1337,10.);
#152=VECTOR('',#1342,10.);
#153=VECTOR('',#1345,10.);
#154=VECTOR('',#1348,10.);
#155=VECTOR('',#1351,10.);
#156=VECTOR('',#1354,10.);
#157=VECTOR('',#1357,10.);
#158=VECTOR('',#1362,10.);
#159=VECTOR('',#1363,10.);
#160=VECTOR('',#1364,10.);
#161=VECTOR('',#1367,10.);
#162=VECTOR('',#1368,10.);
#163=VECTOR('',#1369,10.);
#164=VECTOR('',#1380,10.);
#165=VECTOR('',#1381,10.);
#166=VECTOR('',#1382,10.);
#167=VECTOR('',#1385,10.);
#168=VECTOR('',#1386,10.);
#169=VECTOR('',#1387,10.);
#170=VECTOR('',#1390,10.);
#171=VECTOR('',#1391,10.);
#172=VECTOR('',#1392,10.);
#173=VECTOR('',#1395,10.);
#174=VECTOR('',#1396,10.);
#175=VECTOR('',#1397,10.);
#176=VECTOR('',#1400,10.);
#177=VECTOR('',#1401,10.);
#178=VECTOR('',#1404,10.);
#179=VECTOR('',#1405,10.);
#180=VECTOR('',#1406,10.);
#181=VECTOR('',#1409,10.);
#182=VECTOR('',#1410,10.);
#183=VECTOR('',#1413,10.);
#184=VECTOR('',#1414,10.);
#185=VECTOR('',#1417,10.);
#186=VECTOR('',#1418,10.);
#187=VECTOR('',#1427,10.);
#188=VECTOR('',#1432,10.);
#189=CYLINDRICAL_SURFACE('',#1027,5.);
#190=CYLINDRICAL_SURFACE('',#1029,3.75);
#191=CYLINDRICAL_SURFACE('',#1034,5.);
#192=CYLINDRICAL_SURFACE('',#1036,3.75);
#193=CYLINDRICAL_SURFACE('',#1041,5.);
#194=CYLINDRICAL_SURFACE('',#1043,3.75);
#195=CYLINDRICAL_SURFACE('',#1048,5.);
#196=CYLINDRICAL_SURFACE('',#1050,3.75);
#197=CYLINDRICAL_SURFACE('',#1055,5.);
#198=CYLINDRICAL_SURFACE('',#1057,3.75);
#199=CYLINDRICAL_SURFACE('',#1059,9.);
#200=CYLINDRICAL_SURFACE('',#1064,13.);
#201=CYLINDRICAL_SURFACE('',#1071,13.);
#202=CYLINDRICAL_SURFACE('',#1078,13.);
#203=CYLINDRICAL_SURFACE('',#1085,13.);
#204=CYLINDRICAL_SURFACE('',#1090,41.);
#205=CYLINDRICAL_SURFACE('',#1111,13.);
#206=FACE_BOUND('',#278,.T.);
#207=FACE_BOUND('',#282,.T.);
#208=FACE_BOUND('',#286,.T.);
#209=FACE_BOUND('',#290,.T.);
#210=FACE_BOUND('',#294,.T.);
#211=FACE_BOUND('',#329,.T.);
#212=FACE_BOUND('',#331,.T.);
#213=FACE_BOUND('',#333,.T.);
#214=FACE_BOUND('',#335,.T.);
#215=FACE_BOUND('',#337,.T.);
#216=FACE_BOUND('',#340,.T.);
#217=FACE_BOUND('',#342,.T.);
#218=FACE_BOUND('',#343,.T.);
#219=FACE_BOUND('',#344,.T.);
#220=FACE_BOUND('',#345,.T.);
#221=FACE_BOUND('',#346,.T.);
#222=FACE_BOUND('',#347,.T.);
#223=FACE_OUTER_BOUND('',#277,.T.);
#224=FACE_OUTER_BOUND('',#279,.T.);
#225=FACE_OUTER_BOUND('',#280,.T.);
#226=FACE_OUTER_BOUND('',#281,.T.);
#227=FACE_OUTER_BOUND('',#283,.T.);
#228=FACE_OUTER_BOUND('',#284,.T.);
#229=FACE_OUTER_BOUND('',#285,.T.);
#230=FACE_OUTER_BOUND('',#287,.T.);
#231=FACE_OUTER_BOUND('',#288,.T.);
#232=FACE_OUTER_BOUND('',#289,.T.);
#233=FACE_OUTER_BOUND('',#291,.T.);
#234=FACE_OUTER_BOUND('',#292,.T.);
#235=FACE_OUTER_BOUND('',#293,.T.);
#236=FACE_OUTER_BOUND('',#295,.T.);
#237=FACE_OUTER_BOUND('',#296,.T.);
#238=FACE_OUTER_BOUND('',#297,.T.);
#239=FACE_OUTER_BOUND('',#298,.T.);
#240=FACE_OUTER_BOUND('',#299,.T.);
#241=FACE_OUTER_BOUND('',#300,.T.);
#242=FACE_OUTER_BOUND('',#301,.T.);
#243=FACE_OUTER_BOUND('',#302,.T.);
#244=FACE_OUTER_BOUND('',#303,.T.);
#245=FACE_OUTER_BOUND('',#304,.T.);
#246=FACE_OUTER_BOUND('',#305,.T.);
#247=FACE_OUTER_BOUND('',#306,.T.);
#248=FACE_OUTER_BOUND('',#307,.T.);
#249=FACE_OUTER_BOUND('',#308,.T.);
#250=FACE_OUTER_BOUND('',#309,.T.);
#251=FACE_OUTER_BOUND('',#310,.T.);
#252=FACE_OUTER_BOUND('',#311,.T.);
#253=FACE_OUTER_BOUND('',#312,.T.);
#254=FACE_OUTER_BOUND('',#313,.T.);
#255=FACE_OUTER_BOUND('',#314,.T.);
#256=FACE_OUTER_BOUND('',#315,.T.);
#257=FACE_OUTER_BOUND('',#316,.T.);
#258=FACE_OUTER_BOUND('',#317,.T.);
#259=FACE_OUTER_BOUND('',#318,.T.);
#260=FACE_OUTER_BOUND('',#319,.T.);
#261=FACE_OUTER_BOUND('',#320,.T.);
#262=FACE_OUTER_BOUND('',#321,.T.);
#263=FACE_OUTER_BOUND('',#322,.T.);
#264=FACE_OUTER_BOUND('',#323,.T.);
#265=FACE_OUTER_BOUND('',#324,.T.);
#266=FACE_OUTER_BOUND('',#325,.T.);
#267=FACE_OUTER_BOUND('',#326,.T.);
#268=FACE_OUTER_BOUND('',#327,.T.);
#269=FACE_OUTER_BOUND('',#328,.T.);
#270=FACE_OUTER_BOUND('',#330,.T.);
#271=FACE_OUTER_BOUND('',#332,.T.);
#272=FACE_OUTER_BOUND('',#334,.T.);
#273=FACE_OUTER_BOUND('',#336,.T.);
#274=FACE_OUTER_BOUND('',#338,.T.);
#275=FACE_OUTER_BOUND('',#339,.T.);
#276=FACE_OUTER_BOUND('',#341,.T.);
#277=EDGE_LOOP('',(#637));
#278=EDGE_LOOP('',(#638));
#279=EDGE_LOOP('',(#639,#640,#641,#642));
#280=EDGE_LOOP('',(#643,#644,#645,#646));
#281=EDGE_LOOP('',(#647));
#282=EDGE_LOOP('',(#648));
#283=EDGE_LOOP('',(#649,#650,#651,#652));
#284=EDGE_LOOP('',(#653,#654,#655,#656));
#285=EDGE_LOOP('',(#657));
#286=EDGE_LOOP('',(#658));
#287=EDGE_LOOP('',(#659,#660,#661,#662));
#288=EDGE_LOOP('',(#663,#664,#665,#666));
#289=EDGE_LOOP('',(#667));
#290=EDGE_LOOP('',(#668));
#291=EDGE_LOOP('',(#669,#670,#671,#672));
#292=EDGE_LOOP('',(#673,#674,#675,#676));
#293=EDGE_LOOP('',(#677));
#294=EDGE_LOOP('',(#678));
#295=EDGE_LOOP('',(#679,#680,#681,#682));
#296=EDGE_LOOP('',(#683,#684,#685,#686));
#297=EDGE_LOOP('',(#687,#688,#689,#690));
#298=EDGE_LOOP('',(#691,#692,#693,#694));
#299=EDGE_LOOP('',(#695,#696,#697,#698));
#300=EDGE_LOOP('',(#699,#700,#701,#702));
#301=EDGE_LOOP('',(#703,#704,#705,#706));
#302=EDGE_LOOP('',(#707,#708,#709,#710));
#303=EDGE_LOOP('',(#711,#712,#713,#714));
#304=EDGE_LOOP('',(#715,#716,#717,#718));
#305=EDGE_LOOP('',(#719,#720,#721,#722));
#306=EDGE_LOOP('',(#723,#724,#725,#726));
#307=EDGE_LOOP('',(#727,#728,#729,#730));
#308=EDGE_LOOP('',(#731,#732,#733,#734));
#309=EDGE_LOOP('',(#735,#736,#737,#738));
#310=EDGE_LOOP('',(#739,#740,#741,#742));
#311=EDGE_LOOP('',(#743,#744,#745,#746));
#312=EDGE_LOOP('',(#747,#748,#749,#750));
#313=EDGE_LOOP('',(#751,#752,#753,#754));
#314=EDGE_LOOP('',(#755,#756,#757,#758,#759,#760,#761,#762,#763,#764,#765,
#766,#767,#768,#769,#770,#771,#772,#773,#774,#775,#776,#777,#778,#779,#780,
#781,#782,#783,#784,#785,#786,#787,#788,#789,#790,#791,#792,#793,#794,#795,
#796,#797,#798));
#315=EDGE_LOOP('',(#799,#800,#801,#802));
#316=EDGE_LOOP('',(#803,#804,#805,#806));
#317=EDGE_LOOP('',(#807,#808,#809,#810));
#318=EDGE_LOOP('',(#811,#812,#813,#814));
#319=EDGE_LOOP('',(#815,#816,#817,#818));
#320=EDGE_LOOP('',(#819,#820,#821,#822));
#321=EDGE_LOOP('',(#823,#824,#825,#826));
#322=EDGE_LOOP('',(#827,#828,#829,#830));
#323=EDGE_LOOP('',(#831,#832,#833,#834));
#324=EDGE_LOOP('',(#835,#836,#837,#838));
#325=EDGE_LOOP('',(#839,#840,#841,#842));
#326=EDGE_LOOP('',(#843,#844,#845,#846));
#327=EDGE_LOOP('',(#847,#848,#849,#850));
#328=EDGE_LOOP('',(#851,#852,#853));
#329=EDGE_LOOP('',(#854));
#330=EDGE_LOOP('',(#855,#856,#857));
#331=EDGE_LOOP('',(#858));
#332=EDGE_LOOP('',(#859,#860,#861,#862));
#333=EDGE_LOOP('',(#863));
#334=EDGE_LOOP('',(#864,#865,#866));
#335=EDGE_LOOP('',(#867));
#336=EDGE_LOOP('',(#868,#869,#870));
#337=EDGE_LOOP('',(#871));
#338=EDGE_LOOP('',(#872,#873,#874,#875));
#339=EDGE_LOOP('',(#876,#877,#878,#879,#880,#881,#882,#883,#884,#885,#886,
#887,#888,#889,#890,#891,#892,#893,#894,#895,#896,#897,#898,#899,#900,#901,
#902,#903,#904,#905,#906,#907,#908,#909,#910));
#340=EDGE_LOOP('',(#911));
#341=EDGE_LOOP('',(#912));
#342=EDGE_LOOP('',(#913));
#343=EDGE_LOOP('',(#914));
#344=EDGE_LOOP('',(#915));
#345=EDGE_LOOP('',(#916));
#346=EDGE_LOOP('',(#917));
#347=EDGE_LOOP('',(#918));
#348=CIRCLE('',#1025,5.);
#349=CIRCLE('',#1026,3.75);
#350=CIRCLE('',#1028,5.);
#351=CIRCLE('',#1030,3.75);
#352=CIRCLE('',#1032,5.);
#353=CIRCLE('',#1033,3.75);
#354=CIRCLE('',#1035,5.);
#355=CIRCLE('',#1037,3.75);
#356=CIRCLE('',#1039,5.);
#357=CIRCLE('',#1040,3.75);
#358=CIRCLE('',#1042,5.);
#359=CIRCLE('',#1044,3.75);
#360=CIRCLE('',#1046,5.);
#361=CIRCLE('',#1047,3.75);
#362=CIRCLE('',#1049,5.);
#363=CIRCLE('',#1051,3.75);
#364=CIRCLE('',#1053,5.);
#365=CIRCLE('',#1054,3.75);
#366=CIRCLE('',#1056,5.);
#367=CIRCLE('',#1058,3.75);
#368=CIRCLE('',#1060,9.);
#369=CIRCLE('',#1061,9.);
#370=CIRCLE('',#1065,13.);
#371=CIRCLE('',#1066,13.);
#372=CIRCLE('',#1068,41.);
#373=CIRCLE('',#1072,13.);
#374=CIRCLE('',#1073,13.);
#375=CIRCLE('',#1075,41.);
#376=CIRCLE('',#1079,13.);
#377=CIRCLE('',#1080,13.);
#378=CIRCLE('',#1082,41.);
#379=CIRCLE('',#1086,13.);
#380=CIRCLE('',#1087,13.);
#381=CIRCLE('',#1089,41.);
#382=CIRCLE('',#1091,41.);
#383=CIRCLE('',#1092,41.);
#384=CIRCLE('',#1093,41.);
#385=CIRCLE('',#1094,41.);
#386=CIRCLE('',#1095,41.);
#387=CIRCLE('',#1096,41.);
#388=CIRCLE('',#1097,41.);
#389=CIRCLE('',#1098,41.);
#390=CIRCLE('',#1099,41.);
#391=CIRCLE('',#1100,41.);
#392=CIRCLE('',#1101,41.);
#393=CIRCLE('',#1102,41.);
#394=CIRCLE('',#1103,41.);
#395=CIRCLE('',#1104,41.);
#396=CIRCLE('',#1105,41.);
#397=CIRCLE('',#1106,41.);
#398=CIRCLE('',#1107,41.);
#399=CIRCLE('',#1108,41.);
#400=CIRCLE('',#1112,13.);
#401=CIRCLE('',#1113,13.);
#402=VERTEX_POINT('',#1439);
#403=VERTEX_POINT('',#1441);
#404=VERTEX_POINT('',#1444);
#405=VERTEX_POINT('',#1448);
#406=VERTEX_POINT('',#1452);
#407=VERTEX_POINT('',#1454);
#408=VERTEX_POINT('',#1457);
#409=VERTEX_POINT('',#1461);
#410=VERTEX_POINT('',#1465);
#411=VERTEX_POINT('',#1467);
#412=VERTEX_POINT('',#1470);
#413=VERTEX_POINT('',#1474);
#414=VERTEX_POINT('',#1478);
#415=VERTEX_POINT('',#1480);
#416=VERTEX_POINT('',#1483);
#417=VERTEX_POINT('',#1487);
#418=VERTEX_POINT('',#1491);
#419=VERTEX_POINT('',#1493);
#420=VERTEX_POINT('',#1496);
#421=VERTEX_POINT('',#1500);
#422=VERTEX_POINT('',#1504);
#423=VERTEX_POINT('',#1506);
#424=VERTEX_POINT('',#1510);
#425=VERTEX_POINT('',#1511);
#426=VERTEX_POINT('',#1513);
#427=VERTEX_POINT('',#1515);
#428=VERTEX_POINT('',#1519);
#429=VERTEX_POINT('',#1520);
#430=VERTEX_POINT('',#1522);
#431=VERTEX_POINT('',#1524);
#432=VERTEX_POINT('',#1533);
#433=VERTEX_POINT('',#1534);
#434=VERTEX_POINT('',#1536);
#435=VERTEX_POINT('',#1538);
#436=VERTEX_POINT('',#1542);
#437=VERTEX_POINT('',#1543);
#438=VERTEX_POINT('',#1545);
#439=VERTEX_POINT('',#1547);
#440=VERTEX_POINT('',#1556);
#441=VERTEX_POINT('',#1557);
#442=VERTEX_POINT('',#1559);
#443=VERTEX_POINT('',#1561);
#444=VERTEX_POINT('',#1565);
#445=VERTEX_POINT('',#1566);
#446=VERTEX_POINT('',#1568);
#447=VERTEX_POINT('',#1570);
#448=VERTEX_POINT('',#1579);
#449=VERTEX_POINT('',#1580);
#450=VERTEX_POINT('',#1582);
#451=VERTEX_POINT('',#1584);
#452=VERTEX_POINT('',#1588);
#453=VERTEX_POINT('',#1589);
#454=VERTEX_POINT('',#1591);
#455=VERTEX_POINT('',#1593);
#456=VERTEX_POINT('',#1602);
#457=VERTEX_POINT('',#1604);
#458=VERTEX_POINT('',#1606);
#459=VERTEX_POINT('',#1608);
#460=VERTEX_POINT('',#1611);
#461=VERTEX_POINT('',#1613);
#462=VERTEX_POINT('',#1615);
#463=VERTEX_POINT('',#1617);
#464=VERTEX_POINT('',#1620);
#465=VERTEX_POINT('',#1622);
#466=VERTEX_POINT('',#1624);
#467=VERTEX_POINT('',#1626);
#468=VERTEX_POINT('',#1629);
#469=VERTEX_POINT('',#1631);
#470=VERTEX_POINT('',#1634);
#471=VERTEX_POINT('',#1636);
#472=VERTEX_POINT('',#1638);
#473=VERTEX_POINT('',#1640);
#474=VERTEX_POINT('',#1642);
#475=VERTEX_POINT('',#1644);
#476=VERTEX_POINT('',#1646);
#477=VERTEX_POINT('',#1648);
#478=VERTEX_POINT('',#1650);
#479=VERTEX_POINT('',#1652);
#480=VERTEX_POINT('',#1654);
#481=VERTEX_POINT('',#1656);
#482=VERTEX_POINT('',#1660);
#483=VERTEX_POINT('',#1662);
#484=VERTEX_POINT('',#1666);
#485=VERTEX_POINT('',#1668);
#486=VERTEX_POINT('',#1676);
#487=VERTEX_POINT('',#1677);
#488=VERTEX_POINT('',#1682);
#489=VERTEX_POINT('',#1683);
#490=VERTEX_POINT('',#1688);
#491=VERTEX_POINT('',#1689);
#492=VERTEX_POINT('',#1694);
#493=VERTEX_POINT('',#1695);
#494=VERTEX_POINT('',#1703);
#495=VERTEX_POINT('',#1704);
#496=EDGE_CURVE('',#402,#402,#348,.T.);
#497=EDGE_CURVE('',#403,#403,#349,.T.);
#498=EDGE_CURVE('',#404,#404,#350,.T.);
#499=EDGE_CURVE('',#404,#402,#15,.T.);
#500=EDGE_CURVE('',#403,#405,#16,.T.);
#501=EDGE_CURVE('',#405,#405,#351,.T.);
#502=EDGE_CURVE('',#406,#406,#352,.T.);
#503=EDGE_CURVE('',#407,#407,#353,.T.);
#504=EDGE_CURVE('',#408,#408,#354,.T.);
#505=EDGE_CURVE('',#408,#406,#17,.T.);
#506=EDGE_CURVE('',#407,#409,#18,.T.);
#507=EDGE_CURVE('',#409,#409,#355,.T.);
#508=EDGE_CURVE('',#410,#410,#356,.T.);
#509=EDGE_CURVE('',#411,#411,#357,.T.);
#510=EDGE_CURVE('',#412,#412,#358,.T.);
#511=EDGE_CURVE('',#412,#410,#19,.T.);
#512=EDGE_CURVE('',#411,#413,#20,.T.);
#513=EDGE_CURVE('',#413,#413,#359,.T.);
#514=EDGE_CURVE('',#414,#414,#360,.T.);
#515=EDGE_CURVE('',#415,#415,#361,.T.);
#516=EDGE_CURVE('',#416,#416,#362,.T.);
#517=EDGE_CURVE('',#416,#414,#21,.T.);
#518=EDGE_CURVE('',#415,#417,#22,.T.);
#519=EDGE_CURVE('',#417,#417,#363,.T.);
#520=EDGE_CURVE('',#418,#418,#364,.T.);
#521=EDGE_CURVE('',#419,#419,#365,.T.);
#522=EDGE_CURVE('',#420,#420,#366,.T.);
#523=EDGE_CURVE('',#420,#418,#23,.T.);
#524=EDGE_CURVE('',#419,#421,#24,.T.);
#525=EDGE_CURVE('',#421,#421,#367,.T.);
#526=EDGE_CURVE('',#422,#422,#368,.T.);
#527=EDGE_CURVE('',#422,#423,#25,.T.);
#528=EDGE_CURVE('',#423,#423,#369,.T.);
#529=EDGE_CURVE('',#424,#425,#26,.T.);
#530=EDGE_CURVE('',#426,#424,#27,.T.);
#531=EDGE_CURVE('',#426,#427,#28,.T.);
#532=EDGE_CURVE('',#425,#427,#29,.T.);
#533=EDGE_CURVE('',#428,#429,#30,.T.);
#534=EDGE_CURVE('',#428,#430,#31,.T.);
#535=EDGE_CURVE('',#430,#431,#32,.T.);
#536=EDGE_CURVE('',#429,#431,#33,.T.);
#537=EDGE_CURVE('',#425,#428,#370,.T.);
#538=EDGE_CURVE('',#427,#430,#371,.T.);
#539=EDGE_CURVE('',#431,#426,#372,.T.);
#540=EDGE_CURVE('',#432,#433,#34,.T.);
#541=EDGE_CURVE('',#434,#432,#35,.T.);
#542=EDGE_CURVE('',#434,#435,#36,.T.);
#543=EDGE_CURVE('',#433,#435,#37,.T.);
#544=EDGE_CURVE('',#436,#437,#38,.T.);
#545=EDGE_CURVE('',#436,#438,#39,.T.);
#546=EDGE_CURVE('',#438,#439,#40,.T.);
#547=EDGE_CURVE('',#437,#439,#41,.T.);
#548=EDGE_CURVE('',#433,#436,#373,.T.);
#549=EDGE_CURVE('',#435,#438,#374,.T.);
#550=EDGE_CURVE('',#439,#434,#375,.T.);
#551=EDGE_CURVE('',#440,#441,#42,.T.);
#552=EDGE_CURVE('',#442,#440,#43,.T.);
#553=EDGE_CURVE('',#442,#443,#44,.T.);
#554=EDGE_CURVE('',#441,#443,#45,.T.);
#555=EDGE_CURVE('',#444,#445,#46,.T.);
#556=EDGE_CURVE('',#444,#446,#47,.T.);
#557=EDGE_CURVE('',#446,#447,#48,.T.);
#558=EDGE_CURVE('',#445,#447,#49,.T.);
#559=EDGE_CURVE('',#441,#444,#376,.T.);
#560=EDGE_CURVE('',#443,#446,#377,.T.);
#561=EDGE_CURVE('',#447,#442,#378,.T.);
#562=EDGE_CURVE('',#448,#449,#50,.T.);
#563=EDGE_CURVE('',#450,#448,#51,.T.);
#564=EDGE_CURVE('',#450,#451,#52,.T.);
#565=EDGE_CURVE('',#449,#451,#53,.T.);
#566=EDGE_CURVE('',#452,#453,#54,.T.);
#567=EDGE_CURVE('',#452,#454,#55,.T.);
#568=EDGE_CURVE('',#454,#455,#56,.T.);
#569=EDGE_CURVE('',#453,#455,#57,.T.);
#570=EDGE_CURVE('',#449,#452,#379,.T.);
#571=EDGE_CURVE('',#451,#454,#380,.T.);
#572=EDGE_CURVE('',#455,#450,#381,.T.);
#573=EDGE_CURVE('',#456,#424,#382,.T.);
#574=EDGE_CURVE('',#457,#456,#58,.T.);
#575=EDGE_CURVE('',#458,#457,#383,.T.);
#576=EDGE_CURVE('',#458,#459,#59,.T.);
#577=EDGE_CURVE('',#437,#459,#384,.T.);
#578=EDGE_CURVE('',#460,#432,#385,.T.);
#579=EDGE_CURVE('',#461,#460,#60,.T.);
#580=EDGE_CURVE('',#462,#461,#386,.T.);
#581=EDGE_CURVE('',#462,#463,#61,.T.);
#582=EDGE_CURVE('',#445,#463,#387,.T.);
#583=EDGE_CURVE('',#464,#440,#388,.T.);
#584=EDGE_CURVE('',#465,#464,#62,.T.);
#585=EDGE_CURVE('',#466,#465,#389,.T.);
#586=EDGE_CURVE('',#466,#467,#63,.T.);
#587=EDGE_CURVE('',#467,#467,#390,.T.);
#588=EDGE_CURVE('',#468,#466,#391,.T.);
#589=EDGE_CURVE('',#468,#469,#64,.T.);
#590=EDGE_CURVE('',#453,#469,#392,.T.);
#591=EDGE_CURVE('',#470,#448,#393,.T.);
#592=EDGE_CURVE('',#471,#470,#65,.T.);
#593=EDGE_CURVE('',#472,#471,#394,.T.);
#594=EDGE_CURVE('',#472,#473,#66,.T.);
#595=EDGE_CURVE('',#474,#473,#395,.T.);
#596=EDGE_CURVE('',#474,#475,#67,.T.);
#597=EDGE_CURVE('',#475,#476,#396,.T.);
#598=EDGE_CURVE('',#476,#477,#68,.T.);
#599=EDGE_CURVE('',#478,#477,#397,.T.);
#600=EDGE_CURVE('',#479,#478,#69,.T.);
#601=EDGE_CURVE('',#480,#479,#398,.T.);
#602=EDGE_CURVE('',#480,#481,#70,.T.);
#603=EDGE_CURVE('',#429,#481,#399,.T.);
#604=EDGE_CURVE('',#477,#482,#71,.T.);
#605=EDGE_CURVE('',#476,#483,#72,.T.);
#606=EDGE_CURVE('',#482,#483,#73,.T.);
#607=EDGE_CURVE('',#484,#474,#74,.T.);
#608=EDGE_CURVE('',#484,#485,#75,.T.);
#609=EDGE_CURVE('',#485,#475,#76,.T.);
#610=EDGE_CURVE('',#482,#484,#400,.T.);
#611=EDGE_CURVE('',#483,#485,#401,.T.);
#612=EDGE_CURVE('',#486,#487,#77,.T.);
#613=EDGE_CURVE('',#471,#486,#78,.T.);
#614=EDGE_CURVE('',#487,#470,#79,.T.);
#615=EDGE_CURVE('',#488,#489,#80,.T.);
#616=EDGE_CURVE('',#457,#488,#81,.T.);
#617=EDGE_CURVE('',#489,#456,#82,.T.);
#618=EDGE_CURVE('',#490,#491,#83,.T.);
#619=EDGE_CURVE('',#481,#490,#84,.T.);
#620=EDGE_CURVE('',#491,#480,#85,.T.);
#621=EDGE_CURVE('',#492,#493,#86,.T.);
#622=EDGE_CURVE('',#461,#492,#87,.T.);
#623=EDGE_CURVE('',#493,#460,#88,.T.);
#624=EDGE_CURVE('',#459,#489,#89,.T.);
#625=EDGE_CURVE('',#488,#458,#90,.T.);
#626=EDGE_CURVE('',#494,#495,#91,.T.);
#627=EDGE_CURVE('',#465,#494,#92,.T.);
#628=EDGE_CURVE('',#495,#464,#93,.T.);
#629=EDGE_CURVE('',#463,#493,#94,.T.);
#630=EDGE_CURVE('',#492,#462,#95,.T.);
#631=EDGE_CURVE('',#469,#495,#96,.T.);
#632=EDGE_CURVE('',#494,#468,#97,.T.);
#633=EDGE_CURVE('',#479,#491,#98,.T.);
#634=EDGE_CURVE('',#490,#478,#99,.T.);
#635=EDGE_CURVE('',#486,#472,#100,.T.);
#636=EDGE_CURVE('',#473,#487,#101,.T.);
#637=ORIENTED_EDGE('',*,*,#496,.F.);
#638=ORIENTED_EDGE('',*,*,#497,.T.);
#639=ORIENTED_EDGE('',*,*,#498,.F.);
#640=ORIENTED_EDGE('',*,*,#499,.T.);
#641=ORIENTED_EDGE('',*,*,#496,.T.);
#642=ORIENTED_EDGE('',*,*,#499,.F.);
#643=ORIENTED_EDGE('',*,*,#497,.F.);
#644=ORIENTED_EDGE('',*,*,#500,.T.);
#645=ORIENTED_EDGE('',*,*,#501,.F.);
#646=ORIENTED_EDGE('',*,*,#500,.F.);
#647=ORIENTED_EDGE('',*,*,#502,.F.);
#648=ORIENTED_EDGE('',*,*,#503,.T.);
#649=ORIENTED_EDGE('',*,*,#504,.F.);
#650=ORIENTED_EDGE('',*,*,#505,.T.);
#651=ORIENTED_EDGE('',*,*,#502,.T.);
#652=ORIENTED_EDGE('',*,*,#505,.F.);
#653=ORIENTED_EDGE('',*,*,#503,.F.);
#654=ORIENTED_EDGE('',*,*,#506,.T.);
#655=ORIENTED_EDGE('',*,*,#507,.F.);
#656=ORIENTED_EDGE('',*,*,#506,.F.);
#657=ORIENTED_EDGE('',*,*,#508,.F.);
#658=ORIENTED_EDGE('',*,*,#509,.T.);
#659=ORIENTED_EDGE('',*,*,#510,.F.);
#660=ORIENTED_EDGE('',*,*,#511,.T.);
#661=ORIENTED_EDGE('',*,*,#508,.T.);
#662=ORIENTED_EDGE('',*,*,#511,.F.);
#663=ORIENTED_EDGE('',*,*,#509,.F.);
#664=ORIENTED_EDGE('',*,*,#512,.T.);
#665=ORIENTED_EDGE('',*,*,#513,.F.);
#666=ORIENTED_EDGE('',*,*,#512,.F.);
#667=ORIENTED_EDGE('',*,*,#514,.F.);
#668=ORIENTED_EDGE('',*,*,#515,.T.);
#669=ORIENTED_EDGE('',*,*,#516,.F.);
#670=ORIENTED_EDGE('',*,*,#517,.T.);
#671=ORIENTED_EDGE('',*,*,#514,.T.);
#672=ORIENTED_EDGE('',*,*,#517,.F.);
#673=ORIENTED_EDGE('',*,*,#515,.F.);
#674=ORIENTED_EDGE('',*,*,#518,.T.);
#675=ORIENTED_EDGE('',*,*,#519,.F.);
#676=ORIENTED_EDGE('',*,*,#518,.F.);
#677=ORIENTED_EDGE('',*,*,#520,.F.);
#678=ORIENTED_EDGE('',*,*,#521,.T.);
#679=ORIENTED_EDGE('',*,*,#522,.F.);
#680=ORIENTED_EDGE('',*,*,#523,.T.);
#681=ORIENTED_EDGE('',*,*,#520,.T.);
#682=ORIENTED_EDGE('',*,*,#523,.F.);
#683=ORIENTED_EDGE('',*,*,#521,.F.);
#684=ORIENTED_EDGE('',*,*,#524,.T.);
#685=ORIENTED_EDGE('',*,*,#525,.F.);
#686=ORIENTED_EDGE('',*,*,#524,.F.);
#687=ORIENTED_EDGE('',*,*,#526,.F.);
#688=ORIENTED_EDGE('',*,*,#527,.T.);
#689=ORIENTED_EDGE('',*,*,#528,.F.);
#690=ORIENTED_EDGE('',*,*,#527,.F.);
#691=ORIENTED_EDGE('',*,*,#529,.F.);
#692=ORIENTED_EDGE('',*,*,#530,.F.);
#693=ORIENTED_EDGE('',*,*,#531,.T.);
#694=ORIENTED_EDGE('',*,*,#532,.F.);
#695=ORIENTED_EDGE('',*,*,#533,.F.);
#696=ORIENTED_EDGE('',*,*,#534,.T.);
#697=ORIENTED_EDGE('',*,*,#535,.T.);
#698=ORIENTED_EDGE('',*,*,#536,.F.);
#699=ORIENTED_EDGE('',*,*,#537,.F.);
#700=ORIENTED_EDGE('',*,*,#532,.T.);
#701=ORIENTED_EDGE('',*,*,#538,.T.);
#702=ORIENTED_EDGE('',*,*,#534,.F.);
#703=ORIENTED_EDGE('',*,*,#538,.F.);
#704=ORIENTED_EDGE('',*,*,#531,.F.);
#705=ORIENTED_EDGE('',*,*,#539,.F.);
#706=ORIENTED_EDGE('',*,*,#535,.F.);
#707=ORIENTED_EDGE('',*,*,#540,.F.);
#708=ORIENTED_EDGE('',*,*,#541,.F.);
#709=ORIENTED_EDGE('',*,*,#542,.T.);
#710=ORIENTED_EDGE('',*,*,#543,.F.);
#711=ORIENTED_EDGE('',*,*,#544,.F.);
#712=ORIENTED_EDGE('',*,*,#545,.T.);
#713=ORIENTED_EDGE('',*,*,#546,.T.);
#714=ORIENTED_EDGE('',*,*,#547,.F.);
#715=ORIENTED_EDGE('',*,*,#548,.F.);
#716=ORIENTED_EDGE('',*,*,#543,.T.);
#717=ORIENTED_EDGE('',*,*,#549,.T.);
#718=ORIENTED_EDGE('',*,*,#545,.F.);
#719=ORIENTED_EDGE('',*,*,#549,.F.);
#720=ORIENTED_EDGE('',*,*,#542,.F.);
#721=ORIENTED_EDGE('',*,*,#550,.F.);
#722=ORIENTED_EDGE('',*,*,#546,.F.);
#723=ORIENTED_EDGE('',*,*,#551,.F.);
#724=ORIENTED_EDGE('',*,*,#552,.F.);
#725=ORIENTED_EDGE('',*,*,#553,.T.);
#726=ORIENTED_EDGE('',*,*,#554,.F.);
#727=ORIENTED_EDGE('',*,*,#555,.F.);
#728=ORIENTED_EDGE('',*,*,#556,.T.);
#729=ORIENTED_EDGE('',*,*,#557,.T.);
#730=ORIENTED_EDGE('',*,*,#558,.F.);
#731=ORIENTED_EDGE('',*,*,#559,.F.);
#732=ORIENTED_EDGE('',*,*,#554,.T.);
#733=ORIENTED_EDGE('',*,*,#560,.T.);
#734=ORIENTED_EDGE('',*,*,#556,.F.);
#735=ORIENTED_EDGE('',*,*,#560,.F.);
#736=ORIENTED_EDGE('',*,*,#553,.F.);
#737=ORIENTED_EDGE('',*,*,#561,.F.);
#738=ORIENTED_EDGE('',*,*,#557,.F.);
#739=ORIENTED_EDGE('',*,*,#562,.F.);
#740=ORIENTED_EDGE('',*,*,#563,.F.);
#741=ORIENTED_EDGE('',*,*,#564,.T.);
#742=ORIENTED_EDGE('',*,*,#565,.F.);
#743=ORIENTED_EDGE('',*,*,#566,.F.);
#744=ORIENTED_EDGE('',*,*,#567,.T.);
#745=ORIENTED_EDGE('',*,*,#568,.T.);
#746=ORIENTED_EDGE('',*,*,#569,.F.);
#747=ORIENTED_EDGE('',*,*,#570,.F.);
#748=ORIENTED_EDGE('',*,*,#565,.T.);
#749=ORIENTED_EDGE('',*,*,#571,.T.);
#750=ORIENTED_EDGE('',*,*,#567,.F.);
#751=ORIENTED_EDGE('',*,*,#571,.F.);
#752=ORIENTED_EDGE('',*,*,#564,.F.);
#753=ORIENTED_EDGE('',*,*,#572,.F.);
#754=ORIENTED_EDGE('',*,*,#568,.F.);
#755=ORIENTED_EDGE('',*,*,#536,.T.);
#756=ORIENTED_EDGE('',*,*,#539,.T.);
#757=ORIENTED_EDGE('',*,*,#530,.T.);
#758=ORIENTED_EDGE('',*,*,#573,.F.);
#759=ORIENTED_EDGE('',*,*,#574,.F.);
#760=ORIENTED_EDGE('',*,*,#575,.F.);
#761=ORIENTED_EDGE('',*,*,#576,.T.);
#762=ORIENTED_EDGE('',*,*,#577,.F.);
#763=ORIENTED_EDGE('',*,*,#547,.T.);
#764=ORIENTED_EDGE('',*,*,#550,.T.);
#765=ORIENTED_EDGE('',*,*,#541,.T.);
#766=ORIENTED_EDGE('',*,*,#578,.F.);
#767=ORIENTED_EDGE('',*,*,#579,.F.);
#768=ORIENTED_EDGE('',*,*,#580,.F.);
#769=ORIENTED_EDGE('',*,*,#581,.T.);
#770=ORIENTED_EDGE('',*,*,#582,.F.);
#771=ORIENTED_EDGE('',*,*,#558,.T.);
#772=ORIENTED_EDGE('',*,*,#561,.T.);
#773=ORIENTED_EDGE('',*,*,#552,.T.);
#774=ORIENTED_EDGE('',*,*,#583,.F.);
#775=ORIENTED_EDGE('',*,*,#584,.F.);
#776=ORIENTED_EDGE('',*,*,#585,.F.);
#777=ORIENTED_EDGE('',*,*,#586,.T.);
#778=ORIENTED_EDGE('',*,*,#587,.T.);
#779=ORIENTED_EDGE('',*,*,#586,.F.);
#780=ORIENTED_EDGE('',*,*,#588,.F.);
#781=ORIENTED_EDGE('',*,*,#589,.T.);
#782=ORIENTED_EDGE('',*,*,#590,.F.);
#783=ORIENTED_EDGE('',*,*,#569,.T.);
#784=ORIENTED_EDGE('',*,*,#572,.T.);
#785=ORIENTED_EDGE('',*,*,#563,.T.);
#786=ORIENTED_EDGE('',*,*,#591,.F.);
#787=ORIENTED_EDGE('',*,*,#592,.F.);
#788=ORIENTED_EDGE('',*,*,#593,.F.);
#789=ORIENTED_EDGE('',*,*,#594,.T.);
#790=ORIENTED_EDGE('',*,*,#595,.F.);
#791=ORIENTED_EDGE('',*,*,#596,.T.);
#792=ORIENTED_EDGE('',*,*,#597,.T.);
#793=ORIENTED_EDGE('',*,*,#598,.T.);
#794=ORIENTED_EDGE('',*,*,#599,.F.);
#795=ORIENTED_EDGE('',*,*,#600,.F.);
#796=ORIENTED_EDGE('',*,*,#601,.F.);
#797=ORIENTED_EDGE('',*,*,#602,.T.);
#798=ORIENTED_EDGE('',*,*,#603,.F.);
#799=ORIENTED_EDGE('',*,*,#604,.F.);
#800=ORIENTED_EDGE('',*,*,#598,.F.);
#801=ORIENTED_EDGE('',*,*,#605,.T.);
#802=ORIENTED_EDGE('',*,*,#606,.F.);
#803=ORIENTED_EDGE('',*,*,#607,.F.);
#804=ORIENTED_EDGE('',*,*,#608,.T.);
#805=ORIENTED_EDGE('',*,*,#609,.T.);
#806=ORIENTED_EDGE('',*,*,#596,.F.);
#807=ORIENTED_EDGE('',*,*,#610,.F.);
#808=ORIENTED_EDGE('',*,*,#606,.T.);
#809=ORIENTED_EDGE('',*,*,#611,.T.);
#810=ORIENTED_EDGE('',*,*,#608,.F.);
#811=ORIENTED_EDGE('',*,*,#611,.F.);
#812=ORIENTED_EDGE('',*,*,#605,.F.);
#813=ORIENTED_EDGE('',*,*,#597,.F.);
#814=ORIENTED_EDGE('',*,*,#609,.F.);
#815=ORIENTED_EDGE('',*,*,#612,.F.);
#816=ORIENTED_EDGE('',*,*,#613,.F.);
#817=ORIENTED_EDGE('',*,*,#592,.T.);
#818=ORIENTED_EDGE('',*,*,#614,.F.);
#819=ORIENTED_EDGE('',*,*,#615,.F.);
#820=ORIENTED_EDGE('',*,*,#616,.F.);
#821=ORIENTED_EDGE('',*,*,#574,.T.);
#822=ORIENTED_EDGE('',*,*,#617,.F.);
#823=ORIENTED_EDGE('',*,*,#618,.F.);
#824=ORIENTED_EDGE('',*,*,#619,.F.);
#825=ORIENTED_EDGE('',*,*,#602,.F.);
#826=ORIENTED_EDGE('',*,*,#620,.F.);
#827=ORIENTED_EDGE('',*,*,#621,.F.);
#828=ORIENTED_EDGE('',*,*,#622,.F.);
#829=ORIENTED_EDGE('',*,*,#579,.T.);
#830=ORIENTED_EDGE('',*,*,#623,.F.);
#831=ORIENTED_EDGE('',*,*,#615,.T.);
#832=ORIENTED_EDGE('',*,*,#624,.F.);
#833=ORIENTED_EDGE('',*,*,#576,.F.);
#834=ORIENTED_EDGE('',*,*,#625,.F.);
#835=ORIENTED_EDGE('',*,*,#626,.F.);
#836=ORIENTED_EDGE('',*,*,#627,.F.);
#837=ORIENTED_EDGE('',*,*,#584,.T.);
#838=ORIENTED_EDGE('',*,*,#628,.F.);
#839=ORIENTED_EDGE('',*,*,#621,.T.);
#840=ORIENTED_EDGE('',*,*,#629,.F.);
#841=ORIENTED_EDGE('',*,*,#581,.F.);
#842=ORIENTED_EDGE('',*,*,#630,.F.);
#843=ORIENTED_EDGE('',*,*,#626,.T.);
#844=ORIENTED_EDGE('',*,*,#631,.F.);
#845=ORIENTED_EDGE('',*,*,#589,.F.);
#846=ORIENTED_EDGE('',*,*,#632,.F.);
#847=ORIENTED_EDGE('',*,*,#618,.T.);
#848=ORIENTED_EDGE('',*,*,#633,.F.);
#849=ORIENTED_EDGE('',*,*,#600,.T.);
#850=ORIENTED_EDGE('',*,*,#634,.F.);
#851=ORIENTED_EDGE('',*,*,#616,.T.);
#852=ORIENTED_EDGE('',*,*,#625,.T.);
#853=ORIENTED_EDGE('',*,*,#575,.T.);
#854=ORIENTED_EDGE('',*,*,#516,.T.);
#855=ORIENTED_EDGE('',*,*,#622,.T.);
#856=ORIENTED_EDGE('',*,*,#630,.T.);
#857=ORIENTED_EDGE('',*,*,#580,.T.);
#858=ORIENTED_EDGE('',*,*,#510,.T.);
#859=ORIENTED_EDGE('',*,*,#632,.T.);
#860=ORIENTED_EDGE('',*,*,#588,.T.);
#861=ORIENTED_EDGE('',*,*,#585,.T.);
#862=ORIENTED_EDGE('',*,*,#627,.T.);
#863=ORIENTED_EDGE('',*,*,#504,.T.);
#864=ORIENTED_EDGE('',*,*,#613,.T.);
#865=ORIENTED_EDGE('',*,*,#635,.T.);
#866=ORIENTED_EDGE('',*,*,#593,.T.);
#867=ORIENTED_EDGE('',*,*,#498,.T.);
#868=ORIENTED_EDGE('',*,*,#620,.T.);
#869=ORIENTED_EDGE('',*,*,#601,.T.);
#870=ORIENTED_EDGE('',*,*,#633,.T.);
#871=ORIENTED_EDGE('',*,*,#522,.T.);
#872=ORIENTED_EDGE('',*,*,#612,.T.);
#873=ORIENTED_EDGE('',*,*,#636,.F.);
#874=ORIENTED_EDGE('',*,*,#594,.F.);
#875=ORIENTED_EDGE('',*,*,#635,.F.);
#876=ORIENTED_EDGE('',*,*,#533,.T.);
#877=ORIENTED_EDGE('',*,*,#603,.T.);
#878=ORIENTED_EDGE('',*,*,#619,.T.);
#879=ORIENTED_EDGE('',*,*,#634,.T.);
#880=ORIENTED_EDGE('',*,*,#599,.T.);
#881=ORIENTED_EDGE('',*,*,#604,.T.);
#882=ORIENTED_EDGE('',*,*,#610,.T.);
#883=ORIENTED_EDGE('',*,*,#607,.T.);
#884=ORIENTED_EDGE('',*,*,#595,.T.);
#885=ORIENTED_EDGE('',*,*,#636,.T.);
#886=ORIENTED_EDGE('',*,*,#614,.T.);
#887=ORIENTED_EDGE('',*,*,#591,.T.);
#888=ORIENTED_EDGE('',*,*,#562,.T.);
#889=ORIENTED_EDGE('',*,*,#570,.T.);
#890=ORIENTED_EDGE('',*,*,#566,.T.);
#891=ORIENTED_EDGE('',*,*,#590,.T.);
#892=ORIENTED_EDGE('',*,*,#631,.T.);
#893=ORIENTED_EDGE('',*,*,#628,.T.);
#894=ORIENTED_EDGE('',*,*,#583,.T.);
#895=ORIENTED_EDGE('',*,*,#551,.T.);
#896=ORIENTED_EDGE('',*,*,#559,.T.);
#897=ORIENTED_EDGE('',*,*,#555,.T.);
#898=ORIENTED_EDGE('',*,*,#582,.T.);
#899=ORIENTED_EDGE('',*,*,#629,.T.);
#900=ORIENTED_EDGE('',*,*,#623,.T.);
#901=ORIENTED_EDGE('',*,*,#578,.T.);
#902=ORIENTED_EDGE('',*,*,#540,.T.);
#903=ORIENTED_EDGE('',*,*,#548,.T.);
#904=ORIENTED_EDGE('',*,*,#544,.T.);
#905=ORIENTED_EDGE('',*,*,#577,.T.);
#906=ORIENTED_EDGE('',*,*,#624,.T.);
#907=ORIENTED_EDGE('',*,*,#617,.T.);
#908=ORIENTED_EDGE('',*,*,#573,.T.);
#909=ORIENTED_EDGE('',*,*,#529,.T.);
#910=ORIENTED_EDGE('',*,*,#537,.T.);
#911=ORIENTED_EDGE('',*,*,#526,.T.);
#912=ORIENTED_EDGE('',*,*,#587,.F.);
#913=ORIENTED_EDGE('',*,*,#528,.T.);
#914=ORIENTED_EDGE('',*,*,#525,.T.);
#915=ORIENTED_EDGE('',*,*,#519,.T.);
#916=ORIENTED_EDGE('',*,*,#513,.T.);
#917=ORIENTED_EDGE('',*,*,#507,.T.);
#918=ORIENTED_EDGE('',*,*,#501,.T.);
#919=PLANE('',#1024);
#920=PLANE('',#1031);
#921=PLANE('',#1038);
#922=PLANE('',#1045);
#923=PLANE('',#1052);
#924=PLANE('',#1062);
#925=PLANE('',#1063);
#926=PLANE('',#1067);
#927=PLANE('',#1069);
#928=PLANE('',#1070);
#929=PLANE('',#1074);
#930=PLANE('',#1076);
#931=PLANE('',#1077);
#932=PLANE('',#1081);
#933=PLANE('',#1083);
#934=PLANE('',#1084);
#935=PLANE('',#1088);
#936=PLANE('',#1109);
#937=PLANE('',#1110);
#938=PLANE('',#1114);
#939=PLANE('',#1115);
#940=PLANE('',#1116);
#941=PLANE('',#1117);
#942=PLANE('',#1118);
#943=PLANE('',#1119);
#944=PLANE('',#1120);
#945=PLANE('',#1121);
#946=PLANE('',#1122);
#947=PLANE('',#1123);
#948=PLANE('',#1124);
#949=PLANE('',#1125);
#950=PLANE('',#1126);
#951=PLANE('',#1127);
#952=PLANE('',#1128);
#953=PLANE('',#1129);
#954=PLANE('',#1130);
#955=PLANE('',#1131);
#956=ADVANCED_FACE('',(#223,#206),#919,.F.);
#957=ADVANCED_FACE('',(#224),#189,.F.);
#958=ADVANCED_FACE('',(#225),#190,.F.);
#959=ADVANCED_FACE('',(#226,#207),#920,.F.);
#960=ADVANCED_FACE('',(#227),#191,.F.);
#961=ADVANCED_FACE('',(#228),#192,.F.);
#962=ADVANCED_FACE('',(#229,#208),#921,.F.);
#963=ADVANCED_FACE('',(#230),#193,.F.);
#964=ADVANCED_FACE('',(#231),#194,.F.);
#965=ADVANCED_FACE('',(#232,#209),#922,.F.);
#966=ADVANCED_FACE('',(#233),#195,.F.);
#967=ADVANCED_FACE('',(#234),#196,.F.);
#968=ADVANCED_FACE('',(#235,#210),#923,.F.);
#969=ADVANCED_FACE('',(#236),#197,.F.);
#970=ADVANCED_FACE('',(#237),#198,.F.);
#971=ADVANCED_FACE('',(#238),#199,.F.);
#972=ADVANCED_FACE('',(#239),#924,.F.);
#973=ADVANCED_FACE('',(#240),#925,.F.);
#974=ADVANCED_FACE('',(#241),#200,.T.);
#975=ADVANCED_FACE('',(#242),#926,.T.);
#976=ADVANCED_FACE('',(#243),#927,.F.);
#977=ADVANCED_FACE('',(#244),#928,.F.);
#978=ADVANCED_FACE('',(#245),#201,.T.);
#979=ADVANCED_FACE('',(#246),#929,.T.);
#980=ADVANCED_FACE('',(#247),#930,.F.);
#981=ADVANCED_FACE('',(#248),#931,.F.);
#982=ADVANCED_FACE('',(#249),#202,.T.);
#983=ADVANCED_FACE('',(#250),#932,.T.);
#984=ADVANCED_FACE('',(#251),#933,.F.);
#985=ADVANCED_FACE('',(#252),#934,.F.);
#986=ADVANCED_FACE('',(#253),#203,.T.);
#987=ADVANCED_FACE('',(#254),#935,.T.);
#988=ADVANCED_FACE('',(#255),#204,.T.);
#989=ADVANCED_FACE('',(#256),#936,.F.);
#990=ADVANCED_FACE('',(#257),#937,.F.);
#991=ADVANCED_FACE('',(#258),#205,.T.);
#992=ADVANCED_FACE('',(#259),#938,.T.);
#993=ADVANCED_FACE('',(#260),#939,.T.);
#994=ADVANCED_FACE('',(#261),#940,.T.);
#995=ADVANCED_FACE('',(#262),#941,.T.);
#996=ADVANCED_FACE('',(#263),#942,.T.);
#997=ADVANCED_FACE('',(#264),#943,.T.);
#998=ADVANCED_FACE('',(#265),#944,.T.);
#999=ADVANCED_FACE('',(#266),#945,.T.);
#1000=ADVANCED_FACE('',(#267),#946,.T.);
#1001=ADVANCED_FACE('',(#268),#947,.T.);
#1002=ADVANCED_FACE('',(#269,#211),#948,.T.);
#1003=ADVANCED_FACE('',(#270,#212),#949,.T.);
#1004=ADVANCED_FACE('',(#271,#213),#950,.T.);
#1005=ADVANCED_FACE('',(#272,#214),#951,.T.);
#1006=ADVANCED_FACE('',(#273,#215),#952,.T.);
#1007=ADVANCED_FACE('',(#274),#953,.T.);
#1008=ADVANCED_FACE('',(#275,#216),#954,.T.);
#1009=ADVANCED_FACE('',(#276,#217,#218,#219,#220,#221,#222),#955,.F.);
#1010=CLOSED_SHELL('',(#956,#957,#958,#959,#960,#961,#962,#963,#964,#965,
#966,#967,#968,#969,#970,#971,#972,#973,#974,#975,#976,#977,#978,#979,#980,
#981,#982,#983,#984,#985,#986,#987,#988,#989,#990,#991,#992,#993,#994,#995,
#996,#997,#998,#999,#1000,#1001,#1002,#1003,#1004,#1005,#1006,#1007,#1008,
#1009));
#1011=DERIVED_UNIT_ELEMENT(#1013,1.);
#1012=DERIVED_UNIT_ELEMENT(#1732,-3.);
#1013=(
MASS_UNIT()
NAMED_UNIT(*)
SI_UNIT(.KILO.,.GRAM.)
);
#1014=DERIVED_UNIT((#1011,#1012));
#1015=MEASURE_REPRESENTATION_ITEM('density measure',
POSITIVE_RATIO_MEASURE(7850.),#1014);
#1016=PROPERTY_DEFINITION_REPRESENTATION(#1021,#1018);
#1017=PROPERTY_DEFINITION_REPRESENTATION(#1022,#1019);
#1018=REPRESENTATION('material name',(#1020),#1729);
#1019=REPRESENTATION('density',(#1015),#1729);
#1020=DESCRIPTIVE_REPRESENTATION_ITEM('Steel','Steel');
#1021=PROPERTY_DEFINITION('material property','material name',#1739);
#1022=PROPERTY_DEFINITION('material property','density of part',#1739);
#1023=AXIS2_PLACEMENT_3D('',#1437,#1132,#1133);
#1024=AXIS2_PLACEMENT_3D('',#1438,#1134,#1135);
#1025=AXIS2_PLACEMENT_3D('',#1440,#1136,#1137);
#1026=AXIS2_PLACEMENT_3D('',#1442,#1138,#1139);
#1027=AXIS2_PLACEMENT_3D('',#1443,#1140,#1141);
#1028=AXIS2_PLACEMENT_3D('',#1445,#1142,#1143);
#1029=AXIS2_PLACEMENT_3D('',#1447,#1145,#1146);
#1030=AXIS2_PLACEMENT_3D('',#1450,#1148,#1149);
#1031=AXIS2_PLACEMENT_3D('',#1451,#1150,#1151);
#1032=AXIS2_PLACEMENT_3D('',#1453,#1152,#1153);
#1033=AXIS2_PLACEMENT_3D('',#1455,#1154,#1155);
#1034=AXIS2_PLACEMENT_3D('',#1456,#1156,#1157);
#1035=AXIS2_PLACEMENT_3D('',#1458,#1158,#1159);
#1036=AXIS2_PLACEMENT_3D('',#1460,#1161,#1162);
#1037=AXIS2_PLACEMENT_3D('',#1463,#1164,#1165);
#1038=AXIS2_PLACEMENT_3D('',#1464,#1166,#1167);
#1039=AXIS2_PLACEMENT_3D('',#1466,#1168,#1169);
#1040=AXIS2_PLACEMENT_3D('',#1468,#1170,#1171);
#1041=AXIS2_PLACEMENT_3D('',#1469,#1172,#1173);
#1042=AXIS2_PLACEMENT_3D('',#1471,#1174,#1175);
#1043=AXIS2_PLACEMENT_3D('',#1473,#1177,#1178);
#1044=AXIS2_PLACEMENT_3D('',#1476,#1180,#1181);
#1045=AXIS2_PLACEMENT_3D('',#1477,#1182,#1183);
#1046=AXIS2_PLACEMENT_3D('',#1479,#1184,#1185);
#1047=AXIS2_PLACEMENT_3D('',#1481,#1186,#1187);
#1048=AXIS2_PLACEMENT_3D('',#1482,#1188,#1189);
#1049=AXIS2_PLACEMENT_3D('',#1484,#1190,#1191);
#1050=AXIS2_PLACEMENT_3D('',#1486,#1193,#1194);
#1051=AXIS2_PLACEMENT_3D('',#1489,#1196,#1197);
#1052=AXIS2_PLACEMENT_3D('',#1490,#1198,#1199);
#1053=AXIS2_PLACEMENT_3D('',#1492,#1200,#1201);
#1054=AXIS2_PLACEMENT_3D('',#1494,#1202,#1203);
#1055=AXIS2_PLACEMENT_3D('',#1495,#1204,#1205);
#1056=AXIS2_PLACEMENT_3D('',#1497,#1206,#1207);
#1057=AXIS2_PLACEMENT_3D('',#1499,#1209,#1210);
#1058=AXIS2_PLACEMENT_3D('',#1502,#1212,#1213);
#1059=AXIS2_PLACEMENT_3D('',#1503,#1214,#1215);
#1060=AXIS2_PLACEMENT_3D('',#1505,#1216,#1217);
#1061=AXIS2_PLACEMENT_3D('',#1508,#1219,#1220);
#1062=AXIS2_PLACEMENT_3D('',#1509,#1221,#1222);
#1063=AXIS2_PLACEMENT_3D('',#1518,#1227,#1228);
#1064=AXIS2_PLACEMENT_3D('',#1527,#1233,#1234);
#1065=AXIS2_PLACEMENT_3D('',#1528,#1235,#1236);
#1066=AXIS2_PLACEMENT_3D('',#1529,#1237,#1238);
#1067=AXIS2_PLACEMENT_3D('',#1530,#1239,#1240);
#1068=AXIS2_PLACEMENT_3D('',#1531,#1241,#1242);
#1069=AXIS2_PLACEMENT_3D('',#1532,#1243,#1244);
#1070=AXIS2_PLACEMENT_3D('',#1541,#1249,#1250);
#1071=AXIS2_PLACEMENT_3D('',#1550,#1255,#1256);
#1072=AXIS2_PLACEMENT_3D('',#1551,#1257,#1258);
#1073=AXIS2_PLACEMENT_3D('',#1552,#1259,#1260);
#1074=AXIS2_PLACEMENT_3D('',#1553,#1261,#1262);
#1075=AXIS2_PLACEMENT_3D('',#1554,#1263,#1264);
#1076=AXIS2_PLACEMENT_3D('',#1555,#1265,#1266);
#1077=AXIS2_PLACEMENT_3D('',#1564,#1271,#1272);
#1078=AXIS2_PLACEMENT_3D('',#1573,#1277,#1278);
#1079=AXIS2_PLACEMENT_3D('',#1574,#1279,#1280);
#1080=AXIS2_PLACEMENT_3D('',#1575,#1281,#1282);
#1081=AXIS2_PLACEMENT_3D('',#1576,#1283,#1284);
#1082=AXIS2_PLACEMENT_3D('',#1577,#1285,#1286);
#1083=AXIS2_PLACEMENT_3D('',#1578,#1287,#1288);
#1084=AXIS2_PLACEMENT_3D('',#1587,#1293,#1294);
#1085=AXIS2_PLACEMENT_3D('',#1596,#1299,#1300);
#1086=AXIS2_PLACEMENT_3D('',#1597,#1301,#1302);
#1087=AXIS2_PLACEMENT_3D('',#1598,#1303,#1304);
#1088=AXIS2_PLACEMENT_3D('',#1599,#1305,#1306);
#1089=AXIS2_PLACEMENT_3D('',#1600,#1307,#1308);
#1090=AXIS2_PLACEMENT_3D('',#1601,#1309,#1310);
#1091=AXIS2_PLACEMENT_3D('',#1603,#1311,#1312);
#1092=AXIS2_PLACEMENT_3D('',#1607,#1314,#1315);
#1093=AXIS2_PLACEMENT_3D('',#1610,#1317,#1318);
#1094=AXIS2_PLACEMENT_3D('',#1612,#1319,#1320);
#1095=AXIS2_PLACEMENT_3D('',#1616,#1322,#1323);
#1096=AXIS2_PLACEMENT_3D('',#1619,#1325,#1326);
#1097=AXIS2_PLACEMENT_3D('',#1621,#1327,#1328);
#1098=AXIS2_PLACEMENT_3D('',#1625,#1330,#1331);
#1099=AXIS2_PLACEMENT_3D('',#1628,#1333,#1334);
#1100=AXIS2_PLACEMENT_3D('',#1630,#1335,#1336);
#1101=AXIS2_PLACEMENT_3D('',#1633,#1338,#1339);
#1102=AXIS2_PLACEMENT_3D('',#1635,#1340,#1341);
#1103=AXIS2_PLACEMENT_3D('',#1639,#1343,#1344);
#1104=AXIS2_PLACEMENT_3D('',#1643,#1346,#1347);
#1105=AXIS2_PLACEMENT_3D('',#1647,#1349,#1350);
#1106=AXIS2_PLACEMENT_3D('',#1651,#1352,#1353);
#1107=AXIS2_PLACEMENT_3D('',#1655,#1355,#1356);
#1108=AXIS2_PLACEMENT_3D('',#1658,#1358,#1359);
#1109=AXIS2_PLACEMENT_3D('',#1659,#1360,#1361);
#1110=AXIS2_PLACEMENT_3D('',#1665,#1365,#1366);
#1111=AXIS2_PLACEMENT_3D('',#1671,#1370,#1371);
#1112=AXIS2_PLACEMENT_3D('',#1672,#1372,#1373);
#1113=AXIS2_PLACEMENT_3D('',#1673,#1374,#1375);
#1114=AXIS2_PLACEMENT_3D('',#1674,#1376,#1377);
#1115=AXIS2_PLACEMENT_3D('',#1675,#1378,#1379);
#1116=AXIS2_PLACEMENT_3D('',#1681,#1383,#1384);
#1117=AXIS2_PLACEMENT_3D('',#1687,#1388,#1389);
#1118=AXIS2_PLACEMENT_3D('',#1693,#1393,#1394);
#1119=AXIS2_PLACEMENT_3D('',#1699,#1398,#1399);
#1120=AXIS2_PLACEMENT_3D('',#1702,#1402,#1403);
#1121=AXIS2_PLACEMENT_3D('',#1708,#1407,#1408);
#1122=AXIS2_PLACEMENT_3D('',#1711,#1411,#1412);
#1123=AXIS2_PLACEMENT_3D('',#1714,#1415,#1416);
#1124=AXIS2_PLACEMENT_3D('',#1717,#1419,#1420);
#1125=AXIS2_PLACEMENT_3D('',#1718,#1421,#1422);
#1126=AXIS2_PLACEMENT_3D('',#1719,#1423,#1424);
#1127=AXIS2_PLACEMENT_3D('',#1720,#1425,#1426);
#1128=AXIS2_PLACEMENT_3D('',#1722,#1428,#1429);
#1129=AXIS2_PLACEMENT_3D('',#1723,#1430,#1431);
#1130=AXIS2_PLACEMENT_3D('',#1725,#1433,#1434);
#1131=AXIS2_PLACEMENT_3D('',#1726,#1435,#1436);
#1132=DIRECTION('axis',(0.,0.,1.));
#1133=DIRECTION('refdir',(1.,0.,0.));
#1134=DIRECTION('center_axis',(-1.,0.,0.));
#1135=DIRECTION('ref_axis',(0.,0.309016994374947,0.951056516295154));
#1136=DIRECTION('center_axis',(-1.,0.,0.));
#1137=DIRECTION('ref_axis',(0.,0.309016994374947,0.951056516295154));
#1138=DIRECTION('center_axis',(-1.,0.,0.));
#1139=DIRECTION('ref_axis',(0.,0.309016994374947,0.951056516295154));
#1140=DIRECTION('center_axis',(-1.,0.,0.));
#1141=DIRECTION('ref_axis',(0.,0.309016994374947,0.951056516295154));
#1142=DIRECTION('center_axis',(-1.,0.,0.));
#1143=DIRECTION('ref_axis',(0.,0.309016994374947,0.951056516295154));
#1144=DIRECTION('',(-1.,0.,0.));
#1145=DIRECTION('center_axis',(-1.,0.,0.));
#1146=DIRECTION('ref_axis',(0.,0.309016994374947,0.951056516295154));
#1147=DIRECTION('',(-1.,0.,0.));
#1148=DIRECTION('center_axis',(1.,0.,0.));
#1149=DIRECTION('ref_axis',(0.,0.309016994374947,0.951056516295154));
#1150=DIRECTION('center_axis',(-1.,0.,0.));
#1151=DIRECTION('ref_axis',(0.,-0.809016994374947,0.587785252292473));
#1152=DIRECTION('center_axis',(-1.,0.,0.));
#1153=DIRECTION('ref_axis',(0.,-0.809016994374947,0.587785252292473));
#1154=DIRECTION('center_axis',(-1.,0.,0.));
#1155=DIRECTION('ref_axis',(0.,-0.809016994374947,0.587785252292473));
#1156=DIRECTION('center_axis',(-1.,0.,0.));
#1157=DIRECTION('ref_axis',(0.,-0.809016994374947,0.587785252292473));
#1158=DIRECTION('center_axis',(-1.,0.,0.));
#1159=DIRECTION('ref_axis',(0.,-0.809016994374947,0.587785252292473));
#1160=DIRECTION('',(-1.,0.,0.));
#1161=DIRECTION('center_axis',(-1.,0.,0.));
#1162=DIRECTION('ref_axis',(0.,-0.809016994374947,0.587785252292473));
#1163=DIRECTION('',(-1.,0.,0.));
#1164=DIRECTION('center_axis',(1.,0.,0.));
#1165=DIRECTION('ref_axis',(0.,-0.809016994374947,0.587785252292473));
#1166=DIRECTION('center_axis',(-1.,0.,0.));
#1167=DIRECTION('ref_axis',(0.,-0.809016994374947,-0.587785252292473));
#1168=DIRECTION('center_axis',(-1.,0.,0.));
#1169=DIRECTION('ref_axis',(0.,-0.809016994374947,-0.587785252292473));
#1170=DIRECTION('center_axis',(-1.,0.,0.));
#1171=DIRECTION('ref_axis',(0.,-0.809016994374947,-0.587785252292473));
#1172=DIRECTION('center_axis',(-1.,0.,0.));
#1173=DIRECTION('ref_axis',(0.,-0.809016994374947,-0.587785252292473));
#1174=DIRECTION('center_axis',(-1.,0.,0.));
#1175=DIRECTION('ref_axis',(0.,-0.809016994374947,-0.587785252292473));
#1176=DIRECTION('',(-1.,0.,0.));
#1177=DIRECTION('center_axis',(-1.,0.,0.));
#1178=DIRECTION('ref_axis',(0.,-0.809016994374947,-0.587785252292473));
#1179=DIRECTION('',(-1.,0.,0.));
#1180=DIRECTION('center_axis',(1.,0.,0.));
#1181=DIRECTION('ref_axis',(0.,-0.809016994374947,-0.587785252292473));
#1182=DIRECTION('center_axis',(-1.,0.,0.));
#1183=DIRECTION('ref_axis',(0.,0.309016994374948,-0.951056516295154));
#1184=DIRECTION('center_axis',(-1.,0.,0.));
#1185=DIRECTION('ref_axis',(0.,0.309016994374948,-0.951056516295154));
#1186=DIRECTION('center_axis',(-1.,0.,0.));
#1187=DIRECTION('ref_axis',(0.,0.309016994374947,-0.951056516295154));
#1188=DIRECTION('center_axis',(-1.,0.,0.));
#1189=DIRECTION('ref_axis',(0.,0.309016994374948,-0.951056516295154));
#1190=DIRECTION('center_axis',(-1.,0.,0.));
#1191=DIRECTION('ref_axis',(0.,0.309016994374948,-0.951056516295154));
#1192=DIRECTION('',(-1.,0.,0.));
#1193=DIRECTION('center_axis',(-1.,0.,0.));
#1194=DIRECTION('ref_axis',(0.,0.309016994374947,-0.951056516295154));
#1195=DIRECTION('',(-1.,0.,0.));
#1196=DIRECTION('center_axis',(1.,0.,0.));
#1197=DIRECTION('ref_axis',(0.,0.309016994374947,-0.951056516295154));
#1198=DIRECTION('center_axis',(-1.,0.,0.));
#1199=DIRECTION('ref_axis',(0.,1.,0.));
#1200=DIRECTION('center_axis',(-1.,0.,0.));
#1201=DIRECTION('ref_axis',(0.,1.,0.));
#1202=DIRECTION('center_axis',(-1.,0.,0.));
#1203=DIRECTION('ref_axis',(0.,1.,0.));
#1204=DIRECTION('center_axis',(-1.,0.,0.));
#1205=DIRECTION('ref_axis',(0.,1.,0.));
#1206=DIRECTION('center_axis',(-1.,0.,0.));
#1207=DIRECTION('ref_axis',(0.,1.,0.));
#1208=DIRECTION('',(-1.,0.,0.));
#1209=DIRECTION('center_axis',(-1.,0.,0.));
#1210=DIRECTION('ref_axis',(0.,1.,0.));
#1211=DIRECTION('',(-1.,0.,0.));
#1212=DIRECTION('center_axis',(1.,0.,0.));
#1213=DIRECTION('ref_axis',(0.,1.,0.));
#1214=DIRECTION('center_axis',(-1.,0.,0.));
#1215=DIRECTION('ref_axis',(0.,1.,0.));
#1216=DIRECTION('center_axis',(-1.,0.,0.));
#1217=DIRECTION('ref_axis',(0.,1.,0.));
#1218=DIRECTION('',(-1.,0.,0.));
#1219=DIRECTION('center_axis',(1.,0.,0.));
#1220=DIRECTION('ref_axis',(0.,1.,0.));
#1221=DIRECTION('center_axis',(0.,0.309016994374948,-0.951056516295154));
#1222=DIRECTION('ref_axis',(0.,-0.951056516295153,-0.309016994374948));
#1223=DIRECTION('',(0.,-0.951056516295153,-0.309016994374948));
#1224=DIRECTION('',(1.,0.,0.));
#1225=DIRECTION('',(0.,-0.951056516295153,-0.309016994374948));
#1226=DIRECTION('',(-1.,0.,0.));
#1227=DIRECTION('center_axis',(0.,-0.309016994374948,0.951056516295154));
#1228=DIRECTION('ref_axis',(0.,0.951056516295154,0.309016994374948));
#1229=DIRECTION('',(0.,0.951056516295153,0.309016994374948));
#1230=DIRECTION('',(-1.,0.,0.));
#1231=DIRECTION('',(0.,0.951056516295154,0.309016994374948));
#1232=DIRECTION('',(-1.,0.,0.));
#1233=DIRECTION('center_axis',(-1.,0.,0.));
#1234=DIRECTION('ref_axis',(0.,0.309016994374947,-0.951056516295154));
#1235=DIRECTION('center_axis',(1.,0.,0.));
#1236=DIRECTION('ref_axis',(0.,0.309016994374947,-0.951056516295154));
#1237=DIRECTION('center_axis',(1.,0.,0.));
#1238=DIRECTION('ref_axis',(0.,0.309016994374947,-0.951056516295154));
#1239=DIRECTION('center_axis',(1.,0.,0.));
#1240=DIRECTION('ref_axis',(0.,0.309016994374947,-0.951056516295154));
#1241=DIRECTION('center_axis',(-1.,0.,0.));
#1242=DIRECTION('ref_axis',(0.,1.,0.));
#1243=DIRECTION('center_axis',(0.,-0.809016994374947,-0.587785252292473));
#1244=DIRECTION('ref_axis',(0.,-0.587785252292473,0.809016994374947));
#1245=DIRECTION('',(0.,-0.587785252292473,0.809016994374947));
#1246=DIRECTION('',(1.,0.,0.));
#1247=DIRECTION('',(0.,-0.587785252292473,0.809016994374947));
#1248=DIRECTION('',(-1.,0.,0.));
#1249=DIRECTION('center_axis',(0.,0.809016994374947,0.587785252292473));
#1250=DIRECTION('ref_axis',(0.,0.587785252292473,-0.809016994374947));
#1251=DIRECTION('',(0.,0.587785252292473,-0.809016994374947));
#1252=DIRECTION('',(-1.,0.,0.));
#1253=DIRECTION('',(0.,0.587785252292473,-0.809016994374947));
#1254=DIRECTION('',(-1.,0.,0.));
#1255=DIRECTION('center_axis',(-1.,0.,0.));
#1256=DIRECTION('ref_axis',(0.,-0.809016994374947,-0.587785252292473));
#1257=DIRECTION('center_axis',(1.,0.,0.));
#1258=DIRECTION('ref_axis',(0.,-0.809016994374947,-0.587785252292473));
#1259=DIRECTION('center_axis',(1.,0.,0.));
#1260=DIRECTION('ref_axis',(0.,-0.809016994374947,-0.587785252292473));
#1261=DIRECTION('center_axis',(1.,0.,0.));
#1262=DIRECTION('ref_axis',(0.,-0.809016994374947,-0.587785252292473));
#1263=DIRECTION('center_axis',(-1.,0.,0.));
#1264=DIRECTION('ref_axis',(0.,1.,0.));
#1265=DIRECTION('center_axis',(0.,-0.809016994374948,0.587785252292473));
#1266=DIRECTION('ref_axis',(0.,0.587785252292473,0.809016994374948));
#1267=DIRECTION('',(0.,0.587785252292473,0.809016994374948));
#1268=DIRECTION('',(1.,0.,0.));
#1269=DIRECTION('',(0.,0.587785252292473,0.809016994374948));
#1270=DIRECTION('',(-1.,0.,0.));
#1271=DIRECTION('center_axis',(0.,0.809016994374947,-0.587785252292473));
#1272=DIRECTION('ref_axis',(0.,-0.587785252292473,-0.809016994374947));
#1273=DIRECTION('',(0.,-0.587785252292473,-0.809016994374947));
#1274=DIRECTION('',(-1.,0.,0.));
#1275=DIRECTION('',(0.,-0.587785252292473,-0.809016994374947));
#1276=DIRECTION('',(-1.,0.,0.));
#1277=DIRECTION('center_axis',(-1.,0.,0.));
#1278=DIRECTION('ref_axis',(0.,-0.809016994374947,0.587785252292473));
#1279=DIRECTION('center_axis',(1.,0.,0.));
#1280=DIRECTION('ref_axis',(0.,-0.809016994374947,0.587785252292473));
#1281=DIRECTION('center_axis',(1.,0.,0.));
#1282=DIRECTION('ref_axis',(0.,-0.809016994374947,0.587785252292473));
#1283=DIRECTION('center_axis',(1.,0.,0.));
#1284=DIRECTION('ref_axis',(0.,-0.809016994374947,0.587785252292473));
#1285=DIRECTION('center_axis',(-1.,0.,0.));
#1286=DIRECTION('ref_axis',(0.,1.,0.));
#1287=DIRECTION('center_axis',(0.,0.309016994374947,0.951056516295154));
#1288=DIRECTION('ref_axis',(0.,0.951056516295154,-0.309016994374947));
#1289=DIRECTION('',(0.,0.951056516295154,-0.309016994374947));
#1290=DIRECTION('',(1.,0.,0.));
#1291=DIRECTION('',(0.,0.951056516295154,-0.309016994374947));
#1292=DIRECTION('',(-1.,0.,0.));
#1293=DIRECTION('center_axis',(0.,-0.309016994374947,-0.951056516295154));
#1294=DIRECTION('ref_axis',(0.,-0.951056516295154,0.309016994374947));
#1295=DIRECTION('',(0.,-0.951056516295154,0.309016994374947));
#1296=DIRECTION('',(-1.,0.,0.));
#1297=DIRECTION('',(0.,-0.951056516295154,0.309016994374947));
#1298=DIRECTION('',(-1.,0.,0.));
#1299=DIRECTION('center_axis',(-1.,0.,0.));
#1300=DIRECTION('ref_axis',(0.,0.309016994374947,0.951056516295154));
#1301=DIRECTION('center_axis',(1.,0.,0.));
#1302=DIRECTION('ref_axis',(0.,0.309016994374947,0.951056516295154));
#1303=DIRECTION('center_axis',(1.,0.,0.));
#1304=DIRECTION('ref_axis',(0.,0.309016994374947,0.951056516295154));
#1305=DIRECTION('center_axis',(1.,0.,0.));
#1306=DIRECTION('ref_axis',(0.,0.309016994374948,0.951056516295154));
#1307=DIRECTION('center_axis',(-1.,0.,0.));
#1308=DIRECTION('ref_axis',(0.,1.,0.));
#1309=DIRECTION('center_axis',(1.,0.,0.));
#1310=DIRECTION('ref_axis',(0.,1.,0.));
#1311=DIRECTION('center_axis',(1.,0.,0.));
#1312=DIRECTION('ref_axis',(0.,0.309016994374947,-0.951056516295154));
#1313=DIRECTION('',(1.,0.,0.));
#1314=DIRECTION('center_axis',(1.,0.,0.));
#1315=DIRECTION('ref_axis',(0.,1.,0.));
#1316=DIRECTION('',(1.,0.,0.));
#1317=DIRECTION('center_axis',(1.,0.,0.));
#1318=DIRECTION('ref_axis',(0.,-0.809016994374948,-0.587785252292473));
#1319=DIRECTION('center_axis',(1.,0.,0.));
#1320=DIRECTION('ref_axis',(0.,-0.809016994374948,-0.587785252292473));
#1321=DIRECTION('',(1.,0.,0.));
#1322=DIRECTION('center_axis',(1.,0.,0.));
#1323=DIRECTION('ref_axis',(0.,1.,0.));
#1324=DIRECTION('',(1.,0.,0.));
#1325=DIRECTION('center_axis',(1.,0.,0.));
#1326=DIRECTION('ref_axis',(0.,-0.809016994374947,0.587785252292473));
#1327=DIRECTION('center_axis',(1.,0.,0.));
#1328=DIRECTION('ref_axis',(0.,-0.809016994374947,0.587785252292473));
#1329=DIRECTION('',(1.,0.,0.));
#1330=DIRECTION('center_axis',(1.,0.,0.));
#1331=DIRECTION('ref_axis',(0.,1.,0.));
#1332=DIRECTION('',(-1.,0.,0.));
#1333=DIRECTION('center_axis',(1.,0.,0.));
#1334=DIRECTION('ref_axis',(0.,1.,0.));
#1335=DIRECTION('center_axis',(1.,0.,0.));
#1336=DIRECTION('ref_axis',(0.,1.,0.));
#1337=DIRECTION('',(1.,0.,0.));
#1338=DIRECTION('center_axis',(1.,0.,0.));
#1339=DIRECTION('ref_axis',(0.,0.309016994374947,0.951056516295154));
#1340=DIRECTION('center_axis',(1.,0.,0.));
#1341=DIRECTION('ref_axis',(0.,0.309016994374947,0.951056516295154));
#1342=DIRECTION('',(1.,0.,0.));
#1343=DIRECTION('center_axis',(1.,0.,0.));
#1344=DIRECTION('ref_axis',(0.,1.,0.));
#1345=DIRECTION('',(1.,0.,0.));
#1346=DIRECTION('center_axis',(1.,0.,0.));
#1347=DIRECTION('ref_axis',(0.,1.,0.));
#1348=DIRECTION('',(-1.,0.,0.));
#1349=DIRECTION('center_axis',(-1.,0.,0.));
#1350=DIRECTION('ref_axis',(0.,1.,0.));
#1351=DIRECTION('',(1.,0.,0.));
#1352=DIRECTION('center_axis',(1.,0.,0.));
#1353=DIRECTION('ref_axis',(0.,1.,0.));
#1354=DIRECTION('',(1.,0.,0.));
#1355=DIRECTION('center_axis',(1.,0.,0.));
#1356=DIRECTION('ref_axis',(0.,1.,0.));
#1357=DIRECTION('',(1.,0.,0.));
#1358=DIRECTION('center_axis',(1.,0.,0.));
#1359=DIRECTION('ref_axis',(0.,0.309016994374947,-0.951056516295154));
#1360=DIRECTION('center_axis',(0.,1.,3.92639850172312E-16));
#1361=DIRECTION('ref_axis',(0.,3.92639850172312E-16,-1.));
#1362=DIRECTION('',(0.,3.92639850172312E-16,-1.));
#1363=DIRECTION('',(0.,3.92639850172312E-16,-1.));
#1364=DIRECTION('',(-1.,0.,0.));
#1365=DIRECTION('center_axis',(0.,-1.,-2.64016450977934E-16));
#1366=DIRECTION('ref_axis',(0.,-2.64016450977934E-16,1.));
#1367=DIRECTION('',(0.,-2.64016450977934E-16,1.));
#1368=DIRECTION('',(-1.,0.,0.));
#1369=DIRECTION('',(0.,-2.64016450977934E-16,1.));
#1370=DIRECTION('center_axis',(-1.,0.,0.));
#1371=DIRECTION('ref_axis',(0.,1.,0.));
#1372=DIRECTION('center_axis',(1.,0.,0.));
#1373=DIRECTION('ref_axis',(0.,1.,0.));
#1374=DIRECTION('center_axis',(1.,0.,0.));
#1375=DIRECTION('ref_axis',(0.,1.,0.));
#1376=DIRECTION('center_axis',(1.,0.,0.));
#1377=DIRECTION('ref_axis',(0.,1.,0.));
#1378=DIRECTION('center_axis',(0.,0.309016994374953,0.951056516295152));
#1379=DIRECTION('ref_axis',(0.,-0.951056516295152,0.309016994374953));
#1380=DIRECTION('',(1.,0.,0.));
#1381=DIRECTION('',(0.,0.951056516295152,-0.309016994374953));
#1382=DIRECTION('',(0.,-0.951056516295152,0.309016994374953));
#1383=DIRECTION('center_axis',(0.,0.309016994374942,-0.951056516295155));
#1384=DIRECTION('ref_axis',(0.,0.951056516295155,0.309016994374942));
#1385=DIRECTION('',(1.,0.,0.));
#1386=DIRECTION('',(0.,-0.951056516295155,-0.309016994374942));
#1387=DIRECTION('',(0.,0.951056516295155,0.309016994374942));
#1388=DIRECTION('center_axis',(0.,-0.309016994374947,0.951056516295154));
#1389=DIRECTION('ref_axis',(0.,-0.951056516295154,-0.309016994374947));
#1390=DIRECTION('',(-1.,0.,0.));
#1391=DIRECTION('',(0.,-0.951056516295154,-0.309016994374947));
#1392=DIRECTION('',(0.,0.951056516295154,0.309016994374947));
#1393=DIRECTION('center_axis',(0.,-0.809016994374951,-0.587785252292468));
#1394=DIRECTION('ref_axis',(0.,0.587785252292468,-0.809016994374951));
#1395=DIRECTION('',(1.,0.,0.));
#1396=DIRECTION('',(0.,-0.587785252292468,0.809016994374951));
#1397=DIRECTION('',(0.,0.587785252292468,-0.809016994374951));
#1398=DIRECTION('center_axis',(0.,0.809016994374947,0.587785252292473));
#1399=DIRECTION('ref_axis',(0.,-0.587785252292473,0.809016994374947));
#1400=DIRECTION('',(0.,-0.587785252292473,0.809016994374947));
#1401=DIRECTION('',(0.,0.587785252292473,-0.809016994374947));
#1402=DIRECTION('center_axis',(0.,-0.809016994374944,0.587785252292478));
#1403=DIRECTION('ref_axis',(0.,-0.587785252292478,-0.809016994374944));
#1404=DIRECTION('',(1.,0.,0.));
#1405=DIRECTION('',(0.,0.587785252292478,0.809016994374944));
#1406=DIRECTION('',(0.,-0.587785252292478,-0.809016994374944));
#1407=DIRECTION('center_axis',(0.,0.809016994374947,-0.587785252292473));
#1408=DIRECTION('ref_axis',(0.,0.587785252292473,0.809016994374947));
#1409=DIRECTION('',(0.,0.587785252292473,0.809016994374947));
#1410=DIRECTION('',(0.,-0.587785252292473,-0.809016994374947));
#1411=DIRECTION('center_axis',(0.,-0.309016994374948,-0.951056516295154));
#1412=DIRECTION('ref_axis',(0.,0.951056516295154,-0.309016994374948));
#1413=DIRECTION('',(0.,0.951056516295154,-0.309016994374948));
#1414=DIRECTION('',(0.,-0.951056516295154,0.309016994374948));
#1415=DIRECTION('center_axis',(0.,1.,-5.90313705776303E-15));
#1416=DIRECTION('ref_axis',(0.,5.90313705776303E-15,1.));
#1417=DIRECTION('',(0.,-5.90313705776303E-15,-1.));
#1418=DIRECTION('',(0.,5.90313705776303E-15,1.));
#1419=DIRECTION('center_axis',(1.,0.,0.));
#1420=DIRECTION('ref_axis',(0.,1.,0.));
#1421=DIRECTION('center_axis',(1.,0.,0.));
#1422=DIRECTION('ref_axis',(0.,1.,0.));
#1423=DIRECTION('center_axis',(1.,0.,0.));
#1424=DIRECTION('ref_axis',(0.,1.,0.));
#1425=DIRECTION('center_axis',(1.,0.,0.));
#1426=DIRECTION('ref_axis',(0.,1.,0.));
#1427=DIRECTION('',(0.,2.70786103567111E-17,1.));
#1428=DIRECTION('center_axis',(1.,0.,0.));
#1429=DIRECTION('ref_axis',(0.,1.,0.));
#1430=DIRECTION('center_axis',(0.,-1.,2.70786103567111E-17));
#1431=DIRECTION('ref_axis',(0.,-2.70786103567111E-17,-1.));
#1432=DIRECTION('',(0.,-2.70786103567111E-17,-1.));
#1433=DIRECTION('center_axis',(1.,0.,0.));
#1434=DIRECTION('ref_axis',(0.,1.,0.));
#1435=DIRECTION('center_axis',(1.,0.,0.));
#1436=DIRECTION('ref_axis',(0.,1.,0.));
#1437=CARTESIAN_POINT('',(0.,0.,0.));
#1438=CARTESIAN_POINT('Origin',(5.5,-19.3969133256516,26.6975608143733));
#1439=CARTESIAN_POINT('',(5.5,-20.9419982975263,21.9422782328975));
#1440=CARTESIAN_POINT('Origin',(5.5,-19.3969133256516,26.6975608143733));
#1441=CARTESIAN_POINT('',(5.5,-20.5557270545576,23.1310988782665));
#1442=CARTESIAN_POINT('Origin',(5.5,-19.3969133256516,26.6975608143733));
#1443=CARTESIAN_POINT('Origin',(6.5,-19.3969133256516,26.6975608143733));
#1444=CARTESIAN_POINT('',(7.5,-20.9419982975263,21.9422782328975));
#1445=CARTESIAN_POINT('Origin',(7.5,-19.3969133256516,26.6975608143733));
#1446=CARTESIAN_POINT('',(6.5,-20.9419982975263,21.9422782328975));
#1447=CARTESIAN_POINT('Origin',(3.375,-19.3969133256516,26.6975608143733));
#1448=CARTESIAN_POINT('',(0.,-20.5557270545576,23.1310988782665));
#1449=CARTESIAN_POINT('',(3.375,-20.5557270545577,23.1310988782665));
#1450=CARTESIAN_POINT('Origin',(0.,-19.3969133256516,26.6975608143733));
#1451=CARTESIAN_POINT('Origin',(5.5,-31.3848650377401,-10.1975608143732));
#1452=CARTESIAN_POINT('',(5.5,-27.3397800658653,-13.1364870758356));
#1453=CARTESIAN_POINT('Origin',(5.5,-31.3848650377401,-10.1975608143732));
#1454=CARTESIAN_POINT('',(5.5,-28.351051308834,-12.40175551047));
#1455=CARTESIAN_POINT('Origin',(5.5,-31.3848650377401,-10.1975608143732));
#1456=CARTESIAN_POINT('Origin',(6.5,-31.3848650377401,-10.1975608143732));
#1457=CARTESIAN_POINT('',(7.5,-27.3397800658653,-13.1364870758356));
#1458=CARTESIAN_POINT('Origin',(7.5,-31.3848650377401,-10.1975608143732));
#1459=CARTESIAN_POINT('',(6.5,-27.3397800658653,-13.1364870758356));
#1460=CARTESIAN_POINT('Origin',(3.375,-31.3848650377401,-10.1975608143732));
#1461=CARTESIAN_POINT('',(0.,-28.351051308834,-12.40175551047));
#1462=CARTESIAN_POINT('',(3.375,-28.351051308834,-12.40175551047));
#1463=CARTESIAN_POINT('Origin',(0.,-31.3848650377401,-10.1975608143732));
#1464=CARTESIAN_POINT('Origin',(5.5,-2.66453525910038E-14,-33.));
#1465=CARTESIAN_POINT('',(5.5,4.04508497187471,-30.0610737385376));
#1466=CARTESIAN_POINT('Origin',(5.5,-2.66453525910038E-14,-33.));
#1467=CARTESIAN_POINT('',(5.5,3.03381372890603,-30.7958053039032));
#1468=CARTESIAN_POINT('Origin',(5.5,-2.66453525910038E-14,-33.));
#1469=CARTESIAN_POINT('Origin',(6.5,-2.66453525910038E-14,-33.));
#1470=CARTESIAN_POINT('',(7.5,4.04508497187471,-30.0610737385376));
#1471=CARTESIAN_POINT('Origin',(7.5,-2.66453525910038E-14,-33.));
#1472=CARTESIAN_POINT('',(6.5,4.04508497187471,-30.0610737385376));
#1473=CARTESIAN_POINT('Origin',(3.375,-2.66453525910038E-14,-33.));
#1474=CARTESIAN_POINT('',(0.,3.03381372890603,-30.7958053039032));
#1475=CARTESIAN_POINT('',(3.375,3.03381372890603,-30.7958053039032));
#1476=CARTESIAN_POINT('Origin',(0.,-2.66453525910038E-14,-33.));
#1477=CARTESIAN_POINT('Origin',(5.5,31.3848650377401,-10.1975608143733));
#1478=CARTESIAN_POINT('',(5.5,29.8397800658653,-5.44227823289753));
#1479=CARTESIAN_POINT('Origin',(5.5,31.3848650377401,-10.1975608143733));
#1480=CARTESIAN_POINT('',(5.5,30.226051308834,-6.63109887826647));
#1481=CARTESIAN_POINT('Origin',(5.5,31.3848650377401,-10.1975608143733));
#1482=CARTESIAN_POINT('Origin',(6.5,31.3848650377401,-10.1975608143733));
#1483=CARTESIAN_POINT('',(7.5,29.8397800658653,-5.44227823289753));
#1484=CARTESIAN_POINT('Origin',(7.5,31.3848650377401,-10.1975608143733));
#1485=CARTESIAN_POINT('',(6.5,29.8397800658653,-5.44227823289753));
#1486=CARTESIAN_POINT('Origin',(3.375,31.3848650377401,-10.1975608143733));
#1487=CARTESIAN_POINT('',(0.,30.226051308834,-6.63109887826647));
#1488=CARTESIAN_POINT('',(3.375,30.226051308834,-6.63109887826647));
#1489=CARTESIAN_POINT('Origin',(0.,31.3848650377401,-10.1975608143733));
#1490=CARTESIAN_POINT('Origin',(5.5,19.3969133256516,26.6975608143732));
#1491=CARTESIAN_POINT('',(5.5,14.3969133256516,26.6975608143732));
#1492=CARTESIAN_POINT('Origin',(5.5,19.3969133256516,26.6975608143732));
#1493=CARTESIAN_POINT('',(5.5,15.6469133256516,26.6975608143732));
#1494=CARTESIAN_POINT('Origin',(5.5,19.3969133256516,26.6975608143732));
#1495=CARTESIAN_POINT('Origin',(6.5,19.3969133256516,26.6975608143732));
#1496=CARTESIAN_POINT('',(7.5,14.3969133256516,26.6975608143732));
#1497=CARTESIAN_POINT('Origin',(7.5,19.3969133256516,26.6975608143732));
#1498=CARTESIAN_POINT('',(6.5,14.3969133256516,26.6975608143732));
#1499=CARTESIAN_POINT('Origin',(3.375,19.3969133256516,26.6975608143732));
#1500=CARTESIAN_POINT('',(0.,15.6469133256516,26.6975608143732));
#1501=CARTESIAN_POINT('',(3.375,15.6469133256516,26.6975608143732));
#1502=CARTESIAN_POINT('Origin',(0.,19.3969133256516,26.6975608143732));
#1503=CARTESIAN_POINT('Origin',(27.5,0.,0.));
#1504=CARTESIAN_POINT('',(27.5,-9.,-1.10218211923262E-15));
#1505=CARTESIAN_POINT('Origin',(27.5,0.,0.));
#1506=CARTESIAN_POINT('',(0.,-9.,-1.10218211923262E-15));
#1507=CARTESIAN_POINT('',(27.5,-9.,1.10218211923262E-15));
#1508=CARTESIAN_POINT('Origin',(0.,0.,0.));
#1509=CARTESIAN_POINT('Origin',(27.5,40.2473597285665,7.81984877599096));
#1510=CARTESIAN_POINT('',(27.5,40.2473597285665,7.81984877599096));
#1511=CARTESIAN_POINT('',(27.5,12.9577631674166,-1.04707864897643));
#1512=CARTESIAN_POINT('',(27.5,20.8962223502206,1.53228309725758));
#1513=CARTESIAN_POINT('',(7.5,40.2473597285665,7.81984877599096));
#1514=CARTESIAN_POINT('',(0.,40.2473597285665,7.81984877599096));
#1515=CARTESIAN_POINT('',(7.5,12.9577631674166,-1.04707864897643));
#1516=CARTESIAN_POINT('',(7.5,79.5317193080772,20.5841109572699));
#1517=CARTESIAN_POINT('',(27.5,12.9577631674166,-1.04707864897643));
#1518=CARTESIAN_POINT('Origin',(27.5,9.86759322366712,8.46348651397513));
#1519=CARTESIAN_POINT('',(27.5,9.86759322366712,8.46348651397513));
#1520=CARTESIAN_POINT('',(27.5,37.157189784817,17.3304139389425));
#1521=CARTESIAN_POINT('',(27.5,4.16125412589619,6.60938454772544));
#1522=CARTESIAN_POINT('',(7.5,9.86759322366712,8.46348651397513));
#1523=CARTESIAN_POINT('',(27.5,9.86759322366712,8.46348651397513));
#1524=CARTESIAN_POINT('',(7.5,37.157189784817,17.3304139389425));
#1525=CARTESIAN_POINT('',(7.5,-1.54508497187484,4.75528258147571));
#1526=CARTESIAN_POINT('',(0.,37.157189784817,17.3304139389425));
#1527=CARTESIAN_POINT('Origin',(27.5,0.,0.));
#1528=CARTESIAN_POINT('Origin',(27.5,0.,0.));
#1529=CARTESIAN_POINT('Origin',(7.5,0.,0.));
#1530=CARTESIAN_POINT('Origin',(7.5,13.3147912281322,4.32623792124926));
#1531=CARTESIAN_POINT('Origin',(7.5,0.,0.));
#1532=CARTESIAN_POINT('Origin',(27.5,19.8742362696978,-35.8610475683049));
#1533=CARTESIAN_POINT('',(27.5,19.8742362696978,-35.8610475683049));
#1534=CARTESIAN_POINT('',(27.5,3.00833805563491,-12.6471301939617));
#1535=CARTESIAN_POINT('',(27.5,7.91457564891152,-19.3999869148837));
#1536=CARTESIAN_POINT('',(7.5,19.8742362696978,-35.8610475683049));
#1537=CARTESIAN_POINT('',(0.,19.8742362696978,-35.8610475683049));
#1538=CARTESIAN_POINT('',(7.5,3.00833805563491,-12.6471301939617));
#1539=CARTESIAN_POINT('',(7.5,44.153305716108,-69.278319800208));
#1540=CARTESIAN_POINT('',(27.5,3.00833805563491,-12.6471301939617));
#1541=CARTESIAN_POINT('Origin',(27.5,11.0985079993844,-6.76927767103702));
#1542=CARTESIAN_POINT('',(27.5,11.0985079993844,-6.76927767103702));
#1543=CARTESIAN_POINT('',(27.5,27.9644062134473,-29.9831950453802));
#1544=CARTESIAN_POINT('',(27.5,7.57179648562956,-1.91517570478733));
#1545=CARTESIAN_POINT('',(7.5,11.0985079993844,-6.76927767103702));
#1546=CARTESIAN_POINT('',(27.5,11.0985079993844,-6.76927767103702));
#1547=CARTESIAN_POINT('',(7.5,27.9644062134473,-29.9831950453802));
#1548=CARTESIAN_POINT('',(7.5,4.04508497187465,2.93892626146245));
#1549=CARTESIAN_POINT('',(0.,27.9644062134473,-29.9831950453802));
#1550=CARTESIAN_POINT('Origin',(27.5,0.,0.));
#1551=CARTESIAN_POINT('Origin',(27.5,0.,0.));
#1552=CARTESIAN_POINT('Origin',(7.5,0.,0.));
#1553=CARTESIAN_POINT('Origin',(7.5,8.22899353209463,-11.3262379212493));
#1554=CARTESIAN_POINT('Origin',(7.5,0.,0.));
#1555=CARTESIAN_POINT('Origin',(27.5,-27.9644062134473,-29.9831950453802));
#1556=CARTESIAN_POINT('',(27.5,-27.9644062134473,-29.9831950453802));
#1557=CARTESIAN_POINT('',(27.5,-11.0985079993844,-6.76927767103698));
#1558=CARTESIAN_POINT('',(27.5,-16.004745592661,-13.5221343919589));
#1559=CARTESIAN_POINT('',(7.5,-27.9644062134473,-29.9831950453802));
#1560=CARTESIAN_POINT('',(0.,-27.9644062134473,-29.9831950453802));
#1561=CARTESIAN_POINT('',(7.5,-11.0985079993844,-6.76927767103698));
#1562=CARTESIAN_POINT('',(7.5,-52.2434756598575,-63.4004672772832));
#1563=CARTESIAN_POINT('',(27.5,-11.0985079993844,-6.76927767103698));
#1564=CARTESIAN_POINT('Origin',(27.5,-3.00833805563496,-12.6471301939617));
#1565=CARTESIAN_POINT('',(27.5,-3.00833805563496,-12.6471301939617));
#1566=CARTESIAN_POINT('',(27.5,-19.8742362696978,-35.8610475683049));
#1567=CARTESIAN_POINT('',(27.5,0.518373458119882,-7.79302822771204));
#1568=CARTESIAN_POINT('',(7.5,-3.00833805563496,-12.6471301939617));
#1569=CARTESIAN_POINT('',(27.5,-3.00833805563496,-12.6471301939617));
#1570=CARTESIAN_POINT('',(7.5,-19.8742362696978,-35.8610475683049));
#1571=CARTESIAN_POINT('',(7.5,4.04508497187479,-2.93892626146226));
#1572=CARTESIAN_POINT('',(0.,-19.8742362696978,-35.8610475683049));
#1573=CARTESIAN_POINT('Origin',(27.5,0.,0.));
#1574=CARTESIAN_POINT('Origin',(27.5,0.,0.));
#1575=CARTESIAN_POINT('Origin',(7.5,0.,0.));
#1576=CARTESIAN_POINT('Origin',(7.5,-8.22899353209463,-11.3262379212493));
#1577=CARTESIAN_POINT('Origin',(7.5,0.,0.));
#1578=CARTESIAN_POINT('Origin',(27.5,-37.157189784817,17.3304139389425));
#1579=CARTESIAN_POINT('',(27.5,-37.157189784817,17.3304139389425));
#1580=CARTESIAN_POINT('',(27.5,-9.86759322366709,8.46348651397516));
#1581=CARTESIAN_POINT('',(27.5,-17.8060524064711,11.0428482602092));
#1582=CARTESIAN_POINT('',(7.5,-37.157189784817,17.3304139389425));
#1583=CARTESIAN_POINT('',(0.,-37.157189784817,17.3304139389425));
#1584=CARTESIAN_POINT('',(7.5,-9.86759322366709,8.46348651397516));
#1585=CARTESIAN_POINT('',(7.5,-76.4415493643278,30.0946761202214));
#1586=CARTESIAN_POINT('',(27.5,-9.86759322366709,8.46348651397516));
#1587=CARTESIAN_POINT('Origin',(27.5,-12.9577631674166,-1.04707864897638));
#1588=CARTESIAN_POINT('',(27.5,-12.9577631674166,-1.04707864897638));
#1589=CARTESIAN_POINT('',(27.5,-40.2473597285665,7.819848775991));
#1590=CARTESIAN_POINT('',(27.5,-7.25142406964566,-2.90118061522607));
#1591=CARTESIAN_POINT('',(7.5,-12.9577631674166,-1.04707864897638));
#1592=CARTESIAN_POINT('',(27.5,-12.9577631674166,-1.04707864897638));
#1593=CARTESIAN_POINT('',(7.5,-40.2473597285665,7.819848775991));
#1594=CARTESIAN_POINT('',(7.5,-1.54508497187462,-4.75528258147579));
#1595=CARTESIAN_POINT('',(0.,-40.2473597285665,7.81984877599099));
#1596=CARTESIAN_POINT('Origin',(27.5,0.,0.));
#1597=CARTESIAN_POINT('Origin',(27.5,0.,0.));
#1598=CARTESIAN_POINT('Origin',(7.5,0.,0.));
#1599=CARTESIAN_POINT('Origin',(7.5,-13.3147912281322,4.32623792124927));
#1600=CARTESIAN_POINT('Origin',(7.5,0.,0.));
#1601=CARTESIAN_POINT('Origin',(0.,0.,0.));
#1602=CARTESIAN_POINT('',(27.5,40.9058800924879,2.77650389140804));
#1603=CARTESIAN_POINT('Origin',(27.5,0.,0.));
#1604=CARTESIAN_POINT('',(7.5,40.9058800924879,2.77650389140804));
#1605=CARTESIAN_POINT('',(7.5,40.9058800924879,2.77650389140804));
#1606=CARTESIAN_POINT('',(7.5,31.4615641243842,-26.2901118835059));
#1607=CARTESIAN_POINT('Origin',(7.5,0.,0.));
#1608=CARTESIAN_POINT('',(27.5,31.4615641243842,-26.2901118835059));
#1609=CARTESIAN_POINT('',(7.5,31.4615641243842,-26.2901118835059));
#1610=CARTESIAN_POINT('Origin',(27.5,0.,0.));
#1611=CARTESIAN_POINT('',(27.5,15.2812242368851,-38.0458169293555));
#1612=CARTESIAN_POINT('Origin',(27.5,0.,0.));
#1613=CARTESIAN_POINT('',(7.5,15.2812242368851,-38.0458169293555));
#1614=CARTESIAN_POINT('',(7.5,15.2812242368851,-38.0458169293555));
#1615=CARTESIAN_POINT('',(7.5,-15.2812242368851,-38.0458169293555));
#1616=CARTESIAN_POINT('Origin',(7.5,0.,0.));
#1617=CARTESIAN_POINT('',(27.5,-15.2812242368851,-38.0458169293555));
#1618=CARTESIAN_POINT('',(7.5,-15.2812242368851,-38.0458169293555));
#1619=CARTESIAN_POINT('Origin',(27.5,0.,0.));
#1620=CARTESIAN_POINT('',(27.5,-31.4615641243842,-26.2901118835059));
#1621=CARTESIAN_POINT('Origin',(27.5,0.,0.));
#1622=CARTESIAN_POINT('',(7.5,-31.4615641243842,-26.2901118835059));
#1623=CARTESIAN_POINT('',(7.5,-31.4615641243842,-26.2901118835059));
#1624=CARTESIAN_POINT('',(7.5,-41.,-5.02105187650415E-15));
#1625=CARTESIAN_POINT('Origin',(7.5,0.,0.));
#1626=CARTESIAN_POINT('',(0.,-41.,-5.02105187650415E-15));
#1627=CARTESIAN_POINT('',(0.,-41.,-5.02105187650415E-15));
#1628=CARTESIAN_POINT('Origin',(0.,0.,0.));
#1629=CARTESIAN_POINT('',(7.5,-40.9058800924879,2.77650389140805));
#1630=CARTESIAN_POINT('Origin',(7.5,0.,0.));
#1631=CARTESIAN_POINT('',(27.5,-40.9058800924879,2.77650389140805));
#1632=CARTESIAN_POINT('',(7.5,-40.9058800924879,2.77650389140805));
#1633=CARTESIAN_POINT('Origin',(27.5,0.,0.));
#1634=CARTESIAN_POINT('',(27.5,-34.7255402049889,21.7976342173114));
#1635=CARTESIAN_POINT('Origin',(27.5,0.,0.));
#1636=CARTESIAN_POINT('',(7.5,-34.7255402049889,21.7976342173114));
#1637=CARTESIAN_POINT('',(7.5,-34.7255402049889,21.7976342173114));
#1638=CARTESIAN_POINT('',(7.5,-10.0000000000001,39.7617907041421));
#1639=CARTESIAN_POINT('Origin',(7.5,0.,0.));
#1640=CARTESIAN_POINT('',(27.5,-10.0000000000001,39.7617907041421));
#1641=CARTESIAN_POINT('',(7.5,-10.0000000000001,39.7617907041421));
#1642=CARTESIAN_POINT('',(27.5,-4.99999999999999,40.6939798987516));
#1643=CARTESIAN_POINT('Origin',(27.5,0.,0.));
#1644=CARTESIAN_POINT('',(7.5,-4.99999999999999,40.6939798987516));
#1645=CARTESIAN_POINT('',(0.,-4.99999999999999,40.6939798987516));
#1646=CARTESIAN_POINT('',(7.5,5.00000000000002,40.6939798987516));
#1647=CARTESIAN_POINT('Origin',(7.5,0.,0.));
#1648=CARTESIAN_POINT('',(27.5,5.00000000000002,40.6939798987516));
#1649=CARTESIAN_POINT('',(0.,5.00000000000002,40.6939798987516));
#1650=CARTESIAN_POINT('',(27.5,10.0000000000001,39.7617907041421));
#1651=CARTESIAN_POINT('Origin',(27.5,0.,0.));
#1652=CARTESIAN_POINT('',(7.5,10.0000000000001,39.7617907041421));
#1653=CARTESIAN_POINT('',(7.5,10.0000000000001,39.7617907041421));
#1654=CARTESIAN_POINT('',(7.5,34.7255402049889,21.7976342173114));
#1655=CARTESIAN_POINT('Origin',(7.5,0.,0.));
#1656=CARTESIAN_POINT('',(27.5,34.7255402049889,21.7976342173114));
#1657=CARTESIAN_POINT('',(7.5,34.7255402049889,21.7976342173114));
#1658=CARTESIAN_POINT('Origin',(27.5,0.,0.));
#1659=CARTESIAN_POINT('Origin',(27.5,5.00000000000002,40.6939798987516));
#1660=CARTESIAN_POINT('',(27.5,5.00000000000003,12.));
#1661=CARTESIAN_POINT('',(27.5,5.00000000000002,20.3469899493758));
#1662=CARTESIAN_POINT('',(7.5,5.00000000000003,12.));
#1663=CARTESIAN_POINT('',(7.5,5.,81.9999999999999));
#1664=CARTESIAN_POINT('',(27.5,5.00000000000003,12.));
#1665=CARTESIAN_POINT('Origin',(27.5,-4.99999999999998,12.));
#1666=CARTESIAN_POINT('',(27.5,-4.99999999999998,12.));
#1667=CARTESIAN_POINT('',(27.5,-4.99999999999998,6.));
#1668=CARTESIAN_POINT('',(7.5,-4.99999999999998,12.));
#1669=CARTESIAN_POINT('',(27.5,-4.99999999999998,12.));
#1670=CARTESIAN_POINT('',(7.5,-4.99999999999998,-1.19904086659517E-13));
#1671=CARTESIAN_POINT('Origin',(27.5,0.,0.));
#1672=CARTESIAN_POINT('Origin',(27.5,0.,0.));
#1673=CARTESIAN_POINT('Origin',(7.5,0.,0.));
#1674=CARTESIAN_POINT('Origin',(7.5,0.,14.));
#1675=CARTESIAN_POINT('Origin',(7.5,3.09016994374898,9.51056516295156));
#1676=CARTESIAN_POINT('',(7.5,-10.0000000000001,13.7638192047117));
#1677=CARTESIAN_POINT('',(27.5,-10.0000000000001,13.7638192047117));
#1678=CARTESIAN_POINT('',(7.5,-10.0000000000001,13.7638192047117));
#1679=CARTESIAN_POINT('',(7.5,3.09016994374924,9.51056516295148));
#1680=CARTESIAN_POINT('',(27.5,3.09016994374898,9.51056516295156));
#1681=CARTESIAN_POINT('Origin',(7.5,3.09016994374989,-9.51056516295127));
#1682=CARTESIAN_POINT('',(7.5,16.1803398874991,-5.25731112119125));
#1683=CARTESIAN_POINT('',(27.5,16.1803398874991,-5.25731112119125));
#1684=CARTESIAN_POINT('',(7.5,16.1803398874991,-5.25731112119125));
#1685=CARTESIAN_POINT('',(7.5,3.09016994374963,-9.51056516295135));
#1686=CARTESIAN_POINT('',(27.5,3.09016994374989,-9.51056516295127));
#1687=CARTESIAN_POINT('Origin',(7.5,34.7255402049889,21.7976342173114));
#1688=CARTESIAN_POINT('',(27.5,9.99999999999995,13.7638192047119));
#1689=CARTESIAN_POINT('',(7.5,9.99999999999995,13.7638192047119));
#1690=CARTESIAN_POINT('',(7.5,9.99999999999995,13.7638192047119));
#1691=CARTESIAN_POINT('',(27.5,74.8964643924537,34.8499587016975));
#1692=CARTESIAN_POINT('',(7.5,15.8176851306197,15.6540996901315));
#1693=CARTESIAN_POINT('Origin',(7.5,-8.09016994374909,-5.87785252292505));
#1694=CARTESIAN_POINT('',(7.5,1.08801856413265E-13,-17.0130161670409));
#1695=CARTESIAN_POINT('',(27.5,1.08801856413265E-13,-17.0130161670409));
#1696=CARTESIAN_POINT('',(7.5,1.0991207943789E-13,-17.0130161670409));
#1697=CARTESIAN_POINT('',(7.5,-8.09016994374925,-5.87785252292483));
#1698=CARTESIAN_POINT('',(27.5,-8.09016994374909,-5.87785252292505));
#1699=CARTESIAN_POINT('Origin',(7.5,31.4615641243842,-26.2901118835059));
#1700=CARTESIAN_POINT('',(27.5,56.2885606317327,-60.4615410158214));
#1701=CARTESIAN_POINT('',(7.5,19.7758670340669,-10.2061296802906));
#1702=CARTESIAN_POINT('Origin',(7.5,-8.09016994374965,5.87785252292427));
#1703=CARTESIAN_POINT('',(7.5,-16.180339887499,-5.25731112119146));
#1704=CARTESIAN_POINT('',(27.5,-16.180339887499,-5.25731112119146));
#1705=CARTESIAN_POINT('',(7.5,-16.180339887499,-5.25731112119146));
#1706=CARTESIAN_POINT('',(7.5,-8.0901699437495,5.87785252292449));
#1707=CARTESIAN_POINT('',(27.5,-8.09016994374965,5.87785252292427));
#1708=CARTESIAN_POINT('Origin',(7.5,-15.2812242368851,-38.0458169293555));
#1709=CARTESIAN_POINT('',(27.5,-40.1082207442336,-72.217246061671));
#1710=CARTESIAN_POINT('',(7.5,-3.59552714656775,-21.9618347261402));
#1711=CARTESIAN_POINT('Origin',(7.5,-40.9058800924879,2.77650389140805));
#1712=CARTESIAN_POINT('',(27.5,-81.0768042799527,15.8288283757942));
#1713=CARTESIAN_POINT('',(7.5,-21.9980250181187,-3.36703063577181));
#1714=CARTESIAN_POINT('Origin',(7.5,9.99999999999987,4.79733388343899E-13));
#1715=CARTESIAN_POINT('',(7.5,9.99999999999987,2.10351008883135E-13));
#1716=CARTESIAN_POINT('',(27.5,9.99999999999987,4.79733388343899E-13));
#1717=CARTESIAN_POINT('Origin',(7.5,0.,0.));
#1718=CARTESIAN_POINT('Origin',(7.5,0.,0.));
#1719=CARTESIAN_POINT('Origin',(7.5,0.,0.));
#1720=CARTESIAN_POINT('Origin',(7.5,0.,0.));
#1721=CARTESIAN_POINT('',(7.5,-10.0000000000001,19.880895352071));
#1722=CARTESIAN_POINT('Origin',(7.5,0.,0.));
#1723=CARTESIAN_POINT('Origin',(7.5,-10.0000000000001,39.7617907041421));
#1724=CARTESIAN_POINT('',(27.5,-10.0000000000001,82.0000000000006));
#1725=CARTESIAN_POINT('Origin',(27.5,0.,0.));
#1726=CARTESIAN_POINT('Origin',(0.,0.,0.));
#1727=UNCERTAINTY_MEASURE_WITH_UNIT(LENGTH_MEASURE(0.01),#1731,
'DISTANCE_ACCURACY_VALUE',
'Maximum model space distance between geometric entities at asserted c
onnectivities');
#1728=UNCERTAINTY_MEASURE_WITH_UNIT(LENGTH_MEASURE(0.01),#1731,
'DISTANCE_ACCURACY_VALUE',
'Maximum model space distance between geometric entities at asserted c
onnectivities');
#1729=(
GEOMETRIC_REPRESENTATION_CONTEXT(3)
GLOBAL_UNCERTAINTY_ASSIGNED_CONTEXT((#1727))
GLOBAL_UNIT_ASSIGNED_CONTEXT((#1731,#1733,#1734))
REPRESENTATION_CONTEXT('','3D')
);
#1730=(
GEOMETRIC_REPRESENTATION_CONTEXT(3)
GLOBAL_UNCERTAINTY_ASSIGNED_CONTEXT((#1728))
GLOBAL_UNIT_ASSIGNED_CONTEXT((#1731,#1733,#1734))
REPRESENTATION_CONTEXT('','3D')
);
#1731=(
LENGTH_UNIT()
NAMED_UNIT(*)
SI_UNIT(.MILLI.,.METRE.)
);
#1732=(
LENGTH_UNIT()
NAMED_UNIT(*)
SI_UNIT($,.METRE.)
);
#1733=(
NAMED_UNIT(*)
PLANE_ANGLE_UNIT()
SI_UNIT($,.RADIAN.)
);
#1734=(
NAMED_UNIT(*)
SI_UNIT($,.STERADIAN.)
SOLID_ANGLE_UNIT()
);
#1735=SHAPE_DEFINITION_REPRESENTATION(#1736,#1737);
#1736=PRODUCT_DEFINITION_SHAPE('',$,#1739);
#1737=SHAPE_REPRESENTATION('',(#1023),#1729);
#1738=PRODUCT_DEFINITION_CONTEXT('part definition',#1743,'design');
#1739=PRODUCT_DEFINITION('2026-09-24-18-07-46-529','parametric_v2',#1740,
#1738);
#1740=PRODUCT_DEFINITION_FORMATION('',$,#1745);
#1741=PRODUCT_RELATED_PRODUCT_CATEGORY('parametric_v2','parametric_v2',
(#1745));
#1742=APPLICATION_PROTOCOL_DEFINITION('international standard',
'automotive_design',2009,#1743);
#1743=APPLICATION_CONTEXT(
'Core Data for Automotive Mechanical Design Process');
#1744=PRODUCT_CONTEXT('part definition',#1743,'mechanical');
#1745=PRODUCT('2026-09-24-18-07-46-529','parametric_v2',$,(#1744));
#1746=PRESENTATION_STYLE_ASSIGNMENT((#1747));
#1747=SURFACE_STYLE_USAGE(.BOTH.,#1748);
#1748=SURFACE_SIDE_STYLE('',(#1749));
#1749=SURFACE_STYLE_FILL_AREA(#1750);
#1750=FILL_AREA_STYLE('Steel - Satin',(#1751));
#1751=FILL_AREA_STYLE_COLOUR('Steel - Satin',#1752);
#1752=COLOUR_RGB('Steel - Satin',0.627450980392157,0.627450980392157,0.627450980392157);
ENDSEC;
END-ISO-10303-21;
