ISO-10303-21;
HEADER;
/* Generated by software containing ST-Developer
 * from STEP Tools, Inc. (www.steptools.com) 
 */

FILE_DESCRIPTION(
/* description */ (''),
/* implementation_level */ '2;1');

FILE_NAME(
/* name */ 'ribs5_t4.step',
/* time_stamp */ '2026-09-28T16:25:33+01:00',
/* author */ (''),
/* organization */ (''),
/* preprocessor_version */ 'ST-DEVELOPER v20.2',
/* originating_system */ 'Autodesk Translation Framework v15.15.0.0',
/* authorisation */ '');

FILE_SCHEMA (('AUTOMOTIVE_DESIGN { 1 0 10303 214 3 1 1 }'));
ENDSEC;

DATA;
#10=MECHANICAL_DESIGN_GEOMETRIC_PRESENTATION_REPRESENTATION('',(#13),#2180);
#11=SHAPE_REPRESENTATION_RELATIONSHIP('SRR','None',#2187,#12);
#12=ADVANCED_BREP_SHAPE_REPRESENTATION('',(#14),#2179);
#13=STYLED_ITEM('',(#2196),#14);
#14=MANIFOLD_SOLID_BREP('Body2',#1260);
#15=CYLINDRICAL_SURFACE('',#1280,5.);
#16=CYLINDRICAL_SURFACE('',#1284,3.75);
#17=CYLINDRICAL_SURFACE('',#1292,5.);
#18=CYLINDRICAL_SURFACE('',#1297,3.75);
#19=CYLINDRICAL_SURFACE('',#1305,5.);
#20=CYLINDRICAL_SURFACE('',#1310,3.75);
#21=CYLINDRICAL_SURFACE('',#1318,5.);
#22=CYLINDRICAL_SURFACE('',#1323,3.75);
#23=CYLINDRICAL_SURFACE('',#1344,5.);
#24=CYLINDRICAL_SURFACE('',#1349,3.75);
#25=CYLINDRICAL_SURFACE('',#1355,9.);
#26=CYLINDRICAL_SURFACE('',#1360,13.);
#27=CYLINDRICAL_SURFACE('',#1367,13.);
#28=CYLINDRICAL_SURFACE('',#1374,13.);
#29=CYLINDRICAL_SURFACE('',#1381,13.);
#30=CYLINDRICAL_SURFACE('',#1386,31.);
#31=CYLINDRICAL_SURFACE('',#1401,13.);
#32=FACE_BOUND('',#115,.T.);
#33=FACE_BOUND('',#121,.T.);
#34=FACE_BOUND('',#127,.T.);
#35=FACE_BOUND('',#133,.T.);
#36=FACE_BOUND('',#147,.T.);
#37=FACE_BOUND('',#186,.T.);
#38=FACE_BOUND('',#188,.T.);
#39=FACE_BOUND('',#189,.T.);
#40=FACE_BOUND('',#190,.T.);
#41=FACE_BOUND('',#191,.T.);
#42=FACE_BOUND('',#192,.T.);
#43=FACE_BOUND('',#193,.T.);
#44=FACE_OUTER_BOUND('',#113,.T.);
#45=FACE_OUTER_BOUND('',#114,.T.);
#46=FACE_OUTER_BOUND('',#116,.T.);
#47=FACE_OUTER_BOUND('',#117,.T.);
#48=FACE_OUTER_BOUND('',#118,.T.);
#49=FACE_OUTER_BOUND('',#119,.T.);
#50=FACE_OUTER_BOUND('',#120,.T.);
#51=FACE_OUTER_BOUND('',#122,.T.);
#52=FACE_OUTER_BOUND('',#123,.T.);
#53=FACE_OUTER_BOUND('',#124,.T.);
#54=FACE_OUTER_BOUND('',#125,.T.);
#55=FACE_OUTER_BOUND('',#126,.T.);
#56=FACE_OUTER_BOUND('',#128,.T.);
#57=FACE_OUTER_BOUND('',#129,.T.);
#58=FACE_OUTER_BOUND('',#130,.T.);
#59=FACE_OUTER_BOUND('',#131,.T.);
#60=FACE_OUTER_BOUND('',#132,.T.);
#61=FACE_OUTER_BOUND('',#134,.T.);
#62=FACE_OUTER_BOUND('',#135,.T.);
#63=FACE_OUTER_BOUND('',#136,.T.);
#64=FACE_OUTER_BOUND('',#137,.T.);
#65=FACE_OUTER_BOUND('',#138,.T.);
#66=FACE_OUTER_BOUND('',#139,.T.);
#67=FACE_OUTER_BOUND('',#140,.T.);
#68=FACE_OUTER_BOUND('',#141,.T.);
#69=FACE_OUTER_BOUND('',#142,.T.);
#70=FACE_OUTER_BOUND('',#143,.T.);
#71=FACE_OUTER_BOUND('',#144,.T.);
#72=FACE_OUTER_BOUND('',#145,.T.);
#73=FACE_OUTER_BOUND('',#146,.T.);
#74=FACE_OUTER_BOUND('',#148,.T.);
#75=FACE_OUTER_BOUND('',#149,.T.);
#76=FACE_OUTER_BOUND('',#150,.T.);
#77=FACE_OUTER_BOUND('',#151,.T.);
#78=FACE_OUTER_BOUND('',#152,.T.);
#79=FACE_OUTER_BOUND('',#153,.T.);
#80=FACE_OUTER_BOUND('',#154,.T.);
#81=FACE_OUTER_BOUND('',#155,.T.);
#82=FACE_OUTER_BOUND('',#156,.T.);
#83=FACE_OUTER_BOUND('',#157,.T.);
#84=FACE_OUTER_BOUND('',#158,.T.);
#85=FACE_OUTER_BOUND('',#159,.T.);
#86=FACE_OUTER_BOUND('',#160,.T.);
#87=FACE_OUTER_BOUND('',#161,.T.);
#88=FACE_OUTER_BOUND('',#162,.T.);
#89=FACE_OUTER_BOUND('',#163,.T.);
#90=FACE_OUTER_BOUND('',#164,.T.);
#91=FACE_OUTER_BOUND('',#165,.T.);
#92=FACE_OUTER_BOUND('',#166,.T.);
#93=FACE_OUTER_BOUND('',#167,.T.);
#94=FACE_OUTER_BOUND('',#168,.T.);
#95=FACE_OUTER_BOUND('',#169,.T.);
#96=FACE_OUTER_BOUND('',#170,.T.);
#97=FACE_OUTER_BOUND('',#171,.T.);
#98=FACE_OUTER_BOUND('',#172,.T.);
#99=FACE_OUTER_BOUND('',#173,.T.);
#100=FACE_OUTER_BOUND('',#174,.T.);
#101=FACE_OUTER_BOUND('',#175,.T.);
#102=FACE_OUTER_BOUND('',#176,.T.);
#103=FACE_OUTER_BOUND('',#177,.T.);
#104=FACE_OUTER_BOUND('',#178,.T.);
#105=FACE_OUTER_BOUND('',#179,.T.);
#106=FACE_OUTER_BOUND('',#180,.T.);
#107=FACE_OUTER_BOUND('',#181,.T.);
#108=FACE_OUTER_BOUND('',#182,.T.);
#109=FACE_OUTER_BOUND('',#183,.T.);
#110=FACE_OUTER_BOUND('',#184,.T.);
#111=FACE_OUTER_BOUND('',#185,.T.);
#112=FACE_OUTER_BOUND('',#187,.T.);
#113=EDGE_LOOP('',(#777,#778,#779));
#114=EDGE_LOOP('',(#780));
#115=EDGE_LOOP('',(#781));
#116=EDGE_LOOP('',(#782,#783,#784,#785,#786,#787,#788,#789));
#117=EDGE_LOOP('',(#790,#791,#792,#793));
#118=EDGE_LOOP('',(#794,#795));
#119=EDGE_LOOP('',(#796,#797));
#120=EDGE_LOOP('',(#798));
#121=EDGE_LOOP('',(#799));
#122=EDGE_LOOP('',(#800,#801,#802,#803,#804,#805,#806,#807));
#123=EDGE_LOOP('',(#808,#809,#810,#811));
#124=EDGE_LOOP('',(#812,#813,#814));
#125=EDGE_LOOP('',(#815,#816));
#126=EDGE_LOOP('',(#817));
#127=EDGE_LOOP('',(#818));
#128=EDGE_LOOP('',(#819,#820,#821,#822,#823,#824,#825,#826));
#129=EDGE_LOOP('',(#827,#828,#829,#830));
#130=EDGE_LOOP('',(#831,#832,#833));
#131=EDGE_LOOP('',(#834,#835));
#132=EDGE_LOOP('',(#836));
#133=EDGE_LOOP('',(#837));
#134=EDGE_LOOP('',(#838,#839,#840,#841,#842,#843,#844,#845));
#135=EDGE_LOOP('',(#846,#847,#848,#849));
#136=EDGE_LOOP('',(#850,#851,#852));
#137=EDGE_LOOP('',(#853,#854,#855,#856));
#138=EDGE_LOOP('',(#857,#858,#859));
#139=EDGE_LOOP('',(#860,#861,#862));
#140=EDGE_LOOP('',(#863,#864,#865,#866,#867));
#141=EDGE_LOOP('',(#868,#869,#870));
#142=EDGE_LOOP('',(#871,#872,#873,#874));
#143=EDGE_LOOP('',(#875,#876,#877));
#144=EDGE_LOOP('',(#878,#879,#880,#881));
#145=EDGE_LOOP('',(#882,#883));
#146=EDGE_LOOP('',(#884));
#147=EDGE_LOOP('',(#885));
#148=EDGE_LOOP('',(#886,#887,#888,#889,#890,#891,#892,#893));
#149=EDGE_LOOP('',(#894,#895,#896,#897));
#150=EDGE_LOOP('',(#898,#899,#900));
#151=EDGE_LOOP('',(#901,#902,#903));
#152=EDGE_LOOP('',(#904,#905,#906,#907));
#153=EDGE_LOOP('',(#908,#909,#910,#911));
#154=EDGE_LOOP('',(#912,#913,#914,#915));
#155=EDGE_LOOP('',(#916,#917,#918,#919));
#156=EDGE_LOOP('',(#920,#921,#922,#923));
#157=EDGE_LOOP('',(#924,#925,#926,#927));
#158=EDGE_LOOP('',(#928,#929,#930,#931));
#159=EDGE_LOOP('',(#932,#933,#934,#935));
#160=EDGE_LOOP('',(#936,#937,#938,#939));
#161=EDGE_LOOP('',(#940,#941,#942,#943));
#162=EDGE_LOOP('',(#944,#945,#946,#947));
#163=EDGE_LOOP('',(#948,#949,#950,#951));
#164=EDGE_LOOP('',(#952,#953,#954,#955));
#165=EDGE_LOOP('',(#956,#957,#958,#959));
#166=EDGE_LOOP('',(#960,#961,#962,#963));
#167=EDGE_LOOP('',(#964,#965,#966,#967));
#168=EDGE_LOOP('',(#968,#969,#970,#971));
#169=EDGE_LOOP('',(#972,#973,#974,#975));
#170=EDGE_LOOP('',(#976,#977,#978,#979,#980,#981,#982,#983,#984,#985,#986,
#987,#988,#989,#990,#991,#992,#993,#994,#995,#996,#997,#998,#999,#1000,
#1001,#1002,#1003,#1004,#1005,#1006,#1007,#1008,#1009,#1010,#1011,#1012,
#1013,#1014,#1015,#1016,#1017,#1018,#1019));
#171=EDGE_LOOP('',(#1020,#1021,#1022,#1023));
#172=EDGE_LOOP('',(#1024,#1025,#1026,#1027));
#173=EDGE_LOOP('',(#1028,#1029,#1030,#1031));
#174=EDGE_LOOP('',(#1032,#1033,#1034,#1035));
#175=EDGE_LOOP('',(#1036,#1037,#1038,#1039,#1040,#1041));
#176=EDGE_LOOP('',(#1042,#1043,#1044,#1045,#1046,#1047));
#177=EDGE_LOOP('',(#1048,#1049,#1050,#1051,#1052,#1053));
#178=EDGE_LOOP('',(#1054,#1055,#1056,#1057,#1058,#1059));
#179=EDGE_LOOP('',(#1060,#1061,#1062,#1063,#1064,#1065));
#180=EDGE_LOOP('',(#1066,#1067,#1068,#1069,#1070,#1071));
#181=EDGE_LOOP('',(#1072,#1073,#1074,#1075,#1076,#1077));
#182=EDGE_LOOP('',(#1078,#1079,#1080,#1081,#1082,#1083));
#183=EDGE_LOOP('',(#1084,#1085,#1086,#1087,#1088,#1089));
#184=EDGE_LOOP('',(#1090,#1091,#1092,#1093,#1094,#1095));
#185=EDGE_LOOP('',(#1096,#1097,#1098,#1099,#1100,#1101,#1102,#1103,#1104,
#1105,#1106,#1107,#1108,#1109,#1110,#1111,#1112,#1113,#1114,#1115,#1116,
#1117,#1118,#1119,#1120,#1121,#1122,#1123,#1124,#1125,#1126,#1127,#1128,
#1129,#1130));
#186=EDGE_LOOP('',(#1131));
#187=EDGE_LOOP('',(#1132));
#188=EDGE_LOOP('',(#1133));
#189=EDGE_LOOP('',(#1134));
#190=EDGE_LOOP('',(#1135));
#191=EDGE_LOOP('',(#1136));
#192=EDGE_LOOP('',(#1137));
#193=EDGE_LOOP('',(#1138));
#194=CIRCLE('',#1275,5.);
#195=CIRCLE('',#1276,5.);
#196=CIRCLE('',#1278,5.);
#197=CIRCLE('',#1279,3.75);
#198=CIRCLE('',#1281,5.);
#199=CIRCLE('',#1282,5.);
#200=CIRCLE('',#1283,5.);
#201=CIRCLE('',#1285,3.75);
#202=CIRCLE('',#1288,5.);
#203=CIRCLE('',#1290,5.);
#204=CIRCLE('',#1291,3.75);
#205=CIRCLE('',#1293,5.);
#206=CIRCLE('',#1294,5.);
#207=CIRCLE('',#1295,5.);
#208=CIRCLE('',#1296,5.);
#209=CIRCLE('',#1298,3.75);
#210=CIRCLE('',#1301,5.);
#211=CIRCLE('',#1303,5.);
#212=CIRCLE('',#1304,3.75);
#213=CIRCLE('',#1306,5.);
#214=CIRCLE('',#1307,5.);
#215=CIRCLE('',#1308,5.);
#216=CIRCLE('',#1309,5.);
#217=CIRCLE('',#1311,3.75);
#218=CIRCLE('',#1314,5.);
#219=CIRCLE('',#1316,5.);
#220=CIRCLE('',#1317,3.75);
#221=CIRCLE('',#1319,5.);
#222=CIRCLE('',#1320,5.);
#223=CIRCLE('',#1321,5.);
#224=CIRCLE('',#1322,5.);
#225=CIRCLE('',#1324,3.75);
#226=CIRCLE('',#1327,31.);
#227=CIRCLE('',#1331,31.);
#228=CIRCLE('',#1332,31.);
#229=CIRCLE('',#1335,31.);
#230=CIRCLE('',#1338,31.);
#231=CIRCLE('',#1340,5.);
#232=CIRCLE('',#1342,5.);
#233=CIRCLE('',#1343,3.75);
#234=CIRCLE('',#1345,5.);
#235=CIRCLE('',#1346,5.);
#236=CIRCLE('',#1347,5.);
#237=CIRCLE('',#1348,5.);
#238=CIRCLE('',#1350,3.75);
#239=CIRCLE('',#1354,31.);
#240=CIRCLE('',#1356,9.);
#241=CIRCLE('',#1357,9.);
#242=CIRCLE('',#1361,13.);
#243=CIRCLE('',#1362,13.);
#244=CIRCLE('',#1364,31.);
#245=CIRCLE('',#1368,13.);
#246=CIRCLE('',#1369,13.);
#247=CIRCLE('',#1371,31.);
#248=CIRCLE('',#1375,13.);
#249=CIRCLE('',#1376,13.);
#250=CIRCLE('',#1378,31.);
#251=CIRCLE('',#1382,13.);
#252=CIRCLE('',#1383,13.);
#253=CIRCLE('',#1385,31.);
#254=CIRCLE('',#1387,31.);
#255=CIRCLE('',#1388,31.);
#256=CIRCLE('',#1389,31.);
#257=CIRCLE('',#1390,31.);
#258=CIRCLE('',#1391,31.);
#259=CIRCLE('',#1392,31.);
#260=CIRCLE('',#1393,31.);
#261=CIRCLE('',#1394,31.);
#262=CIRCLE('',#1395,31.);
#263=CIRCLE('',#1396,31.);
#264=CIRCLE('',#1397,31.);
#265=CIRCLE('',#1398,31.);
#266=CIRCLE('',#1402,13.);
#267=CIRCLE('',#1403,13.);
#268=LINE('',#1816,#375);
#269=LINE('',#1828,#376);
#270=LINE('',#1834,#377);
#271=LINE('',#1837,#378);
#272=LINE('',#1841,#379);
#273=LINE('',#1853,#380);
#274=LINE('',#1859,#381);
#275=LINE('',#1862,#382);
#276=LINE('',#1866,#383);
#277=LINE('',#1878,#384);
#278=LINE('',#1884,#385);
#279=LINE('',#1887,#386);
#280=LINE('',#1891,#387);
#281=LINE('',#1903,#388);
#282=LINE('',#1909,#389);
#283=LINE('',#1912,#390);
#284=LINE('',#1915,#391);
#285=LINE('',#1918,#392);
#286=LINE('',#1921,#393);
#287=LINE('',#1922,#394);
#288=LINE('',#1925,#395);
#289=LINE('',#1926,#396);
#290=LINE('',#1929,#397);
#291=LINE('',#1934,#398);
#292=LINE('',#1937,#399);
#293=LINE('',#1938,#400);
#294=LINE('',#1941,#401);
#295=LINE('',#1944,#402);
#296=LINE('',#1947,#403);
#297=LINE('',#1948,#404);
#298=LINE('',#1951,#405);
#299=LINE('',#1954,#406);
#300=LINE('',#1958,#407);
#301=LINE('',#1970,#408);
#302=LINE('',#1976,#409);
#303=LINE('',#1979,#410);
#304=LINE('',#1982,#411);
#305=LINE('',#1983,#412);
#306=LINE('',#1986,#413);
#307=LINE('',#1989,#414);
#308=LINE('',#1994,#415);
#309=LINE('',#1999,#416);
#310=LINE('',#2001,#417);
#311=LINE('',#2003,#418);
#312=LINE('',#2004,#419);
#313=LINE('',#2008,#420);
#314=LINE('',#2010,#421);
#315=LINE('',#2012,#422);
#316=LINE('',#2013,#423);
#317=LINE('',#2022,#424);
#318=LINE('',#2024,#425);
#319=LINE('',#2026,#426);
#320=LINE('',#2027,#427);
#321=LINE('',#2031,#428);
#322=LINE('',#2033,#429);
#323=LINE('',#2035,#430);
#324=LINE('',#2036,#431);
#325=LINE('',#2045,#432);
#326=LINE('',#2047,#433);
#327=LINE('',#2049,#434);
#328=LINE('',#2050,#435);
#329=LINE('',#2054,#436);
#330=LINE('',#2056,#437);
#331=LINE('',#2058,#438);
#332=LINE('',#2059,#439);
#333=LINE('',#2068,#440);
#334=LINE('',#2070,#441);
#335=LINE('',#2072,#442);
#336=LINE('',#2073,#443);
#337=LINE('',#2077,#444);
#338=LINE('',#2079,#445);
#339=LINE('',#2081,#446);
#340=LINE('',#2082,#447);
#341=LINE('',#2091,#448);
#342=LINE('',#2093,#449);
#343=LINE('',#2097,#450);
#344=LINE('',#2099,#451);
#345=LINE('',#2103,#452);
#346=LINE('',#2105,#453);
#347=LINE('',#2108,#454);
#348=LINE('',#2112,#455);
#349=LINE('',#2114,#456);
#350=LINE('',#2118,#457);
#351=LINE('',#2122,#458);
#352=LINE('',#2125,#459);
#353=LINE('',#2127,#460);
#354=LINE('',#2131,#461);
#355=LINE('',#2133,#462);
#356=LINE('',#2134,#463);
#357=LINE('',#2137,#464);
#358=LINE('',#2139,#465);
#359=LINE('',#2140,#466);
#360=LINE('',#2147,#467);
#361=LINE('',#2148,#468);
#362=LINE('',#2151,#469);
#363=LINE('',#2152,#470);
#364=LINE('',#2155,#471);
#365=LINE('',#2156,#472);
#366=LINE('',#2159,#473);
#367=LINE('',#2160,#474);
#368=LINE('',#2162,#475);
#369=LINE('',#2165,#476);
#370=LINE('',#2166,#477);
#371=LINE('',#2168,#478);
#372=LINE('',#2170,#479);
#373=LINE('',#2172,#480);
#374=LINE('',#2174,#481);
#375=VECTOR('',#1421,10.);
#376=VECTOR('',#1436,5.);
#377=VECTOR('',#1443,3.75);
#378=VECTOR('',#1448,10.);
#379=VECTOR('',#1451,10.);
#380=VECTOR('',#1466,5.);
#381=VECTOR('',#1473,3.75);
#382=VECTOR('',#1478,10.);
#383=VECTOR('',#1481,10.);
#384=VECTOR('',#1496,5.);
#385=VECTOR('',#1503,3.75);
#386=VECTOR('',#1508,10.);
#387=VECTOR('',#1511,10.);
#388=VECTOR('',#1526,5.);
#389=VECTOR('',#1533,3.75);
#390=VECTOR('',#1538,10.);
#391=VECTOR('',#1541,10.);
#392=VECTOR('',#1544,10.);
#393=VECTOR('',#1547,10.);
#394=VECTOR('',#1548,10.);
#395=VECTOR('',#1551,10.);
#396=VECTOR('',#1552,10.);
#397=VECTOR('',#1555,10.);
#398=VECTOR('',#1560,10.);
#399=VECTOR('',#1563,10.);
#400=VECTOR('',#1564,10.);
#401=VECTOR('',#1567,10.);
#402=VECTOR('',#1570,10.);
#403=VECTOR('',#1573,10.);
#404=VECTOR('',#1574,10.);
#405=VECTOR('',#1577,10.);
#406=VECTOR('',#1580,10.);
#407=VECTOR('',#1583,10.);
#408=VECTOR('',#1598,5.);
#409=VECTOR('',#1605,3.75);
#410=VECTOR('',#1610,10.);
#411=VECTOR('',#1613,10.);
#412=VECTOR('',#1614,10.);
#413=VECTOR('',#1617,10.);
#414=VECTOR('',#1620,10.);
#415=VECTOR('',#1625,9.);
#416=VECTOR('',#1630,10.);
#417=VECTOR('',#1631,10.);
#418=VECTOR('',#1632,10.);
#419=VECTOR('',#1633,10.);
#420=VECTOR('',#1636,10.);
#421=VECTOR('',#1637,10.);
#422=VECTOR('',#1638,10.);
#423=VECTOR('',#1639,10.);
#424=VECTOR('',#1652,10.);
#425=VECTOR('',#1653,10.);
#426=VECTOR('',#1654,10.);
#427=VECTOR('',#1655,10.);
#428=VECTOR('',#1658,10.);
#429=VECTOR('',#1659,10.);
#430=VECTOR('',#1660,10.);
#431=VECTOR('',#1661,10.);
#432=VECTOR('',#1674,10.);
#433=VECTOR('',#1675,10.);
#434=VECTOR('',#1676,10.);
#435=VECTOR('',#1677,10.);
#436=VECTOR('',#1680,10.);
#437=VECTOR('',#1681,10.);
#438=VECTOR('',#1682,10.);
#439=VECTOR('',#1683,10.);
#440=VECTOR('',#1696,10.);
#441=VECTOR('',#1697,10.);
#442=VECTOR('',#1698,10.);
#443=VECTOR('',#1699,10.);
#444=VECTOR('',#1702,10.);
#445=VECTOR('',#1703,10.);
#446=VECTOR('',#1704,10.);
#447=VECTOR('',#1705,10.);
#448=VECTOR('',#1720,10.);
#449=VECTOR('',#1721,10.);
#450=VECTOR('',#1726,10.);
#451=VECTOR('',#1727,10.);
#452=VECTOR('',#1732,10.);
#453=VECTOR('',#1733,31.);
#454=VECTOR('',#1736,10.);
#455=VECTOR('',#1741,10.);
#456=VECTOR('',#1742,10.);
#457=VECTOR('',#1745,10.);
#458=VECTOR('',#1748,10.);
#459=VECTOR('',#1751,10.);
#460=VECTOR('',#1752,10.);
#461=VECTOR('',#1757,10.);
#462=VECTOR('',#1758,10.);
#463=VECTOR('',#1759,10.);
#464=VECTOR('',#1762,10.);
#465=VECTOR('',#1763,10.);
#466=VECTOR('',#1764,10.);
#467=VECTOR('',#1775,10.);
#468=VECTOR('',#1776,10.);
#469=VECTOR('',#1779,10.);
#470=VECTOR('',#1780,10.);
#471=VECTOR('',#1783,10.);
#472=VECTOR('',#1784,10.);
#473=VECTOR('',#1787,10.);
#474=VECTOR('',#1788,10.);
#475=VECTOR('',#1791,10.);
#476=VECTOR('',#1794,10.);
#477=VECTOR('',#1795,10.);
#478=VECTOR('',#1798,10.);
#479=VECTOR('',#1801,10.);
#480=VECTOR('',#1804,10.);
#481=VECTOR('',#1807,10.);
#482=VERTEX_POINT('',#1814);
#483=VERTEX_POINT('',#1815);
#484=VERTEX_POINT('',#1817);
#485=VERTEX_POINT('',#1821);
#486=VERTEX_POINT('',#1823);
#487=VERTEX_POINT('',#1826);
#488=VERTEX_POINT('',#1829);
#489=VERTEX_POINT('',#1833);
#490=VERTEX_POINT('',#1839);
#491=VERTEX_POINT('',#1840);
#492=VERTEX_POINT('',#1844);
#493=VERTEX_POINT('',#1846);
#494=VERTEX_POINT('',#1849);
#495=VERTEX_POINT('',#1851);
#496=VERTEX_POINT('',#1854);
#497=VERTEX_POINT('',#1858);
#498=VERTEX_POINT('',#1864);
#499=VERTEX_POINT('',#1865);
#500=VERTEX_POINT('',#1869);
#501=VERTEX_POINT('',#1871);
#502=VERTEX_POINT('',#1874);
#503=VERTEX_POINT('',#1876);
#504=VERTEX_POINT('',#1879);
#505=VERTEX_POINT('',#1883);
#506=VERTEX_POINT('',#1889);
#507=VERTEX_POINT('',#1890);
#508=VERTEX_POINT('',#1894);
#509=VERTEX_POINT('',#1896);
#510=VERTEX_POINT('',#1899);
#511=VERTEX_POINT('',#1901);
#512=VERTEX_POINT('',#1904);
#513=VERTEX_POINT('',#1908);
#514=VERTEX_POINT('',#1914);
#515=VERTEX_POINT('',#1916);
#516=VERTEX_POINT('',#1920);
#517=VERTEX_POINT('',#1924);
#518=VERTEX_POINT('',#1928);
#519=VERTEX_POINT('',#1930);
#520=VERTEX_POINT('',#1932);
#521=VERTEX_POINT('',#1936);
#522=VERTEX_POINT('',#1940);
#523=VERTEX_POINT('',#1942);
#524=VERTEX_POINT('',#1946);
#525=VERTEX_POINT('',#1950);
#526=VERTEX_POINT('',#1952);
#527=VERTEX_POINT('',#1956);
#528=VERTEX_POINT('',#1957);
#529=VERTEX_POINT('',#1961);
#530=VERTEX_POINT('',#1963);
#531=VERTEX_POINT('',#1966);
#532=VERTEX_POINT('',#1968);
#533=VERTEX_POINT('',#1971);
#534=VERTEX_POINT('',#1975);
#535=VERTEX_POINT('',#1981);
#536=VERTEX_POINT('',#1985);
#537=VERTEX_POINT('',#1987);
#538=VERTEX_POINT('',#1991);
#539=VERTEX_POINT('',#1993);
#540=VERTEX_POINT('',#1997);
#541=VERTEX_POINT('',#1998);
#542=VERTEX_POINT('',#2000);
#543=VERTEX_POINT('',#2002);
#544=VERTEX_POINT('',#2006);
#545=VERTEX_POINT('',#2007);
#546=VERTEX_POINT('',#2009);
#547=VERTEX_POINT('',#2011);
#548=VERTEX_POINT('',#2020);
#549=VERTEX_POINT('',#2021);
#550=VERTEX_POINT('',#2023);
#551=VERTEX_POINT('',#2025);
#552=VERTEX_POINT('',#2029);
#553=VERTEX_POINT('',#2030);
#554=VERTEX_POINT('',#2032);
#555=VERTEX_POINT('',#2034);
#556=VERTEX_POINT('',#2043);
#557=VERTEX_POINT('',#2044);
#558=VERTEX_POINT('',#2046);
#559=VERTEX_POINT('',#2048);
#560=VERTEX_POINT('',#2052);
#561=VERTEX_POINT('',#2053);
#562=VERTEX_POINT('',#2055);
#563=VERTEX_POINT('',#2057);
#564=VERTEX_POINT('',#2066);
#565=VERTEX_POINT('',#2067);
#566=VERTEX_POINT('',#2069);
#567=VERTEX_POINT('',#2071);
#568=VERTEX_POINT('',#2075);
#569=VERTEX_POINT('',#2076);
#570=VERTEX_POINT('',#2078);
#571=VERTEX_POINT('',#2080);
#572=VERTEX_POINT('',#2089);
#573=VERTEX_POINT('',#2092);
#574=VERTEX_POINT('',#2095);
#575=VERTEX_POINT('',#2098);
#576=VERTEX_POINT('',#2101);
#577=VERTEX_POINT('',#2104);
#578=VERTEX_POINT('',#2107);
#579=VERTEX_POINT('',#2110);
#580=VERTEX_POINT('',#2113);
#581=VERTEX_POINT('',#2115);
#582=VERTEX_POINT('',#2117);
#583=VERTEX_POINT('',#2119);
#584=VERTEX_POINT('',#2121);
#585=VERTEX_POINT('',#2123);
#586=VERTEX_POINT('',#2126);
#587=VERTEX_POINT('',#2130);
#588=VERTEX_POINT('',#2132);
#589=VERTEX_POINT('',#2136);
#590=VERTEX_POINT('',#2138);
#591=VERTEX_POINT('',#2146);
#592=VERTEX_POINT('',#2150);
#593=VERTEX_POINT('',#2154);
#594=VERTEX_POINT('',#2158);
#595=VERTEX_POINT('',#2164);
#596=EDGE_CURVE('',#482,#483,#268,.T.);
#597=EDGE_CURVE('',#484,#483,#194,.T.);
#598=EDGE_CURVE('',#482,#484,#195,.T.);
#599=EDGE_CURVE('',#485,#485,#196,.T.);
#600=EDGE_CURVE('',#486,#486,#197,.T.);
#601=EDGE_CURVE('',#482,#487,#198,.T.);
#602=EDGE_CURVE('',#484,#485,#269,.T.);
#603=EDGE_CURVE('',#488,#483,#199,.T.);
#604=EDGE_CURVE('',#488,#487,#200,.T.);
#605=EDGE_CURVE('',#486,#489,#270,.T.);
#606=EDGE_CURVE('',#489,#489,#201,.T.);
#607=EDGE_CURVE('',#488,#487,#271,.T.);
#608=EDGE_CURVE('',#490,#491,#272,.T.);
#609=EDGE_CURVE('',#490,#491,#202,.T.);
#610=EDGE_CURVE('',#492,#492,#203,.T.);
#611=EDGE_CURVE('',#493,#493,#204,.T.);
#612=EDGE_CURVE('',#494,#491,#205,.T.);
#613=EDGE_CURVE('',#494,#495,#206,.T.);
#614=EDGE_CURVE('',#495,#492,#273,.T.);
#615=EDGE_CURVE('',#495,#496,#207,.T.);
#616=EDGE_CURVE('',#490,#496,#208,.T.);
#617=EDGE_CURVE('',#493,#497,#274,.T.);
#618=EDGE_CURVE('',#497,#497,#209,.T.);
#619=EDGE_CURVE('',#494,#496,#275,.T.);
#620=EDGE_CURVE('',#498,#499,#276,.T.);
#621=EDGE_CURVE('',#498,#499,#210,.T.);
#622=EDGE_CURVE('',#500,#500,#211,.T.);
#623=EDGE_CURVE('',#501,#501,#212,.T.);
#624=EDGE_CURVE('',#502,#499,#213,.T.);
#625=EDGE_CURVE('',#502,#503,#214,.T.);
#626=EDGE_CURVE('',#503,#500,#277,.T.);
#627=EDGE_CURVE('',#503,#504,#215,.T.);
#628=EDGE_CURVE('',#498,#504,#216,.T.);
#629=EDGE_CURVE('',#501,#505,#278,.T.);
#630=EDGE_CURVE('',#505,#505,#217,.T.);
#631=EDGE_CURVE('',#502,#504,#279,.T.);
#632=EDGE_CURVE('',#506,#507,#280,.T.);
#633=EDGE_CURVE('',#506,#507,#218,.T.);
#634=EDGE_CURVE('',#508,#508,#219,.T.);
#635=EDGE_CURVE('',#509,#509,#220,.T.);
#636=EDGE_CURVE('',#510,#507,#221,.T.);
#637=EDGE_CURVE('',#510,#511,#222,.T.);
#638=EDGE_CURVE('',#511,#508,#281,.T.);
#639=EDGE_CURVE('',#511,#512,#223,.T.);
#640=EDGE_CURVE('',#506,#512,#224,.T.);
#641=EDGE_CURVE('',#509,#513,#282,.T.);
#642=EDGE_CURVE('',#513,#513,#225,.T.);
#643=EDGE_CURVE('',#510,#512,#283,.T.);
#644=EDGE_CURVE('',#487,#514,#284,.T.);
#645=EDGE_CURVE('',#514,#515,#226,.T.);
#646=EDGE_CURVE('',#515,#482,#285,.T.);
#647=EDGE_CURVE('',#483,#516,#286,.T.);
#648=EDGE_CURVE('',#516,#488,#287,.T.);
#649=EDGE_CURVE('',#496,#517,#288,.T.);
#650=EDGE_CURVE('',#517,#490,#289,.T.);
#651=EDGE_CURVE('',#491,#518,#290,.T.);
#652=EDGE_CURVE('',#518,#519,#227,.T.);
#653=EDGE_CURVE('',#519,#520,#228,.T.);
#654=EDGE_CURVE('',#520,#494,#291,.T.);
#655=EDGE_CURVE('',#504,#521,#292,.T.);
#656=EDGE_CURVE('',#521,#498,#293,.T.);
#657=EDGE_CURVE('',#499,#522,#294,.T.);
#658=EDGE_CURVE('',#522,#523,#229,.T.);
#659=EDGE_CURVE('',#523,#502,#295,.T.);
#660=EDGE_CURVE('',#512,#524,#296,.T.);
#661=EDGE_CURVE('',#524,#506,#297,.T.);
#662=EDGE_CURVE('',#507,#525,#298,.T.);
#663=EDGE_CURVE('',#525,#526,#230,.T.);
#664=EDGE_CURVE('',#526,#510,#299,.T.);
#665=EDGE_CURVE('',#527,#528,#300,.T.);
#666=EDGE_CURVE('',#527,#528,#231,.T.);
#667=EDGE_CURVE('',#529,#529,#232,.T.);
#668=EDGE_CURVE('',#530,#530,#233,.T.);
#669=EDGE_CURVE('',#531,#528,#234,.T.);
#670=EDGE_CURVE('',#531,#532,#235,.T.);
#671=EDGE_CURVE('',#532,#529,#301,.T.);
#672=EDGE_CURVE('',#532,#533,#236,.T.);
#673=EDGE_CURVE('',#527,#533,#237,.T.);
#674=EDGE_CURVE('',#530,#534,#302,.T.);
#675=EDGE_CURVE('',#534,#534,#238,.T.);
#676=EDGE_CURVE('',#531,#533,#303,.T.);
#677=EDGE_CURVE('',#533,#535,#304,.T.);
#678=EDGE_CURVE('',#535,#527,#305,.T.);
#679=EDGE_CURVE('',#528,#536,#306,.T.);
#680=EDGE_CURVE('',#536,#537,#239,.T.);
#681=EDGE_CURVE('',#537,#531,#307,.T.);
#682=EDGE_CURVE('',#538,#538,#240,.T.);
#683=EDGE_CURVE('',#538,#539,#308,.T.);
#684=EDGE_CURVE('',#539,#539,#241,.T.);
#685=EDGE_CURVE('',#540,#541,#309,.T.);
#686=EDGE_CURVE('',#542,#540,#310,.T.);
#687=EDGE_CURVE('',#542,#543,#311,.T.);
#688=EDGE_CURVE('',#541,#543,#312,.T.);
#689=EDGE_CURVE('',#544,#545,#313,.T.);
#690=EDGE_CURVE('',#544,#546,#314,.T.);
#691=EDGE_CURVE('',#546,#547,#315,.T.);
#692=EDGE_CURVE('',#545,#547,#316,.T.);
#693=EDGE_CURVE('',#541,#544,#242,.T.);
#694=EDGE_CURVE('',#543,#546,#243,.T.);
#695=EDGE_CURVE('',#547,#542,#244,.T.);
#696=EDGE_CURVE('',#548,#549,#317,.T.);
#697=EDGE_CURVE('',#550,#548,#318,.T.);
#698=EDGE_CURVE('',#550,#551,#319,.T.);
#699=EDGE_CURVE('',#549,#551,#320,.T.);
#700=EDGE_CURVE('',#552,#553,#321,.T.);
#701=EDGE_CURVE('',#552,#554,#322,.T.);
#702=EDGE_CURVE('',#554,#555,#323,.T.);
#703=EDGE_CURVE('',#553,#555,#324,.T.);
#704=EDGE_CURVE('',#549,#552,#245,.T.);
#705=EDGE_CURVE('',#551,#554,#246,.T.);
#706=EDGE_CURVE('',#555,#550,#247,.T.);
#707=EDGE_CURVE('',#556,#557,#325,.T.);
#708=EDGE_CURVE('',#558,#556,#326,.T.);
#709=EDGE_CURVE('',#558,#559,#327,.T.);
#710=EDGE_CURVE('',#557,#559,#328,.T.);
#711=EDGE_CURVE('',#560,#561,#329,.T.);
#712=EDGE_CURVE('',#560,#562,#330,.T.);
#713=EDGE_CURVE('',#562,#563,#331,.T.);
#714=EDGE_CURVE('',#561,#563,#332,.T.);
#715=EDGE_CURVE('',#557,#560,#248,.T.);
#716=EDGE_CURVE('',#559,#562,#249,.T.);
#717=EDGE_CURVE('',#563,#558,#250,.T.);
#718=EDGE_CURVE('',#564,#565,#333,.T.);
#719=EDGE_CURVE('',#566,#564,#334,.T.);
#720=EDGE_CURVE('',#566,#567,#335,.T.);
#721=EDGE_CURVE('',#565,#567,#336,.T.);
#722=EDGE_CURVE('',#568,#569,#337,.T.);
#723=EDGE_CURVE('',#568,#570,#338,.T.);
#724=EDGE_CURVE('',#570,#571,#339,.T.);
#725=EDGE_CURVE('',#569,#571,#340,.T.);
#726=EDGE_CURVE('',#565,#568,#251,.T.);
#727=EDGE_CURVE('',#567,#570,#252,.T.);
#728=EDGE_CURVE('',#571,#566,#253,.T.);
#729=EDGE_CURVE('',#572,#540,#254,.T.);
#730=EDGE_CURVE('',#526,#572,#341,.T.);
#731=EDGE_CURVE('',#525,#573,#342,.T.);
#732=EDGE_CURVE('',#553,#573,#255,.T.);
#733=EDGE_CURVE('',#574,#548,#256,.T.);
#734=EDGE_CURVE('',#523,#574,#343,.T.);
#735=EDGE_CURVE('',#522,#575,#344,.T.);
#736=EDGE_CURVE('',#561,#575,#257,.T.);
#737=EDGE_CURVE('',#576,#556,#258,.T.);
#738=EDGE_CURVE('',#520,#576,#345,.T.);
#739=EDGE_CURVE('',#519,#577,#346,.T.);
#740=EDGE_CURVE('',#577,#577,#259,.T.);
#741=EDGE_CURVE('',#518,#578,#347,.T.);
#742=EDGE_CURVE('',#569,#578,#260,.T.);
#743=EDGE_CURVE('',#579,#564,#261,.T.);
#744=EDGE_CURVE('',#515,#579,#348,.T.);
#745=EDGE_CURVE('',#514,#580,#349,.T.);
#746=EDGE_CURVE('',#581,#580,#262,.T.);
#747=EDGE_CURVE('',#581,#582,#350,.T.);
#748=EDGE_CURVE('',#582,#583,#263,.T.);
#749=EDGE_CURVE('',#583,#584,#351,.T.);
#750=EDGE_CURVE('',#585,#584,#264,.T.);
#751=EDGE_CURVE('',#537,#585,#352,.T.);
#752=EDGE_CURVE('',#536,#586,#353,.T.);
#753=EDGE_CURVE('',#545,#586,#265,.T.);
#754=EDGE_CURVE('',#584,#587,#354,.T.);
#755=EDGE_CURVE('',#583,#588,#355,.T.);
#756=EDGE_CURVE('',#587,#588,#356,.T.);
#757=EDGE_CURVE('',#589,#581,#357,.T.);
#758=EDGE_CURVE('',#589,#590,#358,.T.);
#759=EDGE_CURVE('',#590,#582,#359,.T.);
#760=EDGE_CURVE('',#587,#589,#266,.T.);
#761=EDGE_CURVE('',#588,#590,#267,.T.);
#762=EDGE_CURVE('',#516,#591,#360,.T.);
#763=EDGE_CURVE('',#591,#579,#361,.T.);
#764=EDGE_CURVE('',#524,#592,#362,.T.);
#765=EDGE_CURVE('',#592,#572,#363,.T.);
#766=EDGE_CURVE('',#593,#535,#364,.T.);
#767=EDGE_CURVE('',#586,#593,#365,.T.);
#768=EDGE_CURVE('',#521,#594,#366,.T.);
#769=EDGE_CURVE('',#594,#574,#367,.T.);
#770=EDGE_CURVE('',#573,#592,#368,.T.);
#771=EDGE_CURVE('',#517,#595,#369,.T.);
#772=EDGE_CURVE('',#595,#576,#370,.T.);
#773=EDGE_CURVE('',#575,#594,#371,.T.);
#774=EDGE_CURVE('',#578,#595,#372,.T.);
#775=EDGE_CURVE('',#593,#585,#373,.T.);
#776=EDGE_CURVE('',#580,#591,#374,.T.);
#777=ORIENTED_EDGE('',*,*,#596,.T.);
#778=ORIENTED_EDGE('',*,*,#597,.F.);
#779=ORIENTED_EDGE('',*,*,#598,.F.);
#780=ORIENTED_EDGE('',*,*,#599,.F.);
#781=ORIENTED_EDGE('',*,*,#600,.T.);
#782=ORIENTED_EDGE('',*,*,#601,.F.);
#783=ORIENTED_EDGE('',*,*,#598,.T.);
#784=ORIENTED_EDGE('',*,*,#602,.T.);
#785=ORIENTED_EDGE('',*,*,#599,.T.);
#786=ORIENTED_EDGE('',*,*,#602,.F.);
#787=ORIENTED_EDGE('',*,*,#597,.T.);
#788=ORIENTED_EDGE('',*,*,#603,.F.);
#789=ORIENTED_EDGE('',*,*,#604,.T.);
#790=ORIENTED_EDGE('',*,*,#600,.F.);
#791=ORIENTED_EDGE('',*,*,#605,.T.);
#792=ORIENTED_EDGE('',*,*,#606,.F.);
#793=ORIENTED_EDGE('',*,*,#605,.F.);
#794=ORIENTED_EDGE('',*,*,#607,.T.);
#795=ORIENTED_EDGE('',*,*,#604,.F.);
#796=ORIENTED_EDGE('',*,*,#608,.T.);
#797=ORIENTED_EDGE('',*,*,#609,.F.);
#798=ORIENTED_EDGE('',*,*,#610,.F.);
#799=ORIENTED_EDGE('',*,*,#611,.T.);
#800=ORIENTED_EDGE('',*,*,#612,.F.);
#801=ORIENTED_EDGE('',*,*,#613,.T.);
#802=ORIENTED_EDGE('',*,*,#614,.T.);
#803=ORIENTED_EDGE('',*,*,#610,.T.);
#804=ORIENTED_EDGE('',*,*,#614,.F.);
#805=ORIENTED_EDGE('',*,*,#615,.T.);
#806=ORIENTED_EDGE('',*,*,#616,.F.);
#807=ORIENTED_EDGE('',*,*,#609,.T.);
#808=ORIENTED_EDGE('',*,*,#611,.F.);
#809=ORIENTED_EDGE('',*,*,#617,.T.);
#810=ORIENTED_EDGE('',*,*,#618,.F.);
#811=ORIENTED_EDGE('',*,*,#617,.F.);
#812=ORIENTED_EDGE('',*,*,#619,.T.);
#813=ORIENTED_EDGE('',*,*,#615,.F.);
#814=ORIENTED_EDGE('',*,*,#613,.F.);
#815=ORIENTED_EDGE('',*,*,#620,.T.);
#816=ORIENTED_EDGE('',*,*,#621,.F.);
#817=ORIENTED_EDGE('',*,*,#622,.F.);
#818=ORIENTED_EDGE('',*,*,#623,.T.);
#819=ORIENTED_EDGE('',*,*,#624,.F.);
#820=ORIENTED_EDGE('',*,*,#625,.T.);
#821=ORIENTED_EDGE('',*,*,#626,.T.);
#822=ORIENTED_EDGE('',*,*,#622,.T.);
#823=ORIENTED_EDGE('',*,*,#626,.F.);
#824=ORIENTED_EDGE('',*,*,#627,.T.);
#825=ORIENTED_EDGE('',*,*,#628,.F.);
#826=ORIENTED_EDGE('',*,*,#621,.T.);
#827=ORIENTED_EDGE('',*,*,#623,.F.);
#828=ORIENTED_EDGE('',*,*,#629,.T.);
#829=ORIENTED_EDGE('',*,*,#630,.F.);
#830=ORIENTED_EDGE('',*,*,#629,.F.);
#831=ORIENTED_EDGE('',*,*,#631,.T.);
#832=ORIENTED_EDGE('',*,*,#627,.F.);
#833=ORIENTED_EDGE('',*,*,#625,.F.);
#834=ORIENTED_EDGE('',*,*,#632,.T.);
#835=ORIENTED_EDGE('',*,*,#633,.F.);
#836=ORIENTED_EDGE('',*,*,#634,.F.);
#837=ORIENTED_EDGE('',*,*,#635,.T.);
#838=ORIENTED_EDGE('',*,*,#636,.F.);
#839=ORIENTED_EDGE('',*,*,#637,.T.);
#840=ORIENTED_EDGE('',*,*,#638,.T.);
#841=ORIENTED_EDGE('',*,*,#634,.T.);
#842=ORIENTED_EDGE('',*,*,#638,.F.);
#843=ORIENTED_EDGE('',*,*,#639,.T.);
#844=ORIENTED_EDGE('',*,*,#640,.F.);
#845=ORIENTED_EDGE('',*,*,#633,.T.);
#846=ORIENTED_EDGE('',*,*,#635,.F.);
#847=ORIENTED_EDGE('',*,*,#641,.T.);
#848=ORIENTED_EDGE('',*,*,#642,.F.);
#849=ORIENTED_EDGE('',*,*,#641,.F.);
#850=ORIENTED_EDGE('',*,*,#643,.T.);
#851=ORIENTED_EDGE('',*,*,#639,.F.);
#852=ORIENTED_EDGE('',*,*,#637,.F.);
#853=ORIENTED_EDGE('',*,*,#601,.T.);
#854=ORIENTED_EDGE('',*,*,#644,.T.);
#855=ORIENTED_EDGE('',*,*,#645,.T.);
#856=ORIENTED_EDGE('',*,*,#646,.T.);
#857=ORIENTED_EDGE('',*,*,#603,.T.);
#858=ORIENTED_EDGE('',*,*,#647,.T.);
#859=ORIENTED_EDGE('',*,*,#648,.T.);
#860=ORIENTED_EDGE('',*,*,#616,.T.);
#861=ORIENTED_EDGE('',*,*,#649,.T.);
#862=ORIENTED_EDGE('',*,*,#650,.T.);
#863=ORIENTED_EDGE('',*,*,#612,.T.);
#864=ORIENTED_EDGE('',*,*,#651,.T.);
#865=ORIENTED_EDGE('',*,*,#652,.T.);
#866=ORIENTED_EDGE('',*,*,#653,.T.);
#867=ORIENTED_EDGE('',*,*,#654,.T.);
#868=ORIENTED_EDGE('',*,*,#628,.T.);
#869=ORIENTED_EDGE('',*,*,#655,.T.);
#870=ORIENTED_EDGE('',*,*,#656,.T.);
#871=ORIENTED_EDGE('',*,*,#624,.T.);
#872=ORIENTED_EDGE('',*,*,#657,.T.);
#873=ORIENTED_EDGE('',*,*,#658,.T.);
#874=ORIENTED_EDGE('',*,*,#659,.T.);
#875=ORIENTED_EDGE('',*,*,#640,.T.);
#876=ORIENTED_EDGE('',*,*,#660,.T.);
#877=ORIENTED_EDGE('',*,*,#661,.T.);
#878=ORIENTED_EDGE('',*,*,#636,.T.);
#879=ORIENTED_EDGE('',*,*,#662,.T.);
#880=ORIENTED_EDGE('',*,*,#663,.T.);
#881=ORIENTED_EDGE('',*,*,#664,.T.);
#882=ORIENTED_EDGE('',*,*,#665,.T.);
#883=ORIENTED_EDGE('',*,*,#666,.F.);
#884=ORIENTED_EDGE('',*,*,#667,.F.);
#885=ORIENTED_EDGE('',*,*,#668,.T.);
#886=ORIENTED_EDGE('',*,*,#669,.F.);
#887=ORIENTED_EDGE('',*,*,#670,.T.);
#888=ORIENTED_EDGE('',*,*,#671,.T.);
#889=ORIENTED_EDGE('',*,*,#667,.T.);
#890=ORIENTED_EDGE('',*,*,#671,.F.);
#891=ORIENTED_EDGE('',*,*,#672,.T.);
#892=ORIENTED_EDGE('',*,*,#673,.F.);
#893=ORIENTED_EDGE('',*,*,#666,.T.);
#894=ORIENTED_EDGE('',*,*,#668,.F.);
#895=ORIENTED_EDGE('',*,*,#674,.T.);
#896=ORIENTED_EDGE('',*,*,#675,.F.);
#897=ORIENTED_EDGE('',*,*,#674,.F.);
#898=ORIENTED_EDGE('',*,*,#676,.T.);
#899=ORIENTED_EDGE('',*,*,#672,.F.);
#900=ORIENTED_EDGE('',*,*,#670,.F.);
#901=ORIENTED_EDGE('',*,*,#673,.T.);
#902=ORIENTED_EDGE('',*,*,#677,.T.);
#903=ORIENTED_EDGE('',*,*,#678,.T.);
#904=ORIENTED_EDGE('',*,*,#669,.T.);
#905=ORIENTED_EDGE('',*,*,#679,.T.);
#906=ORIENTED_EDGE('',*,*,#680,.T.);
#907=ORIENTED_EDGE('',*,*,#681,.T.);
#908=ORIENTED_EDGE('',*,*,#682,.F.);
#909=ORIENTED_EDGE('',*,*,#683,.T.);
#910=ORIENTED_EDGE('',*,*,#684,.F.);
#911=ORIENTED_EDGE('',*,*,#683,.F.);
#912=ORIENTED_EDGE('',*,*,#685,.F.);
#913=ORIENTED_EDGE('',*,*,#686,.F.);
#914=ORIENTED_EDGE('',*,*,#687,.T.);
#915=ORIENTED_EDGE('',*,*,#688,.F.);
#916=ORIENTED_EDGE('',*,*,#689,.F.);
#917=ORIENTED_EDGE('',*,*,#690,.T.);
#918=ORIENTED_EDGE('',*,*,#691,.T.);
#919=ORIENTED_EDGE('',*,*,#692,.F.);
#920=ORIENTED_EDGE('',*,*,#693,.F.);
#921=ORIENTED_EDGE('',*,*,#688,.T.);
#922=ORIENTED_EDGE('',*,*,#694,.T.);
#923=ORIENTED_EDGE('',*,*,#690,.F.);
#924=ORIENTED_EDGE('',*,*,#694,.F.);
#925=ORIENTED_EDGE('',*,*,#687,.F.);
#926=ORIENTED_EDGE('',*,*,#695,.F.);
#927=ORIENTED_EDGE('',*,*,#691,.F.);
#928=ORIENTED_EDGE('',*,*,#696,.F.);
#929=ORIENTED_EDGE('',*,*,#697,.F.);
#930=ORIENTED_EDGE('',*,*,#698,.T.);
#931=ORIENTED_EDGE('',*,*,#699,.F.);
#932=ORIENTED_EDGE('',*,*,#700,.F.);
#933=ORIENTED_EDGE('',*,*,#701,.T.);
#934=ORIENTED_EDGE('',*,*,#702,.T.);
#935=ORIENTED_EDGE('',*,*,#703,.F.);
#936=ORIENTED_EDGE('',*,*,#704,.F.);
#937=ORIENTED_EDGE('',*,*,#699,.T.);
#938=ORIENTED_EDGE('',*,*,#705,.T.);
#939=ORIENTED_EDGE('',*,*,#701,.F.);
#940=ORIENTED_EDGE('',*,*,#705,.F.);
#941=ORIENTED_EDGE('',*,*,#698,.F.);
#942=ORIENTED_EDGE('',*,*,#706,.F.);
#943=ORIENTED_EDGE('',*,*,#702,.F.);
#944=ORIENTED_EDGE('',*,*,#707,.F.);
#945=ORIENTED_EDGE('',*,*,#708,.F.);
#946=ORIENTED_EDGE('',*,*,#709,.T.);
#947=ORIENTED_EDGE('',*,*,#710,.F.);
#948=ORIENTED_EDGE('',*,*,#711,.F.);
#949=ORIENTED_EDGE('',*,*,#712,.T.);
#950=ORIENTED_EDGE('',*,*,#713,.T.);
#951=ORIENTED_EDGE('',*,*,#714,.F.);
#952=ORIENTED_EDGE('',*,*,#715,.F.);
#953=ORIENTED_EDGE('',*,*,#710,.T.);
#954=ORIENTED_EDGE('',*,*,#716,.T.);
#955=ORIENTED_EDGE('',*,*,#712,.F.);
#956=ORIENTED_EDGE('',*,*,#716,.F.);
#957=ORIENTED_EDGE('',*,*,#709,.F.);
#958=ORIENTED_EDGE('',*,*,#717,.F.);
#959=ORIENTED_EDGE('',*,*,#713,.F.);
#960=ORIENTED_EDGE('',*,*,#718,.F.);
#961=ORIENTED_EDGE('',*,*,#719,.F.);
#962=ORIENTED_EDGE('',*,*,#720,.T.);
#963=ORIENTED_EDGE('',*,*,#721,.F.);
#964=ORIENTED_EDGE('',*,*,#722,.F.);
#965=ORIENTED_EDGE('',*,*,#723,.T.);
#966=ORIENTED_EDGE('',*,*,#724,.T.);
#967=ORIENTED_EDGE('',*,*,#725,.F.);
#968=ORIENTED_EDGE('',*,*,#726,.F.);
#969=ORIENTED_EDGE('',*,*,#721,.T.);
#970=ORIENTED_EDGE('',*,*,#727,.T.);
#971=ORIENTED_EDGE('',*,*,#723,.F.);
#972=ORIENTED_EDGE('',*,*,#727,.F.);
#973=ORIENTED_EDGE('',*,*,#720,.F.);
#974=ORIENTED_EDGE('',*,*,#728,.F.);
#975=ORIENTED_EDGE('',*,*,#724,.F.);
#976=ORIENTED_EDGE('',*,*,#692,.T.);
#977=ORIENTED_EDGE('',*,*,#695,.T.);
#978=ORIENTED_EDGE('',*,*,#686,.T.);
#979=ORIENTED_EDGE('',*,*,#729,.F.);
#980=ORIENTED_EDGE('',*,*,#730,.F.);
#981=ORIENTED_EDGE('',*,*,#663,.F.);
#982=ORIENTED_EDGE('',*,*,#731,.T.);
#983=ORIENTED_EDGE('',*,*,#732,.F.);
#984=ORIENTED_EDGE('',*,*,#703,.T.);
#985=ORIENTED_EDGE('',*,*,#706,.T.);
#986=ORIENTED_EDGE('',*,*,#697,.T.);
#987=ORIENTED_EDGE('',*,*,#733,.F.);
#988=ORIENTED_EDGE('',*,*,#734,.F.);
#989=ORIENTED_EDGE('',*,*,#658,.F.);
#990=ORIENTED_EDGE('',*,*,#735,.T.);
#991=ORIENTED_EDGE('',*,*,#736,.F.);
#992=ORIENTED_EDGE('',*,*,#714,.T.);
#993=ORIENTED_EDGE('',*,*,#717,.T.);
#994=ORIENTED_EDGE('',*,*,#708,.T.);
#995=ORIENTED_EDGE('',*,*,#737,.F.);
#996=ORIENTED_EDGE('',*,*,#738,.F.);
#997=ORIENTED_EDGE('',*,*,#653,.F.);
#998=ORIENTED_EDGE('',*,*,#739,.T.);
#999=ORIENTED_EDGE('',*,*,#740,.T.);
#1000=ORIENTED_EDGE('',*,*,#739,.F.);
#1001=ORIENTED_EDGE('',*,*,#652,.F.);
#1002=ORIENTED_EDGE('',*,*,#741,.T.);
#1003=ORIENTED_EDGE('',*,*,#742,.F.);
#1004=ORIENTED_EDGE('',*,*,#725,.T.);
#1005=ORIENTED_EDGE('',*,*,#728,.T.);
#1006=ORIENTED_EDGE('',*,*,#719,.T.);
#1007=ORIENTED_EDGE('',*,*,#743,.F.);
#1008=ORIENTED_EDGE('',*,*,#744,.F.);
#1009=ORIENTED_EDGE('',*,*,#645,.F.);
#1010=ORIENTED_EDGE('',*,*,#745,.T.);
#1011=ORIENTED_EDGE('',*,*,#746,.F.);
#1012=ORIENTED_EDGE('',*,*,#747,.T.);
#1013=ORIENTED_EDGE('',*,*,#748,.T.);
#1014=ORIENTED_EDGE('',*,*,#749,.T.);
#1015=ORIENTED_EDGE('',*,*,#750,.F.);
#1016=ORIENTED_EDGE('',*,*,#751,.F.);
#1017=ORIENTED_EDGE('',*,*,#680,.F.);
#1018=ORIENTED_EDGE('',*,*,#752,.T.);
#1019=ORIENTED_EDGE('',*,*,#753,.F.);
#1020=ORIENTED_EDGE('',*,*,#754,.F.);
#1021=ORIENTED_EDGE('',*,*,#749,.F.);
#1022=ORIENTED_EDGE('',*,*,#755,.T.);
#1023=ORIENTED_EDGE('',*,*,#756,.F.);
#1024=ORIENTED_EDGE('',*,*,#757,.F.);
#1025=ORIENTED_EDGE('',*,*,#758,.T.);
#1026=ORIENTED_EDGE('',*,*,#759,.T.);
#1027=ORIENTED_EDGE('',*,*,#747,.F.);
#1028=ORIENTED_EDGE('',*,*,#760,.F.);
#1029=ORIENTED_EDGE('',*,*,#756,.T.);
#1030=ORIENTED_EDGE('',*,*,#761,.T.);
#1031=ORIENTED_EDGE('',*,*,#758,.F.);
#1032=ORIENTED_EDGE('',*,*,#761,.F.);
#1033=ORIENTED_EDGE('',*,*,#755,.F.);
#1034=ORIENTED_EDGE('',*,*,#748,.F.);
#1035=ORIENTED_EDGE('',*,*,#759,.F.);
#1036=ORIENTED_EDGE('',*,*,#762,.F.);
#1037=ORIENTED_EDGE('',*,*,#647,.F.);
#1038=ORIENTED_EDGE('',*,*,#596,.F.);
#1039=ORIENTED_EDGE('',*,*,#646,.F.);
#1040=ORIENTED_EDGE('',*,*,#744,.T.);
#1041=ORIENTED_EDGE('',*,*,#763,.F.);
#1042=ORIENTED_EDGE('',*,*,#764,.F.);
#1043=ORIENTED_EDGE('',*,*,#660,.F.);
#1044=ORIENTED_EDGE('',*,*,#643,.F.);
#1045=ORIENTED_EDGE('',*,*,#664,.F.);
#1046=ORIENTED_EDGE('',*,*,#730,.T.);
#1047=ORIENTED_EDGE('',*,*,#765,.F.);
#1048=ORIENTED_EDGE('',*,*,#766,.F.);
#1049=ORIENTED_EDGE('',*,*,#767,.F.);
#1050=ORIENTED_EDGE('',*,*,#752,.F.);
#1051=ORIENTED_EDGE('',*,*,#679,.F.);
#1052=ORIENTED_EDGE('',*,*,#665,.F.);
#1053=ORIENTED_EDGE('',*,*,#678,.F.);
#1054=ORIENTED_EDGE('',*,*,#768,.F.);
#1055=ORIENTED_EDGE('',*,*,#655,.F.);
#1056=ORIENTED_EDGE('',*,*,#631,.F.);
#1057=ORIENTED_EDGE('',*,*,#659,.F.);
#1058=ORIENTED_EDGE('',*,*,#734,.T.);
#1059=ORIENTED_EDGE('',*,*,#769,.F.);
#1060=ORIENTED_EDGE('',*,*,#764,.T.);
#1061=ORIENTED_EDGE('',*,*,#770,.F.);
#1062=ORIENTED_EDGE('',*,*,#731,.F.);
#1063=ORIENTED_EDGE('',*,*,#662,.F.);
#1064=ORIENTED_EDGE('',*,*,#632,.F.);
#1065=ORIENTED_EDGE('',*,*,#661,.F.);
#1066=ORIENTED_EDGE('',*,*,#771,.F.);
#1067=ORIENTED_EDGE('',*,*,#649,.F.);
#1068=ORIENTED_EDGE('',*,*,#619,.F.);
#1069=ORIENTED_EDGE('',*,*,#654,.F.);
#1070=ORIENTED_EDGE('',*,*,#738,.T.);
#1071=ORIENTED_EDGE('',*,*,#772,.F.);
#1072=ORIENTED_EDGE('',*,*,#768,.T.);
#1073=ORIENTED_EDGE('',*,*,#773,.F.);
#1074=ORIENTED_EDGE('',*,*,#735,.F.);
#1075=ORIENTED_EDGE('',*,*,#657,.F.);
#1076=ORIENTED_EDGE('',*,*,#620,.F.);
#1077=ORIENTED_EDGE('',*,*,#656,.F.);
#1078=ORIENTED_EDGE('',*,*,#771,.T.);
#1079=ORIENTED_EDGE('',*,*,#774,.F.);
#1080=ORIENTED_EDGE('',*,*,#741,.F.);
#1081=ORIENTED_EDGE('',*,*,#651,.F.);
#1082=ORIENTED_EDGE('',*,*,#608,.F.);
#1083=ORIENTED_EDGE('',*,*,#650,.F.);
#1084=ORIENTED_EDGE('',*,*,#766,.T.);
#1085=ORIENTED_EDGE('',*,*,#677,.F.);
#1086=ORIENTED_EDGE('',*,*,#676,.F.);
#1087=ORIENTED_EDGE('',*,*,#681,.F.);
#1088=ORIENTED_EDGE('',*,*,#751,.T.);
#1089=ORIENTED_EDGE('',*,*,#775,.F.);
#1090=ORIENTED_EDGE('',*,*,#762,.T.);
#1091=ORIENTED_EDGE('',*,*,#776,.F.);
#1092=ORIENTED_EDGE('',*,*,#745,.F.);
#1093=ORIENTED_EDGE('',*,*,#644,.F.);
#1094=ORIENTED_EDGE('',*,*,#607,.F.);
#1095=ORIENTED_EDGE('',*,*,#648,.F.);
#1096=ORIENTED_EDGE('',*,*,#689,.T.);
#1097=ORIENTED_EDGE('',*,*,#753,.T.);
#1098=ORIENTED_EDGE('',*,*,#767,.T.);
#1099=ORIENTED_EDGE('',*,*,#775,.T.);
#1100=ORIENTED_EDGE('',*,*,#750,.T.);
#1101=ORIENTED_EDGE('',*,*,#754,.T.);
#1102=ORIENTED_EDGE('',*,*,#760,.T.);
#1103=ORIENTED_EDGE('',*,*,#757,.T.);
#1104=ORIENTED_EDGE('',*,*,#746,.T.);
#1105=ORIENTED_EDGE('',*,*,#776,.T.);
#1106=ORIENTED_EDGE('',*,*,#763,.T.);
#1107=ORIENTED_EDGE('',*,*,#743,.T.);
#1108=ORIENTED_EDGE('',*,*,#718,.T.);
#1109=ORIENTED_EDGE('',*,*,#726,.T.);
#1110=ORIENTED_EDGE('',*,*,#722,.T.);
#1111=ORIENTED_EDGE('',*,*,#742,.T.);
#1112=ORIENTED_EDGE('',*,*,#774,.T.);
#1113=ORIENTED_EDGE('',*,*,#772,.T.);
#1114=ORIENTED_EDGE('',*,*,#737,.T.);
#1115=ORIENTED_EDGE('',*,*,#707,.T.);
#1116=ORIENTED_EDGE('',*,*,#715,.T.);
#1117=ORIENTED_EDGE('',*,*,#711,.T.);
#1118=ORIENTED_EDGE('',*,*,#736,.T.);
#1119=ORIENTED_EDGE('',*,*,#773,.T.);
#1120=ORIENTED_EDGE('',*,*,#769,.T.);
#1121=ORIENTED_EDGE('',*,*,#733,.T.);
#1122=ORIENTED_EDGE('',*,*,#696,.T.);
#1123=ORIENTED_EDGE('',*,*,#704,.T.);
#1124=ORIENTED_EDGE('',*,*,#700,.T.);
#1125=ORIENTED_EDGE('',*,*,#732,.T.);
#1126=ORIENTED_EDGE('',*,*,#770,.T.);
#1127=ORIENTED_EDGE('',*,*,#765,.T.);
#1128=ORIENTED_EDGE('',*,*,#729,.T.);
#1129=ORIENTED_EDGE('',*,*,#685,.T.);
#1130=ORIENTED_EDGE('',*,*,#693,.T.);
#1131=ORIENTED_EDGE('',*,*,#682,.T.);
#1132=ORIENTED_EDGE('',*,*,#740,.F.);
#1133=ORIENTED_EDGE('',*,*,#684,.T.);
#1134=ORIENTED_EDGE('',*,*,#675,.T.);
#1135=ORIENTED_EDGE('',*,*,#642,.T.);
#1136=ORIENTED_EDGE('',*,*,#630,.T.);
#1137=ORIENTED_EDGE('',*,*,#618,.T.);
#1138=ORIENTED_EDGE('',*,*,#606,.T.);
#1139=PLANE('',#1274);
#1140=PLANE('',#1277);
#1141=PLANE('',#1286);
#1142=PLANE('',#1287);
#1143=PLANE('',#1289);
#1144=PLANE('',#1299);
#1145=PLANE('',#1300);
#1146=PLANE('',#1302);
#1147=PLANE('',#1312);
#1148=PLANE('',#1313);
#1149=PLANE('',#1315);
#1150=PLANE('',#1325);
#1151=PLANE('',#1326);
#1152=PLANE('',#1328);
#1153=PLANE('',#1329);
#1154=PLANE('',#1330);
#1155=PLANE('',#1333);
#1156=PLANE('',#1334);
#1157=PLANE('',#1336);
#1158=PLANE('',#1337);
#1159=PLANE('',#1339);
#1160=PLANE('',#1341);
#1161=PLANE('',#1351);
#1162=PLANE('',#1352);
#1163=PLANE('',#1353);
#1164=PLANE('',#1358);
#1165=PLANE('',#1359);
#1166=PLANE('',#1363);
#1167=PLANE('',#1365);
#1168=PLANE('',#1366);
#1169=PLANE('',#1370);
#1170=PLANE('',#1372);
#1171=PLANE('',#1373);
#1172=PLANE('',#1377);
#1173=PLANE('',#1379);
#1174=PLANE('',#1380);
#1175=PLANE('',#1384);
#1176=PLANE('',#1399);
#1177=PLANE('',#1400);
#1178=PLANE('',#1404);
#1179=PLANE('',#1405);
#1180=PLANE('',#1406);
#1181=PLANE('',#1407);
#1182=PLANE('',#1408);
#1183=PLANE('',#1409);
#1184=PLANE('',#1410);
#1185=PLANE('',#1411);
#1186=PLANE('',#1412);
#1187=PLANE('',#1413);
#1188=PLANE('',#1414);
#1189=PLANE('',#1415);
#1190=PLANE('',#1416);
#1191=ADVANCED_FACE('',(#44),#1139,.F.);
#1192=ADVANCED_FACE('',(#45,#32),#1140,.F.);
#1193=ADVANCED_FACE('',(#46),#15,.F.);
#1194=ADVANCED_FACE('',(#47),#16,.F.);
#1195=ADVANCED_FACE('',(#48),#1141,.F.);
#1196=ADVANCED_FACE('',(#49),#1142,.F.);
#1197=ADVANCED_FACE('',(#50,#33),#1143,.F.);
#1198=ADVANCED_FACE('',(#51),#17,.F.);
#1199=ADVANCED_FACE('',(#52),#18,.F.);
#1200=ADVANCED_FACE('',(#53),#1144,.F.);
#1201=ADVANCED_FACE('',(#54),#1145,.F.);
#1202=ADVANCED_FACE('',(#55,#34),#1146,.F.);
#1203=ADVANCED_FACE('',(#56),#19,.F.);
#1204=ADVANCED_FACE('',(#57),#20,.F.);
#1205=ADVANCED_FACE('',(#58),#1147,.F.);
#1206=ADVANCED_FACE('',(#59),#1148,.F.);
#1207=ADVANCED_FACE('',(#60,#35),#1149,.F.);
#1208=ADVANCED_FACE('',(#61),#21,.F.);
#1209=ADVANCED_FACE('',(#62),#22,.F.);
#1210=ADVANCED_FACE('',(#63),#1150,.F.);
#1211=ADVANCED_FACE('',(#64),#1151,.T.);
#1212=ADVANCED_FACE('',(#65),#1152,.T.);
#1213=ADVANCED_FACE('',(#66),#1153,.T.);
#1214=ADVANCED_FACE('',(#67),#1154,.T.);
#1215=ADVANCED_FACE('',(#68),#1155,.T.);
#1216=ADVANCED_FACE('',(#69),#1156,.T.);
#1217=ADVANCED_FACE('',(#70),#1157,.T.);
#1218=ADVANCED_FACE('',(#71),#1158,.T.);
#1219=ADVANCED_FACE('',(#72),#1159,.F.);
#1220=ADVANCED_FACE('',(#73,#36),#1160,.F.);
#1221=ADVANCED_FACE('',(#74),#23,.F.);
#1222=ADVANCED_FACE('',(#75),#24,.F.);
#1223=ADVANCED_FACE('',(#76),#1161,.F.);
#1224=ADVANCED_FACE('',(#77),#1162,.T.);
#1225=ADVANCED_FACE('',(#78),#1163,.T.);
#1226=ADVANCED_FACE('',(#79),#25,.F.);
#1227=ADVANCED_FACE('',(#80),#1164,.F.);
#1228=ADVANCED_FACE('',(#81),#1165,.F.);
#1229=ADVANCED_FACE('',(#82),#26,.T.);
#1230=ADVANCED_FACE('',(#83),#1166,.T.);
#1231=ADVANCED_FACE('',(#84),#1167,.F.);
#1232=ADVANCED_FACE('',(#85),#1168,.F.);
#1233=ADVANCED_FACE('',(#86),#27,.T.);
#1234=ADVANCED_FACE('',(#87),#1169,.T.);
#1235=ADVANCED_FACE('',(#88),#1170,.F.);
#1236=ADVANCED_FACE('',(#89),#1171,.F.);
#1237=ADVANCED_FACE('',(#90),#28,.T.);
#1238=ADVANCED_FACE('',(#91),#1172,.T.);
#1239=ADVANCED_FACE('',(#92),#1173,.F.);
#1240=ADVANCED_FACE('',(#93),#1174,.F.);
#1241=ADVANCED_FACE('',(#94),#29,.T.);
#1242=ADVANCED_FACE('',(#95),#1175,.T.);
#1243=ADVANCED_FACE('',(#96),#30,.T.);
#1244=ADVANCED_FACE('',(#97),#1176,.F.);
#1245=ADVANCED_FACE('',(#98),#1177,.F.);
#1246=ADVANCED_FACE('',(#99),#31,.T.);
#1247=ADVANCED_FACE('',(#100),#1178,.T.);
#1248=ADVANCED_FACE('',(#101),#1179,.T.);
#1249=ADVANCED_FACE('',(#102),#1180,.T.);
#1250=ADVANCED_FACE('',(#103),#1181,.T.);
#1251=ADVANCED_FACE('',(#104),#1182,.T.);
#1252=ADVANCED_FACE('',(#105),#1183,.T.);
#1253=ADVANCED_FACE('',(#106),#1184,.T.);
#1254=ADVANCED_FACE('',(#107),#1185,.T.);
#1255=ADVANCED_FACE('',(#108),#1186,.T.);
#1256=ADVANCED_FACE('',(#109),#1187,.T.);
#1257=ADVANCED_FACE('',(#110),#1188,.T.);
#1258=ADVANCED_FACE('',(#111,#37),#1189,.T.);
#1259=ADVANCED_FACE('',(#112,#38,#39,#40,#41,#42,#43),#1190,.F.);
#1260=CLOSED_SHELL('',(#1191,#1192,#1193,#1194,#1195,#1196,#1197,#1198,
#1199,#1200,#1201,#1202,#1203,#1204,#1205,#1206,#1207,#1208,#1209,#1210,
#1211,#1212,#1213,#1214,#1215,#1216,#1217,#1218,#1219,#1220,#1221,#1222,
#1223,#1224,#1225,#1226,#1227,#1228,#1229,#1230,#1231,#1232,#1233,#1234,
#1235,#1236,#1237,#1238,#1239,#1240,#1241,#1242,#1243,#1244,#1245,#1246,
#1247,#1248,#1249,#1250,#1251,#1252,#1253,#1254,#1255,#1256,#1257,#1258,
#1259));
#1261=DERIVED_UNIT_ELEMENT(#1263,1.);
#1262=DERIVED_UNIT_ELEMENT(#2182,-3.);
#1263=(
MASS_UNIT()
NAMED_UNIT(*)
SI_UNIT(.KILO.,.GRAM.)
);
#1264=DERIVED_UNIT((#1261,#1262));
#1265=MEASURE_REPRESENTATION_ITEM('density measure',
POSITIVE_RATIO_MEASURE(7850.),#1264);
#1266=PROPERTY_DEFINITION_REPRESENTATION(#1271,#1268);
#1267=PROPERTY_DEFINITION_REPRESENTATION(#1272,#1269);
#1268=REPRESENTATION('material name',(#1270),#2179);
#1269=REPRESENTATION('density',(#1265),#2179);
#1270=DESCRIPTIVE_REPRESENTATION_ITEM('Steel','Steel');
#1271=PROPERTY_DEFINITION('material property','material name',#2189);
#1272=PROPERTY_DEFINITION('material property','density of part',#2189);
#1273=AXIS2_PLACEMENT_3D('',#1812,#1417,#1418);
#1274=AXIS2_PLACEMENT_3D('',#1813,#1419,#1420);
#1275=AXIS2_PLACEMENT_3D('',#1818,#1422,#1423);
#1276=AXIS2_PLACEMENT_3D('',#1819,#1424,#1425);
#1277=AXIS2_PLACEMENT_3D('',#1820,#1426,#1427);
#1278=AXIS2_PLACEMENT_3D('',#1822,#1428,#1429);
#1279=AXIS2_PLACEMENT_3D('',#1824,#1430,#1431);
#1280=AXIS2_PLACEMENT_3D('',#1825,#1432,#1433);
#1281=AXIS2_PLACEMENT_3D('',#1827,#1434,#1435);
#1282=AXIS2_PLACEMENT_3D('',#1830,#1437,#1438);
#1283=AXIS2_PLACEMENT_3D('',#1831,#1439,#1440);
#1284=AXIS2_PLACEMENT_3D('',#1832,#1441,#1442);
#1285=AXIS2_PLACEMENT_3D('',#1835,#1444,#1445);
#1286=AXIS2_PLACEMENT_3D('',#1836,#1446,#1447);
#1287=AXIS2_PLACEMENT_3D('',#1838,#1449,#1450);
#1288=AXIS2_PLACEMENT_3D('',#1842,#1452,#1453);
#1289=AXIS2_PLACEMENT_3D('',#1843,#1454,#1455);
#1290=AXIS2_PLACEMENT_3D('',#1845,#1456,#1457);
#1291=AXIS2_PLACEMENT_3D('',#1847,#1458,#1459);
#1292=AXIS2_PLACEMENT_3D('',#1848,#1460,#1461);
#1293=AXIS2_PLACEMENT_3D('',#1850,#1462,#1463);
#1294=AXIS2_PLACEMENT_3D('',#1852,#1464,#1465);
#1295=AXIS2_PLACEMENT_3D('',#1855,#1467,#1468);
#1296=AXIS2_PLACEMENT_3D('',#1856,#1469,#1470);
#1297=AXIS2_PLACEMENT_3D('',#1857,#1471,#1472);
#1298=AXIS2_PLACEMENT_3D('',#1860,#1474,#1475);
#1299=AXIS2_PLACEMENT_3D('',#1861,#1476,#1477);
#1300=AXIS2_PLACEMENT_3D('',#1863,#1479,#1480);
#1301=AXIS2_PLACEMENT_3D('',#1867,#1482,#1483);
#1302=AXIS2_PLACEMENT_3D('',#1868,#1484,#1485);
#1303=AXIS2_PLACEMENT_3D('',#1870,#1486,#1487);
#1304=AXIS2_PLACEMENT_3D('',#1872,#1488,#1489);
#1305=AXIS2_PLACEMENT_3D('',#1873,#1490,#1491);
#1306=AXIS2_PLACEMENT_3D('',#1875,#1492,#1493);
#1307=AXIS2_PLACEMENT_3D('',#1877,#1494,#1495);
#1308=AXIS2_PLACEMENT_3D('',#1880,#1497,#1498);
#1309=AXIS2_PLACEMENT_3D('',#1881,#1499,#1500);
#1310=AXIS2_PLACEMENT_3D('',#1882,#1501,#1502);
#1311=AXIS2_PLACEMENT_3D('',#1885,#1504,#1505);
#1312=AXIS2_PLACEMENT_3D('',#1886,#1506,#1507);
#1313=AXIS2_PLACEMENT_3D('',#1888,#1509,#1510);
#1314=AXIS2_PLACEMENT_3D('',#1892,#1512,#1513);
#1315=AXIS2_PLACEMENT_3D('',#1893,#1514,#1515);
#1316=AXIS2_PLACEMENT_3D('',#1895,#1516,#1517);
#1317=AXIS2_PLACEMENT_3D('',#1897,#1518,#1519);
#1318=AXIS2_PLACEMENT_3D('',#1898,#1520,#1521);
#1319=AXIS2_PLACEMENT_3D('',#1900,#1522,#1523);
#1320=AXIS2_PLACEMENT_3D('',#1902,#1524,#1525);
#1321=AXIS2_PLACEMENT_3D('',#1905,#1527,#1528);
#1322=AXIS2_PLACEMENT_3D('',#1906,#1529,#1530);
#1323=AXIS2_PLACEMENT_3D('',#1907,#1531,#1532);
#1324=AXIS2_PLACEMENT_3D('',#1910,#1534,#1535);
#1325=AXIS2_PLACEMENT_3D('',#1911,#1536,#1537);
#1326=AXIS2_PLACEMENT_3D('',#1913,#1539,#1540);
#1327=AXIS2_PLACEMENT_3D('',#1917,#1542,#1543);
#1328=AXIS2_PLACEMENT_3D('',#1919,#1545,#1546);
#1329=AXIS2_PLACEMENT_3D('',#1923,#1549,#1550);
#1330=AXIS2_PLACEMENT_3D('',#1927,#1553,#1554);
#1331=AXIS2_PLACEMENT_3D('',#1931,#1556,#1557);
#1332=AXIS2_PLACEMENT_3D('',#1933,#1558,#1559);
#1333=AXIS2_PLACEMENT_3D('',#1935,#1561,#1562);
#1334=AXIS2_PLACEMENT_3D('',#1939,#1565,#1566);
#1335=AXIS2_PLACEMENT_3D('',#1943,#1568,#1569);
#1336=AXIS2_PLACEMENT_3D('',#1945,#1571,#1572);
#1337=AXIS2_PLACEMENT_3D('',#1949,#1575,#1576);
#1338=AXIS2_PLACEMENT_3D('',#1953,#1578,#1579);
#1339=AXIS2_PLACEMENT_3D('',#1955,#1581,#1582);
#1340=AXIS2_PLACEMENT_3D('',#1959,#1584,#1585);
#1341=AXIS2_PLACEMENT_3D('',#1960,#1586,#1587);
#1342=AXIS2_PLACEMENT_3D('',#1962,#1588,#1589);
#1343=AXIS2_PLACEMENT_3D('',#1964,#1590,#1591);
#1344=AXIS2_PLACEMENT_3D('',#1965,#1592,#1593);
#1345=AXIS2_PLACEMENT_3D('',#1967,#1594,#1595);
#1346=AXIS2_PLACEMENT_3D('',#1969,#1596,#1597);
#1347=AXIS2_PLACEMENT_3D('',#1972,#1599,#1600);
#1348=AXIS2_PLACEMENT_3D('',#1973,#1601,#1602);
#1349=AXIS2_PLACEMENT_3D('',#1974,#1603,#1604);
#1350=AXIS2_PLACEMENT_3D('',#1977,#1606,#1607);
#1351=AXIS2_PLACEMENT_3D('',#1978,#1608,#1609);
#1352=AXIS2_PLACEMENT_3D('',#1980,#1611,#1612);
#1353=AXIS2_PLACEMENT_3D('',#1984,#1615,#1616);
#1354=AXIS2_PLACEMENT_3D('',#1988,#1618,#1619);
#1355=AXIS2_PLACEMENT_3D('',#1990,#1621,#1622);
#1356=AXIS2_PLACEMENT_3D('',#1992,#1623,#1624);
#1357=AXIS2_PLACEMENT_3D('',#1995,#1626,#1627);
#1358=AXIS2_PLACEMENT_3D('',#1996,#1628,#1629);
#1359=AXIS2_PLACEMENT_3D('',#2005,#1634,#1635);
#1360=AXIS2_PLACEMENT_3D('',#2014,#1640,#1641);
#1361=AXIS2_PLACEMENT_3D('',#2015,#1642,#1643);
#1362=AXIS2_PLACEMENT_3D('',#2016,#1644,#1645);
#1363=AXIS2_PLACEMENT_3D('',#2017,#1646,#1647);
#1364=AXIS2_PLACEMENT_3D('',#2018,#1648,#1649);
#1365=AXIS2_PLACEMENT_3D('',#2019,#1650,#1651);
#1366=AXIS2_PLACEMENT_3D('',#2028,#1656,#1657);
#1367=AXIS2_PLACEMENT_3D('',#2037,#1662,#1663);
#1368=AXIS2_PLACEMENT_3D('',#2038,#1664,#1665);
#1369=AXIS2_PLACEMENT_3D('',#2039,#1666,#1667);
#1370=AXIS2_PLACEMENT_3D('',#2040,#1668,#1669);
#1371=AXIS2_PLACEMENT_3D('',#2041,#1670,#1671);
#1372=AXIS2_PLACEMENT_3D('',#2042,#1672,#1673);
#1373=AXIS2_PLACEMENT_3D('',#2051,#1678,#1679);
#1374=AXIS2_PLACEMENT_3D('',#2060,#1684,#1685);
#1375=AXIS2_PLACEMENT_3D('',#2061,#1686,#1687);
#1376=AXIS2_PLACEMENT_3D('',#2062,#1688,#1689);
#1377=AXIS2_PLACEMENT_3D('',#2063,#1690,#1691);
#1378=AXIS2_PLACEMENT_3D('',#2064,#1692,#1693);
#1379=AXIS2_PLACEMENT_3D('',#2065,#1694,#1695);
#1380=AXIS2_PLACEMENT_3D('',#2074,#1700,#1701);
#1381=AXIS2_PLACEMENT_3D('',#2083,#1706,#1707);
#1382=AXIS2_PLACEMENT_3D('',#2084,#1708,#1709);
#1383=AXIS2_PLACEMENT_3D('',#2085,#1710,#1711);
#1384=AXIS2_PLACEMENT_3D('',#2086,#1712,#1713);
#1385=AXIS2_PLACEMENT_3D('',#2087,#1714,#1715);
#1386=AXIS2_PLACEMENT_3D('',#2088,#1716,#1717);
#1387=AXIS2_PLACEMENT_3D('',#2090,#1718,#1719);
#1388=AXIS2_PLACEMENT_3D('',#2094,#1722,#1723);
#1389=AXIS2_PLACEMENT_3D('',#2096,#1724,#1725);
#1390=AXIS2_PLACEMENT_3D('',#2100,#1728,#1729);
#1391=AXIS2_PLACEMENT_3D('',#2102,#1730,#1731);
#1392=AXIS2_PLACEMENT_3D('',#2106,#1734,#1735);
#1393=AXIS2_PLACEMENT_3D('',#2109,#1737,#1738);
#1394=AXIS2_PLACEMENT_3D('',#2111,#1739,#1740);
#1395=AXIS2_PLACEMENT_3D('',#2116,#1743,#1744);
#1396=AXIS2_PLACEMENT_3D('',#2120,#1746,#1747);
#1397=AXIS2_PLACEMENT_3D('',#2124,#1749,#1750);
#1398=AXIS2_PLACEMENT_3D('',#2128,#1753,#1754);
#1399=AXIS2_PLACEMENT_3D('',#2129,#1755,#1756);
#1400=AXIS2_PLACEMENT_3D('',#2135,#1760,#1761);
#1401=AXIS2_PLACEMENT_3D('',#2141,#1765,#1766);
#1402=AXIS2_PLACEMENT_3D('',#2142,#1767,#1768);
#1403=AXIS2_PLACEMENT_3D('',#2143,#1769,#1770);
#1404=AXIS2_PLACEMENT_3D('',#2144,#1771,#1772);
#1405=AXIS2_PLACEMENT_3D('',#2145,#1773,#1774);
#1406=AXIS2_PLACEMENT_3D('',#2149,#1777,#1778);
#1407=AXIS2_PLACEMENT_3D('',#2153,#1781,#1782);
#1408=AXIS2_PLACEMENT_3D('',#2157,#1785,#1786);
#1409=AXIS2_PLACEMENT_3D('',#2161,#1789,#1790);
#1410=AXIS2_PLACEMENT_3D('',#2163,#1792,#1793);
#1411=AXIS2_PLACEMENT_3D('',#2167,#1796,#1797);
#1412=AXIS2_PLACEMENT_3D('',#2169,#1799,#1800);
#1413=AXIS2_PLACEMENT_3D('',#2171,#1802,#1803);
#1414=AXIS2_PLACEMENT_3D('',#2173,#1805,#1806);
#1415=AXIS2_PLACEMENT_3D('',#2175,#1808,#1809);
#1416=AXIS2_PLACEMENT_3D('',#2176,#1810,#1811);
#1417=DIRECTION('axis',(0.,0.,1.));
#1418=DIRECTION('refdir',(1.,0.,0.));
#1419=DIRECTION('center_axis',(1.,0.,0.));
#1420=DIRECTION('ref_axis',(0.,0.309016994374947,0.951056516295154));
#1421=DIRECTION('',(0.,0.951056516295153,-0.30901699437495));
#1422=DIRECTION('center_axis',(1.,0.,0.));
#1423=DIRECTION('ref_axis',(0.,0.309016994374947,0.951056516295154));
#1424=DIRECTION('center_axis',(1.,0.,0.));
#1425=DIRECTION('ref_axis',(0.,0.309016994374947,0.951056516295154));
#1426=DIRECTION('center_axis',(-1.,0.,0.));
#1427=DIRECTION('ref_axis',(0.,0.309016994374947,0.951056516295154));
#1428=DIRECTION('center_axis',(-1.,0.,0.));
#1429=DIRECTION('ref_axis',(0.,0.309016994374947,0.951056516295154));
#1430=DIRECTION('center_axis',(-1.,0.,0.));
#1431=DIRECTION('ref_axis',(0.,0.309016994374947,0.951056516295154));
#1432=DIRECTION('center_axis',(-1.,0.,0.));
#1433=DIRECTION('ref_axis',(0.,0.309016994374947,0.951056516295154));
#1434=DIRECTION('center_axis',(-1.,0.,0.));
#1435=DIRECTION('ref_axis',(0.,0.309016994374947,0.951056516295154));
#1436=DIRECTION('',(-1.,0.,0.));
#1437=DIRECTION('center_axis',(-1.,0.,0.));
#1438=DIRECTION('ref_axis',(0.,0.309016994374947,0.951056516295154));
#1439=DIRECTION('center_axis',(1.,0.,0.));
#1440=DIRECTION('ref_axis',(0.,0.309016994374947,0.951056516295154));
#1441=DIRECTION('center_axis',(-1.,0.,0.));
#1442=DIRECTION('ref_axis',(0.,0.309016994374947,0.951056516295154));
#1443=DIRECTION('',(-1.,0.,0.));
#1444=DIRECTION('center_axis',(1.,0.,0.));
#1445=DIRECTION('ref_axis',(0.,0.309016994374947,0.951056516295154));
#1446=DIRECTION('center_axis',(1.,0.,0.));
#1447=DIRECTION('ref_axis',(0.,0.309016994374947,0.951056516295154));
#1448=DIRECTION('',(0.,1.25347760844776E-16,1.));
#1449=DIRECTION('center_axis',(1.,0.,0.));
#1450=DIRECTION('ref_axis',(0.,-0.809016994374947,0.587785252292473));
#1451=DIRECTION('',(0.,-0.951056516295154,0.309016994374948));
#1452=DIRECTION('center_axis',(1.,0.,0.));
#1453=DIRECTION('ref_axis',(0.,-0.809016994374947,0.587785252292473));
#1454=DIRECTION('center_axis',(-1.,0.,0.));
#1455=DIRECTION('ref_axis',(0.,-0.809016994374947,0.587785252292473));
#1456=DIRECTION('center_axis',(-1.,0.,0.));
#1457=DIRECTION('ref_axis',(0.,-0.809016994374947,0.587785252292473));
#1458=DIRECTION('center_axis',(-1.,0.,0.));
#1459=DIRECTION('ref_axis',(0.,-0.809016994374947,0.587785252292473));
#1460=DIRECTION('center_axis',(-1.,0.,0.));
#1461=DIRECTION('ref_axis',(0.,-0.809016994374947,0.587785252292473));
#1462=DIRECTION('center_axis',(-1.,0.,0.));
#1463=DIRECTION('ref_axis',(0.,-0.809016994374947,0.587785252292473));
#1464=DIRECTION('center_axis',(1.,0.,0.));
#1465=DIRECTION('ref_axis',(0.,-0.809016994374947,0.587785252292473));
#1466=DIRECTION('',(-1.,0.,0.));
#1467=DIRECTION('center_axis',(1.,0.,0.));
#1468=DIRECTION('ref_axis',(0.,-0.809016994374947,0.587785252292473));
#1469=DIRECTION('center_axis',(-1.,0.,0.));
#1470=DIRECTION('ref_axis',(0.,-0.809016994374947,0.587785252292473));
#1471=DIRECTION('center_axis',(-1.,0.,0.));
#1472=DIRECTION('ref_axis',(0.,-0.809016994374947,0.587785252292473));
#1473=DIRECTION('',(-1.,0.,0.));
#1474=DIRECTION('center_axis',(1.,0.,0.));
#1475=DIRECTION('ref_axis',(0.,-0.809016994374947,0.587785252292473));
#1476=DIRECTION('center_axis',(1.,0.,0.));
#1477=DIRECTION('ref_axis',(0.,-0.809016994374947,0.587785252292473));
#1478=DIRECTION('',(0.,0.587785252292476,0.809016994374946));
#1479=DIRECTION('center_axis',(1.,0.,0.));
#1480=DIRECTION('ref_axis',(0.,-0.809016994374947,-0.587785252292473));
#1481=DIRECTION('',(0.,-0.587785252292473,-0.809016994374947));
#1482=DIRECTION('center_axis',(1.,0.,0.));
#1483=DIRECTION('ref_axis',(0.,-0.809016994374947,-0.587785252292473));
#1484=DIRECTION('center_axis',(-1.,0.,0.));
#1485=DIRECTION('ref_axis',(0.,-0.809016994374947,-0.587785252292473));
#1486=DIRECTION('center_axis',(-1.,0.,0.));
#1487=DIRECTION('ref_axis',(0.,-0.809016994374947,-0.587785252292473));
#1488=DIRECTION('center_axis',(-1.,0.,0.));
#1489=DIRECTION('ref_axis',(0.,-0.809016994374947,-0.587785252292473));
#1490=DIRECTION('center_axis',(-1.,0.,0.));
#1491=DIRECTION('ref_axis',(0.,-0.809016994374947,-0.587785252292473));
#1492=DIRECTION('center_axis',(-1.,0.,0.));
#1493=DIRECTION('ref_axis',(0.,-0.809016994374947,-0.587785252292473));
#1494=DIRECTION('center_axis',(1.,0.,0.));
#1495=DIRECTION('ref_axis',(0.,-0.809016994374947,-0.587785252292473));
#1496=DIRECTION('',(-1.,0.,0.));
#1497=DIRECTION('center_axis',(1.,0.,0.));
#1498=DIRECTION('ref_axis',(0.,-0.809016994374947,-0.587785252292473));
#1499=DIRECTION('center_axis',(-1.,0.,0.));
#1500=DIRECTION('ref_axis',(0.,-0.809016994374947,-0.587785252292473));
#1501=DIRECTION('center_axis',(-1.,0.,0.));
#1502=DIRECTION('ref_axis',(0.,-0.809016994374947,-0.587785252292473));
#1503=DIRECTION('',(-1.,0.,0.));
#1504=DIRECTION('center_axis',(1.,0.,0.));
#1505=DIRECTION('ref_axis',(0.,-0.809016994374947,-0.587785252292473));
#1506=DIRECTION('center_axis',(1.,0.,0.));
#1507=DIRECTION('ref_axis',(0.,-0.809016994374947,-0.587785252292473));
#1508=DIRECTION('',(0.,-0.587785252292471,0.809016994374949));
#1509=DIRECTION('center_axis',(1.,0.,0.));
#1510=DIRECTION('ref_axis',(0.,0.309016994374948,-0.951056516295154));
#1511=DIRECTION('',(0.,0.587785252292473,-0.809016994374948));
#1512=DIRECTION('center_axis',(1.,0.,0.));
#1513=DIRECTION('ref_axis',(0.,0.309016994374948,-0.951056516295154));
#1514=DIRECTION('center_axis',(-1.,0.,0.));
#1515=DIRECTION('ref_axis',(0.,0.309016994374948,-0.951056516295154));
#1516=DIRECTION('center_axis',(-1.,0.,0.));
#1517=DIRECTION('ref_axis',(0.,0.309016994374948,-0.951056516295154));
#1518=DIRECTION('center_axis',(-1.,0.,0.));
#1519=DIRECTION('ref_axis',(0.,0.309016994374947,-0.951056516295154));
#1520=DIRECTION('center_axis',(-1.,0.,0.));
#1521=DIRECTION('ref_axis',(0.,0.309016994374948,-0.951056516295154));
#1522=DIRECTION('center_axis',(-1.,0.,0.));
#1523=DIRECTION('ref_axis',(0.,0.309016994374948,-0.951056516295154));
#1524=DIRECTION('center_axis',(1.,0.,0.));
#1525=DIRECTION('ref_axis',(0.,0.309016994374948,-0.951056516295154));
#1526=DIRECTION('',(-1.,0.,0.));
#1527=DIRECTION('center_axis',(1.,0.,0.));
#1528=DIRECTION('ref_axis',(0.,0.309016994374948,-0.951056516295154));
#1529=DIRECTION('center_axis',(-1.,0.,0.));
#1530=DIRECTION('ref_axis',(0.,0.309016994374948,-0.951056516295154));
#1531=DIRECTION('center_axis',(-1.,0.,0.));
#1532=DIRECTION('ref_axis',(0.,0.309016994374947,-0.951056516295154));
#1533=DIRECTION('',(-1.,0.,0.));
#1534=DIRECTION('center_axis',(1.,0.,0.));
#1535=DIRECTION('ref_axis',(0.,0.309016994374947,-0.951056516295154));
#1536=DIRECTION('center_axis',(1.,0.,0.));
#1537=DIRECTION('ref_axis',(0.,0.309016994374948,-0.951056516295154));
#1538=DIRECTION('',(0.,-0.951056516295155,-0.309016994374945));
#1539=DIRECTION('center_axis',(1.,0.,0.));
#1540=DIRECTION('ref_axis',(0.,1.,0.));
#1541=DIRECTION('',(0.,1.25347760844776E-16,1.));
#1542=DIRECTION('center_axis',(1.,0.,0.));
#1543=DIRECTION('ref_axis',(0.,1.,0.));
#1544=DIRECTION('',(0.,0.951056516295153,-0.30901699437495));
#1545=DIRECTION('center_axis',(1.,0.,0.));
#1546=DIRECTION('ref_axis',(0.,1.,0.));
#1547=DIRECTION('',(0.,0.951056516295153,-0.30901699437495));
#1548=DIRECTION('',(0.,1.25347760844776E-16,1.));
#1549=DIRECTION('center_axis',(1.,0.,0.));
#1550=DIRECTION('ref_axis',(0.,1.,0.));
#1551=DIRECTION('',(0.,0.587785252292476,0.809016994374946));
#1552=DIRECTION('',(0.,-0.951056516295154,0.309016994374948));
#1553=DIRECTION('center_axis',(1.,0.,0.));
#1554=DIRECTION('ref_axis',(0.,1.,0.));
#1555=DIRECTION('',(0.,-0.951056516295154,0.309016994374948));
#1556=DIRECTION('center_axis',(1.,0.,0.));
#1557=DIRECTION('ref_axis',(0.,1.,0.));
#1558=DIRECTION('center_axis',(1.,0.,0.));
#1559=DIRECTION('ref_axis',(0.,1.,0.));
#1560=DIRECTION('',(0.,0.587785252292476,0.809016994374946));
#1561=DIRECTION('center_axis',(1.,0.,0.));
#1562=DIRECTION('ref_axis',(0.,1.,0.));
#1563=DIRECTION('',(0.,-0.587785252292471,0.809016994374949));
#1564=DIRECTION('',(0.,-0.587785252292473,-0.809016994374947));
#1565=DIRECTION('center_axis',(1.,0.,0.));
#1566=DIRECTION('ref_axis',(0.,1.,0.));
#1567=DIRECTION('',(0.,-0.587785252292473,-0.809016994374947));
#1568=DIRECTION('center_axis',(1.,0.,0.));
#1569=DIRECTION('ref_axis',(0.,1.,0.));
#1570=DIRECTION('',(0.,-0.587785252292471,0.809016994374949));
#1571=DIRECTION('center_axis',(1.,0.,0.));
#1572=DIRECTION('ref_axis',(0.,1.,0.));
#1573=DIRECTION('',(0.,-0.951056516295155,-0.309016994374945));
#1574=DIRECTION('',(0.,0.587785252292473,-0.809016994374948));
#1575=DIRECTION('center_axis',(1.,0.,0.));
#1576=DIRECTION('ref_axis',(0.,1.,0.));
#1577=DIRECTION('',(0.,0.587785252292473,-0.809016994374948));
#1578=DIRECTION('center_axis',(1.,0.,0.));
#1579=DIRECTION('ref_axis',(0.,1.,0.));
#1580=DIRECTION('',(0.,-0.951056516295155,-0.309016994374945));
#1581=DIRECTION('center_axis',(1.,0.,0.));
#1582=DIRECTION('ref_axis',(0.,1.,0.));
#1583=DIRECTION('',(0.,0.951056516295154,0.309016994374947));
#1584=DIRECTION('center_axis',(1.,0.,0.));
#1585=DIRECTION('ref_axis',(0.,1.,0.));
#1586=DIRECTION('center_axis',(-1.,0.,0.));
#1587=DIRECTION('ref_axis',(0.,1.,0.));
#1588=DIRECTION('center_axis',(-1.,0.,0.));
#1589=DIRECTION('ref_axis',(0.,1.,0.));
#1590=DIRECTION('center_axis',(-1.,0.,0.));
#1591=DIRECTION('ref_axis',(0.,1.,0.));
#1592=DIRECTION('center_axis',(-1.,0.,0.));
#1593=DIRECTION('ref_axis',(0.,1.,0.));
#1594=DIRECTION('center_axis',(-1.,0.,0.));
#1595=DIRECTION('ref_axis',(0.,1.,0.));
#1596=DIRECTION('center_axis',(1.,0.,0.));
#1597=DIRECTION('ref_axis',(0.,1.,0.));
#1598=DIRECTION('',(-1.,0.,0.));
#1599=DIRECTION('center_axis',(1.,0.,0.));
#1600=DIRECTION('ref_axis',(0.,1.,0.));
#1601=DIRECTION('center_axis',(-1.,0.,0.));
#1602=DIRECTION('ref_axis',(0.,1.,0.));
#1603=DIRECTION('center_axis',(-1.,0.,0.));
#1604=DIRECTION('ref_axis',(0.,1.,0.));
#1605=DIRECTION('',(-1.,0.,0.));
#1606=DIRECTION('center_axis',(1.,0.,0.));
#1607=DIRECTION('ref_axis',(0.,1.,0.));
#1608=DIRECTION('center_axis',(1.,0.,0.));
#1609=DIRECTION('ref_axis',(0.,1.,0.));
#1610=DIRECTION('',(0.,-2.91881214538549E-15,-1.));
#1611=DIRECTION('center_axis',(1.,0.,0.));
#1612=DIRECTION('ref_axis',(0.,1.,0.));
#1613=DIRECTION('',(0.,-2.91881214538549E-15,-1.));
#1614=DIRECTION('',(0.,0.951056516295154,0.309016994374947));
#1615=DIRECTION('center_axis',(1.,0.,0.));
#1616=DIRECTION('ref_axis',(0.,1.,0.));
#1617=DIRECTION('',(0.,0.951056516295154,0.309016994374947));
#1618=DIRECTION('center_axis',(1.,0.,0.));
#1619=DIRECTION('ref_axis',(0.,1.,0.));
#1620=DIRECTION('',(0.,-2.91881214538549E-15,-1.));
#1621=DIRECTION('center_axis',(-1.,0.,0.));
#1622=DIRECTION('ref_axis',(0.,1.,0.));
#1623=DIRECTION('center_axis',(-1.,0.,0.));
#1624=DIRECTION('ref_axis',(0.,1.,0.));
#1625=DIRECTION('',(-1.,0.,0.));
#1626=DIRECTION('center_axis',(1.,0.,0.));
#1627=DIRECTION('ref_axis',(0.,1.,0.));
#1628=DIRECTION('center_axis',(0.,0.309016994374948,-0.951056516295154));
#1629=DIRECTION('ref_axis',(0.,-0.951056516295154,-0.309016994374948));
#1630=DIRECTION('',(0.,-0.951056516295154,-0.309016994374948));
#1631=DIRECTION('',(1.,0.,0.));
#1632=DIRECTION('',(0.,-0.951056516295154,-0.309016994374948));
#1633=DIRECTION('',(-1.,0.,0.));
#1634=DIRECTION('center_axis',(0.,-0.309016994374948,0.951056516295154));
#1635=DIRECTION('ref_axis',(0.,0.951056516295154,0.309016994374948));
#1636=DIRECTION('',(0.,0.951056516295153,0.309016994374948));
#1637=DIRECTION('',(-1.,0.,0.));
#1638=DIRECTION('',(0.,0.951056516295154,0.309016994374948));
#1639=DIRECTION('',(-1.,0.,0.));
#1640=DIRECTION('center_axis',(-1.,0.,0.));
#1641=DIRECTION('ref_axis',(0.,0.309016994374947,-0.951056516295154));
#1642=DIRECTION('center_axis',(1.,0.,0.));
#1643=DIRECTION('ref_axis',(0.,0.309016994374947,-0.951056516295154));
#1644=DIRECTION('center_axis',(1.,0.,0.));
#1645=DIRECTION('ref_axis',(0.,0.309016994374947,-0.951056516295154));
#1646=DIRECTION('center_axis',(1.,0.,0.));
#1647=DIRECTION('ref_axis',(0.,0.309016994374947,-0.951056516295154));
#1648=DIRECTION('center_axis',(-1.,0.,0.));
#1649=DIRECTION('ref_axis',(0.,1.,0.));
#1650=DIRECTION('center_axis',(0.,-0.809016994374947,-0.587785252292473));
#1651=DIRECTION('ref_axis',(0.,-0.587785252292473,0.809016994374947));
#1652=DIRECTION('',(0.,-0.587785252292473,0.809016994374947));
#1653=DIRECTION('',(1.,0.,0.));
#1654=DIRECTION('',(0.,-0.587785252292473,0.809016994374947));
#1655=DIRECTION('',(-1.,0.,0.));
#1656=DIRECTION('center_axis',(0.,0.809016994374947,0.587785252292473));
#1657=DIRECTION('ref_axis',(0.,0.587785252292473,-0.809016994374947));
#1658=DIRECTION('',(0.,0.587785252292473,-0.809016994374947));
#1659=DIRECTION('',(-1.,0.,0.));
#1660=DIRECTION('',(0.,0.587785252292473,-0.809016994374947));
#1661=DIRECTION('',(-1.,0.,0.));
#1662=DIRECTION('center_axis',(-1.,0.,0.));
#1663=DIRECTION('ref_axis',(0.,-0.809016994374947,-0.587785252292473));
#1664=DIRECTION('center_axis',(1.,0.,0.));
#1665=DIRECTION('ref_axis',(0.,-0.809016994374947,-0.587785252292473));
#1666=DIRECTION('center_axis',(1.,0.,0.));
#1667=DIRECTION('ref_axis',(0.,-0.809016994374947,-0.587785252292473));
#1668=DIRECTION('center_axis',(1.,0.,0.));
#1669=DIRECTION('ref_axis',(0.,-0.809016994374947,-0.587785252292473));
#1670=DIRECTION('center_axis',(-1.,0.,0.));
#1671=DIRECTION('ref_axis',(0.,1.,0.));
#1672=DIRECTION('center_axis',(0.,-0.809016994374947,0.587785252292473));
#1673=DIRECTION('ref_axis',(0.,0.587785252292473,0.809016994374947));
#1674=DIRECTION('',(0.,0.587785252292473,0.809016994374947));
#1675=DIRECTION('',(1.,0.,0.));
#1676=DIRECTION('',(0.,0.587785252292473,0.809016994374947));
#1677=DIRECTION('',(-1.,0.,0.));
#1678=DIRECTION('center_axis',(0.,0.809016994374947,-0.587785252292473));
#1679=DIRECTION('ref_axis',(0.,-0.587785252292473,-0.809016994374947));
#1680=DIRECTION('',(0.,-0.587785252292473,-0.809016994374947));
#1681=DIRECTION('',(-1.,0.,0.));
#1682=DIRECTION('',(0.,-0.587785252292473,-0.809016994374947));
#1683=DIRECTION('',(-1.,0.,0.));
#1684=DIRECTION('center_axis',(-1.,0.,0.));
#1685=DIRECTION('ref_axis',(0.,-0.809016994374947,0.587785252292473));
#1686=DIRECTION('center_axis',(1.,0.,0.));
#1687=DIRECTION('ref_axis',(0.,-0.809016994374947,0.587785252292473));
#1688=DIRECTION('center_axis',(1.,0.,0.));
#1689=DIRECTION('ref_axis',(0.,-0.809016994374947,0.587785252292473));
#1690=DIRECTION('center_axis',(1.,0.,0.));
#1691=DIRECTION('ref_axis',(0.,-0.809016994374947,0.587785252292473));
#1692=DIRECTION('center_axis',(-1.,0.,0.));
#1693=DIRECTION('ref_axis',(0.,1.,0.));
#1694=DIRECTION('center_axis',(0.,0.309016994374947,0.951056516295154));
#1695=DIRECTION('ref_axis',(0.,0.951056516295154,-0.309016994374947));
#1696=DIRECTION('',(0.,0.951056516295154,-0.309016994374947));
#1697=DIRECTION('',(1.,0.,0.));
#1698=DIRECTION('',(0.,0.951056516295154,-0.309016994374947));
#1699=DIRECTION('',(-1.,0.,0.));
#1700=DIRECTION('center_axis',(0.,-0.309016994374947,-0.951056516295154));
#1701=DIRECTION('ref_axis',(0.,-0.951056516295154,0.309016994374947));
#1702=DIRECTION('',(0.,-0.951056516295154,0.309016994374947));
#1703=DIRECTION('',(-1.,0.,0.));
#1704=DIRECTION('',(0.,-0.951056516295154,0.309016994374947));
#1705=DIRECTION('',(-1.,0.,0.));
#1706=DIRECTION('center_axis',(-1.,0.,0.));
#1707=DIRECTION('ref_axis',(0.,0.309016994374947,0.951056516295154));
#1708=DIRECTION('center_axis',(1.,0.,0.));
#1709=DIRECTION('ref_axis',(0.,0.309016994374947,0.951056516295154));
#1710=DIRECTION('center_axis',(1.,0.,0.));
#1711=DIRECTION('ref_axis',(0.,0.309016994374947,0.951056516295154));
#1712=DIRECTION('center_axis',(1.,0.,0.));
#1713=DIRECTION('ref_axis',(0.,0.309016994374948,0.951056516295154));
#1714=DIRECTION('center_axis',(-1.,0.,0.));
#1715=DIRECTION('ref_axis',(0.,1.,0.));
#1716=DIRECTION('center_axis',(1.,0.,0.));
#1717=DIRECTION('ref_axis',(0.,1.,0.));
#1718=DIRECTION('center_axis',(1.,0.,0.));
#1719=DIRECTION('ref_axis',(0.,0.309016994374947,-0.951056516295154));
#1720=DIRECTION('',(1.,0.,0.));
#1721=DIRECTION('',(1.,0.,0.));
#1722=DIRECTION('center_axis',(1.,0.,0.));
#1723=DIRECTION('ref_axis',(0.,-0.809016994374947,-0.587785252292473));
#1724=DIRECTION('center_axis',(1.,0.,0.));
#1725=DIRECTION('ref_axis',(0.,-0.809016994374947,-0.587785252292473));
#1726=DIRECTION('',(1.,0.,0.));
#1727=DIRECTION('',(1.,0.,0.));
#1728=DIRECTION('center_axis',(1.,0.,0.));
#1729=DIRECTION('ref_axis',(0.,-0.809016994374947,0.587785252292473));
#1730=DIRECTION('center_axis',(1.,0.,0.));
#1731=DIRECTION('ref_axis',(0.,-0.809016994374947,0.587785252292473));
#1732=DIRECTION('',(1.,0.,0.));
#1733=DIRECTION('',(-1.,0.,0.));
#1734=DIRECTION('center_axis',(1.,0.,0.));
#1735=DIRECTION('ref_axis',(0.,1.,0.));
#1736=DIRECTION('',(1.,0.,0.));
#1737=DIRECTION('center_axis',(1.,0.,0.));
#1738=DIRECTION('ref_axis',(0.,0.309016994374948,0.951056516295154));
#1739=DIRECTION('center_axis',(1.,0.,0.));
#1740=DIRECTION('ref_axis',(0.,0.309016994374948,0.951056516295154));
#1741=DIRECTION('',(1.,0.,0.));
#1742=DIRECTION('',(1.,0.,0.));
#1743=DIRECTION('center_axis',(1.,0.,0.));
#1744=DIRECTION('ref_axis',(0.,1.,0.));
#1745=DIRECTION('',(-1.,0.,0.));
#1746=DIRECTION('center_axis',(-1.,0.,0.));
#1747=DIRECTION('ref_axis',(0.,1.,0.));
#1748=DIRECTION('',(1.,0.,0.));
#1749=DIRECTION('center_axis',(1.,0.,0.));
#1750=DIRECTION('ref_axis',(0.,1.,0.));
#1751=DIRECTION('',(1.,0.,0.));
#1752=DIRECTION('',(1.,0.,0.));
#1753=DIRECTION('center_axis',(1.,0.,0.));
#1754=DIRECTION('ref_axis',(0.,0.309016994374947,-0.951056516295154));
#1755=DIRECTION('center_axis',(0.,1.,2.86509167645202E-16));
#1756=DIRECTION('ref_axis',(0.,2.86509167645202E-16,-1.));
#1757=DIRECTION('',(0.,2.86509167645202E-16,-1.));
#1758=DIRECTION('',(0.,2.86509167645202E-16,-1.));
#1759=DIRECTION('',(-1.,0.,0.));
#1760=DIRECTION('center_axis',(0.,-1.,-2.05928464244989E-16));
#1761=DIRECTION('ref_axis',(0.,-2.05928464244989E-16,1.));
#1762=DIRECTION('',(0.,-2.05928464244989E-16,1.));
#1763=DIRECTION('',(-1.,0.,0.));
#1764=DIRECTION('',(0.,-2.05928464244989E-16,1.));
#1765=DIRECTION('center_axis',(-1.,0.,0.));
#1766=DIRECTION('ref_axis',(0.,1.,0.));
#1767=DIRECTION('center_axis',(1.,0.,0.));
#1768=DIRECTION('ref_axis',(0.,1.,0.));
#1769=DIRECTION('center_axis',(1.,0.,0.));
#1770=DIRECTION('ref_axis',(0.,1.,0.));
#1771=DIRECTION('center_axis',(1.,0.,0.));
#1772=DIRECTION('ref_axis',(0.,1.,0.));
#1773=DIRECTION('center_axis',(0.,0.30901699437495,0.951056516295153));
#1774=DIRECTION('ref_axis',(0.,-0.951056516295153,0.30901699437495));
#1775=DIRECTION('',(1.,0.,0.));
#1776=DIRECTION('',(0.,-0.951056516295153,0.30901699437495));
#1777=DIRECTION('center_axis',(0.,0.309016994374945,-0.951056516295155));
#1778=DIRECTION('ref_axis',(0.,0.951056516295155,0.309016994374945));
#1779=DIRECTION('',(1.,0.,0.));
#1780=DIRECTION('',(0.,0.951056516295155,0.309016994374945));
#1781=DIRECTION('center_axis',(0.,-0.309016994374947,0.951056516295154));
#1782=DIRECTION('ref_axis',(0.,-0.951056516295154,-0.309016994374947));
#1783=DIRECTION('',(-1.,0.,0.));
#1784=DIRECTION('',(0.,-0.951056516295154,-0.309016994374947));
#1785=DIRECTION('center_axis',(0.,-0.809016994374949,-0.587785252292471));
#1786=DIRECTION('ref_axis',(0.,0.587785252292471,-0.809016994374949));
#1787=DIRECTION('',(1.,0.,0.));
#1788=DIRECTION('',(0.,0.587785252292471,-0.809016994374949));
#1789=DIRECTION('center_axis',(0.,0.809016994374947,0.587785252292473));
#1790=DIRECTION('ref_axis',(0.,-0.587785252292473,0.809016994374947));
#1791=DIRECTION('',(0.,-0.587785252292473,0.809016994374947));
#1792=DIRECTION('center_axis',(0.,-0.809016994374946,0.587785252292476));
#1793=DIRECTION('ref_axis',(0.,-0.587785252292475,-0.809016994374946));
#1794=DIRECTION('',(1.,0.,0.));
#1795=DIRECTION('',(0.,-0.587785252292475,-0.809016994374946));
#1796=DIRECTION('center_axis',(0.,0.809016994374947,-0.587785252292473));
#1797=DIRECTION('ref_axis',(0.,0.587785252292473,0.809016994374947));
#1798=DIRECTION('',(0.,0.587785252292473,0.809016994374947));
#1799=DIRECTION('center_axis',(0.,-0.309016994374948,-0.951056516295154));
#1800=DIRECTION('ref_axis',(0.,0.951056516295154,-0.309016994374948));
#1801=DIRECTION('',(0.,0.951056516295154,-0.309016994374948));
#1802=DIRECTION('center_axis',(0.,1.,-2.91881214538549E-15));
#1803=DIRECTION('ref_axis',(0.,2.91881214538549E-15,1.));
#1804=DIRECTION('',(0.,2.91881214538549E-15,1.));
#1805=DIRECTION('center_axis',(0.,-1.,1.25347760844776E-16));
#1806=DIRECTION('ref_axis',(0.,-1.25347760844776E-16,-1.));
#1807=DIRECTION('',(0.,-1.25347760844776E-16,-1.));
#1808=DIRECTION('center_axis',(1.,0.,0.));
#1809=DIRECTION('ref_axis',(0.,1.,0.));
#1810=DIRECTION('center_axis',(1.,0.,0.));
#1811=DIRECTION('ref_axis',(0.,1.,0.));
#1812=CARTESIAN_POINT('',(0.,0.,0.));
#1813=CARTESIAN_POINT('Origin',(7.5,0.,0.));
#1814=CARTESIAN_POINT('',(7.5,-17.0327293463114,14.9974292633652));
#1815=CARTESIAN_POINT('',(7.5,-10.567004868003,12.8965880299476));
#1816=CARTESIAN_POINT('',(7.5,2.78115294937446,8.55950864665637));
#1817=CARTESIAN_POINT('',(7.5,-14.2118571587775,12.6790336473044));
#1818=CARTESIAN_POINT('Origin',(7.5,-12.6667721869028,17.4343162287801));
#1819=CARTESIAN_POINT('Origin',(7.5,-12.6667721869028,17.4343162287801));
#1820=CARTESIAN_POINT('Origin',(5.5,-12.6667721869028,17.4343162287801));
#1821=CARTESIAN_POINT('',(5.5,-14.2118571587775,12.6790336473044));
#1822=CARTESIAN_POINT('Origin',(5.5,-12.6667721869028,17.4343162287801));
#1823=CARTESIAN_POINT('',(5.5,-13.8255859158088,13.8678542926733));
#1824=CARTESIAN_POINT('Origin',(5.5,-12.6667721869028,17.4343162287801));
#1825=CARTESIAN_POINT('Origin',(6.5,-12.6667721869028,17.4343162287801));
#1826=CARTESIAN_POINT('',(7.5,-9.00000000000005,20.8335487494172));
#1827=CARTESIAN_POINT('Origin',(7.5,-12.6667721869028,17.4343162287801));
#1828=CARTESIAN_POINT('',(6.5,-14.2118571587775,12.6790336473044));
#1829=CARTESIAN_POINT('',(7.5,-9.00000000000005,14.0350837081431));
#1830=CARTESIAN_POINT('Origin',(7.5,-12.6667721869028,17.4343162287801));
#1831=CARTESIAN_POINT('Origin',(7.5,-12.6667721869028,17.4343162287801));
#1832=CARTESIAN_POINT('Origin',(3.375,-12.6667721869028,17.4343162287801));
#1833=CARTESIAN_POINT('',(0.,-13.8255859158088,13.8678542926733));
#1834=CARTESIAN_POINT('',(3.375,-13.8255859158088,13.8678542926733));
#1835=CARTESIAN_POINT('Origin',(0.,-12.6667721869028,17.4343162287801));
#1836=CARTESIAN_POINT('Origin',(7.5,0.,0.));
#1837=CARTESIAN_POINT('',(7.5,-9.00000000000005,14.8323969741913));
#1838=CARTESIAN_POINT('Origin',(7.5,0.,0.));
#1839=CARTESIAN_POINT('',(7.5,-16.129310766752,-4.22242926336526));
#1840=CARTESIAN_POINT('',(7.5,-22.5950352450605,-2.12158802994759));
#1841=CARTESIAN_POINT('',(7.5,-16.8876007439557,-3.97604591431576));
#1842=CARTESIAN_POINT('Origin',(7.5,-20.4952679261606,-6.65931622878011));
#1843=CARTESIAN_POINT('Origin',(5.5,-20.4952679261606,-6.65931622878011));
#1844=CARTESIAN_POINT('',(5.5,-16.4501829542858,-9.59824249024248));
#1845=CARTESIAN_POINT('Origin',(5.5,-20.4952679261606,-6.65931622878011));
#1846=CARTESIAN_POINT('',(5.5,-17.4614541972545,-8.86351092487688));
#1847=CARTESIAN_POINT('Origin',(5.5,-20.4952679261606,-6.65931622878011));
#1848=CARTESIAN_POINT('Origin',(6.5,-20.4952679261606,-6.65931622878011));
#1849=CARTESIAN_POINT('',(7.5,-19.5268056571982,-11.5646277207851));
#1850=CARTESIAN_POINT('Origin',(7.5,-20.4952679261606,-6.65931622878011));
#1851=CARTESIAN_POINT('',(7.5,-16.4501829542858,-9.59824249024248));
#1852=CARTESIAN_POINT('Origin',(7.5,-20.4952679261606,-6.65931622878011));
#1853=CARTESIAN_POINT('',(6.5,-16.4501829542858,-9.59824249024248));
#1854=CARTESIAN_POINT('',(7.5,-15.5307681677114,-6.06455396673049));
#1855=CARTESIAN_POINT('Origin',(7.5,-20.4952679261606,-6.65931622878011));
#1856=CARTESIAN_POINT('Origin',(7.5,-20.4952679261606,-6.65931622878011));
#1857=CARTESIAN_POINT('Origin',(3.375,-20.4952679261606,-6.65931622878011));
#1858=CARTESIAN_POINT('',(0.,-17.4614541972545,-8.86351092487688));
#1859=CARTESIAN_POINT('',(3.375,-17.4614541972545,-8.86351092487688));
#1860=CARTESIAN_POINT('Origin',(0.,-20.4952679261606,-6.65931622878011));
#1861=CARTESIAN_POINT('Origin',(7.5,0.,0.));
#1862=CARTESIAN_POINT('',(7.5,-7.28115294937453,5.29006727063219));
#1863=CARTESIAN_POINT('Origin',(7.5,0.,0.));
#1864=CARTESIAN_POINT('',(7.5,-0.968462268962291,-16.644688507995));
#1865=CARTESIAN_POINT('',(7.5,-4.96449975844915,-22.1447622620497));
#1866=CARTESIAN_POINT('',(7.5,-1.4371112482026,-17.2897284900686));
#1867=CARTESIAN_POINT('Origin',(7.5,-1.11022302462516E-14,-21.55));
#1868=CARTESIAN_POINT('Origin',(5.5,-1.11022302462516E-14,-21.55));
#1869=CARTESIAN_POINT('',(5.5,4.04508497187473,-18.6110737385376));
#1870=CARTESIAN_POINT('Origin',(5.5,-1.11022302462516E-14,-21.55));
#1871=CARTESIAN_POINT('',(5.5,3.03381372890604,-19.3458053039032));
#1872=CARTESIAN_POINT('Origin',(5.5,-1.11022302462516E-14,-21.55));
#1873=CARTESIAN_POINT('Origin',(6.5,-1.11022302462516E-14,-21.55));
#1874=CARTESIAN_POINT('',(7.5,4.96449975844913,-22.1447622620496));
#1875=CARTESIAN_POINT('Origin',(7.5,-1.11022302462516E-14,-21.55));
#1876=CARTESIAN_POINT('',(7.5,4.04508497187473,-18.6110737385376));
#1877=CARTESIAN_POINT('Origin',(7.5,-1.11022302462516E-14,-21.55));
#1878=CARTESIAN_POINT('',(6.5,4.04508497187473,-18.6110737385376));
#1879=CARTESIAN_POINT('',(7.5,0.968462268962364,-16.644688507995));
#1880=CARTESIAN_POINT('Origin',(7.5,-1.11022302462516E-14,-21.55));
#1881=CARTESIAN_POINT('Origin',(7.5,-1.11022302462516E-14,-21.55));
#1882=CARTESIAN_POINT('Origin',(3.375,-1.11022302462516E-14,-21.55));
#1883=CARTESIAN_POINT('',(0.,3.03381372890604,-19.3458053039032));
#1884=CARTESIAN_POINT('',(3.375,3.03381372890604,-19.3458053039032));
#1885=CARTESIAN_POINT('Origin',(0.,-1.11022302462516E-14,-21.55));
#1886=CARTESIAN_POINT('Origin',(7.5,0.,0.));
#1887=CARTESIAN_POINT('',(7.5,-7.28115294937446,-5.29006727063229));
#1888=CARTESIAN_POINT('Origin',(7.5,0.,0.));
#1889=CARTESIAN_POINT('',(7.5,15.5307681677114,-6.06455396673041));
#1890=CARTESIAN_POINT('',(7.5,19.5268056571983,-11.5646277207851));
#1891=CARTESIAN_POINT('',(7.5,15.9994171469517,-6.70959394880405));
#1892=CARTESIAN_POINT('Origin',(7.5,20.4952679261606,-6.65931622878013));
#1893=CARTESIAN_POINT('Origin',(5.5,20.4952679261606,-6.65931622878013));
#1894=CARTESIAN_POINT('',(5.5,18.9501829542858,-1.90403364730436));
#1895=CARTESIAN_POINT('Origin',(5.5,20.4952679261606,-6.65931622878013));
#1896=CARTESIAN_POINT('',(5.5,19.3364541972545,-3.0928542926733));
#1897=CARTESIAN_POINT('Origin',(5.5,20.4952679261606,-6.65931622878013));
#1898=CARTESIAN_POINT('Origin',(6.5,20.4952679261606,-6.65931622878013));
#1899=CARTESIAN_POINT('',(7.5,22.5950352450604,-2.12158802994758));
#1900=CARTESIAN_POINT('Origin',(7.5,20.4952679261606,-6.65931622878013));
#1901=CARTESIAN_POINT('',(7.5,18.9501829542858,-1.90403364730436));
#1902=CARTESIAN_POINT('Origin',(7.5,20.4952679261606,-6.65931622878013));
#1903=CARTESIAN_POINT('',(6.5,18.9501829542858,-1.90403364730436));
#1904=CARTESIAN_POINT('',(7.5,16.129310766752,-4.2224292633652));
#1905=CARTESIAN_POINT('Origin',(7.5,20.4952679261606,-6.65931622878013));
#1906=CARTESIAN_POINT('Origin',(7.5,20.4952679261606,-6.65931622878013));
#1907=CARTESIAN_POINT('Origin',(3.375,20.4952679261606,-6.65931622878013));
#1908=CARTESIAN_POINT('',(0.,19.3364541972545,-3.0928542926733));
#1909=CARTESIAN_POINT('',(3.375,19.3364541972545,-3.0928542926733));
#1910=CARTESIAN_POINT('Origin',(0.,20.4952679261606,-6.65931622878013));
#1911=CARTESIAN_POINT('Origin',(7.5,0.,0.));
#1912=CARTESIAN_POINT('',(7.5,2.78115294937457,-8.55950864665633));
#1913=CARTESIAN_POINT('Origin',(7.5,0.,0.));
#1914=CARTESIAN_POINT('',(7.5,-9.00000000000005,29.6647939483826));
#1915=CARTESIAN_POINT('',(7.5,-9.00000000000005,14.8323969741913));
#1916=CARTESIAN_POINT('',(7.5,-25.4317426397878,17.7264341113378));
#1917=CARTESIAN_POINT('Origin',(7.5,0.,0.));
#1918=CARTESIAN_POINT('',(7.5,2.78115294937446,8.55950864665637));
#1919=CARTESIAN_POINT('Origin',(7.5,0.,0.));
#1920=CARTESIAN_POINT('',(7.5,-9.00000000000005,12.3874372842406));
#1921=CARTESIAN_POINT('',(7.5,2.78115294937446,8.55950864665637));
#1922=CARTESIAN_POINT('',(7.5,-9.00000000000005,14.8323969741913));
#1923=CARTESIAN_POINT('Origin',(7.5,0.,0.));
#1924=CARTESIAN_POINT('',(7.5,-14.5623058987491,-4.73158000907224));
#1925=CARTESIAN_POINT('',(7.5,-7.28115294937453,5.29006727063219));
#1926=CARTESIAN_POINT('',(7.5,-16.8876007439557,-3.97604591431576));
#1927=CARTESIAN_POINT('Origin',(7.5,0.,0.));
#1928=CARTESIAN_POINT('',(7.5,-30.9940485385369,0.607416818024908));
#1929=CARTESIAN_POINT('',(7.5,-16.8876007439557,-3.97604591431576));
#1930=CARTESIAN_POINT('',(7.5,-31.,-3.79640507735679E-15));
#1931=CARTESIAN_POINT('Origin',(7.5,0.,0.));
#1932=CARTESIAN_POINT('',(7.5,-24.7176813445289,-18.7092551682404));
#1933=CARTESIAN_POINT('Origin',(7.5,0.,0.));
#1934=CARTESIAN_POINT('',(7.5,-7.28115294937453,5.29006727063219));
#1935=CARTESIAN_POINT('Origin',(7.5,0.,0.));
#1936=CARTESIAN_POINT('',(7.5,3.10862446895044E-14,-15.3117145503368));
#1937=CARTESIAN_POINT('',(7.5,-7.28115294937446,-5.29006727063229));
#1938=CARTESIAN_POINT('',(7.5,-1.4371112482026,-17.2897284900686));
#1939=CARTESIAN_POINT('Origin',(7.5,0.,0.));
#1940=CARTESIAN_POINT('',(7.5,-10.1553754457798,-29.2893897095049));
#1941=CARTESIAN_POINT('',(7.5,-1.4371112482026,-17.2897284900686));
#1942=CARTESIAN_POINT('',(7.5,10.1553754457798,-29.289389709505));
#1943=CARTESIAN_POINT('Origin',(7.5,0.,0.));
#1944=CARTESIAN_POINT('',(7.5,-7.28115294937446,-5.29006727063229));
#1945=CARTESIAN_POINT('Origin',(7.5,0.,0.));
#1946=CARTESIAN_POINT('',(7.5,14.5623058987491,-4.73158000907218));
#1947=CARTESIAN_POINT('',(7.5,2.78115294937457,-8.55950864665633));
#1948=CARTESIAN_POINT('',(7.5,15.9994171469517,-6.70959394880405));
#1949=CARTESIAN_POINT('Origin',(7.5,0.,0.));
#1950=CARTESIAN_POINT('',(7.5,24.7176813445289,-18.7092551682404));
#1951=CARTESIAN_POINT('',(7.5,15.9994171469517,-6.70959394880405));
#1952=CARTESIAN_POINT('',(7.5,30.9940485385369,0.6074168180249));
#1953=CARTESIAN_POINT('Origin',(7.5,0.,0.));
#1954=CARTESIAN_POINT('',(7.5,2.78115294937457,-8.55950864665633));
#1955=CARTESIAN_POINT('Origin',(7.5,0.,0.));
#1956=CARTESIAN_POINT('',(7.5,10.5670048680029,12.8965880299476));
#1957=CARTESIAN_POINT('',(7.5,17.0327293463114,14.9974292633653));
#1958=CARTESIAN_POINT('',(7.5,11.3252948452066,13.1429713789971));
#1959=CARTESIAN_POINT('Origin',(7.5,12.6667721869028,17.4343162287801));
#1960=CARTESIAN_POINT('Origin',(5.5,12.6667721869028,17.4343162287801));
#1961=CARTESIAN_POINT('',(5.5,7.66677218690281,17.4343162287801));
#1962=CARTESIAN_POINT('Origin',(5.5,12.6667721869028,17.4343162287801));
#1963=CARTESIAN_POINT('',(5.5,8.91677218690281,17.4343162287801));
#1964=CARTESIAN_POINT('Origin',(5.5,12.6667721869028,17.4343162287801));
#1965=CARTESIAN_POINT('Origin',(6.5,12.6667721869028,17.4343162287801));
#1966=CARTESIAN_POINT('',(7.5,9.00000000000002,20.8335487494171));
#1967=CARTESIAN_POINT('Origin',(7.5,12.6667721869028,17.4343162287801));
#1968=CARTESIAN_POINT('',(7.5,7.66677218690281,17.4343162287801));
#1969=CARTESIAN_POINT('Origin',(7.5,12.6667721869028,17.4343162287801));
#1970=CARTESIAN_POINT('',(6.5,7.66677218690281,17.4343162287801));
#1971=CARTESIAN_POINT('',(7.5,9.,14.0350837081431));
#1972=CARTESIAN_POINT('Origin',(7.5,12.6667721869028,17.4343162287801));
#1973=CARTESIAN_POINT('Origin',(7.5,12.6667721869028,17.4343162287801));
#1974=CARTESIAN_POINT('Origin',(3.375,12.6667721869028,17.4343162287801));
#1975=CARTESIAN_POINT('',(0.,8.91677218690281,17.4343162287801));
#1976=CARTESIAN_POINT('',(3.375,8.91677218690281,17.4343162287801));
#1977=CARTESIAN_POINT('Origin',(0.,12.6667721869028,17.4343162287801));
#1978=CARTESIAN_POINT('Origin',(7.5,0.,0.));
#1979=CARTESIAN_POINT('',(7.5,8.99999999999996,6.14454424526255E-14));
#1980=CARTESIAN_POINT('Origin',(7.5,0.,0.));
#1981=CARTESIAN_POINT('',(7.5,8.99999999999999,12.3874372842406));
#1982=CARTESIAN_POINT('',(7.5,8.99999999999996,6.14454424526255E-14));
#1983=CARTESIAN_POINT('',(7.5,11.3252948452066,13.1429713789971));
#1984=CARTESIAN_POINT('Origin',(7.5,0.,0.));
#1985=CARTESIAN_POINT('',(7.5,25.4317426397878,17.7264341113378));
#1986=CARTESIAN_POINT('',(7.5,11.3252948452066,13.1429713789971));
#1987=CARTESIAN_POINT('',(7.5,9.00000000000005,29.6647939483826));
#1988=CARTESIAN_POINT('Origin',(7.5,0.,0.));
#1989=CARTESIAN_POINT('',(7.5,8.99999999999996,6.14454424526255E-14));
#1990=CARTESIAN_POINT('Origin',(27.5,0.,0.));
#1991=CARTESIAN_POINT('',(27.5,-9.,-1.10218211923262E-15));
#1992=CARTESIAN_POINT('Origin',(27.5,0.,0.));
#1993=CARTESIAN_POINT('',(0.,-9.,-1.10218211923262E-15));
#1994=CARTESIAN_POINT('',(27.5,-9.,1.10218211923262E-15));
#1995=CARTESIAN_POINT('Origin',(0.,0.,0.));
#1996=CARTESIAN_POINT('Origin',(27.5,30.6418193825861,4.6988195246221));
#1997=CARTESIAN_POINT('',(27.5,30.6418193825861,4.6988195246221));
#1998=CARTESIAN_POINT('',(27.5,12.9577631674166,-1.04707864897643));
#1999=CARTESIAN_POINT('',(27.5,16.0934521772304,-0.0282315284268456));
#2000=CARTESIAN_POINT('',(7.5,30.6418193825861,4.6988195246221));
#2001=CARTESIAN_POINT('',(0.,30.6418193825861,4.6988195246221));
#2002=CARTESIAN_POINT('',(7.5,12.9577631674166,-1.04707864897643));
#2003=CARTESIAN_POINT('',(7.5,60.5105889821742,14.4037710697709));
#2004=CARTESIAN_POINT('',(27.5,12.9577631674166,-1.04707864897643));
#2005=CARTESIAN_POINT('Origin',(27.5,9.86759322366712,8.46348651397512));
#2006=CARTESIAN_POINT('',(27.5,9.86759322366712,8.46348651397512));
#2007=CARTESIAN_POINT('',(27.5,27.5516494388367,14.2093846875737));
#2008=CARTESIAN_POINT('',(27.5,4.16125412589619,6.60938454772544));
#2009=CARTESIAN_POINT('',(7.5,9.86759322366712,8.46348651397512));
#2010=CARTESIAN_POINT('',(27.5,9.86759322366712,8.46348651397512));
#2011=CARTESIAN_POINT('',(7.5,27.5516494388367,14.2093846875737));
#2012=CARTESIAN_POINT('',(7.5,-1.54508497187484,4.75528258147571));
#2013=CARTESIAN_POINT('',(0.,27.5516494388366,14.2093846875736));
#2014=CARTESIAN_POINT('Origin',(27.5,0.,0.));
#2015=CARTESIAN_POINT('Origin',(27.5,0.,0.));
#2016=CARTESIAN_POINT('Origin',(7.5,0.,0.));
#2017=CARTESIAN_POINT('Origin',(7.5,8.55950864665639,2.78115294937453));
#2018=CARTESIAN_POINT('Origin',(7.5,0.,0.));
#2019=CARTESIAN_POINT('Origin',(27.5,13.9376858555735,-27.6900869083386));
#2020=CARTESIAN_POINT('',(27.5,13.9376858555735,-27.6900869083386));
#2021=CARTESIAN_POINT('',(27.5,3.00833805563491,-12.6471301939617));
#2022=CARTESIAN_POINT('',(27.5,4.94630044184937,-15.3145065849005));
#2023=CARTESIAN_POINT('',(7.5,13.9376858555735,-27.6900869083386));
#2024=CARTESIAN_POINT('',(0.,13.9376858555735,-27.6900869083386));
#2025=CARTESIAN_POINT('',(7.5,3.00833805563491,-12.6471301939617));
#2026=CARTESIAN_POINT('',(7.5,32.3976006702585,-53.097979912709));
#2027=CARTESIAN_POINT('',(27.5,3.00833805563491,-12.6471301939617));
#2028=CARTESIAN_POINT('Origin',(27.5,11.0985079993844,-6.76927767103702));
#2029=CARTESIAN_POINT('',(27.5,11.0985079993844,-6.76927767103702));
#2030=CARTESIAN_POINT('',(27.5,22.027855799323,-21.8122343854139));
#2031=CARTESIAN_POINT('',(27.5,7.57179648562956,-1.91517570478733));
#2032=CARTESIAN_POINT('',(7.5,11.0985079993844,-6.76927767103702));
#2033=CARTESIAN_POINT('',(27.5,11.0985079993844,-6.76927767103702));
#2034=CARTESIAN_POINT('',(7.5,22.027855799323,-21.8122343854139));
#2035=CARTESIAN_POINT('',(7.5,4.04508497187465,2.93892626146245));
#2036=CARTESIAN_POINT('',(0.,22.027855799323,-21.8122343854139));
#2037=CARTESIAN_POINT('Origin',(27.5,0.,0.));
#2038=CARTESIAN_POINT('Origin',(27.5,0.,0.));
#2039=CARTESIAN_POINT('Origin',(7.5,0.,0.));
#2040=CARTESIAN_POINT('Origin',(7.5,5.29006727063226,-7.28115294937454));
#2041=CARTESIAN_POINT('Origin',(7.5,0.,0.));
#2042=CARTESIAN_POINT('Origin',(27.5,-22.027855799323,-21.8122343854139));
#2043=CARTESIAN_POINT('',(27.5,-22.027855799323,-21.8122343854139));
#2044=CARTESIAN_POINT('',(27.5,-11.0985079993844,-6.76927767103698));
#2045=CARTESIAN_POINT('',(27.5,-13.0364703855989,-9.43665406197574));
#2046=CARTESIAN_POINT('',(7.5,-22.027855799323,-21.8122343854139));
#2047=CARTESIAN_POINT('',(0.,-22.027855799323,-21.8122343854139));
#2048=CARTESIAN_POINT('',(7.5,-11.0985079993844,-6.76927767103698));
#2049=CARTESIAN_POINT('',(7.5,-40.487770614008,-47.2201273897843));
#2050=CARTESIAN_POINT('',(27.5,-11.0985079993844,-6.76927767103698));
#2051=CARTESIAN_POINT('Origin',(27.5,-3.00833805563496,-12.6471301939617));
#2052=CARTESIAN_POINT('',(27.5,-3.00833805563496,-12.6471301939617));
#2053=CARTESIAN_POINT('',(27.5,-13.9376858555736,-27.6900869083386));
#2054=CARTESIAN_POINT('',(27.5,0.51837345811988,-7.79302822771204));
#2055=CARTESIAN_POINT('',(7.5,-3.00833805563496,-12.6471301939617));
#2056=CARTESIAN_POINT('',(27.5,-3.00833805563496,-12.6471301939617));
#2057=CARTESIAN_POINT('',(7.5,-13.9376858555736,-27.6900869083386));
#2058=CARTESIAN_POINT('',(7.5,4.04508497187479,-2.93892626146226));
#2059=CARTESIAN_POINT('',(0.,-13.9376858555735,-27.6900869083386));
#2060=CARTESIAN_POINT('Origin',(27.5,0.,0.));
#2061=CARTESIAN_POINT('Origin',(27.5,0.,0.));
#2062=CARTESIAN_POINT('Origin',(7.5,0.,0.));
#2063=CARTESIAN_POINT('Origin',(7.5,-5.29006727063226,-7.28115294937453));
#2064=CARTESIAN_POINT('Origin',(7.5,0.,0.));
#2065=CARTESIAN_POINT('Origin',(27.5,-27.5516494388366,14.2093846875737));
#2066=CARTESIAN_POINT('',(27.5,-27.5516494388366,14.2093846875737));
#2067=CARTESIAN_POINT('',(27.5,-9.86759322366709,8.46348651397516));
#2068=CARTESIAN_POINT('',(27.5,-13.0032822334809,9.48233363452474));
#2069=CARTESIAN_POINT('',(7.5,-27.5516494388366,14.2093846875737));
#2070=CARTESIAN_POINT('',(0.,-27.5516494388366,14.2093846875737));
#2071=CARTESIAN_POINT('',(7.5,-9.86759322366709,8.46348651397516));
#2072=CARTESIAN_POINT('',(7.5,-57.4204190384247,23.9143362327225));
#2073=CARTESIAN_POINT('',(27.5,-9.86759322366709,8.46348651397516));
#2074=CARTESIAN_POINT('Origin',(27.5,-12.9577631674166,-1.04707864897638));
#2075=CARTESIAN_POINT('',(27.5,-12.9577631674166,-1.04707864897638));
#2076=CARTESIAN_POINT('',(27.5,-30.6418193825861,4.69881952462214));
#2077=CARTESIAN_POINT('',(27.5,-7.25142406964566,-2.90118061522606));
#2078=CARTESIAN_POINT('',(7.5,-12.9577631674166,-1.04707864897638));
#2079=CARTESIAN_POINT('',(27.5,-12.9577631674166,-1.04707864897638));
#2080=CARTESIAN_POINT('',(7.5,-30.6418193825861,4.69881952462215));
#2081=CARTESIAN_POINT('',(7.5,-1.54508497187462,-4.75528258147579));
#2082=CARTESIAN_POINT('',(0.,-30.6418193825861,4.69881952462214));
#2083=CARTESIAN_POINT('Origin',(27.5,0.,0.));
#2084=CARTESIAN_POINT('Origin',(27.5,0.,0.));
#2085=CARTESIAN_POINT('Origin',(7.5,0.,0.));
#2086=CARTESIAN_POINT('Origin',(7.5,-8.55950864665639,2.78115294937453));
#2087=CARTESIAN_POINT('Origin',(7.5,0.,0.));
#2088=CARTESIAN_POINT('Origin',(0.,0.,0.));
#2089=CARTESIAN_POINT('',(27.5,30.9940485385369,0.6074168180249));
#2090=CARTESIAN_POINT('Origin',(27.5,0.,0.));
#2091=CARTESIAN_POINT('',(7.5,30.9940485385369,0.6074168180249));
#2092=CARTESIAN_POINT('',(27.5,24.7176813445289,-18.7092551682404));
#2093=CARTESIAN_POINT('',(7.5,24.7176813445289,-18.7092551682404));
#2094=CARTESIAN_POINT('Origin',(27.5,0.,0.));
#2095=CARTESIAN_POINT('',(27.5,10.1553754457798,-29.289389709505));
#2096=CARTESIAN_POINT('Origin',(27.5,0.,0.));
#2097=CARTESIAN_POINT('',(7.5,10.1553754457798,-29.289389709505));
#2098=CARTESIAN_POINT('',(27.5,-10.1553754457798,-29.2893897095049));
#2099=CARTESIAN_POINT('',(7.5,-10.1553754457798,-29.2893897095049));
#2100=CARTESIAN_POINT('Origin',(27.5,0.,0.));
#2101=CARTESIAN_POINT('',(27.5,-24.7176813445289,-18.7092551682404));
#2102=CARTESIAN_POINT('Origin',(27.5,0.,0.));
#2103=CARTESIAN_POINT('',(7.5,-24.7176813445289,-18.7092551682404));
#2104=CARTESIAN_POINT('',(0.,-31.,-3.79640507735679E-15));
#2105=CARTESIAN_POINT('',(0.,-31.,-3.79640507735679E-15));
#2106=CARTESIAN_POINT('Origin',(0.,0.,0.));
#2107=CARTESIAN_POINT('',(27.5,-30.9940485385369,0.607416818024908));
#2108=CARTESIAN_POINT('',(7.5,-30.9940485385369,0.607416818024908));
#2109=CARTESIAN_POINT('Origin',(27.5,0.,0.));
#2110=CARTESIAN_POINT('',(27.5,-25.4317426397878,17.7264341113378));
#2111=CARTESIAN_POINT('Origin',(27.5,0.,0.));
#2112=CARTESIAN_POINT('',(7.5,-25.4317426397878,17.7264341113378));
#2113=CARTESIAN_POINT('',(27.5,-9.00000000000005,29.6647939483826));
#2114=CARTESIAN_POINT('',(7.5,-9.00000000000005,29.6647939483826));
#2115=CARTESIAN_POINT('',(27.5,-4.99999999999999,30.5941170815567));
#2116=CARTESIAN_POINT('Origin',(27.5,0.,0.));
#2117=CARTESIAN_POINT('',(7.5,-4.99999999999999,30.5941170815567));
#2118=CARTESIAN_POINT('',(0.,-4.99999999999999,30.5941170815567));
#2119=CARTESIAN_POINT('',(7.5,5.00000000000002,30.5941170815567));
#2120=CARTESIAN_POINT('Origin',(7.5,0.,0.));
#2121=CARTESIAN_POINT('',(27.5,5.00000000000002,30.5941170815567));
#2122=CARTESIAN_POINT('',(0.,5.00000000000002,30.5941170815567));
#2123=CARTESIAN_POINT('',(27.5,9.00000000000005,29.6647939483826));
#2124=CARTESIAN_POINT('Origin',(27.5,0.,0.));
#2125=CARTESIAN_POINT('',(7.5,9.00000000000005,29.6647939483826));
#2126=CARTESIAN_POINT('',(27.5,25.4317426397878,17.7264341113378));
#2127=CARTESIAN_POINT('',(7.5,25.4317426397878,17.7264341113378));
#2128=CARTESIAN_POINT('Origin',(27.5,0.,0.));
#2129=CARTESIAN_POINT('Origin',(27.5,5.00000000000002,30.5941170815567));
#2130=CARTESIAN_POINT('',(27.5,5.00000000000003,12.));
#2131=CARTESIAN_POINT('',(27.5,5.00000000000003,15.2970585407784));
#2132=CARTESIAN_POINT('',(7.5,5.00000000000003,12.));
#2133=CARTESIAN_POINT('',(7.5,5.00000000000001,61.9999999999999));
#2134=CARTESIAN_POINT('',(27.5,5.00000000000003,12.));
#2135=CARTESIAN_POINT('Origin',(27.5,-4.99999999999998,12.));
#2136=CARTESIAN_POINT('',(27.5,-4.99999999999998,12.));
#2137=CARTESIAN_POINT('',(27.5,-4.99999999999998,6.));
#2138=CARTESIAN_POINT('',(7.5,-4.99999999999998,12.));
#2139=CARTESIAN_POINT('',(27.5,-4.99999999999998,12.));
#2140=CARTESIAN_POINT('',(7.5,-4.99999999999998,-1.19904086659517E-13));
#2141=CARTESIAN_POINT('Origin',(27.5,0.,0.));
#2142=CARTESIAN_POINT('Origin',(27.5,0.,0.));
#2143=CARTESIAN_POINT('Origin',(7.5,0.,0.));
#2144=CARTESIAN_POINT('Origin',(7.5,0.,9.00000000000001));
#2145=CARTESIAN_POINT('Origin',(7.5,2.78115294937437,8.55950864665639));
#2146=CARTESIAN_POINT('',(27.5,-9.00000000000005,12.3874372842406));
#2147=CARTESIAN_POINT('',(7.5,-9.00000000000005,12.3874372842406));
#2148=CARTESIAN_POINT('',(27.5,2.78115294937437,8.55950864665639));
#2149=CARTESIAN_POINT('Origin',(7.5,2.78115294937466,-8.5595086466563));
#2150=CARTESIAN_POINT('',(27.5,14.5623058987491,-4.73158000907218));
#2151=CARTESIAN_POINT('',(7.5,14.5623058987491,-4.73158000907218));
#2152=CARTESIAN_POINT('',(27.5,2.78115294937466,-8.5595086466563));
#2153=CARTESIAN_POINT('Origin',(7.5,25.4317426397878,17.7264341113378));
#2154=CARTESIAN_POINT('',(27.5,8.99999999999999,12.3874372842406));
#2155=CARTESIAN_POINT('',(7.5,8.99999999999999,12.3874372842406));
#2156=CARTESIAN_POINT('',(27.5,56.1843510609251,27.7185622979032));
#2157=CARTESIAN_POINT('Origin',(7.5,-7.28115294937441,-5.29006727063235));
#2158=CARTESIAN_POINT('',(27.5,3.10862446895044E-14,-15.3117145503368));
#2159=CARTESIAN_POINT('',(7.5,3.10862446895044E-14,-15.3117145503368));
#2160=CARTESIAN_POINT('',(27.5,-7.28115294937441,-5.29006727063235));
#2161=CARTESIAN_POINT('Origin',(7.5,24.7176813445289,-18.7092551682404));
#2162=CARTESIAN_POINT('',(27.5,43.723838591508,-44.8689863806146));
#2163=CARTESIAN_POINT('Origin',(7.5,-7.28115294937458,5.29006727063211));
#2164=CARTESIAN_POINT('',(27.5,-14.5623058987491,-4.73158000907224));
#2165=CARTESIAN_POINT('',(7.5,-14.5623058987491,-4.73158000907224));
#2166=CARTESIAN_POINT('',(27.5,-7.28115294937458,5.29006727063211));
#2167=CARTESIAN_POINT('Origin',(7.5,-10.1553754457798,-29.2893897095049));
#2168=CARTESIAN_POINT('',(27.5,-29.1615326927589,-55.4491209218791));
#2169=CARTESIAN_POINT('Origin',(7.5,-30.9940485385369,0.607416818024911));
#2170=CARTESIAN_POINT('',(27.5,-61.7466569596742,10.5995450045904));
#2171=CARTESIAN_POINT('Origin',(7.5,8.99999999999996,1.4916019421372E-13));
#2172=CARTESIAN_POINT('',(27.5,8.99999999999996,1.4916019421372E-13));
#2173=CARTESIAN_POINT('Origin',(7.5,-9.00000000000004,29.6647939483826));
#2174=CARTESIAN_POINT('',(27.5,-9.00000000000004,62.0000000000001));
#2175=CARTESIAN_POINT('Origin',(27.5,0.,0.));
#2176=CARTESIAN_POINT('Origin',(0.,0.,0.));
#2177=UNCERTAINTY_MEASURE_WITH_UNIT(LENGTH_MEASURE(0.01),#2181,
'DISTANCE_ACCURACY_VALUE',
'Maximum model space distance between geometric entities at asserted c
onnectivities');
#2178=UNCERTAINTY_MEASURE_WITH_UNIT(LENGTH_MEASURE(0.01),#2181,
'DISTANCE_ACCURACY_VALUE',
'Maximum model space distance between geometric entities at asserted c
onnectivities');
#2179=(
GEOMETRIC_REPRESENTATION_CONTEXT(3)
GLOBAL_UNCERTAINTY_ASSIGNED_CONTEXT((#2177))
GLOBAL_UNIT_ASSIGNED_CONTEXT((#2181,#2183,#2184))
REPRESENTATION_CONTEXT('','3D')
);
#2180=(
GEOMETRIC_REPRESENTATION_CONTEXT(3)
GLOBAL_UNCERTAINTY_ASSIGNED_CONTEXT((#2178))
GLOBAL_UNIT_ASSIGNED_CONTEXT((#2181,#2183,#2184))
REPRESENTATION_CONTEXT('','3D')
);
#2181=(
LENGTH_UNIT()
NAMED_UNIT(*)
SI_UNIT(.MILLI.,.METRE.)
);
#2182=(
LENGTH_UNIT()
NAMED_UNIT(*)
SI_UNIT($,.METRE.)
);
#2183=(
NAMED_UNIT(*)
PLANE_ANGLE_UNIT()
SI_UNIT($,.RADIAN.)
);
#2184=(
NAMED_UNIT(*)
SI_UNIT($,.STERADIAN.)
SOLID_ANGLE_UNIT()
);
#2185=SHAPE_DEFINITION_REPRESENTATION(#2186,#2187);
#2186=PRODUCT_DEFINITION_SHAPE('',$,#2189);
#2187=SHAPE_REPRESENTATION('',(#1273),#2179);
#2188=PRODUCT_DEFINITION_CONTEXT('part definition',#2193,'design');
#2189=PRODUCT_DEFINITION('2026-09-24-18-07-46-529','parametric_v2',#2190,
#2188);
#2190=PRODUCT_DEFINITION_FORMATION('',$,#2195);
#2191=PRODUCT_RELATED_PRODUCT_CATEGORY('parametric_v2','parametric_v2',
(#2195));
#2192=APPLICATION_PROTOCOL_DEFINITION('international standard',
'automotive_design',2009,#2193);
#2193=APPLICATION_CONTEXT(
'Core Data for Automotive Mechanical Design Process');
#2194=PRODUCT_CONTEXT('part definition',#2193,'mechanical');
#2195=PRODUCT('2026-09-24-18-07-46-529','parametric_v2',$,(#2194));
#2196=PRESENTATION_STYLE_ASSIGNMENT((#2197));
#2197=SURFACE_STYLE_USAGE(.BOTH.,#2198);
#2198=SURFACE_SIDE_STYLE('',(#2199));
#2199=SURFACE_STYLE_FILL_AREA(#2200);
#2200=FILL_AREA_STYLE('Steel - Satin',(#2201));
#2201=FILL_AREA_STYLE_COLOUR('Steel - Satin',#2202);
#2202=COLOUR_RGB('Steel - Satin',0.627450980392157,0.627450980392157,0.627450980392157);
ENDSEC;
END-ISO-10303-21;
