ISO-10303-21;
HEADER;
/* Generated by software containing ST-Developer
 * from STEP Tools, Inc. (www.steptools.com) 
 */

FILE_DESCRIPTION(
/* description */ (''),
/* implementation_level */ '2;1');

FILE_NAME(
/* name */ 'ribs4_t6.step',
/* time_stamp */ '2026-09-29T13:51:32+01:00',
/* author */ (''),
/* organization */ (''),
/* preprocessor_version */ 'ST-DEVELOPER v20.2',
/* originating_system */ 'Autodesk Translation Framework v15.15.0.0',
/* authorisation */ '');

FILE_SCHEMA (('AUTOMOTIVE_DESIGN { 1 0 10303 214 3 1 1 }'));
ENDSEC;

DATA;
#10=MECHANICAL_DESIGN_GEOMETRIC_PRESENTATION_REPRESENTATION('',(#13),#1409);
#11=SHAPE_REPRESENTATION_RELATIONSHIP('SRR','None',#1416,#12);
#12=ADVANCED_BREP_SHAPE_REPRESENTATION('',(#14),#1408);
#13=STYLED_ITEM('',(#1425),#14);
#14=MANIFOLD_SOLID_BREP('Body2',#821);
#15=LINE('',#1180,#85);
#16=LINE('',#1183,#86);
#17=LINE('',#1193,#87);
#18=LINE('',#1196,#88);
#19=LINE('',#1206,#89);
#20=LINE('',#1209,#90);
#21=LINE('',#1219,#91);
#22=LINE('',#1222,#92);
#23=LINE('',#1228,#93);
#24=LINE('',#1233,#94);
#25=LINE('',#1235,#95);
#26=LINE('',#1237,#96);
#27=LINE('',#1238,#97);
#28=LINE('',#1242,#98);
#29=LINE('',#1244,#99);
#30=LINE('',#1246,#100);
#31=LINE('',#1247,#101);
#32=LINE('',#1256,#102);
#33=LINE('',#1258,#103);
#34=LINE('',#1260,#104);
#35=LINE('',#1261,#105);
#36=LINE('',#1265,#106);
#37=LINE('',#1267,#107);
#38=LINE('',#1269,#108);
#39=LINE('',#1270,#109);
#40=LINE('',#1279,#110);
#41=LINE('',#1281,#111);
#42=LINE('',#1283,#112);
#43=LINE('',#1284,#113);
#44=LINE('',#1288,#114);
#45=LINE('',#1290,#115);
#46=LINE('',#1292,#116);
#47=LINE('',#1293,#117);
#48=LINE('',#1305,#118);
#49=LINE('',#1309,#119);
#50=LINE('',#1314,#120);
#51=LINE('',#1318,#121);
#52=LINE('',#1321,#122);
#53=LINE('',#1326,#123);
#54=LINE('',#1330,#124);
#55=LINE('',#1334,#125);
#56=LINE('',#1338,#126);
#57=LINE('',#1342,#127);
#58=LINE('',#1346,#128);
#59=LINE('',#1350,#129);
#60=LINE('',#1352,#130);
#61=LINE('',#1353,#131);
#62=LINE('',#1356,#132);
#63=LINE('',#1358,#133);
#64=LINE('',#1359,#134);
#65=LINE('',#1367,#135);
#66=LINE('',#1368,#136);
#67=LINE('',#1369,#137);
#68=LINE('',#1373,#138);
#69=LINE('',#1374,#139);
#70=LINE('',#1375,#140);
#71=LINE('',#1379,#141);
#72=LINE('',#1380,#142);
#73=LINE('',#1381,#143);
#74=LINE('',#1385,#144);
#75=LINE('',#1386,#145);
#76=LINE('',#1387,#146);
#77=LINE('',#1389,#147);
#78=LINE('',#1390,#148);
#79=LINE('',#1392,#149);
#80=LINE('',#1393,#150);
#81=LINE('',#1395,#151);
#82=LINE('',#1399,#152);
#83=LINE('',#1401,#153);
#84=LINE('',#1402,#154);
#85=VECTOR('',#935,5.);
#86=VECTOR('',#938,3.75);
#87=VECTOR('',#951,5.);
#88=VECTOR('',#954,3.75);
#89=VECTOR('',#967,5.);
#90=VECTOR('',#970,3.75);
#91=VECTOR('',#983,5.);
#92=VECTOR('',#986,3.75);
#93=VECTOR('',#993,9.);
#94=VECTOR('',#998,10.);
#95=VECTOR('',#999,10.);
#96=VECTOR('',#1000,10.);
#97=VECTOR('',#1001,10.);
#98=VECTOR('',#1004,10.);
#99=VECTOR('',#1005,10.);
#100=VECTOR('',#1006,10.);
#101=VECTOR('',#1007,10.);
#102=VECTOR('',#1020,10.);
#103=VECTOR('',#1021,10.);
#104=VECTOR('',#1022,10.);
#105=VECTOR('',#1023,10.);
#106=VECTOR('',#1026,10.);
#107=VECTOR('',#1027,10.);
#108=VECTOR('',#1028,10.);
#109=VECTOR('',#1029,10.);
#110=VECTOR('',#1042,10.);
#111=VECTOR('',#1043,10.);
#112=VECTOR('',#1044,10.);
#113=VECTOR('',#1045,10.);
#114=VECTOR('',#1048,10.);
#115=VECTOR('',#1049,10.);
#116=VECTOR('',#1050,10.);
#117=VECTOR('',#1051,10.);
#118=VECTOR('',#1068,10.);
#119=VECTOR('',#1071,10.);
#120=VECTOR('',#1076,10.);
#121=VECTOR('',#1079,10.);
#122=VECTOR('',#1082,41.);
#123=VECTOR('',#1087,10.);
#124=VECTOR('',#1090,10.);
#125=VECTOR('',#1093,10.);
#126=VECTOR('',#1096,10.);
#127=VECTOR('',#1099,10.);
#128=VECTOR('',#1102,10.);
#129=VECTOR('',#1107,10.);
#130=VECTOR('',#1108,10.);
#131=VECTOR('',#1109,10.);
#132=VECTOR('',#1112,10.);
#133=VECTOR('',#1113,10.);
#134=VECTOR('',#1114,10.);
#135=VECTOR('',#1125,10.);
#136=VECTOR('',#1126,10.);
#137=VECTOR('',#1127,10.);
#138=VECTOR('',#1130,10.);
#139=VECTOR('',#1131,10.);
#140=VECTOR('',#1132,10.);
#141=VECTOR('',#1135,10.);
#142=VECTOR('',#1136,10.);
#143=VECTOR('',#1137,10.);
#144=VECTOR('',#1140,10.);
#145=VECTOR('',#1141,10.);
#146=VECTOR('',#1142,10.);
#147=VECTOR('',#1145,10.);
#148=VECTOR('',#1146,10.);
#149=VECTOR('',#1149,10.);
#150=VECTOR('',#1150,10.);
#151=VECTOR('',#1153,10.);
#152=VECTOR('',#1160,10.);
#153=VECTOR('',#1163,10.);
#154=VECTOR('',#1164,10.);
#155=CYLINDRICAL_SURFACE('',#838,5.);
#156=CYLINDRICAL_SURFACE('',#840,3.75);
#157=CYLINDRICAL_SURFACE('',#845,5.);
#158=CYLINDRICAL_SURFACE('',#847,3.75);
#159=CYLINDRICAL_SURFACE('',#852,5.);
#160=CYLINDRICAL_SURFACE('',#854,3.75);
#161=CYLINDRICAL_SURFACE('',#859,5.);
#162=CYLINDRICAL_SURFACE('',#861,3.75);
#163=CYLINDRICAL_SURFACE('',#863,9.);
#164=CYLINDRICAL_SURFACE('',#868,13.);
#165=CYLINDRICAL_SURFACE('',#875,13.);
#166=CYLINDRICAL_SURFACE('',#882,13.);
#167=CYLINDRICAL_SURFACE('',#888,41.);
#168=CYLINDRICAL_SURFACE('',#905,13.);
#169=FACE_BOUND('',#228,.T.);
#170=FACE_BOUND('',#232,.T.);
#171=FACE_BOUND('',#236,.T.);
#172=FACE_BOUND('',#240,.T.);
#173=FACE_BOUND('',#268,.T.);
#174=FACE_BOUND('',#270,.T.);
#175=FACE_BOUND('',#272,.T.);
#176=FACE_BOUND('',#276,.T.);
#177=FACE_BOUND('',#278,.T.);
#178=FACE_BOUND('',#280,.T.);
#179=FACE_BOUND('',#281,.T.);
#180=FACE_BOUND('',#282,.T.);
#181=FACE_BOUND('',#283,.T.);
#182=FACE_BOUND('',#284,.T.);
#183=FACE_OUTER_BOUND('',#227,.T.);
#184=FACE_OUTER_BOUND('',#229,.T.);
#185=FACE_OUTER_BOUND('',#230,.T.);
#186=FACE_OUTER_BOUND('',#231,.T.);
#187=FACE_OUTER_BOUND('',#233,.T.);
#188=FACE_OUTER_BOUND('',#234,.T.);
#189=FACE_OUTER_BOUND('',#235,.T.);
#190=FACE_OUTER_BOUND('',#237,.T.);
#191=FACE_OUTER_BOUND('',#238,.T.);
#192=FACE_OUTER_BOUND('',#239,.T.);
#193=FACE_OUTER_BOUND('',#241,.T.);
#194=FACE_OUTER_BOUND('',#242,.T.);
#195=FACE_OUTER_BOUND('',#243,.T.);
#196=FACE_OUTER_BOUND('',#244,.T.);
#197=FACE_OUTER_BOUND('',#245,.T.);
#198=FACE_OUTER_BOUND('',#246,.T.);
#199=FACE_OUTER_BOUND('',#247,.T.);
#200=FACE_OUTER_BOUND('',#248,.T.);
#201=FACE_OUTER_BOUND('',#249,.T.);
#202=FACE_OUTER_BOUND('',#250,.T.);
#203=FACE_OUTER_BOUND('',#251,.T.);
#204=FACE_OUTER_BOUND('',#252,.T.);
#205=FACE_OUTER_BOUND('',#253,.T.);
#206=FACE_OUTER_BOUND('',#254,.T.);
#207=FACE_OUTER_BOUND('',#255,.T.);
#208=FACE_OUTER_BOUND('',#256,.T.);
#209=FACE_OUTER_BOUND('',#257,.T.);
#210=FACE_OUTER_BOUND('',#258,.T.);
#211=FACE_OUTER_BOUND('',#259,.T.);
#212=FACE_OUTER_BOUND('',#260,.T.);
#213=FACE_OUTER_BOUND('',#261,.T.);
#214=FACE_OUTER_BOUND('',#262,.T.);
#215=FACE_OUTER_BOUND('',#263,.T.);
#216=FACE_OUTER_BOUND('',#264,.T.);
#217=FACE_OUTER_BOUND('',#265,.T.);
#218=FACE_OUTER_BOUND('',#266,.T.);
#219=FACE_OUTER_BOUND('',#267,.T.);
#220=FACE_OUTER_BOUND('',#269,.T.);
#221=FACE_OUTER_BOUND('',#271,.T.);
#222=FACE_OUTER_BOUND('',#273,.T.);
#223=FACE_OUTER_BOUND('',#274,.T.);
#224=FACE_OUTER_BOUND('',#275,.T.);
#225=FACE_OUTER_BOUND('',#277,.T.);
#226=FACE_OUTER_BOUND('',#279,.T.);
#227=EDGE_LOOP('',(#519));
#228=EDGE_LOOP('',(#520));
#229=EDGE_LOOP('',(#521,#522,#523,#524));
#230=EDGE_LOOP('',(#525,#526,#527,#528));
#231=EDGE_LOOP('',(#529));
#232=EDGE_LOOP('',(#530));
#233=EDGE_LOOP('',(#531,#532,#533,#534));
#234=EDGE_LOOP('',(#535,#536,#537,#538));
#235=EDGE_LOOP('',(#539));
#236=EDGE_LOOP('',(#540));
#237=EDGE_LOOP('',(#541,#542,#543,#544));
#238=EDGE_LOOP('',(#545,#546,#547,#548));
#239=EDGE_LOOP('',(#549));
#240=EDGE_LOOP('',(#550));
#241=EDGE_LOOP('',(#551,#552,#553,#554));
#242=EDGE_LOOP('',(#555,#556,#557,#558));
#243=EDGE_LOOP('',(#559,#560,#561,#562));
#244=EDGE_LOOP('',(#563,#564,#565,#566));
#245=EDGE_LOOP('',(#567,#568,#569,#570));
#246=EDGE_LOOP('',(#571,#572,#573,#574));
#247=EDGE_LOOP('',(#575,#576,#577,#578));
#248=EDGE_LOOP('',(#579,#580,#581,#582));
#249=EDGE_LOOP('',(#583,#584,#585,#586));
#250=EDGE_LOOP('',(#587,#588,#589,#590));
#251=EDGE_LOOP('',(#591,#592,#593,#594));
#252=EDGE_LOOP('',(#595,#596,#597,#598));
#253=EDGE_LOOP('',(#599,#600,#601,#602));
#254=EDGE_LOOP('',(#603,#604,#605,#606));
#255=EDGE_LOOP('',(#607,#608,#609,#610,#611));
#256=EDGE_LOOP('',(#612,#613,#614,#615,#616,#617,#618,#619,#620,#621,#622,
#623,#624,#625,#626,#627,#628,#629,#630,#631,#632,#633,#634,#635,#636,#637,
#638,#639,#640,#641,#642,#643,#644,#645,#646,#647));
#257=EDGE_LOOP('',(#648,#649,#650,#651));
#258=EDGE_LOOP('',(#652,#653,#654,#655));
#259=EDGE_LOOP('',(#656,#657,#658,#659));
#260=EDGE_LOOP('',(#660,#661,#662,#663));
#261=EDGE_LOOP('',(#664,#665,#666,#667));
#262=EDGE_LOOP('',(#668,#669,#670,#671));
#263=EDGE_LOOP('',(#672,#673,#674,#675));
#264=EDGE_LOOP('',(#676,#677,#678,#679));
#265=EDGE_LOOP('',(#680,#681,#682,#683));
#266=EDGE_LOOP('',(#684,#685,#686,#687));
#267=EDGE_LOOP('',(#688,#689,#690));
#268=EDGE_LOOP('',(#691));
#269=EDGE_LOOP('',(#692,#693,#694));
#270=EDGE_LOOP('',(#695));
#271=EDGE_LOOP('',(#696,#697,#698));
#272=EDGE_LOOP('',(#699));
#273=EDGE_LOOP('',(#700,#701,#702,#703));
#274=EDGE_LOOP('',(#704,#705,#706,#707));
#275=EDGE_LOOP('',(#708,#709,#710,#711,#712,#713,#714,#715,#716,#717,#718,
#719,#720,#721,#722,#723,#724,#725,#726,#727,#728,#729,#730,#731,#732,#733,
#734,#735));
#276=EDGE_LOOP('',(#736));
#277=EDGE_LOOP('',(#737,#738,#739));
#278=EDGE_LOOP('',(#740));
#279=EDGE_LOOP('',(#741));
#280=EDGE_LOOP('',(#742));
#281=EDGE_LOOP('',(#743));
#282=EDGE_LOOP('',(#744));
#283=EDGE_LOOP('',(#745));
#284=EDGE_LOOP('',(#746));
#285=CIRCLE('',#836,5.);
#286=CIRCLE('',#837,3.75);
#287=CIRCLE('',#839,5.);
#288=CIRCLE('',#841,3.75);
#289=CIRCLE('',#843,5.);
#290=CIRCLE('',#844,3.75);
#291=CIRCLE('',#846,5.);
#292=CIRCLE('',#848,3.75);
#293=CIRCLE('',#850,5.);
#294=CIRCLE('',#851,3.75);
#295=CIRCLE('',#853,5.);
#296=CIRCLE('',#855,3.75);
#297=CIRCLE('',#857,5.);
#298=CIRCLE('',#858,3.75);
#299=CIRCLE('',#860,5.);
#300=CIRCLE('',#862,3.75);
#301=CIRCLE('',#864,9.);
#302=CIRCLE('',#865,9.);
#303=CIRCLE('',#869,13.);
#304=CIRCLE('',#870,13.);
#305=CIRCLE('',#872,41.);
#306=CIRCLE('',#876,13.);
#307=CIRCLE('',#877,13.);
#308=CIRCLE('',#879,41.);
#309=CIRCLE('',#883,13.);
#310=CIRCLE('',#884,13.);
#311=CIRCLE('',#886,41.);
#312=CIRCLE('',#887,41.);
#313=CIRCLE('',#889,41.);
#314=CIRCLE('',#890,41.);
#315=CIRCLE('',#891,41.);
#316=CIRCLE('',#892,41.);
#317=CIRCLE('',#893,41.);
#318=CIRCLE('',#894,41.);
#319=CIRCLE('',#895,41.);
#320=CIRCLE('',#896,41.);
#321=CIRCLE('',#897,41.);
#322=CIRCLE('',#898,41.);
#323=CIRCLE('',#899,41.);
#324=CIRCLE('',#900,41.);
#325=CIRCLE('',#901,41.);
#326=CIRCLE('',#902,41.);
#327=CIRCLE('',#906,13.);
#328=CIRCLE('',#907,13.);
#329=VERTEX_POINT('',#1173);
#330=VERTEX_POINT('',#1175);
#331=VERTEX_POINT('',#1178);
#332=VERTEX_POINT('',#1182);
#333=VERTEX_POINT('',#1186);
#334=VERTEX_POINT('',#1188);
#335=VERTEX_POINT('',#1191);
#336=VERTEX_POINT('',#1195);
#337=VERTEX_POINT('',#1199);
#338=VERTEX_POINT('',#1201);
#339=VERTEX_POINT('',#1204);
#340=VERTEX_POINT('',#1208);
#341=VERTEX_POINT('',#1212);
#342=VERTEX_POINT('',#1214);
#343=VERTEX_POINT('',#1217);
#344=VERTEX_POINT('',#1221);
#345=VERTEX_POINT('',#1225);
#346=VERTEX_POINT('',#1227);
#347=VERTEX_POINT('',#1231);
#348=VERTEX_POINT('',#1232);
#349=VERTEX_POINT('',#1234);
#350=VERTEX_POINT('',#1236);
#351=VERTEX_POINT('',#1240);
#352=VERTEX_POINT('',#1241);
#353=VERTEX_POINT('',#1243);
#354=VERTEX_POINT('',#1245);
#355=VERTEX_POINT('',#1254);
#356=VERTEX_POINT('',#1255);
#357=VERTEX_POINT('',#1257);
#358=VERTEX_POINT('',#1259);
#359=VERTEX_POINT('',#1263);
#360=VERTEX_POINT('',#1264);
#361=VERTEX_POINT('',#1266);
#362=VERTEX_POINT('',#1268);
#363=VERTEX_POINT('',#1277);
#364=VERTEX_POINT('',#1278);
#365=VERTEX_POINT('',#1280);
#366=VERTEX_POINT('',#1282);
#367=VERTEX_POINT('',#1286);
#368=VERTEX_POINT('',#1287);
#369=VERTEX_POINT('',#1289);
#370=VERTEX_POINT('',#1291);
#371=VERTEX_POINT('',#1298);
#372=VERTEX_POINT('',#1302);
#373=VERTEX_POINT('',#1304);
#374=VERTEX_POINT('',#1306);
#375=VERTEX_POINT('',#1308);
#376=VERTEX_POINT('',#1311);
#377=VERTEX_POINT('',#1313);
#378=VERTEX_POINT('',#1315);
#379=VERTEX_POINT('',#1317);
#380=VERTEX_POINT('',#1320);
#381=VERTEX_POINT('',#1323);
#382=VERTEX_POINT('',#1325);
#383=VERTEX_POINT('',#1327);
#384=VERTEX_POINT('',#1329);
#385=VERTEX_POINT('',#1331);
#386=VERTEX_POINT('',#1333);
#387=VERTEX_POINT('',#1335);
#388=VERTEX_POINT('',#1337);
#389=VERTEX_POINT('',#1339);
#390=VERTEX_POINT('',#1341);
#391=VERTEX_POINT('',#1343);
#392=VERTEX_POINT('',#1345);
#393=VERTEX_POINT('',#1349);
#394=VERTEX_POINT('',#1351);
#395=VERTEX_POINT('',#1355);
#396=VERTEX_POINT('',#1357);
#397=VERTEX_POINT('',#1365);
#398=VERTEX_POINT('',#1366);
#399=VERTEX_POINT('',#1371);
#400=VERTEX_POINT('',#1372);
#401=VERTEX_POINT('',#1377);
#402=VERTEX_POINT('',#1378);
#403=VERTEX_POINT('',#1383);
#404=VERTEX_POINT('',#1384);
#405=EDGE_CURVE('',#329,#329,#285,.T.);
#406=EDGE_CURVE('',#330,#330,#286,.T.);
#407=EDGE_CURVE('',#331,#331,#287,.T.);
#408=EDGE_CURVE('',#331,#329,#15,.T.);
#409=EDGE_CURVE('',#330,#332,#16,.T.);
#410=EDGE_CURVE('',#332,#332,#288,.T.);
#411=EDGE_CURVE('',#333,#333,#289,.T.);
#412=EDGE_CURVE('',#334,#334,#290,.T.);
#413=EDGE_CURVE('',#335,#335,#291,.T.);
#414=EDGE_CURVE('',#335,#333,#17,.T.);
#415=EDGE_CURVE('',#334,#336,#18,.T.);
#416=EDGE_CURVE('',#336,#336,#292,.T.);
#417=EDGE_CURVE('',#337,#337,#293,.T.);
#418=EDGE_CURVE('',#338,#338,#294,.T.);
#419=EDGE_CURVE('',#339,#339,#295,.T.);
#420=EDGE_CURVE('',#339,#337,#19,.T.);
#421=EDGE_CURVE('',#338,#340,#20,.T.);
#422=EDGE_CURVE('',#340,#340,#296,.T.);
#423=EDGE_CURVE('',#341,#341,#297,.T.);
#424=EDGE_CURVE('',#342,#342,#298,.T.);
#425=EDGE_CURVE('',#343,#343,#299,.T.);
#426=EDGE_CURVE('',#343,#341,#21,.T.);
#427=EDGE_CURVE('',#342,#344,#22,.T.);
#428=EDGE_CURVE('',#344,#344,#300,.T.);
#429=EDGE_CURVE('',#345,#345,#301,.T.);
#430=EDGE_CURVE('',#345,#346,#23,.T.);
#431=EDGE_CURVE('',#346,#346,#302,.T.);
#432=EDGE_CURVE('',#347,#348,#24,.T.);
#433=EDGE_CURVE('',#349,#347,#25,.T.);
#434=EDGE_CURVE('',#349,#350,#26,.T.);
#435=EDGE_CURVE('',#348,#350,#27,.T.);
#436=EDGE_CURVE('',#351,#352,#28,.T.);
#437=EDGE_CURVE('',#351,#353,#29,.T.);
#438=EDGE_CURVE('',#353,#354,#30,.T.);
#439=EDGE_CURVE('',#352,#354,#31,.T.);
#440=EDGE_CURVE('',#348,#351,#303,.T.);
#441=EDGE_CURVE('',#350,#353,#304,.T.);
#442=EDGE_CURVE('',#354,#349,#305,.T.);
#443=EDGE_CURVE('',#355,#356,#32,.T.);
#444=EDGE_CURVE('',#357,#355,#33,.T.);
#445=EDGE_CURVE('',#357,#358,#34,.T.);
#446=EDGE_CURVE('',#356,#358,#35,.T.);
#447=EDGE_CURVE('',#359,#360,#36,.T.);
#448=EDGE_CURVE('',#359,#361,#37,.T.);
#449=EDGE_CURVE('',#361,#362,#38,.T.);
#450=EDGE_CURVE('',#360,#362,#39,.T.);
#451=EDGE_CURVE('',#356,#359,#306,.T.);
#452=EDGE_CURVE('',#358,#361,#307,.T.);
#453=EDGE_CURVE('',#362,#357,#308,.T.);
#454=EDGE_CURVE('',#363,#364,#40,.T.);
#455=EDGE_CURVE('',#365,#363,#41,.T.);
#456=EDGE_CURVE('',#365,#366,#42,.T.);
#457=EDGE_CURVE('',#364,#366,#43,.T.);
#458=EDGE_CURVE('',#367,#368,#44,.T.);
#459=EDGE_CURVE('',#367,#369,#45,.T.);
#460=EDGE_CURVE('',#369,#370,#46,.T.);
#461=EDGE_CURVE('',#368,#370,#47,.T.);
#462=EDGE_CURVE('',#364,#367,#309,.T.);
#463=EDGE_CURVE('',#366,#369,#310,.T.);
#464=EDGE_CURVE('',#371,#365,#311,.T.);
#465=EDGE_CURVE('',#370,#371,#312,.T.);
#466=EDGE_CURVE('',#372,#347,#313,.T.);
#467=EDGE_CURVE('',#373,#372,#48,.T.);
#468=EDGE_CURVE('',#374,#373,#314,.T.);
#469=EDGE_CURVE('',#374,#375,#49,.T.);
#470=EDGE_CURVE('',#360,#375,#315,.T.);
#471=EDGE_CURVE('',#376,#355,#316,.T.);
#472=EDGE_CURVE('',#377,#376,#50,.T.);
#473=EDGE_CURVE('',#378,#377,#317,.T.);
#474=EDGE_CURVE('',#378,#379,#51,.T.);
#475=EDGE_CURVE('',#368,#379,#318,.T.);
#476=EDGE_CURVE('',#371,#380,#52,.T.);
#477=EDGE_CURVE('',#380,#380,#319,.T.);
#478=EDGE_CURVE('',#381,#363,#320,.T.);
#479=EDGE_CURVE('',#382,#381,#53,.T.);
#480=EDGE_CURVE('',#383,#382,#321,.T.);
#481=EDGE_CURVE('',#383,#384,#54,.T.);
#482=EDGE_CURVE('',#385,#384,#322,.T.);
#483=EDGE_CURVE('',#385,#386,#55,.T.);
#484=EDGE_CURVE('',#386,#387,#323,.T.);
#485=EDGE_CURVE('',#387,#388,#56,.T.);
#486=EDGE_CURVE('',#389,#388,#324,.T.);
#487=EDGE_CURVE('',#390,#389,#57,.T.);
#488=EDGE_CURVE('',#391,#390,#325,.T.);
#489=EDGE_CURVE('',#391,#392,#58,.T.);
#490=EDGE_CURVE('',#352,#392,#326,.T.);
#491=EDGE_CURVE('',#388,#393,#59,.T.);
#492=EDGE_CURVE('',#387,#394,#60,.T.);
#493=EDGE_CURVE('',#393,#394,#61,.T.);
#494=EDGE_CURVE('',#395,#385,#62,.T.);
#495=EDGE_CURVE('',#395,#396,#63,.T.);
#496=EDGE_CURVE('',#396,#386,#64,.T.);
#497=EDGE_CURVE('',#393,#395,#327,.T.);
#498=EDGE_CURVE('',#394,#396,#328,.T.);
#499=EDGE_CURVE('',#397,#398,#65,.T.);
#500=EDGE_CURVE('',#382,#397,#66,.T.);
#501=EDGE_CURVE('',#398,#381,#67,.T.);
#502=EDGE_CURVE('',#399,#400,#68,.T.);
#503=EDGE_CURVE('',#392,#399,#69,.T.);
#504=EDGE_CURVE('',#400,#391,#70,.T.);
#505=EDGE_CURVE('',#401,#402,#71,.T.);
#506=EDGE_CURVE('',#373,#401,#72,.T.);
#507=EDGE_CURVE('',#402,#372,#73,.T.);
#508=EDGE_CURVE('',#403,#404,#74,.T.);
#509=EDGE_CURVE('',#377,#403,#75,.T.);
#510=EDGE_CURVE('',#404,#376,#76,.T.);
#511=EDGE_CURVE('',#375,#402,#77,.T.);
#512=EDGE_CURVE('',#401,#374,#78,.T.);
#513=EDGE_CURVE('',#379,#404,#79,.T.);
#514=EDGE_CURVE('',#403,#378,#80,.T.);
#515=EDGE_CURVE('',#397,#383,#81,.T.);
#516=EDGE_CURVE('',#384,#398,#82,.T.);
#517=EDGE_CURVE('',#390,#400,#83,.T.);
#518=EDGE_CURVE('',#399,#389,#84,.T.);
#519=ORIENTED_EDGE('',*,*,#405,.F.);
#520=ORIENTED_EDGE('',*,*,#406,.T.);
#521=ORIENTED_EDGE('',*,*,#407,.F.);
#522=ORIENTED_EDGE('',*,*,#408,.T.);
#523=ORIENTED_EDGE('',*,*,#405,.T.);
#524=ORIENTED_EDGE('',*,*,#408,.F.);
#525=ORIENTED_EDGE('',*,*,#406,.F.);
#526=ORIENTED_EDGE('',*,*,#409,.T.);
#527=ORIENTED_EDGE('',*,*,#410,.F.);
#528=ORIENTED_EDGE('',*,*,#409,.F.);
#529=ORIENTED_EDGE('',*,*,#411,.F.);
#530=ORIENTED_EDGE('',*,*,#412,.T.);
#531=ORIENTED_EDGE('',*,*,#413,.F.);
#532=ORIENTED_EDGE('',*,*,#414,.T.);
#533=ORIENTED_EDGE('',*,*,#411,.T.);
#534=ORIENTED_EDGE('',*,*,#414,.F.);
#535=ORIENTED_EDGE('',*,*,#412,.F.);
#536=ORIENTED_EDGE('',*,*,#415,.T.);
#537=ORIENTED_EDGE('',*,*,#416,.F.);
#538=ORIENTED_EDGE('',*,*,#415,.F.);
#539=ORIENTED_EDGE('',*,*,#417,.F.);
#540=ORIENTED_EDGE('',*,*,#418,.T.);
#541=ORIENTED_EDGE('',*,*,#419,.F.);
#542=ORIENTED_EDGE('',*,*,#420,.T.);
#543=ORIENTED_EDGE('',*,*,#417,.T.);
#544=ORIENTED_EDGE('',*,*,#420,.F.);
#545=ORIENTED_EDGE('',*,*,#418,.F.);
#546=ORIENTED_EDGE('',*,*,#421,.T.);
#547=ORIENTED_EDGE('',*,*,#422,.F.);
#548=ORIENTED_EDGE('',*,*,#421,.F.);
#549=ORIENTED_EDGE('',*,*,#423,.F.);
#550=ORIENTED_EDGE('',*,*,#424,.T.);
#551=ORIENTED_EDGE('',*,*,#425,.F.);
#552=ORIENTED_EDGE('',*,*,#426,.T.);
#553=ORIENTED_EDGE('',*,*,#423,.T.);
#554=ORIENTED_EDGE('',*,*,#426,.F.);
#555=ORIENTED_EDGE('',*,*,#424,.F.);
#556=ORIENTED_EDGE('',*,*,#427,.T.);
#557=ORIENTED_EDGE('',*,*,#428,.F.);
#558=ORIENTED_EDGE('',*,*,#427,.F.);
#559=ORIENTED_EDGE('',*,*,#429,.F.);
#560=ORIENTED_EDGE('',*,*,#430,.T.);
#561=ORIENTED_EDGE('',*,*,#431,.F.);
#562=ORIENTED_EDGE('',*,*,#430,.F.);
#563=ORIENTED_EDGE('',*,*,#432,.F.);
#564=ORIENTED_EDGE('',*,*,#433,.F.);
#565=ORIENTED_EDGE('',*,*,#434,.T.);
#566=ORIENTED_EDGE('',*,*,#435,.F.);
#567=ORIENTED_EDGE('',*,*,#436,.F.);
#568=ORIENTED_EDGE('',*,*,#437,.T.);
#569=ORIENTED_EDGE('',*,*,#438,.T.);
#570=ORIENTED_EDGE('',*,*,#439,.F.);
#571=ORIENTED_EDGE('',*,*,#440,.F.);
#572=ORIENTED_EDGE('',*,*,#435,.T.);
#573=ORIENTED_EDGE('',*,*,#441,.T.);
#574=ORIENTED_EDGE('',*,*,#437,.F.);
#575=ORIENTED_EDGE('',*,*,#441,.F.);
#576=ORIENTED_EDGE('',*,*,#434,.F.);
#577=ORIENTED_EDGE('',*,*,#442,.F.);
#578=ORIENTED_EDGE('',*,*,#438,.F.);
#579=ORIENTED_EDGE('',*,*,#443,.F.);
#580=ORIENTED_EDGE('',*,*,#444,.F.);
#581=ORIENTED_EDGE('',*,*,#445,.T.);
#582=ORIENTED_EDGE('',*,*,#446,.F.);
#583=ORIENTED_EDGE('',*,*,#447,.F.);
#584=ORIENTED_EDGE('',*,*,#448,.T.);
#585=ORIENTED_EDGE('',*,*,#449,.T.);
#586=ORIENTED_EDGE('',*,*,#450,.F.);
#587=ORIENTED_EDGE('',*,*,#451,.F.);
#588=ORIENTED_EDGE('',*,*,#446,.T.);
#589=ORIENTED_EDGE('',*,*,#452,.T.);
#590=ORIENTED_EDGE('',*,*,#448,.F.);
#591=ORIENTED_EDGE('',*,*,#452,.F.);
#592=ORIENTED_EDGE('',*,*,#445,.F.);
#593=ORIENTED_EDGE('',*,*,#453,.F.);
#594=ORIENTED_EDGE('',*,*,#449,.F.);
#595=ORIENTED_EDGE('',*,*,#454,.F.);
#596=ORIENTED_EDGE('',*,*,#455,.F.);
#597=ORIENTED_EDGE('',*,*,#456,.T.);
#598=ORIENTED_EDGE('',*,*,#457,.F.);
#599=ORIENTED_EDGE('',*,*,#458,.F.);
#600=ORIENTED_EDGE('',*,*,#459,.T.);
#601=ORIENTED_EDGE('',*,*,#460,.T.);
#602=ORIENTED_EDGE('',*,*,#461,.F.);
#603=ORIENTED_EDGE('',*,*,#462,.F.);
#604=ORIENTED_EDGE('',*,*,#457,.T.);
#605=ORIENTED_EDGE('',*,*,#463,.T.);
#606=ORIENTED_EDGE('',*,*,#459,.F.);
#607=ORIENTED_EDGE('',*,*,#463,.F.);
#608=ORIENTED_EDGE('',*,*,#456,.F.);
#609=ORIENTED_EDGE('',*,*,#464,.F.);
#610=ORIENTED_EDGE('',*,*,#465,.F.);
#611=ORIENTED_EDGE('',*,*,#460,.F.);
#612=ORIENTED_EDGE('',*,*,#439,.T.);
#613=ORIENTED_EDGE('',*,*,#442,.T.);
#614=ORIENTED_EDGE('',*,*,#433,.T.);
#615=ORIENTED_EDGE('',*,*,#466,.F.);
#616=ORIENTED_EDGE('',*,*,#467,.F.);
#617=ORIENTED_EDGE('',*,*,#468,.F.);
#618=ORIENTED_EDGE('',*,*,#469,.T.);
#619=ORIENTED_EDGE('',*,*,#470,.F.);
#620=ORIENTED_EDGE('',*,*,#450,.T.);
#621=ORIENTED_EDGE('',*,*,#453,.T.);
#622=ORIENTED_EDGE('',*,*,#444,.T.);
#623=ORIENTED_EDGE('',*,*,#471,.F.);
#624=ORIENTED_EDGE('',*,*,#472,.F.);
#625=ORIENTED_EDGE('',*,*,#473,.F.);
#626=ORIENTED_EDGE('',*,*,#474,.T.);
#627=ORIENTED_EDGE('',*,*,#475,.F.);
#628=ORIENTED_EDGE('',*,*,#461,.T.);
#629=ORIENTED_EDGE('',*,*,#465,.T.);
#630=ORIENTED_EDGE('',*,*,#476,.T.);
#631=ORIENTED_EDGE('',*,*,#477,.T.);
#632=ORIENTED_EDGE('',*,*,#476,.F.);
#633=ORIENTED_EDGE('',*,*,#464,.T.);
#634=ORIENTED_EDGE('',*,*,#455,.T.);
#635=ORIENTED_EDGE('',*,*,#478,.F.);
#636=ORIENTED_EDGE('',*,*,#479,.F.);
#637=ORIENTED_EDGE('',*,*,#480,.F.);
#638=ORIENTED_EDGE('',*,*,#481,.T.);
#639=ORIENTED_EDGE('',*,*,#482,.F.);
#640=ORIENTED_EDGE('',*,*,#483,.T.);
#641=ORIENTED_EDGE('',*,*,#484,.T.);
#642=ORIENTED_EDGE('',*,*,#485,.T.);
#643=ORIENTED_EDGE('',*,*,#486,.F.);
#644=ORIENTED_EDGE('',*,*,#487,.F.);
#645=ORIENTED_EDGE('',*,*,#488,.F.);
#646=ORIENTED_EDGE('',*,*,#489,.T.);
#647=ORIENTED_EDGE('',*,*,#490,.F.);
#648=ORIENTED_EDGE('',*,*,#491,.F.);
#649=ORIENTED_EDGE('',*,*,#485,.F.);
#650=ORIENTED_EDGE('',*,*,#492,.T.);
#651=ORIENTED_EDGE('',*,*,#493,.F.);
#652=ORIENTED_EDGE('',*,*,#494,.F.);
#653=ORIENTED_EDGE('',*,*,#495,.T.);
#654=ORIENTED_EDGE('',*,*,#496,.T.);
#655=ORIENTED_EDGE('',*,*,#483,.F.);
#656=ORIENTED_EDGE('',*,*,#497,.F.);
#657=ORIENTED_EDGE('',*,*,#493,.T.);
#658=ORIENTED_EDGE('',*,*,#498,.T.);
#659=ORIENTED_EDGE('',*,*,#495,.F.);
#660=ORIENTED_EDGE('',*,*,#498,.F.);
#661=ORIENTED_EDGE('',*,*,#492,.F.);
#662=ORIENTED_EDGE('',*,*,#484,.F.);
#663=ORIENTED_EDGE('',*,*,#496,.F.);
#664=ORIENTED_EDGE('',*,*,#499,.F.);
#665=ORIENTED_EDGE('',*,*,#500,.F.);
#666=ORIENTED_EDGE('',*,*,#479,.T.);
#667=ORIENTED_EDGE('',*,*,#501,.F.);
#668=ORIENTED_EDGE('',*,*,#502,.F.);
#669=ORIENTED_EDGE('',*,*,#503,.F.);
#670=ORIENTED_EDGE('',*,*,#489,.F.);
#671=ORIENTED_EDGE('',*,*,#504,.F.);
#672=ORIENTED_EDGE('',*,*,#505,.F.);
#673=ORIENTED_EDGE('',*,*,#506,.F.);
#674=ORIENTED_EDGE('',*,*,#467,.T.);
#675=ORIENTED_EDGE('',*,*,#507,.F.);
#676=ORIENTED_EDGE('',*,*,#508,.F.);
#677=ORIENTED_EDGE('',*,*,#509,.F.);
#678=ORIENTED_EDGE('',*,*,#472,.T.);
#679=ORIENTED_EDGE('',*,*,#510,.F.);
#680=ORIENTED_EDGE('',*,*,#505,.T.);
#681=ORIENTED_EDGE('',*,*,#511,.F.);
#682=ORIENTED_EDGE('',*,*,#469,.F.);
#683=ORIENTED_EDGE('',*,*,#512,.F.);
#684=ORIENTED_EDGE('',*,*,#508,.T.);
#685=ORIENTED_EDGE('',*,*,#513,.F.);
#686=ORIENTED_EDGE('',*,*,#474,.F.);
#687=ORIENTED_EDGE('',*,*,#514,.F.);
#688=ORIENTED_EDGE('',*,*,#500,.T.);
#689=ORIENTED_EDGE('',*,*,#515,.T.);
#690=ORIENTED_EDGE('',*,*,#480,.T.);
#691=ORIENTED_EDGE('',*,*,#407,.T.);
#692=ORIENTED_EDGE('',*,*,#509,.T.);
#693=ORIENTED_EDGE('',*,*,#514,.T.);
#694=ORIENTED_EDGE('',*,*,#473,.T.);
#695=ORIENTED_EDGE('',*,*,#413,.T.);
#696=ORIENTED_EDGE('',*,*,#506,.T.);
#697=ORIENTED_EDGE('',*,*,#512,.T.);
#698=ORIENTED_EDGE('',*,*,#468,.T.);
#699=ORIENTED_EDGE('',*,*,#419,.T.);
#700=ORIENTED_EDGE('',*,*,#499,.T.);
#701=ORIENTED_EDGE('',*,*,#516,.F.);
#702=ORIENTED_EDGE('',*,*,#481,.F.);
#703=ORIENTED_EDGE('',*,*,#515,.F.);
#704=ORIENTED_EDGE('',*,*,#502,.T.);
#705=ORIENTED_EDGE('',*,*,#517,.F.);
#706=ORIENTED_EDGE('',*,*,#487,.T.);
#707=ORIENTED_EDGE('',*,*,#518,.F.);
#708=ORIENTED_EDGE('',*,*,#436,.T.);
#709=ORIENTED_EDGE('',*,*,#490,.T.);
#710=ORIENTED_EDGE('',*,*,#503,.T.);
#711=ORIENTED_EDGE('',*,*,#518,.T.);
#712=ORIENTED_EDGE('',*,*,#486,.T.);
#713=ORIENTED_EDGE('',*,*,#491,.T.);
#714=ORIENTED_EDGE('',*,*,#497,.T.);
#715=ORIENTED_EDGE('',*,*,#494,.T.);
#716=ORIENTED_EDGE('',*,*,#482,.T.);
#717=ORIENTED_EDGE('',*,*,#516,.T.);
#718=ORIENTED_EDGE('',*,*,#501,.T.);
#719=ORIENTED_EDGE('',*,*,#478,.T.);
#720=ORIENTED_EDGE('',*,*,#454,.T.);
#721=ORIENTED_EDGE('',*,*,#462,.T.);
#722=ORIENTED_EDGE('',*,*,#458,.T.);
#723=ORIENTED_EDGE('',*,*,#475,.T.);
#724=ORIENTED_EDGE('',*,*,#513,.T.);
#725=ORIENTED_EDGE('',*,*,#510,.T.);
#726=ORIENTED_EDGE('',*,*,#471,.T.);
#727=ORIENTED_EDGE('',*,*,#443,.T.);
#728=ORIENTED_EDGE('',*,*,#451,.T.);
#729=ORIENTED_EDGE('',*,*,#447,.T.);
#730=ORIENTED_EDGE('',*,*,#470,.T.);
#731=ORIENTED_EDGE('',*,*,#511,.T.);
#732=ORIENTED_EDGE('',*,*,#507,.T.);
#733=ORIENTED_EDGE('',*,*,#466,.T.);
#734=ORIENTED_EDGE('',*,*,#432,.T.);
#735=ORIENTED_EDGE('',*,*,#440,.T.);
#736=ORIENTED_EDGE('',*,*,#429,.T.);
#737=ORIENTED_EDGE('',*,*,#504,.T.);
#738=ORIENTED_EDGE('',*,*,#488,.T.);
#739=ORIENTED_EDGE('',*,*,#517,.T.);
#740=ORIENTED_EDGE('',*,*,#425,.T.);
#741=ORIENTED_EDGE('',*,*,#477,.F.);
#742=ORIENTED_EDGE('',*,*,#410,.T.);
#743=ORIENTED_EDGE('',*,*,#416,.T.);
#744=ORIENTED_EDGE('',*,*,#422,.T.);
#745=ORIENTED_EDGE('',*,*,#428,.T.);
#746=ORIENTED_EDGE('',*,*,#431,.T.);
#747=PLANE('',#835);
#748=PLANE('',#842);
#749=PLANE('',#849);
#750=PLANE('',#856);
#751=PLANE('',#866);
#752=PLANE('',#867);
#753=PLANE('',#871);
#754=PLANE('',#873);
#755=PLANE('',#874);
#756=PLANE('',#878);
#757=PLANE('',#880);
#758=PLANE('',#881);
#759=PLANE('',#885);
#760=PLANE('',#903);
#761=PLANE('',#904);
#762=PLANE('',#908);
#763=PLANE('',#909);
#764=PLANE('',#910);
#765=PLANE('',#911);
#766=PLANE('',#912);
#767=PLANE('',#913);
#768=PLANE('',#914);
#769=PLANE('',#915);
#770=PLANE('',#916);
#771=PLANE('',#917);
#772=PLANE('',#918);
#773=PLANE('',#919);
#774=PLANE('',#920);
#775=PLANE('',#921);
#776=PLANE('',#922);
#777=ADVANCED_FACE('',(#183,#169),#747,.F.);
#778=ADVANCED_FACE('',(#184),#155,.F.);
#779=ADVANCED_FACE('',(#185),#156,.F.);
#780=ADVANCED_FACE('',(#186,#170),#748,.F.);
#781=ADVANCED_FACE('',(#187),#157,.F.);
#782=ADVANCED_FACE('',(#188),#158,.F.);
#783=ADVANCED_FACE('',(#189,#171),#749,.F.);
#784=ADVANCED_FACE('',(#190),#159,.F.);
#785=ADVANCED_FACE('',(#191),#160,.F.);
#786=ADVANCED_FACE('',(#192,#172),#750,.F.);
#787=ADVANCED_FACE('',(#193),#161,.F.);
#788=ADVANCED_FACE('',(#194),#162,.F.);
#789=ADVANCED_FACE('',(#195),#163,.F.);
#790=ADVANCED_FACE('',(#196),#751,.F.);
#791=ADVANCED_FACE('',(#197),#752,.F.);
#792=ADVANCED_FACE('',(#198),#164,.T.);
#793=ADVANCED_FACE('',(#199),#753,.T.);
#794=ADVANCED_FACE('',(#200),#754,.F.);
#795=ADVANCED_FACE('',(#201),#755,.F.);
#796=ADVANCED_FACE('',(#202),#165,.T.);
#797=ADVANCED_FACE('',(#203),#756,.T.);
#798=ADVANCED_FACE('',(#204),#757,.F.);
#799=ADVANCED_FACE('',(#205),#758,.F.);
#800=ADVANCED_FACE('',(#206),#166,.T.);
#801=ADVANCED_FACE('',(#207),#759,.T.);
#802=ADVANCED_FACE('',(#208),#167,.T.);
#803=ADVANCED_FACE('',(#209),#760,.F.);
#804=ADVANCED_FACE('',(#210),#761,.F.);
#805=ADVANCED_FACE('',(#211),#168,.T.);
#806=ADVANCED_FACE('',(#212),#762,.T.);
#807=ADVANCED_FACE('',(#213),#763,.T.);
#808=ADVANCED_FACE('',(#214),#764,.T.);
#809=ADVANCED_FACE('',(#215),#765,.T.);
#810=ADVANCED_FACE('',(#216),#766,.T.);
#811=ADVANCED_FACE('',(#217),#767,.T.);
#812=ADVANCED_FACE('',(#218),#768,.T.);
#813=ADVANCED_FACE('',(#219,#173),#769,.T.);
#814=ADVANCED_FACE('',(#220,#174),#770,.T.);
#815=ADVANCED_FACE('',(#221,#175),#771,.T.);
#816=ADVANCED_FACE('',(#222),#772,.T.);
#817=ADVANCED_FACE('',(#223),#773,.T.);
#818=ADVANCED_FACE('',(#224,#176),#774,.T.);
#819=ADVANCED_FACE('',(#225,#177),#775,.T.);
#820=ADVANCED_FACE('',(#226,#178,#179,#180,#181,#182),#776,.F.);
#821=CLOSED_SHELL('',(#777,#778,#779,#780,#781,#782,#783,#784,#785,#786,
#787,#788,#789,#790,#791,#792,#793,#794,#795,#796,#797,#798,#799,#800,#801,
#802,#803,#804,#805,#806,#807,#808,#809,#810,#811,#812,#813,#814,#815,#816,
#817,#818,#819,#820));
#822=DERIVED_UNIT_ELEMENT(#824,1.);
#823=DERIVED_UNIT_ELEMENT(#1411,-3.);
#824=(
MASS_UNIT()
NAMED_UNIT(*)
SI_UNIT(.KILO.,.GRAM.)
);
#825=DERIVED_UNIT((#822,#823));
#826=MEASURE_REPRESENTATION_ITEM('density measure',
POSITIVE_RATIO_MEASURE(7850.),#825);
#827=PROPERTY_DEFINITION_REPRESENTATION(#832,#829);
#828=PROPERTY_DEFINITION_REPRESENTATION(#833,#830);
#829=REPRESENTATION('material name',(#831),#1408);
#830=REPRESENTATION('density',(#826),#1408);
#831=DESCRIPTIVE_REPRESENTATION_ITEM('Steel','Steel');
#832=PROPERTY_DEFINITION('material property','material name',#1418);
#833=PROPERTY_DEFINITION('material property','density of part',#1418);
#834=AXIS2_PLACEMENT_3D('',#1171,#923,#924);
#835=AXIS2_PLACEMENT_3D('',#1172,#925,#926);
#836=AXIS2_PLACEMENT_3D('',#1174,#927,#928);
#837=AXIS2_PLACEMENT_3D('',#1176,#929,#930);
#838=AXIS2_PLACEMENT_3D('',#1177,#931,#932);
#839=AXIS2_PLACEMENT_3D('',#1179,#933,#934);
#840=AXIS2_PLACEMENT_3D('',#1181,#936,#937);
#841=AXIS2_PLACEMENT_3D('',#1184,#939,#940);
#842=AXIS2_PLACEMENT_3D('',#1185,#941,#942);
#843=AXIS2_PLACEMENT_3D('',#1187,#943,#944);
#844=AXIS2_PLACEMENT_3D('',#1189,#945,#946);
#845=AXIS2_PLACEMENT_3D('',#1190,#947,#948);
#846=AXIS2_PLACEMENT_3D('',#1192,#949,#950);
#847=AXIS2_PLACEMENT_3D('',#1194,#952,#953);
#848=AXIS2_PLACEMENT_3D('',#1197,#955,#956);
#849=AXIS2_PLACEMENT_3D('',#1198,#957,#958);
#850=AXIS2_PLACEMENT_3D('',#1200,#959,#960);
#851=AXIS2_PLACEMENT_3D('',#1202,#961,#962);
#852=AXIS2_PLACEMENT_3D('',#1203,#963,#964);
#853=AXIS2_PLACEMENT_3D('',#1205,#965,#966);
#854=AXIS2_PLACEMENT_3D('',#1207,#968,#969);
#855=AXIS2_PLACEMENT_3D('',#1210,#971,#972);
#856=AXIS2_PLACEMENT_3D('',#1211,#973,#974);
#857=AXIS2_PLACEMENT_3D('',#1213,#975,#976);
#858=AXIS2_PLACEMENT_3D('',#1215,#977,#978);
#859=AXIS2_PLACEMENT_3D('',#1216,#979,#980);
#860=AXIS2_PLACEMENT_3D('',#1218,#981,#982);
#861=AXIS2_PLACEMENT_3D('',#1220,#984,#985);
#862=AXIS2_PLACEMENT_3D('',#1223,#987,#988);
#863=AXIS2_PLACEMENT_3D('',#1224,#989,#990);
#864=AXIS2_PLACEMENT_3D('',#1226,#991,#992);
#865=AXIS2_PLACEMENT_3D('',#1229,#994,#995);
#866=AXIS2_PLACEMENT_3D('',#1230,#996,#997);
#867=AXIS2_PLACEMENT_3D('',#1239,#1002,#1003);
#868=AXIS2_PLACEMENT_3D('',#1248,#1008,#1009);
#869=AXIS2_PLACEMENT_3D('',#1249,#1010,#1011);
#870=AXIS2_PLACEMENT_3D('',#1250,#1012,#1013);
#871=AXIS2_PLACEMENT_3D('',#1251,#1014,#1015);
#872=AXIS2_PLACEMENT_3D('',#1252,#1016,#1017);
#873=AXIS2_PLACEMENT_3D('',#1253,#1018,#1019);
#874=AXIS2_PLACEMENT_3D('',#1262,#1024,#1025);
#875=AXIS2_PLACEMENT_3D('',#1271,#1030,#1031);
#876=AXIS2_PLACEMENT_3D('',#1272,#1032,#1033);
#877=AXIS2_PLACEMENT_3D('',#1273,#1034,#1035);
#878=AXIS2_PLACEMENT_3D('',#1274,#1036,#1037);
#879=AXIS2_PLACEMENT_3D('',#1275,#1038,#1039);
#880=AXIS2_PLACEMENT_3D('',#1276,#1040,#1041);
#881=AXIS2_PLACEMENT_3D('',#1285,#1046,#1047);
#882=AXIS2_PLACEMENT_3D('',#1294,#1052,#1053);
#883=AXIS2_PLACEMENT_3D('',#1295,#1054,#1055);
#884=AXIS2_PLACEMENT_3D('',#1296,#1056,#1057);
#885=AXIS2_PLACEMENT_3D('',#1297,#1058,#1059);
#886=AXIS2_PLACEMENT_3D('',#1299,#1060,#1061);
#887=AXIS2_PLACEMENT_3D('',#1300,#1062,#1063);
#888=AXIS2_PLACEMENT_3D('',#1301,#1064,#1065);
#889=AXIS2_PLACEMENT_3D('',#1303,#1066,#1067);
#890=AXIS2_PLACEMENT_3D('',#1307,#1069,#1070);
#891=AXIS2_PLACEMENT_3D('',#1310,#1072,#1073);
#892=AXIS2_PLACEMENT_3D('',#1312,#1074,#1075);
#893=AXIS2_PLACEMENT_3D('',#1316,#1077,#1078);
#894=AXIS2_PLACEMENT_3D('',#1319,#1080,#1081);
#895=AXIS2_PLACEMENT_3D('',#1322,#1083,#1084);
#896=AXIS2_PLACEMENT_3D('',#1324,#1085,#1086);
#897=AXIS2_PLACEMENT_3D('',#1328,#1088,#1089);
#898=AXIS2_PLACEMENT_3D('',#1332,#1091,#1092);
#899=AXIS2_PLACEMENT_3D('',#1336,#1094,#1095);
#900=AXIS2_PLACEMENT_3D('',#1340,#1097,#1098);
#901=AXIS2_PLACEMENT_3D('',#1344,#1100,#1101);
#902=AXIS2_PLACEMENT_3D('',#1347,#1103,#1104);
#903=AXIS2_PLACEMENT_3D('',#1348,#1105,#1106);
#904=AXIS2_PLACEMENT_3D('',#1354,#1110,#1111);
#905=AXIS2_PLACEMENT_3D('',#1360,#1115,#1116);
#906=AXIS2_PLACEMENT_3D('',#1361,#1117,#1118);
#907=AXIS2_PLACEMENT_3D('',#1362,#1119,#1120);
#908=AXIS2_PLACEMENT_3D('',#1363,#1121,#1122);
#909=AXIS2_PLACEMENT_3D('',#1364,#1123,#1124);
#910=AXIS2_PLACEMENT_3D('',#1370,#1128,#1129);
#911=AXIS2_PLACEMENT_3D('',#1376,#1133,#1134);
#912=AXIS2_PLACEMENT_3D('',#1382,#1138,#1139);
#913=AXIS2_PLACEMENT_3D('',#1388,#1143,#1144);
#914=AXIS2_PLACEMENT_3D('',#1391,#1147,#1148);
#915=AXIS2_PLACEMENT_3D('',#1394,#1151,#1152);
#916=AXIS2_PLACEMENT_3D('',#1396,#1154,#1155);
#917=AXIS2_PLACEMENT_3D('',#1397,#1156,#1157);
#918=AXIS2_PLACEMENT_3D('',#1398,#1158,#1159);
#919=AXIS2_PLACEMENT_3D('',#1400,#1161,#1162);
#920=AXIS2_PLACEMENT_3D('',#1403,#1165,#1166);
#921=AXIS2_PLACEMENT_3D('',#1404,#1167,#1168);
#922=AXIS2_PLACEMENT_3D('',#1405,#1169,#1170);
#923=DIRECTION('axis',(0.,0.,1.));
#924=DIRECTION('refdir',(1.,0.,0.));
#925=DIRECTION('center_axis',(-1.,0.,0.));
#926=DIRECTION('ref_axis',(0.,-1.83697019872103E-16,1.));
#927=DIRECTION('center_axis',(-1.,0.,0.));
#928=DIRECTION('ref_axis',(0.,-1.83697019872103E-16,1.));
#929=DIRECTION('center_axis',(-1.,0.,0.));
#930=DIRECTION('ref_axis',(0.,-1.83697019872103E-16,1.));
#931=DIRECTION('center_axis',(-1.,0.,0.));
#932=DIRECTION('ref_axis',(0.,-1.83697019872103E-16,1.));
#933=DIRECTION('center_axis',(-1.,0.,0.));
#934=DIRECTION('ref_axis',(0.,-1.83697019872103E-16,1.));
#935=DIRECTION('',(-1.,0.,0.));
#936=DIRECTION('center_axis',(-1.,0.,0.));
#937=DIRECTION('ref_axis',(0.,-1.83697019872103E-16,1.));
#938=DIRECTION('',(-1.,0.,0.));
#939=DIRECTION('center_axis',(1.,0.,0.));
#940=DIRECTION('ref_axis',(0.,-1.83697019872103E-16,1.));
#941=DIRECTION('center_axis',(-1.,0.,0.));
#942=DIRECTION('ref_axis',(0.,-1.,-1.22464679914735E-16));
#943=DIRECTION('center_axis',(-1.,0.,0.));
#944=DIRECTION('ref_axis',(0.,-1.,-1.22464679914735E-16));
#945=DIRECTION('center_axis',(-1.,0.,0.));
#946=DIRECTION('ref_axis',(0.,-1.,-1.22464679914735E-16));
#947=DIRECTION('center_axis',(-1.,0.,0.));
#948=DIRECTION('ref_axis',(0.,-1.,-1.22464679914735E-16));
#949=DIRECTION('center_axis',(-1.,0.,0.));
#950=DIRECTION('ref_axis',(0.,-1.,-1.22464679914735E-16));
#951=DIRECTION('',(-1.,0.,0.));
#952=DIRECTION('center_axis',(-1.,0.,0.));
#953=DIRECTION('ref_axis',(0.,-1.,-1.22464679914735E-16));
#954=DIRECTION('',(-1.,0.,0.));
#955=DIRECTION('center_axis',(1.,0.,0.));
#956=DIRECTION('ref_axis',(0.,-1.,-1.22464679914735E-16));
#957=DIRECTION('center_axis',(-1.,0.,0.));
#958=DIRECTION('ref_axis',(0.,6.12323399573677E-17,-1.));
#959=DIRECTION('center_axis',(-1.,0.,0.));
#960=DIRECTION('ref_axis',(0.,6.12323399573677E-17,-1.));
#961=DIRECTION('center_axis',(-1.,0.,0.));
#962=DIRECTION('ref_axis',(0.,6.12323399573676E-17,-1.));
#963=DIRECTION('center_axis',(-1.,0.,0.));
#964=DIRECTION('ref_axis',(0.,6.12323399573677E-17,-1.));
#965=DIRECTION('center_axis',(-1.,0.,0.));
#966=DIRECTION('ref_axis',(0.,6.12323399573677E-17,-1.));
#967=DIRECTION('',(-1.,0.,0.));
#968=DIRECTION('center_axis',(-1.,0.,0.));
#969=DIRECTION('ref_axis',(0.,6.12323399573676E-17,-1.));
#970=DIRECTION('',(-1.,0.,0.));
#971=DIRECTION('center_axis',(1.,0.,0.));
#972=DIRECTION('ref_axis',(0.,6.12323399573676E-17,-1.));
#973=DIRECTION('center_axis',(-1.,0.,0.));
#974=DIRECTION('ref_axis',(0.,1.,0.));
#975=DIRECTION('center_axis',(-1.,0.,0.));
#976=DIRECTION('ref_axis',(0.,1.,0.));
#977=DIRECTION('center_axis',(-1.,0.,0.));
#978=DIRECTION('ref_axis',(0.,1.,0.));
#979=DIRECTION('center_axis',(-1.,0.,0.));
#980=DIRECTION('ref_axis',(0.,1.,0.));
#981=DIRECTION('center_axis',(-1.,0.,0.));
#982=DIRECTION('ref_axis',(0.,1.,0.));
#983=DIRECTION('',(-1.,0.,0.));
#984=DIRECTION('center_axis',(-1.,0.,0.));
#985=DIRECTION('ref_axis',(0.,1.,0.));
#986=DIRECTION('',(-1.,0.,0.));
#987=DIRECTION('center_axis',(1.,0.,0.));
#988=DIRECTION('ref_axis',(0.,1.,0.));
#989=DIRECTION('center_axis',(-1.,0.,0.));
#990=DIRECTION('ref_axis',(0.,1.,0.));
#991=DIRECTION('center_axis',(-1.,0.,0.));
#992=DIRECTION('ref_axis',(0.,1.,0.));
#993=DIRECTION('',(-1.,0.,0.));
#994=DIRECTION('center_axis',(1.,0.,0.));
#995=DIRECTION('ref_axis',(0.,1.,0.));
#996=DIRECTION('center_axis',(0.,2.08942830300209E-16,-1.));
#997=DIRECTION('ref_axis',(0.,-1.,-2.08942830300209E-16));
#998=DIRECTION('',(0.,-1.,-2.08942830300209E-16));
#999=DIRECTION('',(1.,0.,0.));
#1000=DIRECTION('',(0.,-1.,-2.08942830300209E-16));
#1001=DIRECTION('',(-1.,0.,0.));
#1002=DIRECTION('center_axis',(0.,-8.03194311058306E-17,1.));
#1003=DIRECTION('ref_axis',(0.,1.,8.03194311058306E-17));
#1004=DIRECTION('',(0.,1.,8.03194311058306E-17));
#1005=DIRECTION('',(-1.,0.,0.));
#1006=DIRECTION('',(0.,1.,8.03194311058306E-17));
#1007=DIRECTION('',(-1.,0.,0.));
#1008=DIRECTION('center_axis',(-1.,0.,0.));
#1009=DIRECTION('ref_axis',(0.,-1.83697019872103E-16,-1.));
#1010=DIRECTION('center_axis',(1.,0.,0.));
#1011=DIRECTION('ref_axis',(0.,-1.83697019872103E-16,-1.));
#1012=DIRECTION('center_axis',(1.,0.,0.));
#1013=DIRECTION('ref_axis',(0.,-1.83697019872103E-16,-1.));
#1014=DIRECTION('center_axis',(1.,0.,0.));
#1015=DIRECTION('ref_axis',(0.,-1.83697019872103E-16,-1.));
#1016=DIRECTION('center_axis',(-1.,0.,0.));
#1017=DIRECTION('ref_axis',(0.,1.,0.));
#1018=DIRECTION('center_axis',(0.,-1.,-2.70175170257576E-16));
#1019=DIRECTION('ref_axis',(0.,-2.70175170257576E-16,1.));
#1020=DIRECTION('',(0.,-2.70175170257576E-16,1.));
#1021=DIRECTION('',(1.,0.,0.));
#1022=DIRECTION('',(0.,-2.70175170257576E-16,1.));
#1023=DIRECTION('',(-1.,0.,0.));
#1024=DIRECTION('center_axis',(0.,1.,1.41551771063198E-16));
#1025=DIRECTION('ref_axis',(0.,1.41551771063198E-16,-1.));
#1026=DIRECTION('',(0.,1.41551771063198E-16,-1.));
#1027=DIRECTION('',(-1.,0.,0.));
#1028=DIRECTION('',(0.,1.41551771063198E-16,-1.));
#1029=DIRECTION('',(-1.,0.,0.));
#1030=DIRECTION('center_axis',(-1.,0.,0.));
#1031=DIRECTION('ref_axis',(0.,-1.,1.22464679914735E-16));
#1032=DIRECTION('center_axis',(1.,0.,0.));
#1033=DIRECTION('ref_axis',(0.,-1.,1.22464679914735E-16));
#1034=DIRECTION('center_axis',(1.,0.,0.));
#1035=DIRECTION('ref_axis',(0.,-1.,1.22464679914735E-16));
#1036=DIRECTION('center_axis',(1.,0.,0.));
#1037=DIRECTION('ref_axis',(0.,-1.,1.22464679914735E-16));
#1038=DIRECTION('center_axis',(-1.,0.,0.));
#1039=DIRECTION('ref_axis',(0.,1.,0.));
#1040=DIRECTION('center_axis',(0.,-3.31407510214944E-16,1.));
#1041=DIRECTION('ref_axis',(0.,1.,3.31407510214944E-16));
#1042=DIRECTION('',(0.,1.,3.31407510214944E-16));
#1043=DIRECTION('',(1.,0.,0.));
#1044=DIRECTION('',(0.,1.,3.31407510214944E-16));
#1045=DIRECTION('',(-1.,0.,0.));
#1046=DIRECTION('center_axis',(0.,2.02784111020566E-16,-1.));
#1047=DIRECTION('ref_axis',(0.,-1.,-2.02784111020566E-16));
#1048=DIRECTION('',(0.,-1.,-2.02784111020566E-16));
#1049=DIRECTION('',(-1.,0.,0.));
#1050=DIRECTION('',(0.,-1.,-2.02784111020566E-16));
#1051=DIRECTION('',(-1.,0.,0.));
#1052=DIRECTION('center_axis',(-1.,0.,0.));
#1053=DIRECTION('ref_axis',(0.,6.12323399573677E-17,1.));
#1054=DIRECTION('center_axis',(1.,0.,0.));
#1055=DIRECTION('ref_axis',(0.,6.12323399573677E-17,1.));
#1056=DIRECTION('center_axis',(1.,0.,0.));
#1057=DIRECTION('ref_axis',(0.,6.12323399573677E-17,1.));
#1058=DIRECTION('center_axis',(1.,0.,0.));
#1059=DIRECTION('ref_axis',(0.,6.12323399573677E-17,1.));
#1060=DIRECTION('center_axis',(-1.,0.,0.));
#1061=DIRECTION('ref_axis',(0.,1.,0.));
#1062=DIRECTION('center_axis',(-1.,0.,0.));
#1063=DIRECTION('ref_axis',(0.,1.,0.));
#1064=DIRECTION('center_axis',(1.,0.,0.));
#1065=DIRECTION('ref_axis',(0.,1.,0.));
#1066=DIRECTION('center_axis',(1.,0.,0.));
#1067=DIRECTION('ref_axis',(0.,-1.83697019872103E-16,-1.));
#1068=DIRECTION('',(1.,0.,0.));
#1069=DIRECTION('center_axis',(1.,0.,0.));
#1070=DIRECTION('ref_axis',(0.,1.,0.));
#1071=DIRECTION('',(1.,0.,0.));
#1072=DIRECTION('center_axis',(1.,0.,0.));
#1073=DIRECTION('ref_axis',(0.,-1.,1.22464679914735E-16));
#1074=DIRECTION('center_axis',(1.,0.,0.));
#1075=DIRECTION('ref_axis',(0.,-1.,1.22464679914735E-16));
#1076=DIRECTION('',(1.,0.,0.));
#1077=DIRECTION('center_axis',(1.,0.,0.));
#1078=DIRECTION('ref_axis',(0.,1.,0.));
#1079=DIRECTION('',(1.,0.,0.));
#1080=DIRECTION('center_axis',(1.,0.,0.));
#1081=DIRECTION('ref_axis',(0.,6.12323399573676E-17,1.));
#1082=DIRECTION('',(-1.,0.,0.));
#1083=DIRECTION('center_axis',(1.,0.,0.));
#1084=DIRECTION('ref_axis',(0.,1.,0.));
#1085=DIRECTION('center_axis',(1.,0.,0.));
#1086=DIRECTION('ref_axis',(0.,6.12323399573676E-17,1.));
#1087=DIRECTION('',(1.,0.,0.));
#1088=DIRECTION('center_axis',(1.,0.,0.));
#1089=DIRECTION('ref_axis',(0.,1.,0.));
#1090=DIRECTION('',(1.,0.,0.));
#1091=DIRECTION('center_axis',(1.,0.,0.));
#1092=DIRECTION('ref_axis',(0.,1.,0.));
#1093=DIRECTION('',(-1.,0.,0.));
#1094=DIRECTION('center_axis',(-1.,0.,0.));
#1095=DIRECTION('ref_axis',(0.,1.,0.));
#1096=DIRECTION('',(1.,0.,0.));
#1097=DIRECTION('center_axis',(1.,0.,0.));
#1098=DIRECTION('ref_axis',(0.,1.,0.));
#1099=DIRECTION('',(1.,0.,0.));
#1100=DIRECTION('center_axis',(1.,0.,0.));
#1101=DIRECTION('ref_axis',(0.,1.,0.));
#1102=DIRECTION('',(1.,0.,0.));
#1103=DIRECTION('center_axis',(1.,0.,0.));
#1104=DIRECTION('ref_axis',(0.,-1.83697019872103E-16,-1.));
#1105=DIRECTION('center_axis',(0.,1.,3.92639850172312E-16));
#1106=DIRECTION('ref_axis',(0.,3.92639850172312E-16,-1.));
#1107=DIRECTION('',(0.,3.92639850172312E-16,-1.));
#1108=DIRECTION('',(0.,3.92639850172312E-16,-1.));
#1109=DIRECTION('',(-1.,0.,0.));
#1110=DIRECTION('center_axis',(0.,-1.,-2.64016450977934E-16));
#1111=DIRECTION('ref_axis',(0.,-2.64016450977934E-16,1.));
#1112=DIRECTION('',(0.,-2.64016450977934E-16,1.));
#1113=DIRECTION('',(-1.,0.,0.));
#1114=DIRECTION('',(0.,-2.64016450977934E-16,1.));
#1115=DIRECTION('center_axis',(-1.,0.,0.));
#1116=DIRECTION('ref_axis',(0.,1.,0.));
#1117=DIRECTION('center_axis',(1.,0.,0.));
#1118=DIRECTION('ref_axis',(0.,1.,0.));
#1119=DIRECTION('center_axis',(1.,0.,0.));
#1120=DIRECTION('ref_axis',(0.,1.,0.));
#1121=DIRECTION('center_axis',(1.,0.,0.));
#1122=DIRECTION('ref_axis',(0.,1.,0.));
#1123=DIRECTION('center_axis',(0.,6.04560522879053E-15,1.));
#1124=DIRECTION('ref_axis',(0.,-1.,6.04560522879053E-15));
#1125=DIRECTION('',(1.,0.,0.));
#1126=DIRECTION('',(0.,1.,-6.04560522879053E-15));
#1127=DIRECTION('',(0.,-1.,2.10775630228814E-16));
#1128=DIRECTION('center_axis',(0.,6.04560522879053E-15,1.));
#1129=DIRECTION('ref_axis',(0.,-1.,6.04560522879053E-15));
#1130=DIRECTION('',(-1.,0.,0.));
#1131=DIRECTION('',(0.,-1.,2.10775630228814E-16));
#1132=DIRECTION('',(0.,1.,-6.04560522879053E-15));
#1133=DIRECTION('center_axis',(0.,-6.16806990870526E-15,-1.));
#1134=DIRECTION('ref_axis',(0.,1.,-6.16806990870526E-15));
#1135=DIRECTION('',(1.,0.,0.));
#1136=DIRECTION('',(0.,-1.,6.16806990870526E-15));
#1137=DIRECTION('',(0.,1.,-6.16806990870526E-15));
#1138=DIRECTION('center_axis',(0.,-1.,6.10683756874789E-15));
#1139=DIRECTION('ref_axis',(0.,-6.10683756874789E-15,-1.));
#1140=DIRECTION('',(1.,0.,0.));
#1141=DIRECTION('',(0.,6.10683756874789E-15,1.));
#1142=DIRECTION('',(0.,-6.10683756874789E-15,-1.));
#1143=DIRECTION('center_axis',(0.,1.,-1.49543290271446E-16));
#1144=DIRECTION('ref_axis',(0.,1.49543290271446E-16,1.));
#1145=DIRECTION('',(0.,1.49543290271446E-16,1.));
#1146=DIRECTION('',(0.,-1.49543290271446E-16,-1.));
#1147=DIRECTION('center_axis',(0.,-8.83109503140788E-17,-1.));
#1148=DIRECTION('ref_axis',(0.,1.,-8.83109503140788E-17));
#1149=DIRECTION('',(0.,1.,-8.83109503140788E-17));
#1150=DIRECTION('',(0.,-1.,8.83109503140788E-17));
#1151=DIRECTION('center_axis',(1.,0.,0.));
#1152=DIRECTION('ref_axis',(0.,1.,0.));
#1153=DIRECTION('',(0.,2.70786103567111E-17,1.));
#1154=DIRECTION('center_axis',(1.,0.,0.));
#1155=DIRECTION('ref_axis',(0.,1.,0.));
#1156=DIRECTION('center_axis',(1.,0.,0.));
#1157=DIRECTION('ref_axis',(0.,1.,0.));
#1158=DIRECTION('center_axis',(0.,-1.,2.70786103567111E-17));
#1159=DIRECTION('ref_axis',(0.,-2.70786103567111E-17,-1.));
#1160=DIRECTION('',(0.,-2.70786103567111E-17,-1.));
#1161=DIRECTION('center_axis',(0.,1.,-5.98437288883316E-15));
#1162=DIRECTION('ref_axis',(0.,5.98437288883316E-15,1.));
#1163=DIRECTION('',(0.,-5.98437288883316E-15,-1.));
#1164=DIRECTION('',(0.,5.98437288883316E-15,1.));
#1165=DIRECTION('center_axis',(1.,0.,0.));
#1166=DIRECTION('ref_axis',(0.,1.,0.));
#1167=DIRECTION('center_axis',(1.,0.,0.));
#1168=DIRECTION('ref_axis',(0.,1.,0.));
#1169=DIRECTION('center_axis',(1.,0.,0.));
#1170=DIRECTION('ref_axis',(0.,1.,0.));
#1171=CARTESIAN_POINT('',(0.,0.,0.));
#1172=CARTESIAN_POINT('Origin',(5.5,-23.3345237791561,23.3345237791561));
#1173=CARTESIAN_POINT('',(5.5,-23.3345237791561,18.3345237791561));
#1174=CARTESIAN_POINT('Origin',(5.5,-23.3345237791561,23.3345237791561));
#1175=CARTESIAN_POINT('',(5.5,-23.3345237791561,19.5845237791561));
#1176=CARTESIAN_POINT('Origin',(5.5,-23.3345237791561,23.3345237791561));
#1177=CARTESIAN_POINT('Origin',(6.5,-23.3345237791561,23.3345237791561));
#1178=CARTESIAN_POINT('',(7.5,-23.3345237791561,18.3345237791561));
#1179=CARTESIAN_POINT('Origin',(7.5,-23.3345237791561,23.3345237791561));
#1180=CARTESIAN_POINT('',(6.5,-23.3345237791561,18.3345237791561));
#1181=CARTESIAN_POINT('Origin',(3.375,-23.3345237791561,23.3345237791561));
#1182=CARTESIAN_POINT('',(0.,-23.3345237791561,19.5845237791561));
#1183=CARTESIAN_POINT('',(3.375,-23.3345237791561,19.5845237791561));
#1184=CARTESIAN_POINT('Origin',(0.,-23.3345237791561,23.3345237791561));
#1185=CARTESIAN_POINT('Origin',(5.5,-23.3345237791561,-23.3345237791561));
#1186=CARTESIAN_POINT('',(5.5,-18.3345237791561,-23.3345237791561));
#1187=CARTESIAN_POINT('Origin',(5.5,-23.3345237791561,-23.3345237791561));
#1188=CARTESIAN_POINT('',(5.5,-19.5845237791561,-23.3345237791561));
#1189=CARTESIAN_POINT('Origin',(5.5,-23.3345237791561,-23.3345237791561));
#1190=CARTESIAN_POINT('Origin',(6.5,-23.3345237791561,-23.3345237791561));
#1191=CARTESIAN_POINT('',(7.5,-18.3345237791561,-23.3345237791561));
#1192=CARTESIAN_POINT('Origin',(7.5,-23.3345237791561,-23.3345237791561));
#1193=CARTESIAN_POINT('',(6.5,-18.3345237791561,-23.3345237791561));
#1194=CARTESIAN_POINT('Origin',(3.375,-23.3345237791561,-23.3345237791561));
#1195=CARTESIAN_POINT('',(0.,-19.5845237791561,-23.3345237791561));
#1196=CARTESIAN_POINT('',(3.375,-19.5845237791561,-23.3345237791561));
#1197=CARTESIAN_POINT('Origin',(0.,-23.3345237791561,-23.3345237791561));
#1198=CARTESIAN_POINT('Origin',(5.5,23.3345237791561,-23.3345237791561));
#1199=CARTESIAN_POINT('',(5.5,23.3345237791561,-18.3345237791561));
#1200=CARTESIAN_POINT('Origin',(5.5,23.3345237791561,-23.3345237791561));
#1201=CARTESIAN_POINT('',(5.5,23.3345237791561,-19.5845237791561));
#1202=CARTESIAN_POINT('Origin',(5.5,23.3345237791561,-23.3345237791561));
#1203=CARTESIAN_POINT('Origin',(6.5,23.3345237791561,-23.3345237791561));
#1204=CARTESIAN_POINT('',(7.5,23.3345237791561,-18.3345237791561));
#1205=CARTESIAN_POINT('Origin',(7.5,23.3345237791561,-23.3345237791561));
#1206=CARTESIAN_POINT('',(6.5,23.3345237791561,-18.3345237791561));
#1207=CARTESIAN_POINT('Origin',(3.375,23.3345237791561,-23.3345237791561));
#1208=CARTESIAN_POINT('',(0.,23.3345237791561,-19.5845237791561));
#1209=CARTESIAN_POINT('',(3.375,23.3345237791561,-19.5845237791561));
#1210=CARTESIAN_POINT('Origin',(0.,23.3345237791561,-23.3345237791561));
#1211=CARTESIAN_POINT('Origin',(5.5,23.3345237791561,23.3345237791561));
#1212=CARTESIAN_POINT('',(5.5,18.3345237791561,23.3345237791561));
#1213=CARTESIAN_POINT('Origin',(5.5,23.3345237791561,23.3345237791561));
#1214=CARTESIAN_POINT('',(5.5,19.5845237791561,23.3345237791561));
#1215=CARTESIAN_POINT('Origin',(5.5,23.3345237791561,23.3345237791561));
#1216=CARTESIAN_POINT('Origin',(6.5,23.3345237791561,23.3345237791561));
#1217=CARTESIAN_POINT('',(7.5,18.3345237791561,23.3345237791561));
#1218=CARTESIAN_POINT('Origin',(7.5,23.3345237791561,23.3345237791561));
#1219=CARTESIAN_POINT('',(6.5,18.3345237791561,23.3345237791561));
#1220=CARTESIAN_POINT('Origin',(3.375,23.3345237791561,23.3345237791561));
#1221=CARTESIAN_POINT('',(0.,19.5845237791561,23.3345237791561));
#1222=CARTESIAN_POINT('',(3.375,19.5845237791561,23.3345237791561));
#1223=CARTESIAN_POINT('Origin',(0.,23.3345237791561,23.3345237791561));
#1224=CARTESIAN_POINT('Origin',(27.5,0.,0.));
#1225=CARTESIAN_POINT('',(27.5,-9.,-1.10218211923262E-15));
#1226=CARTESIAN_POINT('Origin',(27.5,0.,0.));
#1227=CARTESIAN_POINT('',(0.,-9.,-1.10218211923262E-15));
#1228=CARTESIAN_POINT('',(27.5,-9.,1.10218211923262E-15));
#1229=CARTESIAN_POINT('Origin',(0.,0.,0.));
#1230=CARTESIAN_POINT('Origin',(27.5,40.6939798987516,-5.00000000000002));
#1231=CARTESIAN_POINT('',(27.5,40.6939798987516,-5.00000000000002));
#1232=CARTESIAN_POINT('',(27.5,12.,-5.00000000000003));
#1233=CARTESIAN_POINT('',(27.5,20.3469899493758,-5.00000000000003));
#1234=CARTESIAN_POINT('',(7.5,40.6939798987516,-5.00000000000002));
#1235=CARTESIAN_POINT('',(0.,40.6939798987516,-5.00000000000002));
#1236=CARTESIAN_POINT('',(7.5,12.,-5.00000000000003));
#1237=CARTESIAN_POINT('',(7.5,81.9999999999999,-5.00000000000001));
#1238=CARTESIAN_POINT('',(27.5,12.,-5.00000000000003));
#1239=CARTESIAN_POINT('Origin',(27.5,12.,4.99999999999998));
#1240=CARTESIAN_POINT('',(27.5,12.,4.99999999999998));
#1241=CARTESIAN_POINT('',(27.5,40.6939798987516,4.99999999999998));
#1242=CARTESIAN_POINT('',(27.5,6.,4.99999999999998));
#1243=CARTESIAN_POINT('',(7.5,12.,4.99999999999998));
#1244=CARTESIAN_POINT('',(27.5,12.,4.99999999999998));
#1245=CARTESIAN_POINT('',(7.5,40.6939798987516,4.99999999999998));
#1246=CARTESIAN_POINT('',(7.5,-1.18985601560156E-13,4.99999999999998));
#1247=CARTESIAN_POINT('',(0.,40.6939798987516,4.99999999999998));
#1248=CARTESIAN_POINT('Origin',(27.5,0.,0.));
#1249=CARTESIAN_POINT('Origin',(27.5,0.,0.));
#1250=CARTESIAN_POINT('Origin',(7.5,0.,0.));
#1251=CARTESIAN_POINT('Origin',(7.5,14.,-2.57175827820944E-15));
#1252=CARTESIAN_POINT('Origin',(7.5,0.,0.));
#1253=CARTESIAN_POINT('Origin',(27.5,-5.00000000000002,-40.6939798987516));
#1254=CARTESIAN_POINT('',(27.5,-5.00000000000002,-40.6939798987516));
#1255=CARTESIAN_POINT('',(27.5,-5.00000000000003,-12.));
#1256=CARTESIAN_POINT('',(27.5,-5.00000000000003,-20.3469899493758));
#1257=CARTESIAN_POINT('',(7.5,-5.00000000000002,-40.6939798987516));
#1258=CARTESIAN_POINT('',(0.,-5.00000000000002,-40.6939798987516));
#1259=CARTESIAN_POINT('',(7.5,-5.00000000000003,-12.));
#1260=CARTESIAN_POINT('',(7.5,-5.00000000000001,-81.9999999999999));
#1261=CARTESIAN_POINT('',(27.5,-5.00000000000003,-12.));
#1262=CARTESIAN_POINT('Origin',(27.5,4.99999999999998,-12.));
#1263=CARTESIAN_POINT('',(27.5,4.99999999999998,-12.));
#1264=CARTESIAN_POINT('',(27.5,4.99999999999999,-40.6939798987516));
#1265=CARTESIAN_POINT('',(27.5,4.99999999999998,-6.));
#1266=CARTESIAN_POINT('',(7.5,4.99999999999998,-12.));
#1267=CARTESIAN_POINT('',(27.5,4.99999999999998,-12.));
#1268=CARTESIAN_POINT('',(7.5,4.99999999999999,-40.6939798987516));
#1269=CARTESIAN_POINT('',(7.5,4.99999999999998,1.19291763259943E-13));
#1270=CARTESIAN_POINT('',(0.,4.99999999999999,-40.6939798987516));
#1271=CARTESIAN_POINT('Origin',(27.5,0.,0.));
#1272=CARTESIAN_POINT('Origin',(27.5,0.,0.));
#1273=CARTESIAN_POINT('Origin',(7.5,0.,0.));
#1274=CARTESIAN_POINT('Origin',(7.5,-1.7145055188063E-15,-14.));
#1275=CARTESIAN_POINT('Origin',(7.5,0.,0.));
#1276=CARTESIAN_POINT('Origin',(27.5,-40.6939798987516,5.00000000000002));
#1277=CARTESIAN_POINT('',(27.5,-40.6939798987516,5.00000000000002));
#1278=CARTESIAN_POINT('',(27.5,-12.,5.00000000000003));
#1279=CARTESIAN_POINT('',(27.5,-20.3469899493758,5.00000000000002));
#1280=CARTESIAN_POINT('',(7.5,-40.6939798987516,5.00000000000002));
#1281=CARTESIAN_POINT('',(0.,-40.6939798987516,5.00000000000002));
#1282=CARTESIAN_POINT('',(7.5,-12.,5.00000000000003));
#1283=CARTESIAN_POINT('',(7.5,-81.9999999999999,5.));
#1284=CARTESIAN_POINT('',(27.5,-12.,5.00000000000003));
#1285=CARTESIAN_POINT('Origin',(27.5,-12.,-4.99999999999998));
#1286=CARTESIAN_POINT('',(27.5,-12.,-4.99999999999998));
#1287=CARTESIAN_POINT('',(27.5,-40.6939798987516,-4.99999999999999));
#1288=CARTESIAN_POINT('',(27.5,-6.,-4.99999999999998));
#1289=CARTESIAN_POINT('',(7.5,-12.,-4.99999999999998));
#1290=CARTESIAN_POINT('',(27.5,-12.,-4.99999999999998));
#1291=CARTESIAN_POINT('',(7.5,-40.6939798987516,-4.99999999999999));
#1292=CARTESIAN_POINT('',(7.5,1.1959792495973E-13,-4.99999999999998));
#1293=CARTESIAN_POINT('',(0.,-40.6939798987516,-4.99999999999999));
#1294=CARTESIAN_POINT('Origin',(27.5,0.,0.));
#1295=CARTESIAN_POINT('Origin',(27.5,0.,0.));
#1296=CARTESIAN_POINT('Origin',(7.5,0.,0.));
#1297=CARTESIAN_POINT('Origin',(7.5,-14.,8.57252759403148E-16));
#1298=CARTESIAN_POINT('',(7.5,-41.,-5.02105187650415E-15));
#1299=CARTESIAN_POINT('Origin',(7.5,0.,0.));
#1300=CARTESIAN_POINT('Origin',(7.5,0.,0.));
#1301=CARTESIAN_POINT('Origin',(0.,0.,0.));
#1302=CARTESIAN_POINT('',(27.5,39.496835316263,-11.0000000000001));
#1303=CARTESIAN_POINT('Origin',(27.5,0.,0.));
#1304=CARTESIAN_POINT('',(7.5,39.496835316263,-11.0000000000001));
#1305=CARTESIAN_POINT('',(7.5,39.496835316263,-11.0000000000001));
#1306=CARTESIAN_POINT('',(7.5,11.0000000000001,-39.496835316263));
#1307=CARTESIAN_POINT('Origin',(7.5,0.,0.));
#1308=CARTESIAN_POINT('',(27.5,11.0000000000001,-39.496835316263));
#1309=CARTESIAN_POINT('',(7.5,11.0000000000001,-39.496835316263));
#1310=CARTESIAN_POINT('Origin',(27.5,0.,0.));
#1311=CARTESIAN_POINT('',(27.5,-11.0000000000001,-39.496835316263));
#1312=CARTESIAN_POINT('Origin',(27.5,0.,0.));
#1313=CARTESIAN_POINT('',(7.5,-11.0000000000001,-39.496835316263));
#1314=CARTESIAN_POINT('',(7.5,-11.0000000000001,-39.496835316263));
#1315=CARTESIAN_POINT('',(7.5,-39.496835316263,-11.0000000000001));
#1316=CARTESIAN_POINT('Origin',(7.5,0.,0.));
#1317=CARTESIAN_POINT('',(27.5,-39.496835316263,-11.0000000000001));
#1318=CARTESIAN_POINT('',(7.5,-39.496835316263,-11.0000000000001));
#1319=CARTESIAN_POINT('Origin',(27.5,0.,0.));
#1320=CARTESIAN_POINT('',(0.,-41.,-5.02105187650415E-15));
#1321=CARTESIAN_POINT('',(0.,-41.,-5.02105187650415E-15));
#1322=CARTESIAN_POINT('Origin',(0.,0.,0.));
#1323=CARTESIAN_POINT('',(27.5,-39.496835316263,11.0000000000001));
#1324=CARTESIAN_POINT('Origin',(27.5,0.,0.));
#1325=CARTESIAN_POINT('',(7.5,-39.496835316263,11.0000000000001));
#1326=CARTESIAN_POINT('',(7.5,-39.496835316263,11.0000000000001));
#1327=CARTESIAN_POINT('',(7.5,-11.0000000000001,39.496835316263));
#1328=CARTESIAN_POINT('Origin',(7.5,0.,0.));
#1329=CARTESIAN_POINT('',(27.5,-11.0000000000001,39.496835316263));
#1330=CARTESIAN_POINT('',(7.5,-11.0000000000001,39.496835316263));
#1331=CARTESIAN_POINT('',(27.5,-4.99999999999999,40.6939798987516));
#1332=CARTESIAN_POINT('Origin',(27.5,0.,0.));
#1333=CARTESIAN_POINT('',(7.5,-4.99999999999999,40.6939798987516));
#1334=CARTESIAN_POINT('',(0.,-4.99999999999999,40.6939798987516));
#1335=CARTESIAN_POINT('',(7.5,5.00000000000002,40.6939798987516));
#1336=CARTESIAN_POINT('Origin',(7.5,0.,0.));
#1337=CARTESIAN_POINT('',(27.5,5.00000000000002,40.6939798987516));
#1338=CARTESIAN_POINT('',(0.,5.00000000000002,40.6939798987516));
#1339=CARTESIAN_POINT('',(27.5,11.0000000000001,39.496835316263));
#1340=CARTESIAN_POINT('Origin',(27.5,0.,0.));
#1341=CARTESIAN_POINT('',(7.5,11.0000000000001,39.496835316263));
#1342=CARTESIAN_POINT('',(7.5,11.0000000000001,39.496835316263));
#1343=CARTESIAN_POINT('',(7.5,39.496835316263,11.0000000000001));
#1344=CARTESIAN_POINT('Origin',(7.5,0.,0.));
#1345=CARTESIAN_POINT('',(27.5,39.496835316263,11.0000000000001));
#1346=CARTESIAN_POINT('',(7.5,39.496835316263,11.0000000000001));
#1347=CARTESIAN_POINT('Origin',(27.5,0.,0.));
#1348=CARTESIAN_POINT('Origin',(27.5,5.00000000000002,40.6939798987516));
#1349=CARTESIAN_POINT('',(27.5,5.00000000000003,12.));
#1350=CARTESIAN_POINT('',(27.5,5.00000000000002,20.3469899493758));
#1351=CARTESIAN_POINT('',(7.5,5.00000000000003,12.));
#1352=CARTESIAN_POINT('',(7.5,5.,81.9999999999999));
#1353=CARTESIAN_POINT('',(27.5,5.00000000000003,12.));
#1354=CARTESIAN_POINT('Origin',(27.5,-4.99999999999998,12.));
#1355=CARTESIAN_POINT('',(27.5,-4.99999999999998,12.));
#1356=CARTESIAN_POINT('',(27.5,-4.99999999999998,6.));
#1357=CARTESIAN_POINT('',(7.5,-4.99999999999998,12.));
#1358=CARTESIAN_POINT('',(27.5,-4.99999999999998,12.));
#1359=CARTESIAN_POINT('',(7.5,-4.99999999999998,-1.19904086659517E-13));
#1360=CARTESIAN_POINT('Origin',(27.5,0.,0.));
#1361=CARTESIAN_POINT('Origin',(27.5,0.,0.));
#1362=CARTESIAN_POINT('Origin',(7.5,0.,0.));
#1363=CARTESIAN_POINT('Origin',(7.5,0.,14.));
#1364=CARTESIAN_POINT('Origin',(7.5,-4.09222878325269E-13,10.9999999999999));
#1365=CARTESIAN_POINT('',(7.5,-11.0000000000001,10.9999999999999));
#1366=CARTESIAN_POINT('',(27.5,-11.0000000000001,11.0000000000001));
#1367=CARTESIAN_POINT('',(7.5,-11.0000000000001,10.9999999999999));
#1368=CARTESIAN_POINT('',(7.5,-1.71360610404287E-13,10.9999999999999));
#1369=CARTESIAN_POINT('',(27.5,82.0000000000005,11.0000000000001));
#1370=CARTESIAN_POINT('Origin',(7.5,-4.09222878325269E-13,10.9999999999999));
#1371=CARTESIAN_POINT('',(27.5,10.9999999999999,11.0000000000001));
#1372=CARTESIAN_POINT('',(7.5,10.9999999999999,10.9999999999998));
#1373=CARTESIAN_POINT('',(7.5,10.9999999999999,10.9999999999998));
#1374=CARTESIAN_POINT('',(27.5,82.0000000000005,11.0000000000001));
#1375=CARTESIAN_POINT('',(7.5,-1.71360610404287E-13,10.9999999999999));
#1376=CARTESIAN_POINT('Origin',(7.5,4.07875766846207E-13,-10.9999999999999));
#1377=CARTESIAN_POINT('',(7.5,11.0000000000001,-10.9999999999999));
#1378=CARTESIAN_POINT('',(27.5,11.0000000000001,-10.9999999999999));
#1379=CARTESIAN_POINT('',(7.5,11.0000000000001,-10.9999999999999));
#1380=CARTESIAN_POINT('',(7.5,1.70013498925225E-13,-10.9999999999999));
#1381=CARTESIAN_POINT('',(27.5,4.07875766846207E-13,-10.9999999999999));
#1382=CARTESIAN_POINT('Origin',(7.5,-10.9999999999999,-4.08549322585738E-13));
#1383=CARTESIAN_POINT('',(7.5,-10.9999999999999,-11.0000000000001));
#1384=CARTESIAN_POINT('',(27.5,-10.9999999999999,-11.0000000000001));
#1385=CARTESIAN_POINT('',(7.5,-10.9999999999999,-11.0000000000001));
#1386=CARTESIAN_POINT('',(7.5,-10.9999999999999,-1.70687054664756E-13));
#1387=CARTESIAN_POINT('',(27.5,-10.9999999999999,-4.08549322585738E-13));
#1388=CARTESIAN_POINT('Origin',(7.5,11.0000000000001,-39.496835316263));
#1389=CARTESIAN_POINT('',(27.5,11.0000000000001,-82.0000000000005));
#1390=CARTESIAN_POINT('',(7.5,11.0000000000001,-19.7484176581315));
#1391=CARTESIAN_POINT('Origin',(7.5,-39.496835316263,-11.0000000000001));
#1392=CARTESIAN_POINT('',(27.5,-82.0000000000005,-11.0000000000001));
#1393=CARTESIAN_POINT('',(7.5,-19.7484176581315,-11.0000000000001));
#1394=CARTESIAN_POINT('Origin',(7.5,0.,0.));
#1395=CARTESIAN_POINT('',(7.5,-11.0000000000001,19.7484176581315));
#1396=CARTESIAN_POINT('Origin',(7.5,0.,0.));
#1397=CARTESIAN_POINT('Origin',(7.5,0.,0.));
#1398=CARTESIAN_POINT('Origin',(7.5,-11.0000000000001,39.496835316263));
#1399=CARTESIAN_POINT('',(27.5,-11.0000000000001,82.0000000000005));
#1400=CARTESIAN_POINT('Origin',(7.5,10.9999999999999,4.098964340648E-13));
#1401=CARTESIAN_POINT('',(7.5,10.9999999999999,1.72034166143818E-13));
#1402=CARTESIAN_POINT('',(27.5,10.9999999999999,4.098964340648E-13));
#1403=CARTESIAN_POINT('Origin',(27.5,0.,0.));
#1404=CARTESIAN_POINT('Origin',(7.5,0.,0.));
#1405=CARTESIAN_POINT('Origin',(0.,0.,0.));
#1406=UNCERTAINTY_MEASURE_WITH_UNIT(LENGTH_MEASURE(0.01),#1410,
'DISTANCE_ACCURACY_VALUE',
'Maximum model space distance between geometric entities at asserted c
onnectivities');
#1407=UNCERTAINTY_MEASURE_WITH_UNIT(LENGTH_MEASURE(0.01),#1410,
'DISTANCE_ACCURACY_VALUE',
'Maximum model space distance between geometric entities at asserted c
onnectivities');
#1408=(
GEOMETRIC_REPRESENTATION_CONTEXT(3)
GLOBAL_UNCERTAINTY_ASSIGNED_CONTEXT((#1406))
GLOBAL_UNIT_ASSIGNED_CONTEXT((#1410,#1412,#1413))
REPRESENTATION_CONTEXT('','3D')
);
#1409=(
GEOMETRIC_REPRESENTATION_CONTEXT(3)
GLOBAL_UNCERTAINTY_ASSIGNED_CONTEXT((#1407))
GLOBAL_UNIT_ASSIGNED_CONTEXT((#1410,#1412,#1413))
REPRESENTATION_CONTEXT('','3D')
);
#1410=(
LENGTH_UNIT()
NAMED_UNIT(*)
SI_UNIT(.MILLI.,.METRE.)
);
#1411=(
LENGTH_UNIT()
NAMED_UNIT(*)
SI_UNIT($,.METRE.)
);
#1412=(
NAMED_UNIT(*)
PLANE_ANGLE_UNIT()
SI_UNIT($,.RADIAN.)
);
#1413=(
NAMED_UNIT(*)
SI_UNIT($,.STERADIAN.)
SOLID_ANGLE_UNIT()
);
#1414=SHAPE_DEFINITION_REPRESENTATION(#1415,#1416);
#1415=PRODUCT_DEFINITION_SHAPE('',$,#1418);
#1416=SHAPE_REPRESENTATION('',(#834),#1408);
#1417=PRODUCT_DEFINITION_CONTEXT('part definition',#1422,'design');
#1418=PRODUCT_DEFINITION('2026-09-24-18-07-46-529','parametric_v2',#1419,
#1417);
#1419=PRODUCT_DEFINITION_FORMATION('',$,#1424);
#1420=PRODUCT_RELATED_PRODUCT_CATEGORY('parametric_v2','parametric_v2',
(#1424));
#1421=APPLICATION_PROTOCOL_DEFINITION('international standard',
'automotive_design',2009,#1422);
#1422=APPLICATION_CONTEXT(
'Core Data for Automotive Mechanical Design Process');
#1423=PRODUCT_CONTEXT('part definition',#1422,'mechanical');
#1424=PRODUCT('2026-09-24-18-07-46-529','parametric_v2',$,(#1423));
#1425=PRESENTATION_STYLE_ASSIGNMENT((#1426));
#1426=SURFACE_STYLE_USAGE(.BOTH.,#1427);
#1427=SURFACE_SIDE_STYLE('',(#1428));
#1428=SURFACE_STYLE_FILL_AREA(#1429);
#1429=FILL_AREA_STYLE('Steel - Satin',(#1430));
#1430=FILL_AREA_STYLE_COLOUR('Steel - Satin',#1431);
#1431=COLOUR_RGB('Steel - Satin',0.627450980392157,0.627450980392157,0.627450980392157);
ENDSEC;
END-ISO-10303-21;
